  0
SECTION
  2
BLOCKS
  0
ENDSEC
  0
SECTION
  2
ENTITIES
  0
LINE
  8
0
 10
17.9369
 20
-10.6614
 11
18.5451
 21
-10.5053
  0
LINE
  8
0
 10
18.5451
 20
-10.5053
 11
19.1289
 21
-10.2741
  0
LINE
  8
0
 10
19.1289
 20
-10.2741
 11
19.6791
 21
-9.97163
  0
LINE
  8
0
 10
19.6791
 20
-9.97163
 11
20.1871
 21
-9.60255
  0
LINE
  8
0
 10
20.1871
 20
-9.60255
 11
20.6448
 21
-9.17273
  0
LINE
  8
0
 10
20.6448
 20
-9.17273
 11
21.0451
 21
-8.68892
  0
LINE
  8
0
 10
21.0451
 20
-8.68892
 11
21.3815
 21
-8.15877
  0
LINE
  8
0
 10
21.3815
 20
-8.15877
 11
21.6489
 21
-7.59062
  0
LINE
  8
0
 10
21.6489
 20
-7.59062
 11
21.8429
 21
-6.99344
  0
LINE
  8
0
 10
21.8429
 20
-6.99344
 11
21.9606
 21
-6.37666
  0
LINE
  8
0
 10
21.9606
 20
-6.37666
 11
22
 21
-5.75
  0
LINE
  8
0
 10
22
 20
-5.75
 11
22
 21
5.75
  0
LINE
  8
0
 10
22
 20
5.75
 11
21.9606
 21
6.37666
  0
LINE
  8
0
 10
21.9606
 20
6.37666
 11
21.8429
 21
6.99344
  0
LINE
  8
0
 10
21.8429
 20
6.99344
 11
21.6489
 21
7.59062
  0
LINE
  8
0
 10
21.6489
 20
7.59062
 11
21.3815
 21
8.15877
  0
LINE
  8
0
 10
21.3815
 20
8.15877
 11
21.0451
 21
8.68892
  0
LINE
  8
0
 10
21.0451
 20
8.68892
 11
20.6448
 21
9.17273
  0
LINE
  8
0
 10
20.6448
 20
9.17273
 11
20.1871
 21
9.60255
  0
LINE
  8
0
 10
20.1871
 20
9.60255
 11
19.6791
 21
9.97163
  0
LINE
  8
0
 10
19.6791
 20
9.97163
 11
19.1289
 21
10.2741
  0
LINE
  8
0
 10
19.1289
 20
10.2741
 11
18.5451
 21
10.5053
  0
LINE
  8
0
 10
18.5451
 20
10.5053
 11
17.9369
 21
10.6614
  0
LINE
  8
0
 10
17.9369
 20
10.6614
 11
17.3139
 21
10.7401
  0
LINE
  8
0
 10
17.3139
 20
10.7401
 11
-17.3139
 21
10.7401
  0
LINE
  8
0
 10
-17.3139
 20
10.7401
 11
-17.9369
 21
10.6614
  0
LINE
  8
0
 10
-17.9369
 20
10.6614
 11
-18.5451
 21
10.5053
  0
LINE
  8
0
 10
-18.5451
 20
10.5053
 11
-19.1289
 21
10.2741
  0
LINE
  8
0
 10
-19.1289
 20
10.2741
 11
-19.6791
 21
9.97163
  0
LINE
  8
0
 10
-19.6791
 20
9.97163
 11
-20.1871
 21
9.60255
  0
LINE
  8
0
 10
-20.1871
 20
9.60255
 11
-20.6448
 21
9.17273
  0
LINE
  8
0
 10
-20.6448
 20
9.17273
 11
-21.0451
 21
8.68892
  0
LINE
  8
0
 10
-21.0451
 20
8.68892
 11
-21.3815
 21
8.15877
  0
LINE
  8
0
 10
-21.3815
 20
8.15877
 11
-21.6489
 21
7.59062
  0
LINE
  8
0
 10
-21.6489
 20
7.59062
 11
-21.8429
 21
6.99344
  0
LINE
  8
0
 10
-21.8429
 20
6.99344
 11
-21.9606
 21
6.37666
  0
LINE
  8
0
 10
-21.9606
 20
6.37666
 11
-22
 21
5.75
  0
LINE
  8
0
 10
-22
 20
5.75
 11
-22
 21
-5.75
  0
LINE
  8
0
 10
-22
 20
-5.75
 11
-21.9606
 21
-6.37666
  0
LINE
  8
0
 10
-21.9606
 20
-6.37666
 11
-21.8429
 21
-6.99344
  0
LINE
  8
0
 10
-21.8429
 20
-6.99344
 11
-21.6489
 21
-7.59062
  0
LINE
  8
0
 10
-21.6489
 20
-7.59062
 11
-21.3815
 21
-8.15877
  0
LINE
  8
0
 10
-21.3815
 20
-8.15877
 11
-21.0451
 21
-8.68892
  0
LINE
  8
0
 10
-21.0451
 20
-8.68892
 11
-20.6448
 21
-9.17273
  0
LINE
  8
0
 10
-20.6448
 20
-9.17273
 11
-20.1871
 21
-9.60255
  0
LINE
  8
0
 10
-20.1871
 20
-9.60255
 11
-19.6791
 21
-9.97163
  0
LINE
  8
0
 10
-19.6791
 20
-9.97163
 11
-19.1289
 21
-10.2741
  0
LINE
  8
0
 10
-19.1289
 20
-10.2741
 11
-18.5451
 21
-10.5053
  0
LINE
  8
0
 10
-18.5451
 20
-10.5053
 11
-17.9369
 21
-10.6614
  0
LINE
  8
0
 10
-17.9369
 20
-10.6614
 11
-17.3139
 21
-10.7401
  0
LINE
  8
0
 10
-17.3139
 20
-10.7401
 11
17.3139
 21
-10.7401
  0
LINE
  8
0
 10
17.3139
 20
-10.7401
 11
17.9369
 21
-10.6614
  0
LINE
  8
0
 10
-0.307663
 20
-4.89032
 11
-0.918167
 21
-4.8132
  0
LINE
  8
0
 10
-0.918167
 20
-4.8132
 11
-1.51418
 21
-4.66017
  0
LINE
  8
0
 10
-1.51418
 20
-4.66017
 11
-2.0863
 21
-4.43364
  0
LINE
  8
0
 10
-2.0863
 20
-4.43364
 11
-2.62555
 21
-4.13719
  0
LINE
  8
0
 10
-2.62555
 20
-4.13719
 11
-3.12337
 21
-3.77551
  0
LINE
  8
0
 10
-3.12337
 20
-3.77551
 11
-3.57195
 21
-3.35428
  0
LINE
  8
0
 10
-3.57195
 20
-3.35428
 11
-3.96417
 21
-2.88014
  0
LINE
  8
0
 10
-3.96417
 20
-2.88014
 11
-4.2939
 21
-2.36058
  0
LINE
  8
0
 10
-4.2939
 20
-2.36058
 11
-4.55589
 21
-1.8038
  0
LINE
  8
0
 10
-4.55589
 20
-1.8038
 11
-4.74605
 21
-1.21857
  0
LINE
  8
0
 10
-4.74605
 20
-1.21857
 11
-4.86136
 21
-0.61412
  0
LINE
  8
0
 10
-4.86136
 20
-0.61412
 11
-4.89999
 21
0
  0
LINE
  8
0
 10
-4.89999
 20
0
 11
-4.86136
 21
0.61412
  0
LINE
  8
0
 10
-4.86136
 20
0.61412
 11
-4.74605
 21
1.21857
  0
LINE
  8
0
 10
-4.74605
 20
1.21857
 11
-4.55589
 21
1.8038
  0
LINE
  8
0
 10
-4.55589
 20
1.8038
 11
-4.2939
 21
2.36058
  0
LINE
  8
0
 10
-4.2939
 20
2.36058
 11
-3.96417
 21
2.88014
  0
LINE
  8
0
 10
-3.96417
 20
2.88014
 11
-3.57195
 21
3.35428
  0
LINE
  8
0
 10
-3.57195
 20
3.35428
 11
-3.12337
 21
3.77551
  0
LINE
  8
0
 10
-3.12337
 20
3.77551
 11
-2.62555
 21
4.13719
  0
LINE
  8
0
 10
-2.62555
 20
4.13719
 11
-2.0863
 21
4.43364
  0
LINE
  8
0
 10
-2.0863
 20
4.43364
 11
-1.51418
 21
4.66017
  0
LINE
  8
0
 10
-1.51418
 20
4.66017
 11
-0.918167
 21
4.8132
  0
LINE
  8
0
 10
-0.918167
 20
4.8132
 11
-0.307663
 21
4.89032
  0
LINE
  8
0
 10
-0.307663
 20
4.89032
 11
0.307663
 21
4.89032
  0
LINE
  8
0
 10
0.307663
 20
4.89032
 11
0.918167
 21
4.8132
  0
LINE
  8
0
 10
0.918167
 20
4.8132
 11
1.51418
 21
4.66017
  0
LINE
  8
0
 10
1.51418
 20
4.66017
 11
2.0863
 21
4.43364
  0
LINE
  8
0
 10
2.0863
 20
4.43364
 11
2.62555
 21
4.13719
  0
LINE
  8
0
 10
2.62555
 20
4.13719
 11
3.12337
 21
3.77551
  0
LINE
  8
0
 10
3.12337
 20
3.77551
 11
3.57195
 21
3.35428
  0
LINE
  8
0
 10
3.57195
 20
3.35428
 11
3.96417
 21
2.88014
  0
LINE
  8
0
 10
3.96417
 20
2.88014
 11
4.2939
 21
2.36058
  0
LINE
  8
0
 10
4.2939
 20
2.36058
 11
4.55589
 21
1.8038
  0
LINE
  8
0
 10
4.55589
 20
1.8038
 11
4.74605
 21
1.21857
  0
LINE
  8
0
 10
4.74605
 20
1.21857
 11
4.86136
 21
0.61412
  0
LINE
  8
0
 10
4.86136
 20
0.61412
 11
4.89999
 21
0
  0
LINE
  8
0
 10
4.89999
 20
0
 11
4.86136
 21
-0.61412
  0
LINE
  8
0
 10
4.86136
 20
-0.61412
 11
4.74605
 21
-1.21857
  0
LINE
  8
0
 10
4.74605
 20
-1.21857
 11
4.55589
 21
-1.8038
  0
LINE
  8
0
 10
4.55589
 20
-1.8038
 11
4.2939
 21
-2.36058
  0
LINE
  8
0
 10
4.2939
 20
-2.36058
 11
3.96417
 21
-2.88014
  0
LINE
  8
0
 10
3.96417
 20
-2.88014
 11
3.57195
 21
-3.35428
  0
LINE
  8
0
 10
3.57195
 20
-3.35428
 11
3.12337
 21
-3.77551
  0
LINE
  8
0
 10
3.12337
 20
-3.77551
 11
2.62555
 21
-4.13719
  0
LINE
  8
0
 10
2.62555
 20
-4.13719
 11
2.0863
 21
-4.43364
  0
LINE
  8
0
 10
2.0863
 20
-4.43364
 11
1.51418
 21
-4.66017
  0
LINE
  8
0
 10
1.51418
 20
-4.66017
 11
0.918167
 21
-4.8132
  0
LINE
  8
0
 10
0.918167
 20
-4.8132
 11
0.307663
 21
-4.89032
  0
LINE
  8
0
 10
0.307663
 20
-4.89032
 11
-0.307663
 21
-4.89032
  0
LINE
  8
0
 10
-15.1884
 20
-2.99408
 11
-15.5621
 21
-2.94685
  0
LINE
  8
0
 10
-15.5621
 20
-2.94685
 11
-15.927
 21
-2.85316
  0
LINE
  8
0
 10
-15.927
 20
-2.85316
 11
-16.2773
 21
-2.71448
  0
LINE
  8
0
 10
-16.2773
 20
-2.71448
 11
-16.6075
 21
-2.53297
  0
LINE
  8
0
 10
-16.6075
 20
-2.53297
 11
-16.9123
 21
-2.31154
  0
LINE
  8
0
 10
-16.9123
 20
-2.31154
 11
-17.1869
 21
-2.05363
  0
LINE
  8
0
 10
-17.1869
 20
-2.05363
 11
-17.427
 21
-1.76335
  0
LINE
  8
0
 10
-17.427
 20
-1.76335
 11
-17.6289
 21
-1.44525
  0
LINE
  8
0
 10
-17.6289
 20
-1.44525
 11
-17.7893
 21
-1.10437
  0
LINE
  8
0
 10
-17.7893
 20
-1.10437
 11
-17.9057
 21
-0.746063
  0
LINE
  8
0
 10
-17.9057
 20
-0.746063
 11
-17.9763
 21
-0.375992
  0
LINE
  8
0
 10
-17.9763
 20
-0.375992
 11
-18
 21
0
  0
LINE
  8
0
 10
-18
 20
0
 11
-17.9763
 21
0.375992
  0
LINE
  8
0
 10
-17.9763
 20
0.375992
 11
-17.9057
 21
0.746063
  0
LINE
  8
0
 10
-17.9057
 20
0.746063
 11
-17.7893
 21
1.10437
  0
LINE
  8
0
 10
-17.7893
 20
1.10437
 11
-17.6289
 21
1.44525
  0
LINE
  8
0
 10
-17.6289
 20
1.44525
 11
-17.427
 21
1.76335
  0
LINE
  8
0
 10
-17.427
 20
1.76335
 11
-17.1869
 21
2.05363
  0
LINE
  8
0
 10
-17.1869
 20
2.05363
 11
-16.9123
 21
2.31154
  0
LINE
  8
0
 10
-16.9123
 20
2.31154
 11
-16.6075
 21
2.53297
  0
LINE
  8
0
 10
-16.6075
 20
2.53297
 11
-16.2773
 21
2.71448
  0
LINE
  8
0
 10
-16.2773
 20
2.71448
 11
-15.927
 21
2.85316
  0
LINE
  8
0
 10
-15.927
 20
2.85316
 11
-15.5621
 21
2.94685
  0
LINE
  8
0
 10
-15.5621
 20
2.94685
 11
-15.1884
 21
2.99408
  0
LINE
  8
0
 10
-15.1884
 20
2.99408
 11
-14.8116
 21
2.99408
  0
LINE
  8
0
 10
-14.8116
 20
2.99408
 11
-14.4379
 21
2.94685
  0
LINE
  8
0
 10
-14.4379
 20
2.94685
 11
-14.0729
 21
2.85316
  0
LINE
  8
0
 10
-14.0729
 20
2.85316
 11
-13.7227
 21
2.71448
  0
LINE
  8
0
 10
-13.7227
 20
2.71448
 11
-13.3925
 21
2.53297
  0
LINE
  8
0
 10
-13.3925
 20
2.53297
 11
-13.0877
 21
2.31154
  0
LINE
  8
0
 10
-13.0877
 20
2.31154
 11
-12.8131
 21
2.05363
  0
LINE
  8
0
 10
-12.8131
 20
2.05363
 11
-12.5729
 21
1.76335
  0
LINE
  8
0
 10
-12.5729
 20
1.76335
 11
-12.3711
 21
1.44525
  0
LINE
  8
0
 10
-12.3711
 20
1.44525
 11
-12.2107
 21
1.10437
  0
LINE
  8
0
 10
-12.2107
 20
1.10437
 11
-12.0942
 21
0.746063
  0
LINE
  8
0
 10
-12.0942
 20
0.746063
 11
-12.0237
 21
0.375992
  0
LINE
  8
0
 10
-12.0237
 20
0.375992
 11
-12
 21
0
  0
LINE
  8
0
 10
-12
 20
0
 11
-12.0237
 21
-0.375992
  0
LINE
  8
0
 10
-12.0237
 20
-0.375992
 11
-12.0942
 21
-0.746063
  0
LINE
  8
0
 10
-12.0942
 20
-0.746063
 11
-12.2107
 21
-1.10437
  0
LINE
  8
0
 10
-12.2107
 20
-1.10437
 11
-12.3711
 21
-1.44525
  0
LINE
  8
0
 10
-12.3711
 20
-1.44525
 11
-12.5729
 21
-1.76335
  0
LINE
  8
0
 10
-12.5729
 20
-1.76335
 11
-12.8131
 21
-2.05363
  0
LINE
  8
0
 10
-12.8131
 20
-2.05363
 11
-13.0877
 21
-2.31154
  0
LINE
  8
0
 10
-13.0877
 20
-2.31154
 11
-13.3925
 21
-2.53297
  0
LINE
  8
0
 10
-13.3925
 20
-2.53297
 11
-13.7227
 21
-2.71448
  0
LINE
  8
0
 10
-13.7227
 20
-2.71448
 11
-14.0729
 21
-2.85316
  0
LINE
  8
0
 10
-14.0729
 20
-2.85316
 11
-14.4379
 21
-2.94685
  0
LINE
  8
0
 10
-14.4379
 20
-2.94685
 11
-14.8116
 21
-2.99408
  0
LINE
  8
0
 10
-14.8116
 20
-2.99408
 11
-15.1884
 21
-2.99408
  0
LINE
  8
0
 10
14.8116
 20
-2.99408
 11
14.4379
 21
-2.94685
  0
LINE
  8
0
 10
14.4379
 20
-2.94685
 11
14.0729
 21
-2.85316
  0
LINE
  8
0
 10
14.0729
 20
-2.85316
 11
13.7227
 21
-2.71448
  0
LINE
  8
0
 10
13.7227
 20
-2.71448
 11
13.3925
 21
-2.53297
  0
LINE
  8
0
 10
13.3925
 20
-2.53297
 11
13.0877
 21
-2.31154
  0
LINE
  8
0
 10
13.0877
 20
-2.31154
 11
12.8131
 21
-2.05363
  0
LINE
  8
0
 10
12.8131
 20
-2.05363
 11
12.5729
 21
-1.76335
  0
LINE
  8
0
 10
12.5729
 20
-1.76335
 11
12.3711
 21
-1.44525
  0
LINE
  8
0
 10
12.3711
 20
-1.44525
 11
12.2107
 21
-1.10437
  0
LINE
  8
0
 10
12.2107
 20
-1.10437
 11
12.0942
 21
-0.746063
  0
LINE
  8
0
 10
12.0942
 20
-0.746063
 11
12.0237
 21
-0.375992
  0
LINE
  8
0
 10
12.0237
 20
-0.375992
 11
12
 21
0
  0
LINE
  8
0
 10
12
 20
0
 11
12.0237
 21
0.375992
  0
LINE
  8
0
 10
12.0237
 20
0.375992
 11
12.0942
 21
0.746063
  0
LINE
  8
0
 10
12.0942
 20
0.746063
 11
12.2107
 21
1.10437
  0
LINE
  8
0
 10
12.2107
 20
1.10437
 11
12.3711
 21
1.44525
  0
LINE
  8
0
 10
12.3711
 20
1.44525
 11
12.5729
 21
1.76335
  0
LINE
  8
0
 10
12.5729
 20
1.76335
 11
12.8131
 21
2.05363
  0
LINE
  8
0
 10
12.8131
 20
2.05363
 11
13.0877
 21
2.31154
  0
LINE
  8
0
 10
13.0877
 20
2.31154
 11
13.3925
 21
2.53297
  0
LINE
  8
0
 10
13.3925
 20
2.53297
 11
13.7227
 21
2.71448
  0
LINE
  8
0
 10
13.7227
 20
2.71448
 11
14.0729
 21
2.85316
  0
LINE
  8
0
 10
14.0729
 20
2.85316
 11
14.4379
 21
2.94685
  0
LINE
  8
0
 10
14.4379
 20
2.94685
 11
14.8116
 21
2.99408
  0
LINE
  8
0
 10
14.8116
 20
2.99408
 11
15.1884
 21
2.99408
  0
LINE
  8
0
 10
15.1884
 20
2.99408
 11
15.5621
 21
2.94685
  0
LINE
  8
0
 10
15.5621
 20
2.94685
 11
15.927
 21
2.85316
  0
LINE
  8
0
 10
15.927
 20
2.85316
 11
16.2773
 21
2.71448
  0
LINE
  8
0
 10
16.2773
 20
2.71448
 11
16.6075
 21
2.53297
  0
LINE
  8
0
 10
16.6075
 20
2.53297
 11
16.9123
 21
2.31154
  0
LINE
  8
0
 10
16.9123
 20
2.31154
 11
17.1869
 21
2.05363
  0
LINE
  8
0
 10
17.1869
 20
2.05363
 11
17.427
 21
1.76335
  0
LINE
  8
0
 10
17.427
 20
1.76335
 11
17.6289
 21
1.44525
  0
LINE
  8
0
 10
17.6289
 20
1.44525
 11
17.7893
 21
1.10437
  0
LINE
  8
0
 10
17.7893
 20
1.10437
 11
17.9057
 21
0.746063
  0
LINE
  8
0
 10
17.9057
 20
0.746063
 11
17.9763
 21
0.375992
  0
LINE
  8
0
 10
17.9763
 20
0.375992
 11
18
 21
0
  0
LINE
  8
0
 10
18
 20
0
 11
17.9763
 21
-0.375992
  0
LINE
  8
0
 10
17.9763
 20
-0.375992
 11
17.9057
 21
-0.746063
  0
LINE
  8
0
 10
17.9057
 20
-0.746063
 11
17.7893
 21
-1.10437
  0
LINE
  8
0
 10
17.7893
 20
-1.10437
 11
17.6289
 21
-1.44525
  0
LINE
  8
0
 10
17.6289
 20
-1.44525
 11
17.427
 21
-1.76335
  0
LINE
  8
0
 10
17.427
 20
-1.76335
 11
17.1869
 21
-2.05363
  0
LINE
  8
0
 10
17.1869
 20
-2.05363
 11
16.9123
 21
-2.31154
  0
LINE
  8
0
 10
16.9123
 20
-2.31154
 11
16.6075
 21
-2.53297
  0
LINE
  8
0
 10
16.6075
 20
-2.53297
 11
16.2773
 21
-2.71448
  0
LINE
  8
0
 10
16.2773
 20
-2.71448
 11
15.927
 21
-2.85316
  0
LINE
  8
0
 10
15.927
 20
-2.85316
 11
15.5621
 21
-2.94685
  0
LINE
  8
0
 10
15.5621
 20
-2.94685
 11
15.1884
 21
-2.99408
  0
LINE
  8
0
 10
15.1884
 20
-2.99408
 11
14.8116
 21
-2.99408
  0
LINE
  8
0
 10
-7.59418
 20
-1.49704
 11
-7.78107
 21
-1.47342
  0
LINE
  8
0
 10
-7.78107
 20
-1.47342
 11
-7.96352
 21
-1.42657
  0
LINE
  8
0
 10
-7.96352
 20
-1.42657
 11
-8.13866
 21
-1.35724
  0
LINE
  8
0
 10
-8.13866
 20
-1.35724
 11
-8.30373
 21
-1.26648
  0
LINE
  8
0
 10
-8.30373
 20
-1.26648
 11
-8.45613
 21
-1.15576
  0
LINE
  8
0
 10
-8.45613
 20
-1.15576
 11
-8.59344
 21
-1.02681
  0
LINE
  8
0
 10
-8.59344
 20
-1.02681
 11
-8.71352
 21
-0.881668
  0
LINE
  8
0
 10
-8.71352
 20
-0.881668
 11
-8.81445
 21
-0.722626
  0
LINE
  8
0
 10
-8.81445
 20
-0.722626
 11
-8.89465
 21
-0.552185
  0
LINE
  8
0
 10
-8.89465
 20
-0.552185
 11
-8.95287
 21
-0.373032
  0
LINE
  8
0
 10
-8.95287
 20
-0.373032
 11
-8.98816
 21
-0.187988
  0
LINE
  8
0
 10
-8.98816
 20
-0.187988
 11
-9
 21
0
  0
LINE
  8
0
 10
-9
 20
0
 11
-8.98816
 21
0.187988
  0
LINE
  8
0
 10
-8.98816
 20
0.187988
 11
-8.95287
 21
0.373032
  0
LINE
  8
0
 10
-8.95287
 20
0.373032
 11
-8.89465
 21
0.552185
  0
LINE
  8
0
 10
-8.89465
 20
0.552185
 11
-8.81445
 21
0.722626
  0
LINE
  8
0
 10
-8.81445
 20
0.722626
 11
-8.71352
 21
0.881668
  0
LINE
  8
0
 10
-8.71352
 20
0.881668
 11
-8.59344
 21
1.02681
  0
LINE
  8
0
 10
-8.59344
 20
1.02681
 11
-8.45613
 21
1.15576
  0
LINE
  8
0
 10
-8.45613
 20
1.15576
 11
-8.30373
 21
1.26648
  0
LINE
  8
0
 10
-8.30373
 20
1.26648
 11
-8.13866
 21
1.35724
  0
LINE
  8
0
 10
-8.13866
 20
1.35724
 11
-7.96352
 21
1.42657
  0
LINE
  8
0
 10
-7.96352
 20
1.42657
 11
-7.78107
 21
1.47342
  0
LINE
  8
0
 10
-7.78107
 20
1.47342
 11
-7.59418
 21
1.49704
  0
LINE
  8
0
 10
-7.59418
 20
1.49704
 11
-7.40581
 21
1.49704
  0
LINE
  8
0
 10
-7.40581
 20
1.49704
 11
-7.21892
 21
1.47342
  0
LINE
  8
0
 10
-7.21892
 20
1.47342
 11
-7.03647
 21
1.42657
  0
LINE
  8
0
 10
-7.03647
 20
1.42657
 11
-6.86133
 21
1.35724
  0
LINE
  8
0
 10
-6.86133
 20
1.35724
 11
-6.69626
 21
1.26648
  0
LINE
  8
0
 10
-6.69626
 20
1.26648
 11
-6.54385
 21
1.15576
  0
LINE
  8
0
 10
-6.54385
 20
1.15576
 11
-6.40654
 21
1.02681
  0
LINE
  8
0
 10
-6.40654
 20
1.02681
 11
-6.28647
 21
0.881668
  0
LINE
  8
0
 10
-6.28647
 20
0.881668
 11
-6.18553
 21
0.722626
  0
LINE
  8
0
 10
-6.18553
 20
0.722626
 11
-6.10533
 21
0.552185
  0
LINE
  8
0
 10
-6.10533
 20
0.552185
 11
-6.04712
 21
0.373032
  0
LINE
  8
0
 10
-6.04712
 20
0.373032
 11
-6.01183
 21
0.187988
  0
LINE
  8
0
 10
-6.01183
 20
0.187988
 11
-6
 21
0
  0
LINE
  8
0
 10
-6
 20
0
 11
-6.01183
 21
-0.187988
  0
LINE
  8
0
 10
-6.01183
 20
-0.187988
 11
-6.04712
 21
-0.373032
  0
LINE
  8
0
 10
-6.04712
 20
-0.373032
 11
-6.10533
 21
-0.552185
  0
LINE
  8
0
 10
-6.10533
 20
-0.552185
 11
-6.18553
 21
-0.722626
  0
LINE
  8
0
 10
-6.18553
 20
-0.722626
 11
-6.28647
 21
-0.881668
  0
LINE
  8
0
 10
-6.28647
 20
-0.881668
 11
-6.40654
 21
-1.02681
  0
LINE
  8
0
 10
-6.40654
 20
-1.02681
 11
-6.54385
 21
-1.15576
  0
LINE
  8
0
 10
-6.54385
 20
-1.15576
 11
-6.69626
 21
-1.26648
  0
LINE
  8
0
 10
-6.69626
 20
-1.26648
 11
-6.86133
 21
-1.35724
  0
LINE
  8
0
 10
-6.86133
 20
-1.35724
 11
-7.03647
 21
-1.42657
  0
LINE
  8
0
 10
-7.03647
 20
-1.42657
 11
-7.21892
 21
-1.47342
  0
LINE
  8
0
 10
-7.21892
 20
-1.47342
 11
-7.40581
 21
-1.49704
  0
LINE
  8
0
 10
-7.40581
 20
-1.49704
 11
-7.59418
 21
-1.49704
  0
LINE
  8
0
 10
7.40581
 20
-1.49704
 11
7.21892
 21
-1.47342
  0
LINE
  8
0
 10
7.21892
 20
-1.47342
 11
7.03647
 21
-1.42657
  0
LINE
  8
0
 10
7.03647
 20
-1.42657
 11
6.86133
 21
-1.35724
  0
LINE
  8
0
 10
6.86133
 20
-1.35724
 11
6.69626
 21
-1.26648
  0
LINE
  8
0
 10
6.69626
 20
-1.26648
 11
6.54385
 21
-1.15576
  0
LINE
  8
0
 10
6.54385
 20
-1.15576
 11
6.40654
 21
-1.02681
  0
LINE
  8
0
 10
6.40654
 20
-1.02681
 11
6.28647
 21
-0.881668
  0
LINE
  8
0
 10
6.28647
 20
-0.881668
 11
6.18553
 21
-0.722626
  0
LINE
  8
0
 10
6.18553
 20
-0.722626
 11
6.10533
 21
-0.552185
  0
LINE
  8
0
 10
6.10533
 20
-0.552185
 11
6.04712
 21
-0.373032
  0
LINE
  8
0
 10
6.04712
 20
-0.373032
 11
6.01183
 21
-0.187988
  0
LINE
  8
0
 10
6.01183
 20
-0.187988
 11
6
 21
0
  0
LINE
  8
0
 10
6
 20
0
 11
6.01183
 21
0.187988
  0
LINE
  8
0
 10
6.01183
 20
0.187988
 11
6.04712
 21
0.373032
  0
LINE
  8
0
 10
6.04712
 20
0.373032
 11
6.10533
 21
0.552185
  0
LINE
  8
0
 10
6.10533
 20
0.552185
 11
6.18553
 21
0.722626
  0
LINE
  8
0
 10
6.18553
 20
0.722626
 11
6.28647
 21
0.881668
  0
LINE
  8
0
 10
6.28647
 20
0.881668
 11
6.40654
 21
1.02681
  0
LINE
  8
0
 10
6.40654
 20
1.02681
 11
6.54385
 21
1.15576
  0
LINE
  8
0
 10
6.54385
 20
1.15576
 11
6.69626
 21
1.26648
  0
LINE
  8
0
 10
6.69626
 20
1.26648
 11
6.86133
 21
1.35724
  0
LINE
  8
0
 10
6.86133
 20
1.35724
 11
7.03647
 21
1.42657
  0
LINE
  8
0
 10
7.03647
 20
1.42657
 11
7.21892
 21
1.47342
  0
LINE
  8
0
 10
7.21892
 20
1.47342
 11
7.40581
 21
1.49704
  0
LINE
  8
0
 10
7.40581
 20
1.49704
 11
7.59418
 21
1.49704
  0
LINE
  8
0
 10
7.59418
 20
1.49704
 11
7.78107
 21
1.47342
  0
LINE
  8
0
 10
7.78107
 20
1.47342
 11
7.96352
 21
1.42657
  0
LINE
  8
0
 10
7.96352
 20
1.42657
 11
8.13866
 21
1.35724
  0
LINE
  8
0
 10
8.13866
 20
1.35724
 11
8.30373
 21
1.26648
  0
LINE
  8
0
 10
8.30373
 20
1.26648
 11
8.45613
 21
1.15576
  0
LINE
  8
0
 10
8.45613
 20
1.15576
 11
8.59344
 21
1.02681
  0
LINE
  8
0
 10
8.59344
 20
1.02681
 11
8.71352
 21
0.881668
  0
LINE
  8
0
 10
8.71352
 20
0.881668
 11
8.81445
 21
0.722626
  0
LINE
  8
0
 10
8.81445
 20
0.722626
 11
8.89465
 21
0.552185
  0
LINE
  8
0
 10
8.89465
 20
0.552185
 11
8.95287
 21
0.373032
  0
LINE
  8
0
 10
8.95287
 20
0.373032
 11
8.98816
 21
0.187988
  0
LINE
  8
0
 10
8.98816
 20
0.187988
 11
9
 21
0
  0
LINE
  8
0
 10
9
 20
0
 11
8.98816
 21
-0.187988
  0
LINE
  8
0
 10
8.98816
 20
-0.187988
 11
8.95287
 21
-0.373032
  0
LINE
  8
0
 10
8.95287
 20
-0.373032
 11
8.89465
 21
-0.552185
  0
LINE
  8
0
 10
8.89465
 20
-0.552185
 11
8.81445
 21
-0.722626
  0
LINE
  8
0
 10
8.81445
 20
-0.722626
 11
8.71352
 21
-0.881668
  0
LINE
  8
0
 10
8.71352
 20
-0.881668
 11
8.59344
 21
-1.02681
  0
LINE
  8
0
 10
8.59344
 20
-1.02681
 11
8.45613
 21
-1.15576
  0
LINE
  8
0
 10
8.45613
 20
-1.15576
 11
8.30373
 21
-1.26648
  0
LINE
  8
0
 10
8.30373
 20
-1.26648
 11
8.13866
 21
-1.35724
  0
LINE
  8
0
 10
8.13866
 20
-1.35724
 11
7.96352
 21
-1.42657
  0
LINE
  8
0
 10
7.96352
 20
-1.42657
 11
7.78107
 21
-1.47342
  0
LINE
  8
0
 10
7.78107
 20
-1.47342
 11
7.59418
 21
-1.49704
  0
LINE
  8
0
 10
7.59418
 20
-1.49704
 11
7.40581
 21
-1.49704
  0
ENDSEC
  0
SECTION
  2
OBJECTS
  0
DICTIONARY
  0
ENDSEC
  0
EOF
