  0
SECTION
  2
BLOCKS
  0
ENDSEC
  0
SECTION
  2
ENTITIES
  0
LINE
  8
0
 10
17.9369
 20
-10.6614
 11
18.5451
 21
-10.5053
  0
LINE
  8
0
 10
18.5451
 20
-10.5053
 11
19.1289
 21
-10.2741
  0
LINE
  8
0
 10
19.1289
 20
-10.2741
 11
19.6791
 21
-9.97163
  0
LINE
  8
0
 10
19.6791
 20
-9.97163
 11
20.1871
 21
-9.60255
  0
LINE
  8
0
 10
20.1871
 20
-9.60255
 11
20.6448
 21
-9.17273
  0
LINE
  8
0
 10
20.6448
 20
-9.17273
 11
21.0451
 21
-8.68892
  0
LINE
  8
0
 10
21.0451
 20
-8.68892
 11
21.3815
 21
-8.15877
  0
LINE
  8
0
 10
21.3815
 20
-8.15877
 11
21.6489
 21
-7.59062
  0
LINE
  8
0
 10
21.6489
 20
-7.59062
 11
21.8429
 21
-6.99344
  0
LINE
  8
0
 10
21.8429
 20
-6.99344
 11
21.9606
 21
-6.37666
  0
LINE
  8
0
 10
21.9606
 20
-6.37666
 11
22
 21
-5.75
  0
LINE
  8
0
 10
22
 20
-5.75
 11
22
 21
5.75
  0
LINE
  8
0
 10
22
 20
5.75
 11
21.9606
 21
6.37666
  0
LINE
  8
0
 10
21.9606
 20
6.37666
 11
21.8429
 21
6.99344
  0
LINE
  8
0
 10
21.8429
 20
6.99344
 11
21.6489
 21
7.59062
  0
LINE
  8
0
 10
21.6489
 20
7.59062
 11
21.3815
 21
8.15877
  0
LINE
  8
0
 10
21.3815
 20
8.15877
 11
21.0451
 21
8.68892
  0
LINE
  8
0
 10
21.0451
 20
8.68892
 11
20.6448
 21
9.17273
  0
LINE
  8
0
 10
20.6448
 20
9.17273
 11
20.1871
 21
9.60255
  0
LINE
  8
0
 10
20.1871
 20
9.60255
 11
19.6791
 21
9.97163
  0
LINE
  8
0
 10
19.6791
 20
9.97163
 11
19.1289
 21
10.2741
  0
LINE
  8
0
 10
19.1289
 20
10.2741
 11
18.5451
 21
10.5053
  0
LINE
  8
0
 10
18.5451
 20
10.5053
 11
17.9369
 21
10.6614
  0
LINE
  8
0
 10
17.9369
 20
10.6614
 11
17.3139
 21
10.7401
  0
LINE
  8
0
 10
17.3139
 20
10.7401
 11
-17.3139
 21
10.7401
  0
LINE
  8
0
 10
-17.3139
 20
10.7401
 11
-17.9369
 21
10.6614
  0
LINE
  8
0
 10
-17.9369
 20
10.6614
 11
-18.5451
 21
10.5053
  0
LINE
  8
0
 10
-18.5451
 20
10.5053
 11
-19.1289
 21
10.2741
  0
LINE
  8
0
 10
-19.1289
 20
10.2741
 11
-19.6791
 21
9.97163
  0
LINE
  8
0
 10
-19.6791
 20
9.97163
 11
-20.1871
 21
9.60255
  0
LINE
  8
0
 10
-20.1871
 20
9.60255
 11
-20.6448
 21
9.17273
  0
LINE
  8
0
 10
-20.6448
 20
9.17273
 11
-21.0451
 21
8.68892
  0
LINE
  8
0
 10
-21.0451
 20
8.68892
 11
-21.3815
 21
8.15877
  0
LINE
  8
0
 10
-21.3815
 20
8.15877
 11
-21.6489
 21
7.59062
  0
LINE
  8
0
 10
-21.6489
 20
7.59062
 11
-21.8429
 21
6.99344
  0
LINE
  8
0
 10
-21.8429
 20
6.99344
 11
-21.9606
 21
6.37666
  0
LINE
  8
0
 10
-21.9606
 20
6.37666
 11
-22
 21
5.75
  0
LINE
  8
0
 10
-22
 20
5.75
 11
-22
 21
-5.75
  0
LINE
  8
0
 10
-22
 20
-5.75
 11
-21.9606
 21
-6.37666
  0
LINE
  8
0
 10
-21.9606
 20
-6.37666
 11
-21.8429
 21
-6.99344
  0
LINE
  8
0
 10
-21.8429
 20
-6.99344
 11
-21.6489
 21
-7.59062
  0
LINE
  8
0
 10
-21.6489
 20
-7.59062
 11
-21.3815
 21
-8.15877
  0
LINE
  8
0
 10
-21.3815
 20
-8.15877
 11
-21.0451
 21
-8.68892
  0
LINE
  8
0
 10
-21.0451
 20
-8.68892
 11
-20.6448
 21
-9.17273
  0
LINE
  8
0
 10
-20.6448
 20
-9.17273
 11
-20.1871
 21
-9.60255
  0
LINE
  8
0
 10
-20.1871
 20
-9.60255
 11
-19.6791
 21
-9.97163
  0
LINE
  8
0
 10
-19.6791
 20
-9.97163
 11
-19.1289
 21
-10.2741
  0
LINE
  8
0
 10
-19.1289
 20
-10.2741
 11
-18.5451
 21
-10.5053
  0
LINE
  8
0
 10
-18.5451
 20
-10.5053
 11
-17.9369
 21
-10.6614
  0
LINE
  8
0
 10
-17.9369
 20
-10.6614
 11
-17.3139
 21
-10.7401
  0
LINE
  8
0
 10
-17.3139
 20
-10.7401
 11
17.3139
 21
-10.7401
  0
LINE
  8
0
 10
17.3139
 20
-10.7401
 11
17.9369
 21
-10.6614
  0
LINE
  8
0
 10
-0.31395
 20
-4.99013
 11
-0.936905
 21
-4.91142
  0
LINE
  8
0
 10
-0.936905
 20
-4.91142
 11
-1.54507
 21
-4.75528
  0
LINE
  8
0
 10
-1.54507
 20
-4.75528
 11
-2.12889
 21
-4.52412
  0
LINE
  8
0
 10
-2.12889
 20
-4.52412
 11
-2.67912
 21
-4.22163
  0
LINE
  8
0
 10
-2.67912
 20
-4.22163
 11
-3.18712
 21
-3.85255
  0
LINE
  8
0
 10
-3.18712
 20
-3.85255
 11
-3.64484
 21
-3.42273
  0
LINE
  8
0
 10
-3.64484
 20
-3.42273
 11
-4.04507
 21
-2.93892
  0
LINE
  8
0
 10
-4.04507
 20
-2.93892
 11
-4.38153
 21
-2.40877
  0
LINE
  8
0
 10
-4.38153
 20
-2.40877
 11
-4.64888
 21
-1.84062
  0
LINE
  8
0
 10
-4.64888
 20
-1.84062
 11
-4.84291
 21
-1.24344
  0
LINE
  8
0
 10
-4.84291
 20
-1.24344
 11
-4.96057
 21
-0.626663
  0
LINE
  8
0
 10
-4.96057
 20
-0.626663
 11
-5
 21
0
  0
LINE
  8
0
 10
-5
 20
0
 11
-4.96057
 21
0.626663
  0
LINE
  8
0
 10
-4.96057
 20
0.626663
 11
-4.84291
 21
1.24344
  0
LINE
  8
0
 10
-4.84291
 20
1.24344
 11
-4.64888
 21
1.84062
  0
LINE
  8
0
 10
-4.64888
 20
1.84062
 11
-4.38153
 21
2.40877
  0
LINE
  8
0
 10
-4.38153
 20
2.40877
 11
-4.04507
 21
2.93892
  0
LINE
  8
0
 10
-4.04507
 20
2.93892
 11
-3.64484
 21
3.42273
  0
LINE
  8
0
 10
-3.64484
 20
3.42273
 11
-3.18712
 21
3.85255
  0
LINE
  8
0
 10
-3.18712
 20
3.85255
 11
-2.67912
 21
4.22163
  0
LINE
  8
0
 10
-2.67912
 20
4.22163
 11
-2.12889
 21
4.52412
  0
LINE
  8
0
 10
-2.12889
 20
4.52412
 11
-1.54507
 21
4.75528
  0
LINE
  8
0
 10
-1.54507
 20
4.75528
 11
-0.936905
 21
4.91142
  0
LINE
  8
0
 10
-0.936905
 20
4.91142
 11
-0.31395
 21
4.99013
  0
LINE
  8
0
 10
-0.31395
 20
4.99013
 11
0.31395
 21
4.99013
  0
LINE
  8
0
 10
0.31395
 20
4.99013
 11
0.936905
 21
4.91142
  0
LINE
  8
0
 10
0.936905
 20
4.91142
 11
1.54507
 21
4.75528
  0
LINE
  8
0
 10
1.54507
 20
4.75528
 11
2.12889
 21
4.52412
  0
LINE
  8
0
 10
2.12889
 20
4.52412
 11
2.67912
 21
4.22163
  0
LINE
  8
0
 10
2.67912
 20
4.22163
 11
3.18712
 21
3.85255
  0
LINE
  8
0
 10
3.18712
 20
3.85255
 11
3.64484
 21
3.42273
  0
LINE
  8
0
 10
3.64484
 20
3.42273
 11
4.04507
 21
2.93892
  0
LINE
  8
0
 10
4.04507
 20
2.93892
 11
4.38153
 21
2.40877
  0
LINE
  8
0
 10
4.38153
 20
2.40877
 11
4.64888
 21
1.84062
  0
LINE
  8
0
 10
4.64888
 20
1.84062
 11
4.84291
 21
1.24344
  0
LINE
  8
0
 10
4.84291
 20
1.24344
 11
4.96057
 21
0.626663
  0
LINE
  8
0
 10
4.96057
 20
0.626663
 11
5
 21
0
  0
LINE
  8
0
 10
5
 20
0
 11
4.96057
 21
-0.626663
  0
LINE
  8
0
 10
4.96057
 20
-0.626663
 11
4.84291
 21
-1.24344
  0
LINE
  8
0
 10
4.84291
 20
-1.24344
 11
4.64888
 21
-1.84062
  0
LINE
  8
0
 10
4.64888
 20
-1.84062
 11
4.38153
 21
-2.40877
  0
LINE
  8
0
 10
4.38153
 20
-2.40877
 11
4.04507
 21
-2.93892
  0
LINE
  8
0
 10
4.04507
 20
-2.93892
 11
3.64484
 21
-3.42273
  0
LINE
  8
0
 10
3.64484
 20
-3.42273
 11
3.18712
 21
-3.85255
  0
LINE
  8
0
 10
3.18712
 20
-3.85255
 11
2.67912
 21
-4.22163
  0
LINE
  8
0
 10
2.67912
 20
-4.22163
 11
2.12889
 21
-4.52412
  0
LINE
  8
0
 10
2.12889
 20
-4.52412
 11
1.54507
 21
-4.75528
  0
LINE
  8
0
 10
1.54507
 20
-4.75528
 11
0.936905
 21
-4.91142
  0
LINE
  8
0
 10
0.936905
 20
-4.91142
 11
0.31395
 21
-4.99013
  0
LINE
  8
0
 10
0.31395
 20
-4.99013
 11
-0.31395
 21
-4.99013
  0
LINE
  8
0
 10
-15.1884
 20
-2.99408
 11
-15.5621
 21
-2.94685
  0
LINE
  8
0
 10
-15.5621
 20
-2.94685
 11
-15.927
 21
-2.85316
  0
LINE
  8
0
 10
-15.927
 20
-2.85316
 11
-16.2773
 21
-2.71448
  0
LINE
  8
0
 10
-16.2773
 20
-2.71448
 11
-16.6075
 21
-2.53297
  0
LINE
  8
0
 10
-16.6075
 20
-2.53297
 11
-16.9123
 21
-2.31154
  0
LINE
  8
0
 10
-16.9123
 20
-2.31154
 11
-17.1869
 21
-2.05363
  0
LINE
  8
0
 10
-17.1869
 20
-2.05363
 11
-17.427
 21
-1.76335
  0
LINE
  8
0
 10
-17.427
 20
-1.76335
 11
-17.6289
 21
-1.44525
  0
LINE
  8
0
 10
-17.6289
 20
-1.44525
 11
-17.7893
 21
-1.10437
  0
LINE
  8
0
 10
-17.7893
 20
-1.10437
 11
-17.9057
 21
-0.746063
  0
LINE
  8
0
 10
-17.9057
 20
-0.746063
 11
-17.9763
 21
-0.375992
  0
LINE
  8
0
 10
-17.9763
 20
-0.375992
 11
-18
 21
0
  0
LINE
  8
0
 10
-18
 20
0
 11
-17.9763
 21
0.375992
  0
LINE
  8
0
 10
-17.9763
 20
0.375992
 11
-17.9057
 21
0.746063
  0
LINE
  8
0
 10
-17.9057
 20
0.746063
 11
-17.7893
 21
1.10437
  0
LINE
  8
0
 10
-17.7893
 20
1.10437
 11
-17.6289
 21
1.44525
  0
LINE
  8
0
 10
-17.6289
 20
1.44525
 11
-17.427
 21
1.76335
  0
LINE
  8
0
 10
-17.427
 20
1.76335
 11
-17.1869
 21
2.05363
  0
LINE
  8
0
 10
-17.1869
 20
2.05363
 11
-16.9123
 21
2.31154
  0
LINE
  8
0
 10
-16.9123
 20
2.31154
 11
-16.6075
 21
2.53297
  0
LINE
  8
0
 10
-16.6075
 20
2.53297
 11
-16.2773
 21
2.71448
  0
LINE
  8
0
 10
-16.2773
 20
2.71448
 11
-15.927
 21
2.85316
  0
LINE
  8
0
 10
-15.927
 20
2.85316
 11
-15.5621
 21
2.94685
  0
LINE
  8
0
 10
-15.5621
 20
2.94685
 11
-15.1884
 21
2.99408
  0
LINE
  8
0
 10
-15.1884
 20
2.99408
 11
-14.8116
 21
2.99408
  0
LINE
  8
0
 10
-14.8116
 20
2.99408
 11
-14.4379
 21
2.94685
  0
LINE
  8
0
 10
-14.4379
 20
2.94685
 11
-14.0729
 21
2.85316
  0
LINE
  8
0
 10
-14.0729
 20
2.85316
 11
-13.7227
 21
2.71448
  0
LINE
  8
0
 10
-13.7227
 20
2.71448
 11
-13.3925
 21
2.53297
  0
LINE
  8
0
 10
-13.3925
 20
2.53297
 11
-13.0877
 21
2.31154
  0
LINE
  8
0
 10
-13.0877
 20
2.31154
 11
-12.8131
 21
2.05363
  0
LINE
  8
0
 10
-12.8131
 20
2.05363
 11
-12.5729
 21
1.76335
  0
LINE
  8
0
 10
-12.5729
 20
1.76335
 11
-12.3711
 21
1.44525
  0
LINE
  8
0
 10
-12.3711
 20
1.44525
 11
-12.2107
 21
1.10437
  0
LINE
  8
0
 10
-12.2107
 20
1.10437
 11
-12.0942
 21
0.746063
  0
LINE
  8
0
 10
-12.0942
 20
0.746063
 11
-12.0237
 21
0.375992
  0
LINE
  8
0
 10
-12.0237
 20
0.375992
 11
-12
 21
0
  0
LINE
  8
0
 10
-12
 20
0
 11
-12.0237
 21
-0.375992
  0
LINE
  8
0
 10
-12.0237
 20
-0.375992
 11
-12.0942
 21
-0.746063
  0
LINE
  8
0
 10
-12.0942
 20
-0.746063
 11
-12.2107
 21
-1.10437
  0
LINE
  8
0
 10
-12.2107
 20
-1.10437
 11
-12.3711
 21
-1.44525
  0
LINE
  8
0
 10
-12.3711
 20
-1.44525
 11
-12.5729
 21
-1.76335
  0
LINE
  8
0
 10
-12.5729
 20
-1.76335
 11
-12.8131
 21
-2.05363
  0
LINE
  8
0
 10
-12.8131
 20
-2.05363
 11
-13.0877
 21
-2.31154
  0
LINE
  8
0
 10
-13.0877
 20
-2.31154
 11
-13.3925
 21
-2.53297
  0
LINE
  8
0
 10
-13.3925
 20
-2.53297
 11
-13.7227
 21
-2.71448
  0
LINE
  8
0
 10
-13.7227
 20
-2.71448
 11
-14.0729
 21
-2.85316
  0
LINE
  8
0
 10
-14.0729
 20
-2.85316
 11
-14.4379
 21
-2.94685
  0
LINE
  8
0
 10
-14.4379
 20
-2.94685
 11
-14.8116
 21
-2.99408
  0
LINE
  8
0
 10
-14.8116
 20
-2.99408
 11
-15.1884
 21
-2.99408
  0
LINE
  8
0
 10
14.8116
 20
-2.99408
 11
14.4379
 21
-2.94685
  0
LINE
  8
0
 10
14.4379
 20
-2.94685
 11
14.0729
 21
-2.85316
  0
LINE
  8
0
 10
14.0729
 20
-2.85316
 11
13.7227
 21
-2.71448
  0
LINE
  8
0
 10
13.7227
 20
-2.71448
 11
13.3925
 21
-2.53297
  0
LINE
  8
0
 10
13.3925
 20
-2.53297
 11
13.0877
 21
-2.31154
  0
LINE
  8
0
 10
13.0877
 20
-2.31154
 11
12.8131
 21
-2.05363
  0
LINE
  8
0
 10
12.8131
 20
-2.05363
 11
12.5729
 21
-1.76335
  0
LINE
  8
0
 10
12.5729
 20
-1.76335
 11
12.3711
 21
-1.44525
  0
LINE
  8
0
 10
12.3711
 20
-1.44525
 11
12.2107
 21
-1.10437
  0
LINE
  8
0
 10
12.2107
 20
-1.10437
 11
12.0942
 21
-0.746063
  0
LINE
  8
0
 10
12.0942
 20
-0.746063
 11
12.0237
 21
-0.375992
  0
LINE
  8
0
 10
12.0237
 20
-0.375992
 11
12
 21
0
  0
LINE
  8
0
 10
12
 20
0
 11
12.0237
 21
0.375992
  0
LINE
  8
0
 10
12.0237
 20
0.375992
 11
12.0942
 21
0.746063
  0
LINE
  8
0
 10
12.0942
 20
0.746063
 11
12.2107
 21
1.10437
  0
LINE
  8
0
 10
12.2107
 20
1.10437
 11
12.3711
 21
1.44525
  0
LINE
  8
0
 10
12.3711
 20
1.44525
 11
12.5729
 21
1.76335
  0
LINE
  8
0
 10
12.5729
 20
1.76335
 11
12.8131
 21
2.05363
  0
LINE
  8
0
 10
12.8131
 20
2.05363
 11
13.0877
 21
2.31154
  0
LINE
  8
0
 10
13.0877
 20
2.31154
 11
13.3925
 21
2.53297
  0
LINE
  8
0
 10
13.3925
 20
2.53297
 11
13.7227
 21
2.71448
  0
LINE
  8
0
 10
13.7227
 20
2.71448
 11
14.0729
 21
2.85316
  0
LINE
  8
0
 10
14.0729
 20
2.85316
 11
14.4379
 21
2.94685
  0
LINE
  8
0
 10
14.4379
 20
2.94685
 11
14.8116
 21
2.99408
  0
LINE
  8
0
 10
14.8116
 20
2.99408
 11
15.1884
 21
2.99408
  0
LINE
  8
0
 10
15.1884
 20
2.99408
 11
15.5621
 21
2.94685
  0
LINE
  8
0
 10
15.5621
 20
2.94685
 11
15.927
 21
2.85316
  0
LINE
  8
0
 10
15.927
 20
2.85316
 11
16.2773
 21
2.71448
  0
LINE
  8
0
 10
16.2773
 20
2.71448
 11
16.6075
 21
2.53297
  0
LINE
  8
0
 10
16.6075
 20
2.53297
 11
16.9123
 21
2.31154
  0
LINE
  8
0
 10
16.9123
 20
2.31154
 11
17.1869
 21
2.05363
  0
LINE
  8
0
 10
17.1869
 20
2.05363
 11
17.427
 21
1.76335
  0
LINE
  8
0
 10
17.427
 20
1.76335
 11
17.6289
 21
1.44525
  0
LINE
  8
0
 10
17.6289
 20
1.44525
 11
17.7893
 21
1.10437
  0
LINE
  8
0
 10
17.7893
 20
1.10437
 11
17.9057
 21
0.746063
  0
LINE
  8
0
 10
17.9057
 20
0.746063
 11
17.9763
 21
0.375992
  0
LINE
  8
0
 10
17.9763
 20
0.375992
 11
18
 21
0
  0
LINE
  8
0
 10
18
 20
0
 11
17.9763
 21
-0.375992
  0
LINE
  8
0
 10
17.9763
 20
-0.375992
 11
17.9057
 21
-0.746063
  0
LINE
  8
0
 10
17.9057
 20
-0.746063
 11
17.7893
 21
-1.10437
  0
LINE
  8
0
 10
17.7893
 20
-1.10437
 11
17.6289
 21
-1.44525
  0
LINE
  8
0
 10
17.6289
 20
-1.44525
 11
17.427
 21
-1.76335
  0
LINE
  8
0
 10
17.427
 20
-1.76335
 11
17.1869
 21
-2.05363
  0
LINE
  8
0
 10
17.1869
 20
-2.05363
 11
16.9123
 21
-2.31154
  0
LINE
  8
0
 10
16.9123
 20
-2.31154
 11
16.6075
 21
-2.53297
  0
LINE
  8
0
 10
16.6075
 20
-2.53297
 11
16.2773
 21
-2.71448
  0
LINE
  8
0
 10
16.2773
 20
-2.71448
 11
15.927
 21
-2.85316
  0
LINE
  8
0
 10
15.927
 20
-2.85316
 11
15.5621
 21
-2.94685
  0
LINE
  8
0
 10
15.5621
 20
-2.94685
 11
15.1884
 21
-2.99408
  0
LINE
  8
0
 10
15.1884
 20
-2.99408
 11
14.8116
 21
-2.99408
  0
ENDSEC
  0
SECTION
  2
OBJECTS
  0
DICTIONARY
  0
ENDSEC
  0
EOF
