  0
SECTION
  2
BLOCKS
  0
ENDSEC
  0
SECTION
  2
ENTITIES
  0
LINE
  8
0
 10
1.40535
 20
-12.9921
 11
2.31763
 21
-12.7579
  0
LINE
  8
0
 10
2.31763
 20
-12.7579
 11
3.19334
 21
-12.4112
  0
LINE
  8
0
 10
3.19334
 20
-12.4112
 11
4.01869
 21
-11.9575
  0
LINE
  8
0
 10
4.01869
 20
-11.9575
 11
4.78067
 21
-11.4038
  0
LINE
  8
0
 10
4.78067
 20
-11.4038
 11
5.46725
 21
-10.7591
  0
LINE
  8
0
 10
5.46725
 20
-10.7591
 11
6.06763
 21
-10.0334
  0
LINE
  8
0
 10
6.06763
 20
-10.0334
 11
6.5723
 21
-9.23814
  0
LINE
  8
0
 10
6.5723
 20
-9.23814
 11
6.97331
 21
-8.38593
  0
LINE
  8
0
 10
6.97331
 20
-8.38593
 11
7.26436
 21
-7.49017
  0
LINE
  8
0
 10
7.26436
 20
-7.49017
 11
7.35976
 21
-6.99013
  0
LINE
  8
0
 10
7.35976
 20
-6.99013
 11
9.81395
 21
-6.99013
  0
LINE
  8
0
 10
9.81395
 20
-6.99013
 11
10.4369
 21
-6.91142
  0
LINE
  8
0
 10
10.4369
 20
-6.91142
 11
11.0451
 21
-6.75528
  0
LINE
  8
0
 10
11.0451
 20
-6.75528
 11
11.6289
 21
-6.52412
  0
LINE
  8
0
 10
11.6289
 20
-6.52412
 11
12.1791
 21
-6.22163
  0
LINE
  8
0
 10
12.1791
 20
-6.22163
 11
12.6871
 21
-5.85255
  0
LINE
  8
0
 10
12.6871
 20
-5.85255
 11
13.1448
 21
-5.42273
  0
LINE
  8
0
 10
13.1448
 20
-5.42273
 11
13.5451
 21
-4.93892
  0
LINE
  8
0
 10
13.5451
 20
-4.93892
 11
13.8815
 21
-4.40877
  0
LINE
  8
0
 10
13.8815
 20
-4.40877
 11
14.1489
 21
-3.84062
  0
LINE
  8
0
 10
14.1489
 20
-3.84062
 11
14.3429
 21
-3.24344
  0
LINE
  8
0
 10
14.3429
 20
-3.24344
 11
14.4606
 21
-2.62666
  0
LINE
  8
0
 10
14.4606
 20
-2.62666
 11
14.5
 21
-2
  0
LINE
  8
0
 10
14.5
 20
-2
 11
14.5
 21
2
  0
LINE
  8
0
 10
14.5
 20
2
 11
14.4606
 21
2.62666
  0
LINE
  8
0
 10
14.4606
 20
2.62666
 11
14.3429
 21
3.24344
  0
LINE
  8
0
 10
14.3429
 20
3.24344
 11
14.1489
 21
3.84062
  0
LINE
  8
0
 10
14.1489
 20
3.84062
 11
13.8815
 21
4.40877
  0
LINE
  8
0
 10
13.8815
 20
4.40877
 11
13.5451
 21
4.93892
  0
LINE
  8
0
 10
13.5451
 20
4.93892
 11
13.1448
 21
5.42273
  0
LINE
  8
0
 10
13.1448
 20
5.42273
 11
12.6871
 21
5.85255
  0
LINE
  8
0
 10
12.6871
 20
5.85255
 11
12.1791
 21
6.22163
  0
LINE
  8
0
 10
12.1791
 20
6.22163
 11
11.6289
 21
6.52412
  0
LINE
  8
0
 10
11.6289
 20
6.52412
 11
11.0451
 21
6.75528
  0
LINE
  8
0
 10
11.0451
 20
6.75528
 11
10.4369
 21
6.91142
  0
LINE
  8
0
 10
10.4369
 20
6.91142
 11
9.81395
 21
6.99013
  0
LINE
  8
0
 10
9.81395
 20
6.99013
 11
-9.81395
 21
6.99013
  0
LINE
  8
0
 10
-9.81395
 20
6.99013
 11
-10.4369
 21
6.91142
  0
LINE
  8
0
 10
-10.4369
 20
6.91142
 11
-11.0451
 21
6.75528
  0
LINE
  8
0
 10
-11.0451
 20
6.75528
 11
-11.6289
 21
6.52412
  0
LINE
  8
0
 10
-11.6289
 20
6.52412
 11
-12.1791
 21
6.22163
  0
LINE
  8
0
 10
-12.1791
 20
6.22163
 11
-12.6871
 21
5.85255
  0
LINE
  8
0
 10
-12.6871
 20
5.85255
 11
-13.1448
 21
5.42273
  0
LINE
  8
0
 10
-13.1448
 20
5.42273
 11
-13.5451
 21
4.93892
  0
LINE
  8
0
 10
-13.5451
 20
4.93892
 11
-13.8815
 21
4.40877
  0
LINE
  8
0
 10
-13.8815
 20
4.40877
 11
-14.1489
 21
3.84062
  0
LINE
  8
0
 10
-14.1489
 20
3.84062
 11
-14.3429
 21
3.24344
  0
LINE
  8
0
 10
-14.3429
 20
3.24344
 11
-14.4606
 21
2.62666
  0
LINE
  8
0
 10
-14.4606
 20
2.62666
 11
-14.5
 21
2
  0
LINE
  8
0
 10
-14.5
 20
2
 11
-14.5
 21
-2
  0
LINE
  8
0
 10
-14.5
 20
-2
 11
-14.4606
 21
-2.62666
  0
LINE
  8
0
 10
-14.4606
 20
-2.62666
 11
-14.3429
 21
-3.24344
  0
LINE
  8
0
 10
-14.3429
 20
-3.24344
 11
-14.1489
 21
-3.84062
  0
LINE
  8
0
 10
-14.1489
 20
-3.84062
 11
-13.8815
 21
-4.40877
  0
LINE
  8
0
 10
-13.8815
 20
-4.40877
 11
-13.5451
 21
-4.93892
  0
LINE
  8
0
 10
-13.5451
 20
-4.93892
 11
-13.1448
 21
-5.42273
  0
LINE
  8
0
 10
-13.1448
 20
-5.42273
 11
-12.6871
 21
-5.85255
  0
LINE
  8
0
 10
-12.6871
 20
-5.85255
 11
-12.1791
 21
-6.22163
  0
LINE
  8
0
 10
-12.1791
 20
-6.22163
 11
-11.6289
 21
-6.52412
  0
LINE
  8
0
 10
-11.6289
 20
-6.52412
 11
-11.0451
 21
-6.75528
  0
LINE
  8
0
 10
-11.0451
 20
-6.75528
 11
-10.4369
 21
-6.91142
  0
LINE
  8
0
 10
-10.4369
 20
-6.91142
 11
-9.81395
 21
-6.99013
  0
LINE
  8
0
 10
-9.81395
 20
-6.99013
 11
-7.35976
 21
-6.99013
  0
LINE
  8
0
 10
-7.35976
 20
-6.99013
 11
-7.26436
 21
-7.49017
  0
LINE
  8
0
 10
-7.26436
 20
-7.49017
 11
-6.97331
 21
-8.38593
  0
LINE
  8
0
 10
-6.97331
 20
-8.38593
 11
-6.5723
 21
-9.23814
  0
LINE
  8
0
 10
-6.5723
 20
-9.23814
 11
-6.06763
 21
-10.0334
  0
LINE
  8
0
 10
-6.06763
 20
-10.0334
 11
-5.46725
 21
-10.7591
  0
LINE
  8
0
 10
-5.46725
 20
-10.7591
 11
-4.78067
 21
-11.4038
  0
LINE
  8
0
 10
-4.78067
 20
-11.4038
 11
-4.01869
 21
-11.9575
  0
LINE
  8
0
 10
-4.01869
 20
-11.9575
 11
-3.19334
 21
-12.4112
  0
LINE
  8
0
 10
-3.19334
 20
-12.4112
 11
-2.31763
 21
-12.7579
  0
LINE
  8
0
 10
-2.31763
 20
-12.7579
 11
-1.40535
 21
-12.9921
  0
LINE
  8
0
 10
-1.40535
 20
-12.9921
 11
-0.470917
 21
-13.1102
  0
LINE
  8
0
 10
-0.470917
 20
-13.1102
 11
0.470917
 21
-13.1102
  0
LINE
  8
0
 10
0.470917
 20
-13.1102
 11
1.40535
 21
-12.9921
  0
LINE
  8
0
 10
7.38696
 20
0.0785522
 11
7.1627
 21
0.106873
  0
LINE
  8
0
 10
7.1627
 20
0.106873
 11
6.94376
 21
0.163086
  0
LINE
  8
0
 10
6.94376
 20
0.163086
 11
6.7336
 21
0.246307
  0
LINE
  8
0
 10
6.7336
 20
0.246307
 11
6.53551
 21
0.355209
  0
LINE
  8
0
 10
6.53551
 20
0.355209
 11
6.35263
 21
0.488068
  0
LINE
  8
0
 10
6.35263
 20
0.488068
 11
6.18785
 21
0.642807
  0
LINE
  8
0
 10
6.18785
 20
0.642807
 11
6.04376
 21
0.816986
  0
LINE
  8
0
 10
6.04376
 20
0.816986
 11
5.92264
 21
1.00784
  0
LINE
  8
0
 10
5.92264
 20
1.00784
 11
5.8264
 21
1.21237
  0
LINE
  8
0
 10
5.8264
 20
1.21237
 11
5.75655
 21
1.42735
  0
LINE
  8
0
 10
5.75655
 20
1.42735
 11
5.71419
 21
1.6494
  0
LINE
  8
0
 10
5.71419
 20
1.6494
 11
5.7
 21
1.875
  0
LINE
  8
0
 10
5.7
 20
1.875
 11
5.71419
 21
2.10059
  0
LINE
  8
0
 10
5.71419
 20
2.10059
 11
5.75655
 21
2.32263
  0
LINE
  8
0
 10
5.75655
 20
2.32263
 11
5.8264
 21
2.53761
  0
LINE
  8
0
 10
5.8264
 20
2.53761
 11
5.92264
 21
2.74214
  0
LINE
  8
0
 10
5.92264
 20
2.74214
 11
6.04376
 21
2.933
  0
LINE
  8
0
 10
6.04376
 20
2.933
 11
6.18785
 21
3.10718
  0
LINE
  8
0
 10
6.18785
 20
3.10718
 11
6.35263
 21
3.26192
  0
LINE
  8
0
 10
6.35263
 20
3.26192
 11
6.53551
 21
3.39478
  0
LINE
  8
0
 10
6.53551
 20
3.39478
 11
6.7336
 21
3.50368
  0
LINE
  8
0
 10
6.7336
 20
3.50368
 11
6.94376
 21
3.5869
  0
LINE
  8
0
 10
6.94376
 20
3.5869
 11
7.1627
 21
3.64311
  0
LINE
  8
0
 10
7.1627
 20
3.64311
 11
7.38696
 21
3.67145
  0
LINE
  8
0
 10
7.38696
 20
3.67145
 11
7.61302
 21
3.67145
  0
LINE
  8
0
 10
7.61302
 20
3.67145
 11
7.83728
 21
3.64311
  0
LINE
  8
0
 10
7.83728
 20
3.64311
 11
8.05623
 21
3.5869
  0
LINE
  8
0
 10
8.05623
 20
3.5869
 11
8.26639
 21
3.50368
  0
LINE
  8
0
 10
8.26639
 20
3.50368
 11
8.46448
 21
3.39478
  0
LINE
  8
0
 10
8.46448
 20
3.39478
 11
8.64735
 21
3.26192
  0
LINE
  8
0
 10
8.64735
 20
3.26192
 11
8.81213
 21
3.10718
  0
LINE
  8
0
 10
8.81213
 20
3.10718
 11
8.95622
 21
2.933
  0
LINE
  8
0
 10
8.95622
 20
2.933
 11
9.07735
 21
2.74214
  0
LINE
  8
0
 10
9.07735
 20
2.74214
 11
9.17358
 21
2.53761
  0
LINE
  8
0
 10
9.17358
 20
2.53761
 11
9.24344
 21
2.32263
  0
LINE
  8
0
 10
9.24344
 20
2.32263
 11
9.2858
 21
2.10059
  0
LINE
  8
0
 10
9.2858
 20
2.10059
 11
9.29999
 21
1.875
  0
LINE
  8
0
 10
9.29999
 20
1.875
 11
9.2858
 21
1.6494
  0
LINE
  8
0
 10
9.2858
 20
1.6494
 11
9.24344
 21
1.42735
  0
LINE
  8
0
 10
9.24344
 20
1.42735
 11
9.17358
 21
1.21237
  0
LINE
  8
0
 10
9.17358
 20
1.21237
 11
9.07735
 21
1.00784
  0
LINE
  8
0
 10
9.07735
 20
1.00784
 11
8.95622
 21
0.816986
  0
LINE
  8
0
 10
8.95622
 20
0.816986
 11
8.81213
 21
0.642807
  0
LINE
  8
0
 10
8.81213
 20
0.642807
 11
8.64735
 21
0.488068
  0
LINE
  8
0
 10
8.64735
 20
0.488068
 11
8.46448
 21
0.355209
  0
LINE
  8
0
 10
8.46448
 20
0.355209
 11
8.26639
 21
0.246307
  0
LINE
  8
0
 10
8.26639
 20
0.246307
 11
8.05623
 21
0.163086
  0
LINE
  8
0
 10
8.05623
 20
0.163086
 11
7.83728
 21
0.106873
  0
LINE
  8
0
 10
7.83728
 20
0.106873
 11
7.61302
 21
0.0785522
  0
LINE
  8
0
 10
7.61302
 20
0.0785522
 11
7.38696
 21
0.0785522
  0
LINE
  8
0
 10
-7.61302
 20
0.0785522
 11
-7.83728
 21
0.106873
  0
LINE
  8
0
 10
-7.83728
 20
0.106873
 11
-8.05623
 21
0.163086
  0
LINE
  8
0
 10
-8.05623
 20
0.163086
 11
-8.26639
 21
0.246307
  0
LINE
  8
0
 10
-8.26639
 20
0.246307
 11
-8.46448
 21
0.355209
  0
LINE
  8
0
 10
-8.46448
 20
0.355209
 11
-8.64735
 21
0.488068
  0
LINE
  8
0
 10
-8.64735
 20
0.488068
 11
-8.81213
 21
0.642807
  0
LINE
  8
0
 10
-8.81213
 20
0.642807
 11
-8.95622
 21
0.816986
  0
LINE
  8
0
 10
-8.95622
 20
0.816986
 11
-9.07735
 21
1.00784
  0
LINE
  8
0
 10
-9.07735
 20
1.00784
 11
-9.17358
 21
1.21237
  0
LINE
  8
0
 10
-9.17358
 20
1.21237
 11
-9.24344
 21
1.42735
  0
LINE
  8
0
 10
-9.24344
 20
1.42735
 11
-9.2858
 21
1.6494
  0
LINE
  8
0
 10
-9.2858
 20
1.6494
 11
-9.29999
 21
1.875
  0
LINE
  8
0
 10
-9.29999
 20
1.875
 11
-9.2858
 21
2.10059
  0
LINE
  8
0
 10
-9.2858
 20
2.10059
 11
-9.24344
 21
2.32263
  0
LINE
  8
0
 10
-9.24344
 20
2.32263
 11
-9.17358
 21
2.53761
  0
LINE
  8
0
 10
-9.17358
 20
2.53761
 11
-9.07735
 21
2.74214
  0
LINE
  8
0
 10
-9.07735
 20
2.74214
 11
-8.95622
 21
2.933
  0
LINE
  8
0
 10
-8.95622
 20
2.933
 11
-8.81213
 21
3.10718
  0
LINE
  8
0
 10
-8.81213
 20
3.10718
 11
-8.64735
 21
3.26192
  0
LINE
  8
0
 10
-8.64735
 20
3.26192
 11
-8.46448
 21
3.39478
  0
LINE
  8
0
 10
-8.46448
 20
3.39478
 11
-8.26639
 21
3.50368
  0
LINE
  8
0
 10
-8.26639
 20
3.50368
 11
-8.05623
 21
3.5869
  0
LINE
  8
0
 10
-8.05623
 20
3.5869
 11
-7.83728
 21
3.64311
  0
LINE
  8
0
 10
-7.83728
 20
3.64311
 11
-7.61302
 21
3.67145
  0
LINE
  8
0
 10
-7.61302
 20
3.67145
 11
-7.38696
 21
3.67145
  0
LINE
  8
0
 10
-7.38696
 20
3.67145
 11
-7.1627
 21
3.64311
  0
LINE
  8
0
 10
-7.1627
 20
3.64311
 11
-6.94376
 21
3.5869
  0
LINE
  8
0
 10
-6.94376
 20
3.5869
 11
-6.7336
 21
3.50368
  0
LINE
  8
0
 10
-6.7336
 20
3.50368
 11
-6.53551
 21
3.39478
  0
LINE
  8
0
 10
-6.53551
 20
3.39478
 11
-6.35263
 21
3.26192
  0
LINE
  8
0
 10
-6.35263
 20
3.26192
 11
-6.18785
 21
3.10718
  0
LINE
  8
0
 10
-6.18785
 20
3.10718
 11
-6.04376
 21
2.933
  0
LINE
  8
0
 10
-6.04376
 20
2.933
 11
-5.92264
 21
2.74214
  0
LINE
  8
0
 10
-5.92264
 20
2.74214
 11
-5.8264
 21
2.53761
  0
LINE
  8
0
 10
-5.8264
 20
2.53761
 11
-5.75655
 21
2.32263
  0
LINE
  8
0
 10
-5.75655
 20
2.32263
 11
-5.71419
 21
2.10059
  0
LINE
  8
0
 10
-5.71419
 20
2.10059
 11
-5.7
 21
1.875
  0
LINE
  8
0
 10
-5.7
 20
1.875
 11
-5.71419
 21
1.6494
  0
LINE
  8
0
 10
-5.71419
 20
1.6494
 11
-5.75655
 21
1.42735
  0
LINE
  8
0
 10
-5.75655
 20
1.42735
 11
-5.8264
 21
1.21237
  0
LINE
  8
0
 10
-5.8264
 20
1.21237
 11
-5.92264
 21
1.00784
  0
LINE
  8
0
 10
-5.92264
 20
1.00784
 11
-6.04376
 21
0.816986
  0
LINE
  8
0
 10
-6.04376
 20
0.816986
 11
-6.18785
 21
0.642807
  0
LINE
  8
0
 10
-6.18785
 20
0.642807
 11
-6.35263
 21
0.488068
  0
LINE
  8
0
 10
-6.35263
 20
0.488068
 11
-6.53551
 21
0.355209
  0
LINE
  8
0
 10
-6.53551
 20
0.355209
 11
-6.7336
 21
0.246307
  0
LINE
  8
0
 10
-6.7336
 20
0.246307
 11
-6.94376
 21
0.163086
  0
LINE
  8
0
 10
-6.94376
 20
0.163086
 11
-7.1627
 21
0.106873
  0
LINE
  8
0
 10
-7.1627
 20
0.106873
 11
-7.38696
 21
0.0785522
  0
LINE
  8
0
 10
-7.38696
 20
0.0785522
 11
-7.61302
 21
0.0785522
  0
LINE
  8
0
 10
-0.307663
 20
-10.5153
 11
-0.918167
 21
-10.4382
  0
LINE
  8
0
 10
-0.918167
 20
-10.4382
 11
-1.51418
 21
-10.2852
  0
LINE
  8
0
 10
-1.51418
 20
-10.2852
 11
-2.0863
 21
-10.0586
  0
LINE
  8
0
 10
-2.0863
 20
-10.0586
 11
-2.62555
 21
-9.76219
  0
LINE
  8
0
 10
-2.62555
 20
-9.76219
 11
-3.12337
 21
-9.40051
  0
LINE
  8
0
 10
-3.12337
 20
-9.40051
 11
-3.57195
 21
-8.97928
  0
LINE
  8
0
 10
-3.57195
 20
-8.97928
 11
-3.96417
 21
-8.50514
  0
LINE
  8
0
 10
-3.96417
 20
-8.50514
 11
-4.2939
 21
-7.98558
  0
LINE
  8
0
 10
-4.2939
 20
-7.98558
 11
-4.55589
 21
-7.4288
  0
LINE
  8
0
 10
-4.55589
 20
-7.4288
 11
-4.74605
 21
-6.84357
  0
LINE
  8
0
 10
-4.74605
 20
-6.84357
 11
-4.86136
 21
-6.23912
  0
LINE
  8
0
 10
-4.86136
 20
-6.23912
 11
-4.89999
 21
-5.625
  0
LINE
  8
0
 10
-4.89999
 20
-5.625
 11
-4.86136
 21
-5.01086
  0
LINE
  8
0
 10
-4.86136
 20
-5.01086
 11
-4.74605
 21
-4.40642
  0
LINE
  8
0
 10
-4.74605
 20
-4.40642
 11
-4.55589
 21
-3.82118
  0
LINE
  8
0
 10
-4.55589
 20
-3.82118
 11
-4.2939
 21
-3.2644
  0
LINE
  8
0
 10
-4.2939
 20
-3.2644
 11
-3.96417
 21
-2.74484
  0
LINE
  8
0
 10
-3.96417
 20
-2.74484
 11
-3.57195
 21
-2.27071
  0
LINE
  8
0
 10
-3.57195
 20
-2.27071
 11
-3.12337
 21
-1.84947
  0
LINE
  8
0
 10
-3.12337
 20
-1.84947
 11
-2.62555
 21
-1.48779
  0
LINE
  8
0
 10
-2.62555
 20
-1.48779
 11
-2.0863
 21
-1.19135
  0
LINE
  8
0
 10
-2.0863
 20
-1.19135
 11
-1.51418
 21
-0.964813
  0
LINE
  8
0
 10
-1.51418
 20
-0.964813
 11
-0.918167
 21
-0.811783
  0
LINE
  8
0
 10
-0.918167
 20
-0.811783
 11
-0.307663
 21
-0.734665
  0
LINE
  8
0
 10
-0.307663
 20
-0.734665
 11
0.307663
 21
-0.734665
  0
LINE
  8
0
 10
0.307663
 20
-0.734665
 11
0.918167
 21
-0.811783
  0
LINE
  8
0
 10
0.918167
 20
-0.811783
 11
1.51418
 21
-0.964813
  0
LINE
  8
0
 10
1.51418
 20
-0.964813
 11
2.0863
 21
-1.19135
  0
LINE
  8
0
 10
2.0863
 20
-1.19135
 11
2.62555
 21
-1.48779
  0
LINE
  8
0
 10
2.62555
 20
-1.48779
 11
3.12337
 21
-1.84947
  0
LINE
  8
0
 10
3.12337
 20
-1.84947
 11
3.57195
 21
-2.27071
  0
LINE
  8
0
 10
3.57195
 20
-2.27071
 11
3.96417
 21
-2.74484
  0
LINE
  8
0
 10
3.96417
 20
-2.74484
 11
4.2939
 21
-3.2644
  0
LINE
  8
0
 10
4.2939
 20
-3.2644
 11
4.55589
 21
-3.82118
  0
LINE
  8
0
 10
4.55589
 20
-3.82118
 11
4.74605
 21
-4.40642
  0
LINE
  8
0
 10
4.74605
 20
-4.40642
 11
4.86136
 21
-5.01086
  0
LINE
  8
0
 10
4.86136
 20
-5.01086
 11
4.89999
 21
-5.625
  0
LINE
  8
0
 10
4.89999
 20
-5.625
 11
4.86136
 21
-6.23912
  0
LINE
  8
0
 10
4.86136
 20
-6.23912
 11
4.74605
 21
-6.84357
  0
LINE
  8
0
 10
4.74605
 20
-6.84357
 11
4.55589
 21
-7.4288
  0
LINE
  8
0
 10
4.55589
 20
-7.4288
 11
4.2939
 21
-7.98558
  0
LINE
  8
0
 10
4.2939
 20
-7.98558
 11
3.96417
 21
-8.50514
  0
LINE
  8
0
 10
3.96417
 20
-8.50514
 11
3.57195
 21
-8.97928
  0
LINE
  8
0
 10
3.57195
 20
-8.97928
 11
3.12337
 21
-9.40051
  0
LINE
  8
0
 10
3.12337
 20
-9.40051
 11
2.62555
 21
-9.76219
  0
LINE
  8
0
 10
2.62555
 20
-9.76219
 11
2.0863
 21
-10.0586
  0
LINE
  8
0
 10
2.0863
 20
-10.0586
 11
1.51418
 21
-10.2852
  0
LINE
  8
0
 10
1.51418
 20
-10.2852
 11
0.918167
 21
-10.4382
  0
LINE
  8
0
 10
0.918167
 20
-10.4382
 11
0.307663
 21
-10.5153
  0
LINE
  8
0
 10
0.307663
 20
-10.5153
 11
-0.307663
 21
-10.5153
  0
ENDSEC
  0
SECTION
  2
OBJECTS
  0
DICTIONARY
  0
ENDSEC
  0
EOF
