  0
SECTION
  2
BLOCKS
  0
ENDSEC
  0
SECTION
  2
ENTITIES
  0
LINE
  8
0
 10
1.40535
 20
-12.9921
 11
2.31763
 21
-12.7579
  0
LINE
  8
0
 10
2.31763
 20
-12.7579
 11
3.19334
 21
-12.4112
  0
LINE
  8
0
 10
3.19334
 20
-12.4112
 11
4.01869
 21
-11.9575
  0
LINE
  8
0
 10
4.01869
 20
-11.9575
 11
4.78067
 21
-11.4038
  0
LINE
  8
0
 10
4.78067
 20
-11.4038
 11
5.46725
 21
-10.7591
  0
LINE
  8
0
 10
5.46725
 20
-10.7591
 11
6.06763
 21
-10.0334
  0
LINE
  8
0
 10
6.06763
 20
-10.0334
 11
6.5723
 21
-9.23814
  0
LINE
  8
0
 10
6.5723
 20
-9.23814
 11
6.97331
 21
-8.38593
  0
LINE
  8
0
 10
6.97331
 20
-8.38593
 11
7.26436
 21
-7.49017
  0
LINE
  8
0
 10
7.26436
 20
-7.49017
 11
7.35976
 21
-6.99013
  0
LINE
  8
0
 10
7.35976
 20
-6.99013
 11
9.81395
 21
-6.99013
  0
LINE
  8
0
 10
9.81395
 20
-6.99013
 11
10.4369
 21
-6.91142
  0
LINE
  8
0
 10
10.4369
 20
-6.91142
 11
11.0451
 21
-6.75528
  0
LINE
  8
0
 10
11.0451
 20
-6.75528
 11
11.6289
 21
-6.52412
  0
LINE
  8
0
 10
11.6289
 20
-6.52412
 11
12.1791
 21
-6.22163
  0
LINE
  8
0
 10
12.1791
 20
-6.22163
 11
12.6871
 21
-5.85255
  0
LINE
  8
0
 10
12.6871
 20
-5.85255
 11
13.1448
 21
-5.42273
  0
LINE
  8
0
 10
13.1448
 20
-5.42273
 11
13.5451
 21
-4.93892
  0
LINE
  8
0
 10
13.5451
 20
-4.93892
 11
13.8815
 21
-4.40877
  0
LINE
  8
0
 10
13.8815
 20
-4.40877
 11
14.1489
 21
-3.84062
  0
LINE
  8
0
 10
14.1489
 20
-3.84062
 11
14.3429
 21
-3.24344
  0
LINE
  8
0
 10
14.3429
 20
-3.24344
 11
14.4606
 21
-2.62666
  0
LINE
  8
0
 10
14.4606
 20
-2.62666
 11
14.5
 21
-2
  0
LINE
  8
0
 10
14.5
 20
-2
 11
14.5
 21
2
  0
LINE
  8
0
 10
14.5
 20
2
 11
14.4606
 21
2.62666
  0
LINE
  8
0
 10
14.4606
 20
2.62666
 11
14.3429
 21
3.24344
  0
LINE
  8
0
 10
14.3429
 20
3.24344
 11
14.1489
 21
3.84062
  0
LINE
  8
0
 10
14.1489
 20
3.84062
 11
13.8815
 21
4.40877
  0
LINE
  8
0
 10
13.8815
 20
4.40877
 11
13.5451
 21
4.93892
  0
LINE
  8
0
 10
13.5451
 20
4.93892
 11
13.1448
 21
5.42273
  0
LINE
  8
0
 10
13.1448
 20
5.42273
 11
12.6871
 21
5.85255
  0
LINE
  8
0
 10
12.6871
 20
5.85255
 11
12.1791
 21
6.22163
  0
LINE
  8
0
 10
12.1791
 20
6.22163
 11
11.6289
 21
6.52412
  0
LINE
  8
0
 10
11.6289
 20
6.52412
 11
11.0451
 21
6.75528
  0
LINE
  8
0
 10
11.0451
 20
6.75528
 11
10.4369
 21
6.91142
  0
LINE
  8
0
 10
10.4369
 20
6.91142
 11
9.81395
 21
6.99013
  0
LINE
  8
0
 10
9.81395
 20
6.99013
 11
-9.81395
 21
6.99013
  0
LINE
  8
0
 10
-9.81395
 20
6.99013
 11
-10.4369
 21
6.91142
  0
LINE
  8
0
 10
-10.4369
 20
6.91142
 11
-11.0451
 21
6.75528
  0
LINE
  8
0
 10
-11.0451
 20
6.75528
 11
-11.6289
 21
6.52412
  0
LINE
  8
0
 10
-11.6289
 20
6.52412
 11
-12.1791
 21
6.22163
  0
LINE
  8
0
 10
-12.1791
 20
6.22163
 11
-12.6871
 21
5.85255
  0
LINE
  8
0
 10
-12.6871
 20
5.85255
 11
-13.1448
 21
5.42273
  0
LINE
  8
0
 10
-13.1448
 20
5.42273
 11
-13.5451
 21
4.93892
  0
LINE
  8
0
 10
-13.5451
 20
4.93892
 11
-13.8815
 21
4.40877
  0
LINE
  8
0
 10
-13.8815
 20
4.40877
 11
-14.1489
 21
3.84062
  0
LINE
  8
0
 10
-14.1489
 20
3.84062
 11
-14.3429
 21
3.24344
  0
LINE
  8
0
 10
-14.3429
 20
3.24344
 11
-14.4606
 21
2.62666
  0
LINE
  8
0
 10
-14.4606
 20
2.62666
 11
-14.5
 21
2
  0
LINE
  8
0
 10
-14.5
 20
2
 11
-14.5
 21
-2
  0
LINE
  8
0
 10
-14.5
 20
-2
 11
-14.4606
 21
-2.62666
  0
LINE
  8
0
 10
-14.4606
 20
-2.62666
 11
-14.3429
 21
-3.24344
  0
LINE
  8
0
 10
-14.3429
 20
-3.24344
 11
-14.1489
 21
-3.84062
  0
LINE
  8
0
 10
-14.1489
 20
-3.84062
 11
-13.8815
 21
-4.40877
  0
LINE
  8
0
 10
-13.8815
 20
-4.40877
 11
-13.5451
 21
-4.93892
  0
LINE
  8
0
 10
-13.5451
 20
-4.93892
 11
-13.1448
 21
-5.42273
  0
LINE
  8
0
 10
-13.1448
 20
-5.42273
 11
-12.6871
 21
-5.85255
  0
LINE
  8
0
 10
-12.6871
 20
-5.85255
 11
-12.1791
 21
-6.22163
  0
LINE
  8
0
 10
-12.1791
 20
-6.22163
 11
-11.6289
 21
-6.52412
  0
LINE
  8
0
 10
-11.6289
 20
-6.52412
 11
-11.0451
 21
-6.75528
  0
LINE
  8
0
 10
-11.0451
 20
-6.75528
 11
-10.4369
 21
-6.91142
  0
LINE
  8
0
 10
-10.4369
 20
-6.91142
 11
-9.81395
 21
-6.99013
  0
LINE
  8
0
 10
-9.81395
 20
-6.99013
 11
-7.35976
 21
-6.99013
  0
LINE
  8
0
 10
-7.35976
 20
-6.99013
 11
-7.26436
 21
-7.49017
  0
LINE
  8
0
 10
-7.26436
 20
-7.49017
 11
-6.97331
 21
-8.38593
  0
LINE
  8
0
 10
-6.97331
 20
-8.38593
 11
-6.5723
 21
-9.23814
  0
LINE
  8
0
 10
-6.5723
 20
-9.23814
 11
-6.06763
 21
-10.0334
  0
LINE
  8
0
 10
-6.06763
 20
-10.0334
 11
-5.46725
 21
-10.7591
  0
LINE
  8
0
 10
-5.46725
 20
-10.7591
 11
-4.78067
 21
-11.4038
  0
LINE
  8
0
 10
-4.78067
 20
-11.4038
 11
-4.01869
 21
-11.9575
  0
LINE
  8
0
 10
-4.01869
 20
-11.9575
 11
-3.19334
 21
-12.4112
  0
LINE
  8
0
 10
-3.19334
 20
-12.4112
 11
-2.31763
 21
-12.7579
  0
LINE
  8
0
 10
-2.31763
 20
-12.7579
 11
-1.40535
 21
-12.9921
  0
LINE
  8
0
 10
-1.40535
 20
-12.9921
 11
-0.470917
 21
-13.1102
  0
LINE
  8
0
 10
-0.470917
 20
-13.1102
 11
0.470917
 21
-13.1102
  0
LINE
  8
0
 10
0.470917
 20
-13.1102
 11
1.40535
 21
-12.9921
  0
LINE
  8
0
 10
7.38696
 20
0.0785522
 11
7.1627
 21
0.106873
  0
LINE
  8
0
 10
7.1627
 20
0.106873
 11
6.94376
 21
0.163086
  0
LINE
  8
0
 10
6.94376
 20
0.163086
 11
6.7336
 21
0.246307
  0
LINE
  8
0
 10
6.7336
 20
0.246307
 11
6.53551
 21
0.355209
  0
LINE
  8
0
 10
6.53551
 20
0.355209
 11
6.35263
 21
0.488068
  0
LINE
  8
0
 10
6.35263
 20
0.488068
 11
6.18785
 21
0.642807
  0
LINE
  8
0
 10
6.18785
 20
0.642807
 11
6.04376
 21
0.816986
  0
LINE
  8
0
 10
6.04376
 20
0.816986
 11
5.92264
 21
1.00784
  0
LINE
  8
0
 10
5.92264
 20
1.00784
 11
5.8264
 21
1.21237
  0
LINE
  8
0
 10
5.8264
 20
1.21237
 11
5.75655
 21
1.42735
  0
LINE
  8
0
 10
5.75655
 20
1.42735
 11
5.71419
 21
1.6494
  0
LINE
  8
0
 10
5.71419
 20
1.6494
 11
5.7
 21
1.875
  0
LINE
  8
0
 10
5.7
 20
1.875
 11
5.71419
 21
2.10059
  0
LINE
  8
0
 10
5.71419
 20
2.10059
 11
5.75655
 21
2.32263
  0
LINE
  8
0
 10
5.75655
 20
2.32263
 11
5.8264
 21
2.53761
  0
LINE
  8
0
 10
5.8264
 20
2.53761
 11
5.92264
 21
2.74214
  0
LINE
  8
0
 10
5.92264
 20
2.74214
 11
6.04376
 21
2.933
  0
LINE
  8
0
 10
6.04376
 20
2.933
 11
6.18785
 21
3.10718
  0
LINE
  8
0
 10
6.18785
 20
3.10718
 11
6.35263
 21
3.26192
  0
LINE
  8
0
 10
6.35263
 20
3.26192
 11
6.53551
 21
3.39478
  0
LINE
  8
0
 10
6.53551
 20
3.39478
 11
6.7336
 21
3.50368
  0
LINE
  8
0
 10
6.7336
 20
3.50368
 11
6.94376
 21
3.5869
  0
LINE
  8
0
 10
6.94376
 20
3.5869
 11
7.1627
 21
3.64311
  0
LINE
  8
0
 10
7.1627
 20
3.64311
 11
7.38696
 21
3.67145
  0
LINE
  8
0
 10
7.38696
 20
3.67145
 11
7.61302
 21
3.67145
  0
LINE
  8
0
 10
7.61302
 20
3.67145
 11
7.83728
 21
3.64311
  0
LINE
  8
0
 10
7.83728
 20
3.64311
 11
8.05623
 21
3.5869
  0
LINE
  8
0
 10
8.05623
 20
3.5869
 11
8.26639
 21
3.50368
  0
LINE
  8
0
 10
8.26639
 20
3.50368
 11
8.46448
 21
3.39478
  0
LINE
  8
0
 10
8.46448
 20
3.39478
 11
8.64735
 21
3.26192
  0
LINE
  8
0
 10
8.64735
 20
3.26192
 11
8.81213
 21
3.10718
  0
LINE
  8
0
 10
8.81213
 20
3.10718
 11
8.95622
 21
2.933
  0
LINE
  8
0
 10
8.95622
 20
2.933
 11
9.07735
 21
2.74214
  0
LINE
  8
0
 10
9.07735
 20
2.74214
 11
9.17358
 21
2.53761
  0
LINE
  8
0
 10
9.17358
 20
2.53761
 11
9.24344
 21
2.32263
  0
LINE
  8
0
 10
9.24344
 20
2.32263
 11
9.2858
 21
2.10059
  0
LINE
  8
0
 10
9.2858
 20
2.10059
 11
9.29999
 21
1.875
  0
LINE
  8
0
 10
9.29999
 20
1.875
 11
9.2858
 21
1.6494
  0
LINE
  8
0
 10
9.2858
 20
1.6494
 11
9.24344
 21
1.42735
  0
LINE
  8
0
 10
9.24344
 20
1.42735
 11
9.17358
 21
1.21237
  0
LINE
  8
0
 10
9.17358
 20
1.21237
 11
9.07735
 21
1.00784
  0
LINE
  8
0
 10
9.07735
 20
1.00784
 11
8.95622
 21
0.816986
  0
LINE
  8
0
 10
8.95622
 20
0.816986
 11
8.81213
 21
0.642807
  0
LINE
  8
0
 10
8.81213
 20
0.642807
 11
8.64735
 21
0.488068
  0
LINE
  8
0
 10
8.64735
 20
0.488068
 11
8.46448
 21
0.355209
  0
LINE
  8
0
 10
8.46448
 20
0.355209
 11
8.26639
 21
0.246307
  0
LINE
  8
0
 10
8.26639
 20
0.246307
 11
8.05623
 21
0.163086
  0
LINE
  8
0
 10
8.05623
 20
0.163086
 11
7.83728
 21
0.106873
  0
LINE
  8
0
 10
7.83728
 20
0.106873
 11
7.61302
 21
0.0785522
  0
LINE
  8
0
 10
7.61302
 20
0.0785522
 11
7.38696
 21
0.0785522
  0
LINE
  8
0
 10
-7.61302
 20
0.0785522
 11
-7.83728
 21
0.106873
  0
LINE
  8
0
 10
-7.83728
 20
0.106873
 11
-8.05623
 21
0.163086
  0
LINE
  8
0
 10
-8.05623
 20
0.163086
 11
-8.26639
 21
0.246307
  0
LINE
  8
0
 10
-8.26639
 20
0.246307
 11
-8.46448
 21
0.355209
  0
LINE
  8
0
 10
-8.46448
 20
0.355209
 11
-8.64735
 21
0.488068
  0
LINE
  8
0
 10
-8.64735
 20
0.488068
 11
-8.81213
 21
0.642807
  0
LINE
  8
0
 10
-8.81213
 20
0.642807
 11
-8.95622
 21
0.816986
  0
LINE
  8
0
 10
-8.95622
 20
0.816986
 11
-9.07735
 21
1.00784
  0
LINE
  8
0
 10
-9.07735
 20
1.00784
 11
-9.17358
 21
1.21237
  0
LINE
  8
0
 10
-9.17358
 20
1.21237
 11
-9.24344
 21
1.42735
  0
LINE
  8
0
 10
-9.24344
 20
1.42735
 11
-9.2858
 21
1.6494
  0
LINE
  8
0
 10
-9.2858
 20
1.6494
 11
-9.29999
 21
1.875
  0
LINE
  8
0
 10
-9.29999
 20
1.875
 11
-9.2858
 21
2.10059
  0
LINE
  8
0
 10
-9.2858
 20
2.10059
 11
-9.24344
 21
2.32263
  0
LINE
  8
0
 10
-9.24344
 20
2.32263
 11
-9.17358
 21
2.53761
  0
LINE
  8
0
 10
-9.17358
 20
2.53761
 11
-9.07735
 21
2.74214
  0
LINE
  8
0
 10
-9.07735
 20
2.74214
 11
-8.95622
 21
2.933
  0
LINE
  8
0
 10
-8.95622
 20
2.933
 11
-8.81213
 21
3.10718
  0
LINE
  8
0
 10
-8.81213
 20
3.10718
 11
-8.64735
 21
3.26192
  0
LINE
  8
0
 10
-8.64735
 20
3.26192
 11
-8.46448
 21
3.39478
  0
LINE
  8
0
 10
-8.46448
 20
3.39478
 11
-8.26639
 21
3.50368
  0
LINE
  8
0
 10
-8.26639
 20
3.50368
 11
-8.05623
 21
3.5869
  0
LINE
  8
0
 10
-8.05623
 20
3.5869
 11
-7.83728
 21
3.64311
  0
LINE
  8
0
 10
-7.83728
 20
3.64311
 11
-7.61302
 21
3.67145
  0
LINE
  8
0
 10
-7.61302
 20
3.67145
 11
-7.38696
 21
3.67145
  0
LINE
  8
0
 10
-7.38696
 20
3.67145
 11
-7.1627
 21
3.64311
  0
LINE
  8
0
 10
-7.1627
 20
3.64311
 11
-6.94376
 21
3.5869
  0
LINE
  8
0
 10
-6.94376
 20
3.5869
 11
-6.7336
 21
3.50368
  0
LINE
  8
0
 10
-6.7336
 20
3.50368
 11
-6.53551
 21
3.39478
  0
LINE
  8
0
 10
-6.53551
 20
3.39478
 11
-6.35263
 21
3.26192
  0
LINE
  8
0
 10
-6.35263
 20
3.26192
 11
-6.18785
 21
3.10718
  0
LINE
  8
0
 10
-6.18785
 20
3.10718
 11
-6.04376
 21
2.933
  0
LINE
  8
0
 10
-6.04376
 20
2.933
 11
-5.92264
 21
2.74214
  0
LINE
  8
0
 10
-5.92264
 20
2.74214
 11
-5.8264
 21
2.53761
  0
LINE
  8
0
 10
-5.8264
 20
2.53761
 11
-5.75655
 21
2.32263
  0
LINE
  8
0
 10
-5.75655
 20
2.32263
 11
-5.71419
 21
2.10059
  0
LINE
  8
0
 10
-5.71419
 20
2.10059
 11
-5.7
 21
1.875
  0
LINE
  8
0
 10
-5.7
 20
1.875
 11
-5.71419
 21
1.6494
  0
LINE
  8
0
 10
-5.71419
 20
1.6494
 11
-5.75655
 21
1.42735
  0
LINE
  8
0
 10
-5.75655
 20
1.42735
 11
-5.8264
 21
1.21237
  0
LINE
  8
0
 10
-5.8264
 20
1.21237
 11
-5.92264
 21
1.00784
  0
LINE
  8
0
 10
-5.92264
 20
1.00784
 11
-6.04376
 21
0.816986
  0
LINE
  8
0
 10
-6.04376
 20
0.816986
 11
-6.18785
 21
0.642807
  0
LINE
  8
0
 10
-6.18785
 20
0.642807
 11
-6.35263
 21
0.488068
  0
LINE
  8
0
 10
-6.35263
 20
0.488068
 11
-6.53551
 21
0.355209
  0
LINE
  8
0
 10
-6.53551
 20
0.355209
 11
-6.7336
 21
0.246307
  0
LINE
  8
0
 10
-6.7336
 20
0.246307
 11
-6.94376
 21
0.163086
  0
LINE
  8
0
 10
-6.94376
 20
0.163086
 11
-7.1627
 21
0.106873
  0
LINE
  8
0
 10
-7.1627
 20
0.106873
 11
-7.38696
 21
0.0785522
  0
LINE
  8
0
 10
-7.38696
 20
0.0785522
 11
-7.61302
 21
0.0785522
  0
LINE
  8
0
 10
-0.291962
 20
-10.2658
 11
-0.871323
 21
-10.1926
  0
LINE
  8
0
 10
-0.871323
 20
-10.1926
 11
-1.43692
 21
-10.0474
  0
LINE
  8
0
 10
-1.43692
 20
-10.0474
 11
-1.97987
 21
-9.83244
  0
LINE
  8
0
 10
-1.97987
 20
-9.83244
 11
-2.49159
 21
-9.55112
  0
LINE
  8
0
 10
-2.49159
 20
-9.55112
 11
-2.96402
 21
-9.20789
  0
LINE
  8
0
 10
-2.96402
 20
-9.20789
 11
-3.38969
 21
-8.80814
  0
LINE
  8
0
 10
-3.38969
 20
-8.80814
 11
-3.76192
 21
-8.3582
  0
LINE
  8
0
 10
-3.76192
 20
-8.3582
 11
-4.07481
 21
-7.86514
  0
LINE
  8
0
 10
-4.07481
 20
-7.86514
 11
-4.32346
 21
-7.33678
  0
LINE
  8
0
 10
-4.32346
 20
-7.33678
 11
-4.50391
 21
-6.7814
  0
LINE
  8
0
 10
-4.50391
 20
-6.7814
 11
-4.61333
 21
-6.20779
  0
LINE
  8
0
 10
-4.61333
 20
-6.20779
 11
-4.64999
 21
-5.625
  0
LINE
  8
0
 10
-4.64999
 20
-5.625
 11
-4.61333
 21
-5.04219
  0
LINE
  8
0
 10
-4.61333
 20
-5.04219
 11
-4.50391
 21
-4.46858
  0
LINE
  8
0
 10
-4.50391
 20
-4.46858
 11
-4.32346
 21
-3.91321
  0
LINE
  8
0
 10
-4.32346
 20
-3.91321
 11
-4.07481
 21
-3.38484
  0
LINE
  8
0
 10
-4.07481
 20
-3.38484
 11
-3.76192
 21
-2.89178
  0
LINE
  8
0
 10
-3.76192
 20
-2.89178
 11
-3.38969
 21
-2.44185
  0
LINE
  8
0
 10
-3.38969
 20
-2.44185
 11
-2.96402
 21
-2.0421
  0
LINE
  8
0
 10
-2.96402
 20
-2.0421
 11
-2.49159
 21
-1.69887
  0
LINE
  8
0
 10
-2.49159
 20
-1.69887
 11
-1.97987
 21
-1.41754
  0
LINE
  8
0
 10
-1.97987
 20
-1.41754
 11
-1.43692
 21
-1.20258
  0
LINE
  8
0
 10
-1.43692
 20
-1.20258
 11
-0.871323
 21
-1.05736
  0
LINE
  8
0
 10
-0.871323
 20
-1.05736
 11
-0.291962
 21
-0.984161
  0
LINE
  8
0
 10
-0.291962
 20
-0.984161
 11
0.291962
 21
-0.984161
  0
LINE
  8
0
 10
0.291962
 20
-0.984161
 11
0.871323
 21
-1.05736
  0
LINE
  8
0
 10
0.871323
 20
-1.05736
 11
1.43692
 21
-1.20258
  0
LINE
  8
0
 10
1.43692
 20
-1.20258
 11
1.97987
 21
-1.41754
  0
LINE
  8
0
 10
1.97987
 20
-1.41754
 11
2.49159
 21
-1.69887
  0
LINE
  8
0
 10
2.49159
 20
-1.69887
 11
2.96402
 21
-2.0421
  0
LINE
  8
0
 10
2.96402
 20
-2.0421
 11
3.38969
 21
-2.44185
  0
LINE
  8
0
 10
3.38969
 20
-2.44185
 11
3.76192
 21
-2.89178
  0
LINE
  8
0
 10
3.76192
 20
-2.89178
 11
4.07481
 21
-3.38484
  0
LINE
  8
0
 10
4.07481
 20
-3.38484
 11
4.32346
 21
-3.91321
  0
LINE
  8
0
 10
4.32346
 20
-3.91321
 11
4.50391
 21
-4.46858
  0
LINE
  8
0
 10
4.50391
 20
-4.46858
 11
4.61333
 21
-5.04219
  0
LINE
  8
0
 10
4.61333
 20
-5.04219
 11
4.64999
 21
-5.625
  0
LINE
  8
0
 10
4.64999
 20
-5.625
 11
4.61333
 21
-6.20779
  0
LINE
  8
0
 10
4.61333
 20
-6.20779
 11
4.50391
 21
-6.7814
  0
LINE
  8
0
 10
4.50391
 20
-6.7814
 11
4.32346
 21
-7.33678
  0
LINE
  8
0
 10
4.32346
 20
-7.33678
 11
4.07481
 21
-7.86514
  0
LINE
  8
0
 10
4.07481
 20
-7.86514
 11
3.76192
 21
-8.3582
  0
LINE
  8
0
 10
3.76192
 20
-8.3582
 11
3.38969
 21
-8.80814
  0
LINE
  8
0
 10
3.38969
 20
-8.80814
 11
2.96402
 21
-9.20789
  0
LINE
  8
0
 10
2.96402
 20
-9.20789
 11
2.49159
 21
-9.55112
  0
LINE
  8
0
 10
2.49159
 20
-9.55112
 11
1.97987
 21
-9.83244
  0
LINE
  8
0
 10
1.97987
 20
-9.83244
 11
1.43692
 21
-10.0474
  0
LINE
  8
0
 10
1.43692
 20
-10.0474
 11
0.871323
 21
-10.1926
  0
LINE
  8
0
 10
0.871323
 20
-10.1926
 11
0.291962
 21
-10.2658
  0
LINE
  8
0
 10
0.291962
 20
-10.2658
 11
-0.291962
 21
-10.2658
  0
ENDSEC
  0
SECTION
  2
OBJECTS
  0
DICTIONARY
  0
ENDSEC
  0
EOF
