  0
SECTION
  2
BLOCKS
  0
ENDSEC
  0
SECTION
  2
ENTITIES
  0
LINE
  8
0
 10
1.40535
 20
-12.9921
 11
2.31763
 21
-12.7579
  0
LINE
  8
0
 10
2.31763
 20
-12.7579
 11
3.19334
 21
-12.4112
  0
LINE
  8
0
 10
3.19334
 20
-12.4112
 11
4.01869
 21
-11.9575
  0
LINE
  8
0
 10
4.01869
 20
-11.9575
 11
4.78067
 21
-11.4038
  0
LINE
  8
0
 10
4.78067
 20
-11.4038
 11
5.46725
 21
-10.7591
  0
LINE
  8
0
 10
5.46725
 20
-10.7591
 11
6.06763
 21
-10.0334
  0
LINE
  8
0
 10
6.06763
 20
-10.0334
 11
6.5723
 21
-9.23814
  0
LINE
  8
0
 10
6.5723
 20
-9.23814
 11
6.97331
 21
-8.38593
  0
LINE
  8
0
 10
6.97331
 20
-8.38593
 11
7.26436
 21
-7.49017
  0
LINE
  8
0
 10
7.26436
 20
-7.49017
 11
7.35976
 21
-6.99013
  0
LINE
  8
0
 10
7.35976
 20
-6.99013
 11
9.81395
 21
-6.99013
  0
LINE
  8
0
 10
9.81395
 20
-6.99013
 11
10.4369
 21
-6.91142
  0
LINE
  8
0
 10
10.4369
 20
-6.91142
 11
11.0451
 21
-6.75528
  0
LINE
  8
0
 10
11.0451
 20
-6.75528
 11
11.6289
 21
-6.52412
  0
LINE
  8
0
 10
11.6289
 20
-6.52412
 11
12.1791
 21
-6.22163
  0
LINE
  8
0
 10
12.1791
 20
-6.22163
 11
12.6871
 21
-5.85255
  0
LINE
  8
0
 10
12.6871
 20
-5.85255
 11
13.1448
 21
-5.42273
  0
LINE
  8
0
 10
13.1448
 20
-5.42273
 11
13.5451
 21
-4.93892
  0
LINE
  8
0
 10
13.5451
 20
-4.93892
 11
13.8815
 21
-4.40877
  0
LINE
  8
0
 10
13.8815
 20
-4.40877
 11
14.1489
 21
-3.84062
  0
LINE
  8
0
 10
14.1489
 20
-3.84062
 11
14.3429
 21
-3.24344
  0
LINE
  8
0
 10
14.3429
 20
-3.24344
 11
14.4606
 21
-2.62666
  0
LINE
  8
0
 10
14.4606
 20
-2.62666
 11
14.5
 21
-2
  0
LINE
  8
0
 10
14.5
 20
-2
 11
14.5
 21
2
  0
LINE
  8
0
 10
14.5
 20
2
 11
14.4606
 21
2.62666
  0
LINE
  8
0
 10
14.4606
 20
2.62666
 11
14.3429
 21
3.24344
  0
LINE
  8
0
 10
14.3429
 20
3.24344
 11
14.1489
 21
3.84062
  0
LINE
  8
0
 10
14.1489
 20
3.84062
 11
13.8815
 21
4.40877
  0
LINE
  8
0
 10
13.8815
 20
4.40877
 11
13.5451
 21
4.93892
  0
LINE
  8
0
 10
13.5451
 20
4.93892
 11
13.1448
 21
5.42273
  0
LINE
  8
0
 10
13.1448
 20
5.42273
 11
12.6871
 21
5.85255
  0
LINE
  8
0
 10
12.6871
 20
5.85255
 11
12.1791
 21
6.22163
  0
LINE
  8
0
 10
12.1791
 20
6.22163
 11
11.6289
 21
6.52412
  0
LINE
  8
0
 10
11.6289
 20
6.52412
 11
11.0451
 21
6.75528
  0
LINE
  8
0
 10
11.0451
 20
6.75528
 11
10.4369
 21
6.91142
  0
LINE
  8
0
 10
10.4369
 20
6.91142
 11
9.81395
 21
6.99013
  0
LINE
  8
0
 10
9.81395
 20
6.99013
 11
-9.81395
 21
6.99013
  0
LINE
  8
0
 10
-9.81395
 20
6.99013
 11
-10.4369
 21
6.91142
  0
LINE
  8
0
 10
-10.4369
 20
6.91142
 11
-11.0451
 21
6.75528
  0
LINE
  8
0
 10
-11.0451
 20
6.75528
 11
-11.6289
 21
6.52412
  0
LINE
  8
0
 10
-11.6289
 20
6.52412
 11
-12.1791
 21
6.22163
  0
LINE
  8
0
 10
-12.1791
 20
6.22163
 11
-12.6871
 21
5.85255
  0
LINE
  8
0
 10
-12.6871
 20
5.85255
 11
-13.1448
 21
5.42273
  0
LINE
  8
0
 10
-13.1448
 20
5.42273
 11
-13.5451
 21
4.93892
  0
LINE
  8
0
 10
-13.5451
 20
4.93892
 11
-13.8815
 21
4.40877
  0
LINE
  8
0
 10
-13.8815
 20
4.40877
 11
-14.1489
 21
3.84062
  0
LINE
  8
0
 10
-14.1489
 20
3.84062
 11
-14.3429
 21
3.24344
  0
LINE
  8
0
 10
-14.3429
 20
3.24344
 11
-14.4606
 21
2.62666
  0
LINE
  8
0
 10
-14.4606
 20
2.62666
 11
-14.5
 21
2
  0
LINE
  8
0
 10
-14.5
 20
2
 11
-14.5
 21
-2
  0
LINE
  8
0
 10
-14.5
 20
-2
 11
-14.4606
 21
-2.62666
  0
LINE
  8
0
 10
-14.4606
 20
-2.62666
 11
-14.3429
 21
-3.24344
  0
LINE
  8
0
 10
-14.3429
 20
-3.24344
 11
-14.1489
 21
-3.84062
  0
LINE
  8
0
 10
-14.1489
 20
-3.84062
 11
-13.8815
 21
-4.40877
  0
LINE
  8
0
 10
-13.8815
 20
-4.40877
 11
-13.5451
 21
-4.93892
  0
LINE
  8
0
 10
-13.5451
 20
-4.93892
 11
-13.1448
 21
-5.42273
  0
LINE
  8
0
 10
-13.1448
 20
-5.42273
 11
-12.6871
 21
-5.85255
  0
LINE
  8
0
 10
-12.6871
 20
-5.85255
 11
-12.1791
 21
-6.22163
  0
LINE
  8
0
 10
-12.1791
 20
-6.22163
 11
-11.6289
 21
-6.52412
  0
LINE
  8
0
 10
-11.6289
 20
-6.52412
 11
-11.0451
 21
-6.75528
  0
LINE
  8
0
 10
-11.0451
 20
-6.75528
 11
-10.4369
 21
-6.91142
  0
LINE
  8
0
 10
-10.4369
 20
-6.91142
 11
-9.81395
 21
-6.99013
  0
LINE
  8
0
 10
-9.81395
 20
-6.99013
 11
-7.35976
 21
-6.99013
  0
LINE
  8
0
 10
-7.35976
 20
-6.99013
 11
-7.26436
 21
-7.49017
  0
LINE
  8
0
 10
-7.26436
 20
-7.49017
 11
-6.97331
 21
-8.38593
  0
LINE
  8
0
 10
-6.97331
 20
-8.38593
 11
-6.5723
 21
-9.23814
  0
LINE
  8
0
 10
-6.5723
 20
-9.23814
 11
-6.06763
 21
-10.0334
  0
LINE
  8
0
 10
-6.06763
 20
-10.0334
 11
-5.46725
 21
-10.7591
  0
LINE
  8
0
 10
-5.46725
 20
-10.7591
 11
-4.78067
 21
-11.4038
  0
LINE
  8
0
 10
-4.78067
 20
-11.4038
 11
-4.01869
 21
-11.9575
  0
LINE
  8
0
 10
-4.01869
 20
-11.9575
 11
-3.19334
 21
-12.4112
  0
LINE
  8
0
 10
-3.19334
 20
-12.4112
 11
-2.31763
 21
-12.7579
  0
LINE
  8
0
 10
-2.31763
 20
-12.7579
 11
-1.40535
 21
-12.9921
  0
LINE
  8
0
 10
-1.40535
 20
-12.9921
 11
-0.470917
 21
-13.1102
  0
LINE
  8
0
 10
-0.470917
 20
-13.1102
 11
0.470917
 21
-13.1102
  0
LINE
  8
0
 10
0.470917
 20
-13.1102
 11
1.40535
 21
-12.9921
  0
LINE
  8
0
 10
7.38696
 20
0.0785522
 11
7.1627
 21
0.106873
  0
LINE
  8
0
 10
7.1627
 20
0.106873
 11
6.94376
 21
0.163086
  0
LINE
  8
0
 10
6.94376
 20
0.163086
 11
6.7336
 21
0.246307
  0
LINE
  8
0
 10
6.7336
 20
0.246307
 11
6.53551
 21
0.355209
  0
LINE
  8
0
 10
6.53551
 20
0.355209
 11
6.35263
 21
0.488068
  0
LINE
  8
0
 10
6.35263
 20
0.488068
 11
6.18785
 21
0.642807
  0
LINE
  8
0
 10
6.18785
 20
0.642807
 11
6.04376
 21
0.816986
  0
LINE
  8
0
 10
6.04376
 20
0.816986
 11
5.92264
 21
1.00784
  0
LINE
  8
0
 10
5.92264
 20
1.00784
 11
5.8264
 21
1.21237
  0
LINE
  8
0
 10
5.8264
 20
1.21237
 11
5.75655
 21
1.42735
  0
LINE
  8
0
 10
5.75655
 20
1.42735
 11
5.71419
 21
1.6494
  0
LINE
  8
0
 10
5.71419
 20
1.6494
 11
5.7
 21
1.875
  0
LINE
  8
0
 10
5.7
 20
1.875
 11
5.71419
 21
2.10059
  0
LINE
  8
0
 10
5.71419
 20
2.10059
 11
5.75655
 21
2.32263
  0
LINE
  8
0
 10
5.75655
 20
2.32263
 11
5.8264
 21
2.53761
  0
LINE
  8
0
 10
5.8264
 20
2.53761
 11
5.92264
 21
2.74214
  0
LINE
  8
0
 10
5.92264
 20
2.74214
 11
6.04376
 21
2.933
  0
LINE
  8
0
 10
6.04376
 20
2.933
 11
6.18785
 21
3.10718
  0
LINE
  8
0
 10
6.18785
 20
3.10718
 11
6.35263
 21
3.26192
  0
LINE
  8
0
 10
6.35263
 20
3.26192
 11
6.53551
 21
3.39478
  0
LINE
  8
0
 10
6.53551
 20
3.39478
 11
6.7336
 21
3.50368
  0
LINE
  8
0
 10
6.7336
 20
3.50368
 11
6.94376
 21
3.5869
  0
LINE
  8
0
 10
6.94376
 20
3.5869
 11
7.1627
 21
3.64311
  0
LINE
  8
0
 10
7.1627
 20
3.64311
 11
7.38696
 21
3.67145
  0
LINE
  8
0
 10
7.38696
 20
3.67145
 11
7.61302
 21
3.67145
  0
LINE
  8
0
 10
7.61302
 20
3.67145
 11
7.83728
 21
3.64311
  0
LINE
  8
0
 10
7.83728
 20
3.64311
 11
8.05623
 21
3.5869
  0
LINE
  8
0
 10
8.05623
 20
3.5869
 11
8.26639
 21
3.50368
  0
LINE
  8
0
 10
8.26639
 20
3.50368
 11
8.46448
 21
3.39478
  0
LINE
  8
0
 10
8.46448
 20
3.39478
 11
8.64735
 21
3.26192
  0
LINE
  8
0
 10
8.64735
 20
3.26192
 11
8.81213
 21
3.10718
  0
LINE
  8
0
 10
8.81213
 20
3.10718
 11
8.95622
 21
2.933
  0
LINE
  8
0
 10
8.95622
 20
2.933
 11
9.07735
 21
2.74214
  0
LINE
  8
0
 10
9.07735
 20
2.74214
 11
9.17358
 21
2.53761
  0
LINE
  8
0
 10
9.17358
 20
2.53761
 11
9.24344
 21
2.32263
  0
LINE
  8
0
 10
9.24344
 20
2.32263
 11
9.2858
 21
2.10059
  0
LINE
  8
0
 10
9.2858
 20
2.10059
 11
9.29999
 21
1.875
  0
LINE
  8
0
 10
9.29999
 20
1.875
 11
9.2858
 21
1.6494
  0
LINE
  8
0
 10
9.2858
 20
1.6494
 11
9.24344
 21
1.42735
  0
LINE
  8
0
 10
9.24344
 20
1.42735
 11
9.17358
 21
1.21237
  0
LINE
  8
0
 10
9.17358
 20
1.21237
 11
9.07735
 21
1.00784
  0
LINE
  8
0
 10
9.07735
 20
1.00784
 11
8.95622
 21
0.816986
  0
LINE
  8
0
 10
8.95622
 20
0.816986
 11
8.81213
 21
0.642807
  0
LINE
  8
0
 10
8.81213
 20
0.642807
 11
8.64735
 21
0.488068
  0
LINE
  8
0
 10
8.64735
 20
0.488068
 11
8.46448
 21
0.355209
  0
LINE
  8
0
 10
8.46448
 20
0.355209
 11
8.26639
 21
0.246307
  0
LINE
  8
0
 10
8.26639
 20
0.246307
 11
8.05623
 21
0.163086
  0
LINE
  8
0
 10
8.05623
 20
0.163086
 11
7.83728
 21
0.106873
  0
LINE
  8
0
 10
7.83728
 20
0.106873
 11
7.61302
 21
0.0785522
  0
LINE
  8
0
 10
7.61302
 20
0.0785522
 11
7.38696
 21
0.0785522
  0
LINE
  8
0
 10
-7.61302
 20
0.0785522
 11
-7.83728
 21
0.106873
  0
LINE
  8
0
 10
-7.83728
 20
0.106873
 11
-8.05623
 21
0.163086
  0
LINE
  8
0
 10
-8.05623
 20
0.163086
 11
-8.26639
 21
0.246307
  0
LINE
  8
0
 10
-8.26639
 20
0.246307
 11
-8.46448
 21
0.355209
  0
LINE
  8
0
 10
-8.46448
 20
0.355209
 11
-8.64735
 21
0.488068
  0
LINE
  8
0
 10
-8.64735
 20
0.488068
 11
-8.81213
 21
0.642807
  0
LINE
  8
0
 10
-8.81213
 20
0.642807
 11
-8.95622
 21
0.816986
  0
LINE
  8
0
 10
-8.95622
 20
0.816986
 11
-9.07735
 21
1.00784
  0
LINE
  8
0
 10
-9.07735
 20
1.00784
 11
-9.17358
 21
1.21237
  0
LINE
  8
0
 10
-9.17358
 20
1.21237
 11
-9.24344
 21
1.42735
  0
LINE
  8
0
 10
-9.24344
 20
1.42735
 11
-9.2858
 21
1.6494
  0
LINE
  8
0
 10
-9.2858
 20
1.6494
 11
-9.29999
 21
1.875
  0
LINE
  8
0
 10
-9.29999
 20
1.875
 11
-9.2858
 21
2.10059
  0
LINE
  8
0
 10
-9.2858
 20
2.10059
 11
-9.24344
 21
2.32263
  0
LINE
  8
0
 10
-9.24344
 20
2.32263
 11
-9.17358
 21
2.53761
  0
LINE
  8
0
 10
-9.17358
 20
2.53761
 11
-9.07735
 21
2.74214
  0
LINE
  8
0
 10
-9.07735
 20
2.74214
 11
-8.95622
 21
2.933
  0
LINE
  8
0
 10
-8.95622
 20
2.933
 11
-8.81213
 21
3.10718
  0
LINE
  8
0
 10
-8.81213
 20
3.10718
 11
-8.64735
 21
3.26192
  0
LINE
  8
0
 10
-8.64735
 20
3.26192
 11
-8.46448
 21
3.39478
  0
LINE
  8
0
 10
-8.46448
 20
3.39478
 11
-8.26639
 21
3.50368
  0
LINE
  8
0
 10
-8.26639
 20
3.50368
 11
-8.05623
 21
3.5869
  0
LINE
  8
0
 10
-8.05623
 20
3.5869
 11
-7.83728
 21
3.64311
  0
LINE
  8
0
 10
-7.83728
 20
3.64311
 11
-7.61302
 21
3.67145
  0
LINE
  8
0
 10
-7.61302
 20
3.67145
 11
-7.38696
 21
3.67145
  0
LINE
  8
0
 10
-7.38696
 20
3.67145
 11
-7.1627
 21
3.64311
  0
LINE
  8
0
 10
-7.1627
 20
3.64311
 11
-6.94376
 21
3.5869
  0
LINE
  8
0
 10
-6.94376
 20
3.5869
 11
-6.7336
 21
3.50368
  0
LINE
  8
0
 10
-6.7336
 20
3.50368
 11
-6.53551
 21
3.39478
  0
LINE
  8
0
 10
-6.53551
 20
3.39478
 11
-6.35263
 21
3.26192
  0
LINE
  8
0
 10
-6.35263
 20
3.26192
 11
-6.18785
 21
3.10718
  0
LINE
  8
0
 10
-6.18785
 20
3.10718
 11
-6.04376
 21
2.933
  0
LINE
  8
0
 10
-6.04376
 20
2.933
 11
-5.92264
 21
2.74214
  0
LINE
  8
0
 10
-5.92264
 20
2.74214
 11
-5.8264
 21
2.53761
  0
LINE
  8
0
 10
-5.8264
 20
2.53761
 11
-5.75655
 21
2.32263
  0
LINE
  8
0
 10
-5.75655
 20
2.32263
 11
-5.71419
 21
2.10059
  0
LINE
  8
0
 10
-5.71419
 20
2.10059
 11
-5.7
 21
1.875
  0
LINE
  8
0
 10
-5.7
 20
1.875
 11
-5.71419
 21
1.6494
  0
LINE
  8
0
 10
-5.71419
 20
1.6494
 11
-5.75655
 21
1.42735
  0
LINE
  8
0
 10
-5.75655
 20
1.42735
 11
-5.8264
 21
1.21237
  0
LINE
  8
0
 10
-5.8264
 20
1.21237
 11
-5.92264
 21
1.00784
  0
LINE
  8
0
 10
-5.92264
 20
1.00784
 11
-6.04376
 21
0.816986
  0
LINE
  8
0
 10
-6.04376
 20
0.816986
 11
-6.18785
 21
0.642807
  0
LINE
  8
0
 10
-6.18785
 20
0.642807
 11
-6.35263
 21
0.488068
  0
LINE
  8
0
 10
-6.35263
 20
0.488068
 11
-6.53551
 21
0.355209
  0
LINE
  8
0
 10
-6.53551
 20
0.355209
 11
-6.7336
 21
0.246307
  0
LINE
  8
0
 10
-6.7336
 20
0.246307
 11
-6.94376
 21
0.163086
  0
LINE
  8
0
 10
-6.94376
 20
0.163086
 11
-7.1627
 21
0.106873
  0
LINE
  8
0
 10
-7.1627
 20
0.106873
 11
-7.38696
 21
0.0785522
  0
LINE
  8
0
 10
-7.38696
 20
0.0785522
 11
-7.61302
 21
0.0785522
  0
LINE
  8
0
 10
-0.31395
 20
-10.6151
 11
-0.936905
 21
-10.5364
  0
LINE
  8
0
 10
-0.936905
 20
-10.5364
 11
-1.54507
 21
-10.3803
  0
LINE
  8
0
 10
-1.54507
 20
-10.3803
 11
-2.12889
 21
-10.1491
  0
LINE
  8
0
 10
-2.12889
 20
-10.1491
 11
-2.67912
 21
-9.84663
  0
LINE
  8
0
 10
-2.67912
 20
-9.84663
 11
-3.18712
 21
-9.47755
  0
LINE
  8
0
 10
-3.18712
 20
-9.47755
 11
-3.64484
 21
-9.04773
  0
LINE
  8
0
 10
-3.64484
 20
-9.04773
 11
-4.04507
 21
-8.56392
  0
LINE
  8
0
 10
-4.04507
 20
-8.56392
 11
-4.38153
 21
-8.03377
  0
LINE
  8
0
 10
-4.38153
 20
-8.03377
 11
-4.64888
 21
-7.46562
  0
LINE
  8
0
 10
-4.64888
 20
-7.46562
 11
-4.84291
 21
-6.86844
  0
LINE
  8
0
 10
-4.84291
 20
-6.86844
 11
-4.96057
 21
-6.25166
  0
LINE
  8
0
 10
-4.96057
 20
-6.25166
 11
-5
 21
-5.625
  0
LINE
  8
0
 10
-5
 20
-5.625
 11
-4.96057
 21
-4.99832
  0
LINE
  8
0
 10
-4.96057
 20
-4.99832
 11
-4.84291
 21
-4.38155
  0
LINE
  8
0
 10
-4.84291
 20
-4.38155
 11
-4.64888
 21
-3.78436
  0
LINE
  8
0
 10
-4.64888
 20
-3.78436
 11
-4.38153
 21
-3.21622
  0
LINE
  8
0
 10
-4.38153
 20
-3.21622
 11
-4.04507
 21
-2.68607
  0
LINE
  8
0
 10
-4.04507
 20
-2.68607
 11
-3.64484
 21
-2.20226
  0
LINE
  8
0
 10
-3.64484
 20
-2.20226
 11
-3.18712
 21
-1.77243
  0
LINE
  8
0
 10
-3.18712
 20
-1.77243
 11
-2.67912
 21
-1.40335
  0
LINE
  8
0
 10
-2.67912
 20
-1.40335
 11
-2.12889
 21
-1.10086
  0
LINE
  8
0
 10
-2.12889
 20
-1.10086
 11
-1.54507
 21
-0.869705
  0
LINE
  8
0
 10
-1.54507
 20
-0.869705
 11
-0.936905
 21
-0.713562
  0
LINE
  8
0
 10
-0.936905
 20
-0.713562
 11
-0.31395
 21
-0.634857
  0
LINE
  8
0
 10
-0.31395
 20
-0.634857
 11
0.31395
 21
-0.634857
  0
LINE
  8
0
 10
0.31395
 20
-0.634857
 11
0.936905
 21
-0.713562
  0
LINE
  8
0
 10
0.936905
 20
-0.713562
 11
1.54507
 21
-0.869705
  0
LINE
  8
0
 10
1.54507
 20
-0.869705
 11
2.12889
 21
-1.10086
  0
LINE
  8
0
 10
2.12889
 20
-1.10086
 11
2.67912
 21
-1.40335
  0
LINE
  8
0
 10
2.67912
 20
-1.40335
 11
3.18712
 21
-1.77243
  0
LINE
  8
0
 10
3.18712
 20
-1.77243
 11
3.64484
 21
-2.20226
  0
LINE
  8
0
 10
3.64484
 20
-2.20226
 11
4.04507
 21
-2.68607
  0
LINE
  8
0
 10
4.04507
 20
-2.68607
 11
4.38153
 21
-3.21622
  0
LINE
  8
0
 10
4.38153
 20
-3.21622
 11
4.64888
 21
-3.78436
  0
LINE
  8
0
 10
4.64888
 20
-3.78436
 11
4.84291
 21
-4.38155
  0
LINE
  8
0
 10
4.84291
 20
-4.38155
 11
4.96057
 21
-4.99832
  0
LINE
  8
0
 10
4.96057
 20
-4.99832
 11
5
 21
-5.625
  0
LINE
  8
0
 10
5
 20
-5.625
 11
4.96057
 21
-6.25166
  0
LINE
  8
0
 10
4.96057
 20
-6.25166
 11
4.84291
 21
-6.86844
  0
LINE
  8
0
 10
4.84291
 20
-6.86844
 11
4.64888
 21
-7.46562
  0
LINE
  8
0
 10
4.64888
 20
-7.46562
 11
4.38153
 21
-8.03377
  0
LINE
  8
0
 10
4.38153
 20
-8.03377
 11
4.04507
 21
-8.56392
  0
LINE
  8
0
 10
4.04507
 20
-8.56392
 11
3.64484
 21
-9.04773
  0
LINE
  8
0
 10
3.64484
 20
-9.04773
 11
3.18712
 21
-9.47755
  0
LINE
  8
0
 10
3.18712
 20
-9.47755
 11
2.67912
 21
-9.84663
  0
LINE
  8
0
 10
2.67912
 20
-9.84663
 11
2.12889
 21
-10.1491
  0
LINE
  8
0
 10
2.12889
 20
-10.1491
 11
1.54507
 21
-10.3803
  0
LINE
  8
0
 10
1.54507
 20
-10.3803
 11
0.936905
 21
-10.5364
  0
LINE
  8
0
 10
0.936905
 20
-10.5364
 11
0.31395
 21
-10.6151
  0
LINE
  8
0
 10
0.31395
 20
-10.6151
 11
-0.31395
 21
-10.6151
  0
ENDSEC
  0
SECTION
  2
OBJECTS
  0
DICTIONARY
  0
ENDSEC
  0
EOF
