  0
SECTION
  2
BLOCKS
  0
ENDSEC
  0
SECTION
  2
ENTITIES
  0
LINE
  8
0
 10
10.4369
 20
102.589
 11
11.0451
 21
102.745
  0
LINE
  8
0
 10
11.0451
 20
102.745
 11
11.6289
 21
102.976
  0
LINE
  8
0
 10
11.6289
 20
102.976
 11
12.1791
 21
103.278
  0
LINE
  8
0
 10
12.1791
 20
103.278
 11
12.6871
 21
103.647
  0
LINE
  8
0
 10
12.6871
 20
103.647
 11
13.1448
 21
104.077
  0
LINE
  8
0
 10
13.1448
 20
104.077
 11
13.5451
 21
104.561
  0
LINE
  8
0
 10
13.5451
 20
104.561
 11
13.8815
 21
105.091
  0
LINE
  8
0
 10
13.8815
 20
105.091
 11
14.1489
 21
105.659
  0
LINE
  8
0
 10
14.1489
 20
105.659
 11
14.3429
 21
106.257
  0
LINE
  8
0
 10
14.3429
 20
106.257
 11
14.4606
 21
106.873
  0
LINE
  8
0
 10
14.4606
 20
106.873
 11
14.5
 21
107.5
  0
LINE
  8
0
 10
14.5
 20
107.5
 11
14.5
 21
126.5
  0
LINE
  8
0
 10
14.5
 20
126.5
 11
14.4606
 21
127.127
  0
LINE
  8
0
 10
14.4606
 20
127.127
 11
14.3429
 21
127.743
  0
LINE
  8
0
 10
14.3429
 20
127.743
 11
14.1489
 21
128.341
  0
LINE
  8
0
 10
14.1489
 20
128.341
 11
13.8815
 21
128.909
  0
LINE
  8
0
 10
13.8815
 20
128.909
 11
13.5451
 21
129.439
  0
LINE
  8
0
 10
13.5451
 20
129.439
 11
13.1448
 21
129.923
  0
LINE
  8
0
 10
13.1448
 20
129.923
 11
12.6871
 21
130.353
  0
LINE
  8
0
 10
12.6871
 20
130.353
 11
12.1791
 21
130.722
  0
LINE
  8
0
 10
12.1791
 20
130.722
 11
11.6289
 21
131.024
  0
LINE
  8
0
 10
11.6289
 20
131.024
 11
11.0451
 21
131.255
  0
LINE
  8
0
 10
11.0451
 20
131.255
 11
10.4369
 21
131.411
  0
LINE
  8
0
 10
10.4369
 20
131.411
 11
9.81395
 21
131.49
  0
LINE
  8
0
 10
9.81395
 20
131.49
 11
-9.81395
 21
131.49
  0
LINE
  8
0
 10
-9.81395
 20
131.49
 11
-10.4369
 21
131.411
  0
LINE
  8
0
 10
-10.4369
 20
131.411
 11
-11.0451
 21
131.255
  0
LINE
  8
0
 10
-11.0451
 20
131.255
 11
-11.6289
 21
131.024
  0
LINE
  8
0
 10
-11.6289
 20
131.024
 11
-12.1791
 21
130.722
  0
LINE
  8
0
 10
-12.1791
 20
130.722
 11
-12.6871
 21
130.353
  0
LINE
  8
0
 10
-12.6871
 20
130.353
 11
-13.1448
 21
129.923
  0
LINE
  8
0
 10
-13.1448
 20
129.923
 11
-13.5451
 21
129.439
  0
LINE
  8
0
 10
-13.5451
 20
129.439
 11
-13.8815
 21
128.909
  0
LINE
  8
0
 10
-13.8815
 20
128.909
 11
-14.1489
 21
128.341
  0
LINE
  8
0
 10
-14.1489
 20
128.341
 11
-14.3429
 21
127.743
  0
LINE
  8
0
 10
-14.3429
 20
127.743
 11
-14.4606
 21
127.127
  0
LINE
  8
0
 10
-14.4606
 20
127.127
 11
-14.5
 21
126.5
  0
LINE
  8
0
 10
-14.5
 20
126.5
 11
-14.5
 21
107.5
  0
LINE
  8
0
 10
-14.5
 20
107.5
 11
-14.4606
 21
106.873
  0
LINE
  8
0
 10
-14.4606
 20
106.873
 11
-14.3429
 21
106.257
  0
LINE
  8
0
 10
-14.3429
 20
106.257
 11
-14.1489
 21
105.659
  0
LINE
  8
0
 10
-14.1489
 20
105.659
 11
-13.8815
 21
105.091
  0
LINE
  8
0
 10
-13.8815
 20
105.091
 11
-13.5451
 21
104.561
  0
LINE
  8
0
 10
-13.5451
 20
104.561
 11
-13.1448
 21
104.077
  0
LINE
  8
0
 10
-13.1448
 20
104.077
 11
-12.6871
 21
103.647
  0
LINE
  8
0
 10
-12.6871
 20
103.647
 11
-12.1791
 21
103.278
  0
LINE
  8
0
 10
-12.1791
 20
103.278
 11
-11.6289
 21
102.976
  0
LINE
  8
0
 10
-11.6289
 20
102.976
 11
-11.0451
 21
102.745
  0
LINE
  8
0
 10
-11.0451
 20
102.745
 11
-10.4369
 21
102.589
  0
LINE
  8
0
 10
-10.4369
 20
102.589
 11
-9.81395
 21
102.51
  0
LINE
  8
0
 10
-9.81395
 20
102.51
 11
9.81395
 21
102.51
  0
LINE
  8
0
 10
9.81395
 20
102.51
 11
10.4369
 21
102.589
  0
LINE
  8
0
 10
-0.37674
 20
118.512
 11
-1.12428
 21
118.606
  0
LINE
  8
0
 10
-1.12428
 20
118.606
 11
-1.8541
 21
118.794
  0
LINE
  8
0
 10
-1.8541
 20
118.794
 11
-2.55467
 21
119.071
  0
LINE
  8
0
 10
-2.55467
 20
119.071
 11
-3.21495
 21
119.434
  0
LINE
  8
0
 10
-3.21495
 20
119.434
 11
-3.82454
 21
119.877
  0
LINE
  8
0
 10
-3.82454
 20
119.877
 11
-4.37381
 21
120.393
  0
LINE
  8
0
 10
-4.37381
 20
120.393
 11
-4.8541
 21
120.973
  0
LINE
  8
0
 10
-4.8541
 20
120.973
 11
-5.25783
 21
121.609
  0
LINE
  8
0
 10
-5.25783
 20
121.609
 11
-5.57864
 21
122.291
  0
LINE
  8
0
 10
-5.57864
 20
122.291
 11
-5.81149
 21
123.008
  0
LINE
  8
0
 10
-5.81149
 20
123.008
 11
-5.95268
 21
123.748
  0
LINE
  8
0
 10
-5.95268
 20
123.748
 11
-6
 21
124.5
  0
LINE
  8
0
 10
-6
 20
124.5
 11
-5.95268
 21
125.252
  0
LINE
  8
0
 10
-5.95268
 20
125.252
 11
-5.81149
 21
125.992
  0
LINE
  8
0
 10
-5.81149
 20
125.992
 11
-5.57864
 21
126.709
  0
LINE
  8
0
 10
-5.57864
 20
126.709
 11
-5.25783
 21
127.391
  0
LINE
  8
0
 10
-5.25783
 20
127.391
 11
-4.8541
 21
128.027
  0
LINE
  8
0
 10
-4.8541
 20
128.027
 11
-4.37381
 21
128.607
  0
LINE
  8
0
 10
-4.37381
 20
128.607
 11
-3.82454
 21
129.123
  0
LINE
  8
0
 10
-3.82454
 20
129.123
 11
-3.21495
 21
129.566
  0
LINE
  8
0
 10
-3.21495
 20
129.566
 11
-2.55467
 21
129.929
  0
LINE
  8
0
 10
-2.55467
 20
129.929
 11
-1.8541
 21
130.206
  0
LINE
  8
0
 10
-1.8541
 20
130.206
 11
-1.12428
 21
130.394
  0
LINE
  8
0
 10
-1.12428
 20
130.394
 11
-0.37674
 21
130.488
  0
LINE
  8
0
 10
-0.37674
 20
130.488
 11
0.37674
 21
130.488
  0
LINE
  8
0
 10
0.37674
 20
130.488
 11
1.12428
 21
130.394
  0
LINE
  8
0
 10
1.12428
 20
130.394
 11
1.8541
 21
130.206
  0
LINE
  8
0
 10
1.8541
 20
130.206
 11
2.55467
 21
129.929
  0
LINE
  8
0
 10
2.55467
 20
129.929
 11
3.21495
 21
129.566
  0
LINE
  8
0
 10
3.21495
 20
129.566
 11
3.82454
 21
129.123
  0
LINE
  8
0
 10
3.82454
 20
129.123
 11
4.37381
 21
128.607
  0
LINE
  8
0
 10
4.37381
 20
128.607
 11
4.8541
 21
128.027
  0
LINE
  8
0
 10
4.8541
 20
128.027
 11
5.25783
 21
127.391
  0
LINE
  8
0
 10
5.25783
 20
127.391
 11
5.57864
 21
126.709
  0
LINE
  8
0
 10
5.57864
 20
126.709
 11
5.81149
 21
125.992
  0
LINE
  8
0
 10
5.81149
 20
125.992
 11
5.95268
 21
125.252
  0
LINE
  8
0
 10
5.95268
 20
125.252
 11
6
 21
124.5
  0
LINE
  8
0
 10
6
 20
124.5
 11
5.95268
 21
123.748
  0
LINE
  8
0
 10
5.95268
 20
123.748
 11
5.81149
 21
123.008
  0
LINE
  8
0
 10
5.81149
 20
123.008
 11
5.57864
 21
122.291
  0
LINE
  8
0
 10
5.57864
 20
122.291
 11
5.25783
 21
121.609
  0
LINE
  8
0
 10
5.25783
 20
121.609
 11
4.8541
 21
120.973
  0
LINE
  8
0
 10
4.8541
 20
120.973
 11
4.37381
 21
120.393
  0
LINE
  8
0
 10
4.37381
 20
120.393
 11
3.82454
 21
119.877
  0
LINE
  8
0
 10
3.82454
 20
119.877
 11
3.21495
 21
119.434
  0
LINE
  8
0
 10
3.21495
 20
119.434
 11
2.55467
 21
119.071
  0
LINE
  8
0
 10
2.55467
 20
119.071
 11
1.8541
 21
118.794
  0
LINE
  8
0
 10
1.8541
 20
118.794
 11
1.12428
 21
118.606
  0
LINE
  8
0
 10
1.12428
 20
118.606
 11
0.37674
 21
118.512
  0
LINE
  8
0
 10
0.37674
 20
118.512
 11
-0.37674
 21
118.512
  0
LINE
  8
0
 10
4.61501
 20
104.503
 11
1.73001
 21
109.5
  0
LINE
  8
0
 10
1.73001
 20
109.5
 11
4.61501
 21
114.497
  0
LINE
  8
0
 10
4.61501
 20
114.497
 11
10.385
 21
114.497
  0
LINE
  8
0
 10
10.385
 20
114.497
 11
13.27
 21
109.5
  0
LINE
  8
0
 10
13.27
 20
109.5
 11
10.385
 21
104.503
  0
LINE
  8
0
 10
10.385
 20
104.503
 11
4.61501
 21
104.503
  0
LINE
  8
0
 10
-10.385
 20
104.503
 11
-13.27
 21
109.5
  0
LINE
  8
0
 10
-13.27
 20
109.5
 11
-10.385
 21
114.497
  0
LINE
  8
0
 10
-10.385
 20
114.497
 11
-4.61501
 21
114.497
  0
LINE
  8
0
 10
-4.61501
 20
114.497
 11
-1.73001
 21
109.5
  0
LINE
  8
0
 10
-1.73001
 20
109.5
 11
-4.61501
 21
104.503
  0
LINE
  8
0
 10
-4.61501
 20
104.503
 11
-10.385
 21
104.503
  0
LINE
  8
0
 10
-0.0941772
 20
108.003
 11
-0.281067
 21
108.027
  0
LINE
  8
0
 10
-0.281067
 20
108.027
 11
-0.463516
 21
108.073
  0
LINE
  8
0
 10
-0.463516
 20
108.073
 11
-0.638657
 21
108.143
  0
LINE
  8
0
 10
-0.638657
 20
108.143
 11
-0.803726
 21
108.234
  0
LINE
  8
0
 10
-0.803726
 20
108.234
 11
-0.956131
 21
108.344
  0
LINE
  8
0
 10
-0.956131
 20
108.344
 11
-1.09344
 21
108.473
  0
LINE
  8
0
 10
-1.09344
 20
108.473
 11
-1.21352
 21
108.618
  0
LINE
  8
0
 10
-1.21352
 20
108.618
 11
-1.31445
 21
108.777
  0
LINE
  8
0
 10
-1.31445
 20
108.777
 11
-1.39465
 21
108.948
  0
LINE
  8
0
 10
-1.39465
 20
108.948
 11
-1.45287
 21
109.127
  0
LINE
  8
0
 10
-1.45287
 20
109.127
 11
-1.48816
 21
109.312
  0
LINE
  8
0
 10
-1.48816
 20
109.312
 11
-1.5
 21
109.5
  0
LINE
  8
0
 10
-1.5
 20
109.5
 11
-1.48816
 21
109.688
  0
LINE
  8
0
 10
-1.48816
 20
109.688
 11
-1.45287
 21
109.873
  0
LINE
  8
0
 10
-1.45287
 20
109.873
 11
-1.39465
 21
110.052
  0
LINE
  8
0
 10
-1.39465
 20
110.052
 11
-1.31445
 21
110.223
  0
LINE
  8
0
 10
-1.31445
 20
110.223
 11
-1.21352
 21
110.382
  0
LINE
  8
0
 10
-1.21352
 20
110.382
 11
-1.09344
 21
110.527
  0
LINE
  8
0
 10
-1.09344
 20
110.527
 11
-0.956131
 21
110.656
  0
LINE
  8
0
 10
-0.956131
 20
110.656
 11
-0.803726
 21
110.766
  0
LINE
  8
0
 10
-0.803726
 20
110.766
 11
-0.638657
 21
110.857
  0
LINE
  8
0
 10
-0.638657
 20
110.857
 11
-0.463516
 21
110.927
  0
LINE
  8
0
 10
-0.463516
 20
110.927
 11
-0.281067
 21
110.973
  0
LINE
  8
0
 10
-0.281067
 20
110.973
 11
-0.0941772
 21
110.997
  0
LINE
  8
0
 10
-0.0941772
 20
110.997
 11
0.0941772
 21
110.997
  0
LINE
  8
0
 10
0.0941772
 20
110.997
 11
0.281067
 21
110.973
  0
LINE
  8
0
 10
0.281067
 20
110.973
 11
0.463516
 21
110.927
  0
LINE
  8
0
 10
0.463516
 20
110.927
 11
0.638657
 21
110.857
  0
LINE
  8
0
 10
0.638657
 20
110.857
 11
0.803726
 21
110.766
  0
LINE
  8
0
 10
0.803726
 20
110.766
 11
0.956131
 21
110.656
  0
LINE
  8
0
 10
0.956131
 20
110.656
 11
1.09344
 21
110.527
  0
LINE
  8
0
 10
1.09344
 20
110.527
 11
1.21352
 21
110.382
  0
LINE
  8
0
 10
1.21352
 20
110.382
 11
1.31445
 21
110.223
  0
LINE
  8
0
 10
1.31445
 20
110.223
 11
1.39465
 21
110.052
  0
LINE
  8
0
 10
1.39465
 20
110.052
 11
1.45287
 21
109.873
  0
LINE
  8
0
 10
1.45287
 20
109.873
 11
1.48816
 21
109.688
  0
LINE
  8
0
 10
1.48816
 20
109.688
 11
1.5
 21
109.5
  0
LINE
  8
0
 10
1.5
 20
109.5
 11
1.48816
 21
109.312
  0
LINE
  8
0
 10
1.48816
 20
109.312
 11
1.45287
 21
109.127
  0
LINE
  8
0
 10
1.45287
 20
109.127
 11
1.39465
 21
108.948
  0
LINE
  8
0
 10
1.39465
 20
108.948
 11
1.31445
 21
108.777
  0
LINE
  8
0
 10
1.31445
 20
108.777
 11
1.21352
 21
108.618
  0
LINE
  8
0
 10
1.21352
 20
108.618
 11
1.09344
 21
108.473
  0
LINE
  8
0
 10
1.09344
 20
108.473
 11
0.956131
 21
108.344
  0
LINE
  8
0
 10
0.956131
 20
108.344
 11
0.803726
 21
108.234
  0
LINE
  8
0
 10
0.803726
 20
108.234
 11
0.638657
 21
108.143
  0
LINE
  8
0
 10
0.638657
 20
108.143
 11
0.463516
 21
108.073
  0
LINE
  8
0
 10
0.463516
 20
108.073
 11
0.281067
 21
108.027
  0
LINE
  8
0
 10
0.281067
 20
108.027
 11
0.0941772
 21
108.003
  0
LINE
  8
0
 10
0.0941772
 20
108.003
 11
-0.0941772
 21
108.003
  0
LINE
  8
0
 10
10.4369
 20
63.5886
 11
11.0451
 21
63.7447
  0
LINE
  8
0
 10
11.0451
 20
63.7447
 11
11.6289
 21
63.9759
  0
LINE
  8
0
 10
11.6289
 20
63.9759
 11
12.1791
 21
64.2784
  0
LINE
  8
0
 10
12.1791
 20
64.2784
 11
12.6871
 21
64.6474
  0
LINE
  8
0
 10
12.6871
 20
64.6474
 11
13.1448
 21
65.0773
  0
LINE
  8
0
 10
13.1448
 20
65.0773
 11
13.5451
 21
65.5611
  0
LINE
  8
0
 10
13.5451
 20
65.5611
 11
13.8815
 21
66.0912
  0
LINE
  8
0
 10
13.8815
 20
66.0912
 11
14.1489
 21
66.6594
  0
LINE
  8
0
 10
14.1489
 20
66.6594
 11
14.3429
 21
67.2566
  0
LINE
  8
0
 10
14.3429
 20
67.2566
 11
14.4606
 21
67.8733
  0
LINE
  8
0
 10
14.4606
 20
67.8733
 11
14.5
 21
68.5
  0
LINE
  8
0
 10
14.5
 20
68.5
 11
14.5
 21
87.5
  0
LINE
  8
0
 10
14.5
 20
87.5
 11
14.4606
 21
88.1267
  0
LINE
  8
0
 10
14.4606
 20
88.1267
 11
14.3429
 21
88.7434
  0
LINE
  8
0
 10
14.3429
 20
88.7434
 11
14.1489
 21
89.3406
  0
LINE
  8
0
 10
14.1489
 20
89.3406
 11
13.8815
 21
89.9088
  0
LINE
  8
0
 10
13.8815
 20
89.9088
 11
13.5451
 21
90.4389
  0
LINE
  8
0
 10
13.5451
 20
90.4389
 11
13.1448
 21
90.9227
  0
LINE
  8
0
 10
13.1448
 20
90.9227
 11
12.6871
 21
91.3526
  0
LINE
  8
0
 10
12.6871
 20
91.3526
 11
12.1791
 21
91.7216
  0
LINE
  8
0
 10
12.1791
 20
91.7216
 11
11.6289
 21
92.0241
  0
LINE
  8
0
 10
11.6289
 20
92.0241
 11
11.0451
 21
92.2553
  0
LINE
  8
0
 10
11.0451
 20
92.2553
 11
10.4369
 21
92.4114
  0
LINE
  8
0
 10
10.4369
 20
92.4114
 11
9.81395
 21
92.4901
  0
LINE
  8
0
 10
9.81395
 20
92.4901
 11
-9.81395
 21
92.4901
  0
LINE
  8
0
 10
-9.81395
 20
92.4901
 11
-10.4369
 21
92.4114
  0
LINE
  8
0
 10
-10.4369
 20
92.4114
 11
-11.0451
 21
92.2553
  0
LINE
  8
0
 10
-11.0451
 20
92.2553
 11
-11.6289
 21
92.0241
  0
LINE
  8
0
 10
-11.6289
 20
92.0241
 11
-12.1791
 21
91.7216
  0
LINE
  8
0
 10
-12.1791
 20
91.7216
 11
-12.6871
 21
91.3526
  0
LINE
  8
0
 10
-12.6871
 20
91.3526
 11
-13.1448
 21
90.9227
  0
LINE
  8
0
 10
-13.1448
 20
90.9227
 11
-13.5451
 21
90.4389
  0
LINE
  8
0
 10
-13.5451
 20
90.4389
 11
-13.8815
 21
89.9088
  0
LINE
  8
0
 10
-13.8815
 20
89.9088
 11
-14.1489
 21
89.3406
  0
LINE
  8
0
 10
-14.1489
 20
89.3406
 11
-14.3429
 21
88.7434
  0
LINE
  8
0
 10
-14.3429
 20
88.7434
 11
-14.4606
 21
88.1267
  0
LINE
  8
0
 10
-14.4606
 20
88.1267
 11
-14.5
 21
87.5
  0
LINE
  8
0
 10
-14.5
 20
87.5
 11
-14.5
 21
68.5
  0
LINE
  8
0
 10
-14.5
 20
68.5
 11
-14.4606
 21
67.8733
  0
LINE
  8
0
 10
-14.4606
 20
67.8733
 11
-14.3429
 21
67.2566
  0
LINE
  8
0
 10
-14.3429
 20
67.2566
 11
-14.1489
 21
66.6594
  0
LINE
  8
0
 10
-14.1489
 20
66.6594
 11
-13.8815
 21
66.0912
  0
LINE
  8
0
 10
-13.8815
 20
66.0912
 11
-13.5451
 21
65.5611
  0
LINE
  8
0
 10
-13.5451
 20
65.5611
 11
-13.1448
 21
65.0773
  0
LINE
  8
0
 10
-13.1448
 20
65.0773
 11
-12.6871
 21
64.6474
  0
LINE
  8
0
 10
-12.6871
 20
64.6474
 11
-12.1791
 21
64.2784
  0
LINE
  8
0
 10
-12.1791
 20
64.2784
 11
-11.6289
 21
63.9759
  0
LINE
  8
0
 10
-11.6289
 20
63.9759
 11
-11.0451
 21
63.7447
  0
LINE
  8
0
 10
-11.0451
 20
63.7447
 11
-10.4369
 21
63.5886
  0
LINE
  8
0
 10
-10.4369
 20
63.5886
 11
-9.81395
 21
63.5099
  0
LINE
  8
0
 10
-9.81395
 20
63.5099
 11
9.81395
 21
63.5099
  0
LINE
  8
0
 10
9.81395
 20
63.5099
 11
10.4369
 21
63.5886
  0
LINE
  8
0
 10
-0.307663
 20
80.6097
 11
-0.918167
 21
80.6868
  0
LINE
  8
0
 10
-0.918167
 20
80.6868
 11
-1.51418
 21
80.8398
  0
LINE
  8
0
 10
-1.51418
 20
80.8398
 11
-2.0863
 21
81.0663
  0
LINE
  8
0
 10
-2.0863
 20
81.0663
 11
-2.62555
 21
81.3628
  0
LINE
  8
0
 10
-2.62555
 20
81.3628
 11
-3.12337
 21
81.7245
  0
LINE
  8
0
 10
-3.12337
 20
81.7245
 11
-3.57195
 21
82.1457
  0
LINE
  8
0
 10
-3.57195
 20
82.1457
 11
-3.96417
 21
82.6198
  0
LINE
  8
0
 10
-3.96417
 20
82.6198
 11
-4.2939
 21
83.1394
  0
LINE
  8
0
 10
-4.2939
 20
83.1394
 11
-4.55589
 21
83.6962
  0
LINE
  8
0
 10
-4.55589
 20
83.6962
 11
-4.74605
 21
84.2814
  0
LINE
  8
0
 10
-4.74605
 20
84.2814
 11
-4.86136
 21
84.8859
  0
LINE
  8
0
 10
-4.86136
 20
84.8859
 11
-4.89999
 21
85.5
  0
LINE
  8
0
 10
-4.89999
 20
85.5
 11
-4.86136
 21
86.1141
  0
LINE
  8
0
 10
-4.86136
 20
86.1141
 11
-4.74605
 21
86.7186
  0
LINE
  8
0
 10
-4.74605
 20
86.7186
 11
-4.55589
 21
87.3038
  0
LINE
  8
0
 10
-4.55589
 20
87.3038
 11
-4.2939
 21
87.8606
  0
LINE
  8
0
 10
-4.2939
 20
87.8606
 11
-3.96417
 21
88.3801
  0
LINE
  8
0
 10
-3.96417
 20
88.3801
 11
-3.57195
 21
88.8543
  0
LINE
  8
0
 10
-3.57195
 20
88.8543
 11
-3.12337
 21
89.2755
  0
LINE
  8
0
 10
-3.12337
 20
89.2755
 11
-2.62555
 21
89.6372
  0
LINE
  8
0
 10
-2.62555
 20
89.6372
 11
-2.0863
 21
89.9336
  0
LINE
  8
0
 10
-2.0863
 20
89.9336
 11
-1.51418
 21
90.1602
  0
LINE
  8
0
 10
-1.51418
 20
90.1602
 11
-0.918167
 21
90.3132
  0
LINE
  8
0
 10
-0.918167
 20
90.3132
 11
-0.307663
 21
90.3903
  0
LINE
  8
0
 10
-0.307663
 20
90.3903
 11
0.307663
 21
90.3903
  0
LINE
  8
0
 10
0.307663
 20
90.3903
 11
0.918167
 21
90.3132
  0
LINE
  8
0
 10
0.918167
 20
90.3132
 11
1.51418
 21
90.1602
  0
LINE
  8
0
 10
1.51418
 20
90.1602
 11
2.0863
 21
89.9336
  0
LINE
  8
0
 10
2.0863
 20
89.9336
 11
2.62555
 21
89.6372
  0
LINE
  8
0
 10
2.62555
 20
89.6372
 11
3.12337
 21
89.2755
  0
LINE
  8
0
 10
3.12337
 20
89.2755
 11
3.57195
 21
88.8543
  0
LINE
  8
0
 10
3.57195
 20
88.8543
 11
3.96417
 21
88.3801
  0
LINE
  8
0
 10
3.96417
 20
88.3801
 11
4.2939
 21
87.8606
  0
LINE
  8
0
 10
4.2939
 20
87.8606
 11
4.55589
 21
87.3038
  0
LINE
  8
0
 10
4.55589
 20
87.3038
 11
4.74605
 21
86.7186
  0
LINE
  8
0
 10
4.74605
 20
86.7186
 11
4.86136
 21
86.1141
  0
LINE
  8
0
 10
4.86136
 20
86.1141
 11
4.89999
 21
85.5
  0
LINE
  8
0
 10
4.89999
 20
85.5
 11
4.86136
 21
84.8859
  0
LINE
  8
0
 10
4.86136
 20
84.8859
 11
4.74605
 21
84.2814
  0
LINE
  8
0
 10
4.74605
 20
84.2814
 11
4.55589
 21
83.6962
  0
LINE
  8
0
 10
4.55589
 20
83.6962
 11
4.2939
 21
83.1394
  0
LINE
  8
0
 10
4.2939
 20
83.1394
 11
3.96417
 21
82.6198
  0
LINE
  8
0
 10
3.96417
 20
82.6198
 11
3.57195
 21
82.1457
  0
LINE
  8
0
 10
3.57195
 20
82.1457
 11
3.12337
 21
81.7245
  0
LINE
  8
0
 10
3.12337
 20
81.7245
 11
2.62555
 21
81.3628
  0
LINE
  8
0
 10
2.62555
 20
81.3628
 11
2.0863
 21
81.0663
  0
LINE
  8
0
 10
2.0863
 20
81.0663
 11
1.51418
 21
80.8398
  0
LINE
  8
0
 10
1.51418
 20
80.8398
 11
0.918167
 21
80.6868
  0
LINE
  8
0
 10
0.918167
 20
80.6868
 11
0.307663
 21
80.6097
  0
LINE
  8
0
 10
0.307663
 20
80.6097
 11
-0.307663
 21
80.6097
  0
LINE
  8
0
 10
4.61501
 20
65.503
 11
1.73001
 21
70.5
  0
LINE
  8
0
 10
1.73001
 20
70.5
 11
4.61501
 21
75.497
  0
LINE
  8
0
 10
4.61501
 20
75.497
 11
10.385
 21
75.497
  0
LINE
  8
0
 10
10.385
 20
75.497
 11
13.27
 21
70.5
  0
LINE
  8
0
 10
13.27
 20
70.5
 11
10.385
 21
65.503
  0
LINE
  8
0
 10
10.385
 20
65.503
 11
4.61501
 21
65.503
  0
LINE
  8
0
 10
-10.385
 20
65.503
 11
-13.27
 21
70.5
  0
LINE
  8
0
 10
-13.27
 20
70.5
 11
-10.385
 21
75.497
  0
LINE
  8
0
 10
-10.385
 20
75.497
 11
-4.61501
 21
75.497
  0
LINE
  8
0
 10
-4.61501
 20
75.497
 11
-1.73001
 21
70.5
  0
LINE
  8
0
 10
-1.73001
 20
70.5
 11
-4.61501
 21
65.503
  0
LINE
  8
0
 10
-4.61501
 20
65.503
 11
-10.385
 21
65.503
  0
LINE
  8
0
 10
-0.0941772
 20
69.003
 11
-0.281067
 21
69.0266
  0
LINE
  8
0
 10
-0.281067
 20
69.0266
 11
-0.463516
 21
69.0734
  0
LINE
  8
0
 10
-0.463516
 20
69.0734
 11
-0.638657
 21
69.1428
  0
LINE
  8
0
 10
-0.638657
 20
69.1428
 11
-0.803726
 21
69.2335
  0
LINE
  8
0
 10
-0.803726
 20
69.2335
 11
-0.956131
 21
69.3442
  0
LINE
  8
0
 10
-0.956131
 20
69.3442
 11
-1.09344
 21
69.4732
  0
LINE
  8
0
 10
-1.09344
 20
69.4732
 11
-1.21352
 21
69.6183
  0
LINE
  8
0
 10
-1.21352
 20
69.6183
 11
-1.31445
 21
69.7774
  0
LINE
  8
0
 10
-1.31445
 20
69.7774
 11
-1.39465
 21
69.9478
  0
LINE
  8
0
 10
-1.39465
 20
69.9478
 11
-1.45287
 21
70.127
  0
LINE
  8
0
 10
-1.45287
 20
70.127
 11
-1.48816
 21
70.312
  0
LINE
  8
0
 10
-1.48816
 20
70.312
 11
-1.5
 21
70.5
  0
LINE
  8
0
 10
-1.5
 20
70.5
 11
-1.48816
 21
70.688
  0
LINE
  8
0
 10
-1.48816
 20
70.688
 11
-1.45287
 21
70.873
  0
LINE
  8
0
 10
-1.45287
 20
70.873
 11
-1.39465
 21
71.0522
  0
LINE
  8
0
 10
-1.39465
 20
71.0522
 11
-1.31445
 21
71.2226
  0
LINE
  8
0
 10
-1.31445
 20
71.2226
 11
-1.21352
 21
71.3817
  0
LINE
  8
0
 10
-1.21352
 20
71.3817
 11
-1.09344
 21
71.5268
  0
LINE
  8
0
 10
-1.09344
 20
71.5268
 11
-0.956131
 21
71.6558
  0
LINE
  8
0
 10
-0.956131
 20
71.6558
 11
-0.803726
 21
71.7665
  0
LINE
  8
0
 10
-0.803726
 20
71.7665
 11
-0.638657
 21
71.8573
  0
LINE
  8
0
 10
-0.638657
 20
71.8573
 11
-0.463516
 21
71.9266
  0
LINE
  8
0
 10
-0.463516
 20
71.9266
 11
-0.281067
 21
71.9734
  0
LINE
  8
0
 10
-0.281067
 20
71.9734
 11
-0.0941772
 21
71.9971
  0
LINE
  8
0
 10
-0.0941772
 20
71.9971
 11
0.0941772
 21
71.9971
  0
LINE
  8
0
 10
0.0941772
 20
71.9971
 11
0.281067
 21
71.9734
  0
LINE
  8
0
 10
0.281067
 20
71.9734
 11
0.463516
 21
71.9266
  0
LINE
  8
0
 10
0.463516
 20
71.9266
 11
0.638657
 21
71.8573
  0
LINE
  8
0
 10
0.638657
 20
71.8573
 11
0.803726
 21
71.7665
  0
LINE
  8
0
 10
0.803726
 20
71.7665
 11
0.956131
 21
71.6558
  0
LINE
  8
0
 10
0.956131
 20
71.6558
 11
1.09344
 21
71.5268
  0
LINE
  8
0
 10
1.09344
 20
71.5268
 11
1.21352
 21
71.3817
  0
LINE
  8
0
 10
1.21352
 20
71.3817
 11
1.31445
 21
71.2226
  0
LINE
  8
0
 10
1.31445
 20
71.2226
 11
1.39465
 21
71.0522
  0
LINE
  8
0
 10
1.39465
 20
71.0522
 11
1.45287
 21
70.873
  0
LINE
  8
0
 10
1.45287
 20
70.873
 11
1.48816
 21
70.688
  0
LINE
  8
0
 10
1.48816
 20
70.688
 11
1.5
 21
70.5
  0
LINE
  8
0
 10
1.5
 20
70.5
 11
1.48816
 21
70.312
  0
LINE
  8
0
 10
1.48816
 20
70.312
 11
1.45287
 21
70.127
  0
LINE
  8
0
 10
1.45287
 20
70.127
 11
1.39465
 21
69.9478
  0
LINE
  8
0
 10
1.39465
 20
69.9478
 11
1.31445
 21
69.7774
  0
LINE
  8
0
 10
1.31445
 20
69.7774
 11
1.21352
 21
69.6183
  0
LINE
  8
0
 10
1.21352
 20
69.6183
 11
1.09344
 21
69.4732
  0
LINE
  8
0
 10
1.09344
 20
69.4732
 11
0.956131
 21
69.3442
  0
LINE
  8
0
 10
0.956131
 20
69.3442
 11
0.803726
 21
69.2335
  0
LINE
  8
0
 10
0.803726
 20
69.2335
 11
0.638657
 21
69.1428
  0
LINE
  8
0
 10
0.638657
 20
69.1428
 11
0.463516
 21
69.0734
  0
LINE
  8
0
 10
0.463516
 20
69.0734
 11
0.281067
 21
69.0266
  0
LINE
  8
0
 10
0.281067
 20
69.0266
 11
0.0941772
 21
69.003
  0
LINE
  8
0
 10
0.0941772
 20
69.003
 11
-0.0941772
 21
69.003
  0
ENDSEC
  0
SECTION
  2
OBJECTS
  0
DICTIONARY
  0
ENDSEC
  0
EOF
