  0
SECTION
  2
BLOCKS
  0
ENDSEC
  0
SECTION
  2
ENTITIES
  0
LINE
  8
0
 10
10.4369
 20
-14.4114
 11
11.0451
 21
-14.2553
  0
LINE
  8
0
 10
11.0451
 20
-14.2553
 11
11.6289
 21
-14.0241
  0
LINE
  8
0
 10
11.6289
 20
-14.0241
 11
12.1791
 21
-13.7216
  0
LINE
  8
0
 10
12.1791
 20
-13.7216
 11
12.6871
 21
-13.3526
  0
LINE
  8
0
 10
12.6871
 20
-13.3526
 11
13.1448
 21
-12.9227
  0
LINE
  8
0
 10
13.1448
 20
-12.9227
 11
13.5451
 21
-12.4389
  0
LINE
  8
0
 10
13.5451
 20
-12.4389
 11
13.8815
 21
-11.9088
  0
LINE
  8
0
 10
13.8815
 20
-11.9088
 11
14.1489
 21
-11.3406
  0
LINE
  8
0
 10
14.1489
 20
-11.3406
 11
14.3429
 21
-10.7434
  0
LINE
  8
0
 10
14.3429
 20
-10.7434
 11
14.4606
 21
-10.1267
  0
LINE
  8
0
 10
14.4606
 20
-10.1267
 11
14.5
 21
-9.5
  0
LINE
  8
0
 10
14.5
 20
-9.5
 11
14.5
 21
9.5
  0
LINE
  8
0
 10
14.5
 20
9.5
 11
14.4606
 21
10.1267
  0
LINE
  8
0
 10
14.4606
 20
10.1267
 11
14.3429
 21
10.7434
  0
LINE
  8
0
 10
14.3429
 20
10.7434
 11
14.1489
 21
11.3406
  0
LINE
  8
0
 10
14.1489
 20
11.3406
 11
13.8815
 21
11.9088
  0
LINE
  8
0
 10
13.8815
 20
11.9088
 11
13.5451
 21
12.4389
  0
LINE
  8
0
 10
13.5451
 20
12.4389
 11
13.1448
 21
12.9227
  0
LINE
  8
0
 10
13.1448
 20
12.9227
 11
12.6871
 21
13.3526
  0
LINE
  8
0
 10
12.6871
 20
13.3526
 11
12.1791
 21
13.7216
  0
LINE
  8
0
 10
12.1791
 20
13.7216
 11
11.6289
 21
14.0241
  0
LINE
  8
0
 10
11.6289
 20
14.0241
 11
11.0451
 21
14.2553
  0
LINE
  8
0
 10
11.0451
 20
14.2553
 11
10.4369
 21
14.4114
  0
LINE
  8
0
 10
10.4369
 20
14.4114
 11
9.81395
 21
14.4901
  0
LINE
  8
0
 10
9.81395
 20
14.4901
 11
-9.81395
 21
14.4901
  0
LINE
  8
0
 10
-9.81395
 20
14.4901
 11
-10.4369
 21
14.4114
  0
LINE
  8
0
 10
-10.4369
 20
14.4114
 11
-11.0451
 21
14.2553
  0
LINE
  8
0
 10
-11.0451
 20
14.2553
 11
-11.6289
 21
14.0241
  0
LINE
  8
0
 10
-11.6289
 20
14.0241
 11
-12.1791
 21
13.7216
  0
LINE
  8
0
 10
-12.1791
 20
13.7216
 11
-12.6871
 21
13.3526
  0
LINE
  8
0
 10
-12.6871
 20
13.3526
 11
-13.1448
 21
12.9227
  0
LINE
  8
0
 10
-13.1448
 20
12.9227
 11
-13.5451
 21
12.4389
  0
LINE
  8
0
 10
-13.5451
 20
12.4389
 11
-13.8815
 21
11.9088
  0
LINE
  8
0
 10
-13.8815
 20
11.9088
 11
-14.1489
 21
11.3406
  0
LINE
  8
0
 10
-14.1489
 20
11.3406
 11
-14.3429
 21
10.7434
  0
LINE
  8
0
 10
-14.3429
 20
10.7434
 11
-14.4606
 21
10.1267
  0
LINE
  8
0
 10
-14.4606
 20
10.1267
 11
-14.5
 21
9.5
  0
LINE
  8
0
 10
-14.5
 20
9.5
 11
-14.5
 21
-9.5
  0
LINE
  8
0
 10
-14.5
 20
-9.5
 11
-14.4606
 21
-10.1267
  0
LINE
  8
0
 10
-14.4606
 20
-10.1267
 11
-14.3429
 21
-10.7434
  0
LINE
  8
0
 10
-14.3429
 20
-10.7434
 11
-14.1489
 21
-11.3406
  0
LINE
  8
0
 10
-14.1489
 20
-11.3406
 11
-13.8815
 21
-11.9088
  0
LINE
  8
0
 10
-13.8815
 20
-11.9088
 11
-13.5451
 21
-12.4389
  0
LINE
  8
0
 10
-13.5451
 20
-12.4389
 11
-13.1448
 21
-12.9227
  0
LINE
  8
0
 10
-13.1448
 20
-12.9227
 11
-12.6871
 21
-13.3526
  0
LINE
  8
0
 10
-12.6871
 20
-13.3526
 11
-12.1791
 21
-13.7216
  0
LINE
  8
0
 10
-12.1791
 20
-13.7216
 11
-11.6289
 21
-14.0241
  0
LINE
  8
0
 10
-11.6289
 20
-14.0241
 11
-11.0451
 21
-14.2553
  0
LINE
  8
0
 10
-11.0451
 20
-14.2553
 11
-10.4369
 21
-14.4114
  0
LINE
  8
0
 10
-10.4369
 20
-14.4114
 11
-9.81395
 21
-14.4901
  0
LINE
  8
0
 10
-9.81395
 20
-14.4901
 11
9.81395
 21
-14.4901
  0
LINE
  8
0
 10
9.81395
 20
-14.4901
 11
10.4369
 21
-14.4114
  0
LINE
  8
0
 10
-0.329636
 20
2.26035
 11
-0.983749
 21
2.34299
  0
LINE
  8
0
 10
-0.983749
 20
2.34299
 11
-1.62233
 21
2.50694
  0
LINE
  8
0
 10
-1.62233
 20
2.50694
 11
-2.23534
 21
2.74965
  0
LINE
  8
0
 10
-2.23534
 20
2.74965
 11
-2.81308
 21
3.06728
  0
LINE
  8
0
 10
-2.81308
 20
3.06728
 11
-3.34647
 21
3.4548
  0
LINE
  8
0
 10
-3.34647
 20
3.4548
 11
-3.82707
 21
3.90611
  0
LINE
  8
0
 10
-3.82707
 20
3.90611
 11
-4.24733
 21
4.41412
  0
LINE
  8
0
 10
-4.24733
 20
4.41412
 11
-4.6006
 21
4.97078
  0
LINE
  8
0
 10
-4.6006
 20
4.97078
 11
-4.88132
 21
5.56734
  0
LINE
  8
0
 10
-4.88132
 20
5.56734
 11
-5.08505
 21
6.19437
  0
LINE
  8
0
 10
-5.08505
 20
6.19437
 11
-5.20859
 21
6.842
  0
LINE
  8
0
 10
-5.20859
 20
6.842
 11
-5.25
 21
7.5
  0
LINE
  8
0
 10
-5.25
 20
7.5
 11
-5.20859
 21
8.15799
  0
LINE
  8
0
 10
-5.20859
 20
8.15799
 11
-5.08505
 21
8.80562
  0
LINE
  8
0
 10
-5.08505
 20
8.80562
 11
-4.88132
 21
9.43265
  0
LINE
  8
0
 10
-4.88132
 20
9.43265
 11
-4.6006
 21
10.0292
  0
LINE
  8
0
 10
-4.6006
 20
10.0292
 11
-4.24733
 21
10.5859
  0
LINE
  8
0
 10
-4.24733
 20
10.5859
 11
-3.82707
 21
11.0939
  0
LINE
  8
0
 10
-3.82707
 20
11.0939
 11
-3.34647
 21
11.5452
  0
LINE
  8
0
 10
-3.34647
 20
11.5452
 11
-2.81308
 21
11.9327
  0
LINE
  8
0
 10
-2.81308
 20
11.9327
 11
-2.23534
 21
12.2503
  0
LINE
  8
0
 10
-2.23534
 20
12.2503
 11
-1.62233
 21
12.493
  0
LINE
  8
0
 10
-1.62233
 20
12.493
 11
-0.983749
 21
12.657
  0
LINE
  8
0
 10
-0.983749
 20
12.657
 11
-0.329636
 21
12.7396
  0
LINE
  8
0
 10
-0.329636
 20
12.7396
 11
0.329636
 21
12.7396
  0
LINE
  8
0
 10
0.329636
 20
12.7396
 11
0.983749
 21
12.657
  0
LINE
  8
0
 10
0.983749
 20
12.657
 11
1.62233
 21
12.493
  0
LINE
  8
0
 10
1.62233
 20
12.493
 11
2.23534
 21
12.2503
  0
LINE
  8
0
 10
2.23534
 20
12.2503
 11
2.81308
 21
11.9327
  0
LINE
  8
0
 10
2.81308
 20
11.9327
 11
3.34647
 21
11.5452
  0
LINE
  8
0
 10
3.34647
 20
11.5452
 11
3.82707
 21
11.0939
  0
LINE
  8
0
 10
3.82707
 20
11.0939
 11
4.24733
 21
10.5859
  0
LINE
  8
0
 10
4.24733
 20
10.5859
 11
4.6006
 21
10.0292
  0
LINE
  8
0
 10
4.6006
 20
10.0292
 11
4.88132
 21
9.43265
  0
LINE
  8
0
 10
4.88132
 20
9.43265
 11
5.08505
 21
8.80562
  0
LINE
  8
0
 10
5.08505
 20
8.80562
 11
5.20859
 21
8.15799
  0
LINE
  8
0
 10
5.20859
 20
8.15799
 11
5.25
 21
7.5
  0
LINE
  8
0
 10
5.25
 20
7.5
 11
5.20859
 21
6.842
  0
LINE
  8
0
 10
5.20859
 20
6.842
 11
5.08505
 21
6.19437
  0
LINE
  8
0
 10
5.08505
 20
6.19437
 11
4.88132
 21
5.56734
  0
LINE
  8
0
 10
4.88132
 20
5.56734
 11
4.6006
 21
4.97078
  0
LINE
  8
0
 10
4.6006
 20
4.97078
 11
4.24733
 21
4.41412
  0
LINE
  8
0
 10
4.24733
 20
4.41412
 11
3.82707
 21
3.90611
  0
LINE
  8
0
 10
3.82707
 20
3.90611
 11
3.34647
 21
3.4548
  0
LINE
  8
0
 10
3.34647
 20
3.4548
 11
2.81308
 21
3.06728
  0
LINE
  8
0
 10
2.81308
 20
3.06728
 11
2.23534
 21
2.74965
  0
LINE
  8
0
 10
2.23534
 20
2.74965
 11
1.62233
 21
2.50694
  0
LINE
  8
0
 10
1.62233
 20
2.50694
 11
0.983749
 21
2.34299
  0
LINE
  8
0
 10
0.983749
 20
2.34299
 11
0.329636
 21
2.26035
  0
LINE
  8
0
 10
0.329636
 20
2.26035
 11
-0.329636
 21
2.26035
  0
LINE
  8
0
 10
7.31161
 20
-10.4941
 11
6.93785
 21
-10.4469
  0
LINE
  8
0
 10
6.93785
 20
-10.4469
 11
6.57294
 21
-10.3532
  0
LINE
  8
0
 10
6.57294
 20
-10.3532
 11
6.22266
 21
-10.2145
  0
LINE
  8
0
 10
6.22266
 20
-10.2145
 11
5.89252
 21
-10.033
  0
LINE
  8
0
 10
5.89252
 20
-10.033
 11
5.58772
 21
-9.81154
  0
LINE
  8
0
 10
5.58772
 20
-9.81154
 11
5.31308
 21
-9.55363
  0
LINE
  8
0
 10
5.31308
 20
-9.55363
 11
5.07294
 21
-9.26335
  0
LINE
  8
0
 10
5.07294
 20
-9.26335
 11
4.87108
 21
-8.94525
  0
LINE
  8
0
 10
4.87108
 20
-8.94525
 11
4.71066
 21
-8.60437
  0
LINE
  8
0
 10
4.71066
 20
-8.60437
 11
4.59424
 21
-8.24606
  0
LINE
  8
0
 10
4.59424
 20
-8.24606
 11
4.52365
 21
-7.87599
  0
LINE
  8
0
 10
4.52365
 20
-7.87599
 11
4.5
 21
-7.5
  0
LINE
  8
0
 10
4.5
 20
-7.5
 11
4.52365
 21
-7.12399
  0
LINE
  8
0
 10
4.52365
 20
-7.12399
 11
4.59424
 21
-6.75392
  0
LINE
  8
0
 10
4.59424
 20
-6.75392
 11
4.71066
 21
-6.39561
  0
LINE
  8
0
 10
4.71066
 20
-6.39561
 11
4.87108
 21
-6.05473
  0
LINE
  8
0
 10
4.87108
 20
-6.05473
 11
5.07294
 21
-5.73663
  0
LINE
  8
0
 10
5.07294
 20
-5.73663
 11
5.31308
 21
-5.44635
  0
LINE
  8
0
 10
5.31308
 20
-5.44635
 11
5.58772
 21
-5.18845
  0
LINE
  8
0
 10
5.58772
 20
-5.18845
 11
5.89252
 21
-4.96701
  0
LINE
  8
0
 10
5.89252
 20
-4.96701
 11
6.22266
 21
-4.78551
  0
LINE
  8
0
 10
6.22266
 20
-4.78551
 11
6.57294
 21
-4.64682
  0
LINE
  8
0
 10
6.57294
 20
-4.64682
 11
6.93785
 21
-4.55313
  0
LINE
  8
0
 10
6.93785
 20
-4.55313
 11
7.31161
 21
-4.50591
  0
LINE
  8
0
 10
7.31161
 20
-4.50591
 11
7.68837
 21
-4.50591
  0
LINE
  8
0
 10
7.68837
 20
-4.50591
 11
8.06213
 21
-4.55313
  0
LINE
  8
0
 10
8.06213
 20
-4.55313
 11
8.42705
 21
-4.64682
  0
LINE
  8
0
 10
8.42705
 20
-4.64682
 11
8.77733
 21
-4.78551
  0
LINE
  8
0
 10
8.77733
 20
-4.78551
 11
9.10747
 21
-4.96701
  0
LINE
  8
0
 10
9.10747
 20
-4.96701
 11
9.41226
 21
-5.18845
  0
LINE
  8
0
 10
9.41226
 20
-5.18845
 11
9.6869
 21
-5.44635
  0
LINE
  8
0
 10
9.6869
 20
-5.44635
 11
9.92705
 21
-5.73663
  0
LINE
  8
0
 10
9.92705
 20
-5.73663
 11
10.1289
 21
-6.05473
  0
LINE
  8
0
 10
10.1289
 20
-6.05473
 11
10.2893
 21
-6.39561
  0
LINE
  8
0
 10
10.2893
 20
-6.39561
 11
10.4057
 21
-6.75392
  0
LINE
  8
0
 10
10.4057
 20
-6.75392
 11
10.4763
 21
-7.12399
  0
LINE
  8
0
 10
10.4763
 20
-7.12399
 11
10.5
 21
-7.5
  0
LINE
  8
0
 10
10.5
 20
-7.5
 11
10.4763
 21
-7.87599
  0
LINE
  8
0
 10
10.4763
 20
-7.87599
 11
10.4057
 21
-8.24606
  0
LINE
  8
0
 10
10.4057
 20
-8.24606
 11
10.2893
 21
-8.60437
  0
LINE
  8
0
 10
10.2893
 20
-8.60437
 11
10.1289
 21
-8.94525
  0
LINE
  8
0
 10
10.1289
 20
-8.94525
 11
9.92705
 21
-9.26335
  0
LINE
  8
0
 10
9.92705
 20
-9.26335
 11
9.6869
 21
-9.55363
  0
LINE
  8
0
 10
9.6869
 20
-9.55363
 11
9.41226
 21
-9.81154
  0
LINE
  8
0
 10
9.41226
 20
-9.81154
 11
9.10747
 21
-10.033
  0
LINE
  8
0
 10
9.10747
 20
-10.033
 11
8.77733
 21
-10.2145
  0
LINE
  8
0
 10
8.77733
 20
-10.2145
 11
8.42705
 21
-10.3532
  0
LINE
  8
0
 10
8.42705
 20
-10.3532
 11
8.06213
 21
-10.4469
  0
LINE
  8
0
 10
8.06213
 20
-10.4469
 11
7.68837
 21
-10.4941
  0
LINE
  8
0
 10
7.68837
 20
-10.4941
 11
7.31161
 21
-10.4941
  0
LINE
  8
0
 10
-7.68837
 20
-10.4941
 11
-8.06213
 21
-10.4469
  0
LINE
  8
0
 10
-8.06213
 20
-10.4469
 11
-8.42705
 21
-10.3532
  0
LINE
  8
0
 10
-8.42705
 20
-10.3532
 11
-8.77733
 21
-10.2145
  0
LINE
  8
0
 10
-8.77733
 20
-10.2145
 11
-9.10747
 21
-10.033
  0
LINE
  8
0
 10
-9.10747
 20
-10.033
 11
-9.41226
 21
-9.81154
  0
LINE
  8
0
 10
-9.41226
 20
-9.81154
 11
-9.6869
 21
-9.55363
  0
LINE
  8
0
 10
-9.6869
 20
-9.55363
 11
-9.92705
 21
-9.26335
  0
LINE
  8
0
 10
-9.92705
 20
-9.26335
 11
-10.1289
 21
-8.94525
  0
LINE
  8
0
 10
-10.1289
 20
-8.94525
 11
-10.2893
 21
-8.60437
  0
LINE
  8
0
 10
-10.2893
 20
-8.60437
 11
-10.4057
 21
-8.24606
  0
LINE
  8
0
 10
-10.4057
 20
-8.24606
 11
-10.4763
 21
-7.87599
  0
LINE
  8
0
 10
-10.4763
 20
-7.87599
 11
-10.5
 21
-7.5
  0
LINE
  8
0
 10
-10.5
 20
-7.5
 11
-10.4763
 21
-7.12399
  0
LINE
  8
0
 10
-10.4763
 20
-7.12399
 11
-10.4057
 21
-6.75392
  0
LINE
  8
0
 10
-10.4057
 20
-6.75392
 11
-10.2893
 21
-6.39561
  0
LINE
  8
0
 10
-10.2893
 20
-6.39561
 11
-10.1289
 21
-6.05473
  0
LINE
  8
0
 10
-10.1289
 20
-6.05473
 11
-9.92705
 21
-5.73663
  0
LINE
  8
0
 10
-9.92705
 20
-5.73663
 11
-9.6869
 21
-5.44635
  0
LINE
  8
0
 10
-9.6869
 20
-5.44635
 11
-9.41226
 21
-5.18845
  0
LINE
  8
0
 10
-9.41226
 20
-5.18845
 11
-9.10747
 21
-4.96701
  0
LINE
  8
0
 10
-9.10747
 20
-4.96701
 11
-8.77733
 21
-4.78551
  0
LINE
  8
0
 10
-8.77733
 20
-4.78551
 11
-8.42705
 21
-4.64682
  0
LINE
  8
0
 10
-8.42705
 20
-4.64682
 11
-8.06213
 21
-4.55313
  0
LINE
  8
0
 10
-8.06213
 20
-4.55313
 11
-7.68837
 21
-4.50591
  0
LINE
  8
0
 10
-7.68837
 20
-4.50591
 11
-7.31161
 21
-4.50591
  0
LINE
  8
0
 10
-7.31161
 20
-4.50591
 11
-6.93785
 21
-4.55313
  0
LINE
  8
0
 10
-6.93785
 20
-4.55313
 11
-6.57294
 21
-4.64682
  0
LINE
  8
0
 10
-6.57294
 20
-4.64682
 11
-6.22266
 21
-4.78551
  0
LINE
  8
0
 10
-6.22266
 20
-4.78551
 11
-5.89252
 21
-4.96701
  0
LINE
  8
0
 10
-5.89252
 20
-4.96701
 11
-5.58772
 21
-5.18845
  0
LINE
  8
0
 10
-5.58772
 20
-5.18845
 11
-5.31308
 21
-5.44635
  0
LINE
  8
0
 10
-5.31308
 20
-5.44635
 11
-5.07294
 21
-5.73663
  0
LINE
  8
0
 10
-5.07294
 20
-5.73663
 11
-4.87108
 21
-6.05473
  0
LINE
  8
0
 10
-4.87108
 20
-6.05473
 11
-4.71066
 21
-6.39561
  0
LINE
  8
0
 10
-4.71066
 20
-6.39561
 11
-4.59424
 21
-6.75392
  0
LINE
  8
0
 10
-4.59424
 20
-6.75392
 11
-4.52365
 21
-7.12399
  0
LINE
  8
0
 10
-4.52365
 20
-7.12399
 11
-4.5
 21
-7.5
  0
LINE
  8
0
 10
-4.5
 20
-7.5
 11
-4.52365
 21
-7.87599
  0
LINE
  8
0
 10
-4.52365
 20
-7.87599
 11
-4.59424
 21
-8.24606
  0
LINE
  8
0
 10
-4.59424
 20
-8.24606
 11
-4.71066
 21
-8.60437
  0
LINE
  8
0
 10
-4.71066
 20
-8.60437
 11
-4.87108
 21
-8.94525
  0
LINE
  8
0
 10
-4.87108
 20
-8.94525
 11
-5.07294
 21
-9.26335
  0
LINE
  8
0
 10
-5.07294
 20
-9.26335
 11
-5.31308
 21
-9.55363
  0
LINE
  8
0
 10
-5.31308
 20
-9.55363
 11
-5.58772
 21
-9.81154
  0
LINE
  8
0
 10
-5.58772
 20
-9.81154
 11
-5.89252
 21
-10.033
  0
LINE
  8
0
 10
-5.89252
 20
-10.033
 11
-6.22266
 21
-10.2145
  0
LINE
  8
0
 10
-6.22266
 20
-10.2145
 11
-6.57294
 21
-10.3532
  0
LINE
  8
0
 10
-6.57294
 20
-10.3532
 11
-6.93785
 21
-10.4469
  0
LINE
  8
0
 10
-6.93785
 20
-10.4469
 11
-7.31161
 21
-10.4941
  0
LINE
  8
0
 10
-7.31161
 20
-10.4941
 11
-7.68837
 21
-10.4941
  0
LINE
  8
0
 10
-0.0941772
 20
-8.99704
 11
-0.281067
 21
-8.97342
  0
LINE
  8
0
 10
-0.281067
 20
-8.97342
 11
-0.463516
 21
-8.92657
  0
LINE
  8
0
 10
-0.463516
 20
-8.92657
 11
-0.638657
 21
-8.85724
  0
LINE
  8
0
 10
-0.638657
 20
-8.85724
 11
-0.803726
 21
-8.76648
  0
LINE
  8
0
 10
-0.803726
 20
-8.76648
 11
-0.956131
 21
-8.65576
  0
LINE
  8
0
 10
-0.956131
 20
-8.65576
 11
-1.09344
 21
-8.52681
  0
LINE
  8
0
 10
-1.09344
 20
-8.52681
 11
-1.21352
 21
-8.38167
  0
LINE
  8
0
 10
-1.21352
 20
-8.38167
 11
-1.31445
 21
-8.22263
  0
LINE
  8
0
 10
-1.31445
 20
-8.22263
 11
-1.39465
 21
-8.05219
  0
LINE
  8
0
 10
-1.39465
 20
-8.05219
 11
-1.45287
 21
-7.87303
  0
LINE
  8
0
 10
-1.45287
 20
-7.87303
 11
-1.48816
 21
-7.68799
  0
LINE
  8
0
 10
-1.48816
 20
-7.68799
 11
-1.5
 21
-7.5
  0
LINE
  8
0
 10
-1.5
 20
-7.5
 11
-1.48816
 21
-7.312
  0
LINE
  8
0
 10
-1.48816
 20
-7.312
 11
-1.45287
 21
-7.12695
  0
LINE
  8
0
 10
-1.45287
 20
-7.12695
 11
-1.39465
 21
-6.9478
  0
LINE
  8
0
 10
-1.39465
 20
-6.9478
 11
-1.31445
 21
-6.77736
  0
LINE
  8
0
 10
-1.31445
 20
-6.77736
 11
-1.21352
 21
-6.61832
  0
LINE
  8
0
 10
-1.21352
 20
-6.61832
 11
-1.09344
 21
-6.47318
  0
LINE
  8
0
 10
-1.09344
 20
-6.47318
 11
-0.956131
 21
-6.34422
  0
LINE
  8
0
 10
-0.956131
 20
-6.34422
 11
-0.803726
 21
-6.23351
  0
LINE
  8
0
 10
-0.803726
 20
-6.23351
 11
-0.638657
 21
-6.14275
  0
LINE
  8
0
 10
-0.638657
 20
-6.14275
 11
-0.463516
 21
-6.07341
  0
LINE
  8
0
 10
-0.463516
 20
-6.07341
 11
-0.281067
 21
-6.02657
  0
LINE
  8
0
 10
-0.281067
 20
-6.02657
 11
-0.0941772
 21
-6.00294
  0
LINE
  8
0
 10
-0.0941772
 20
-6.00294
 11
0.0941772
 21
-6.00294
  0
LINE
  8
0
 10
0.0941772
 20
-6.00294
 11
0.281067
 21
-6.02657
  0
LINE
  8
0
 10
0.281067
 20
-6.02657
 11
0.463516
 21
-6.07341
  0
LINE
  8
0
 10
0.463516
 20
-6.07341
 11
0.638657
 21
-6.14275
  0
LINE
  8
0
 10
0.638657
 20
-6.14275
 11
0.803726
 21
-6.23351
  0
LINE
  8
0
 10
0.803726
 20
-6.23351
 11
0.956131
 21
-6.34422
  0
LINE
  8
0
 10
0.956131
 20
-6.34422
 11
1.09344
 21
-6.47318
  0
LINE
  8
0
 10
1.09344
 20
-6.47318
 11
1.21352
 21
-6.61832
  0
LINE
  8
0
 10
1.21352
 20
-6.61832
 11
1.31445
 21
-6.77736
  0
LINE
  8
0
 10
1.31445
 20
-6.77736
 11
1.39465
 21
-6.9478
  0
LINE
  8
0
 10
1.39465
 20
-6.9478
 11
1.45287
 21
-7.12695
  0
LINE
  8
0
 10
1.45287
 20
-7.12695
 11
1.48816
 21
-7.312
  0
LINE
  8
0
 10
1.48816
 20
-7.312
 11
1.5
 21
-7.5
  0
LINE
  8
0
 10
1.5
 20
-7.5
 11
1.48816
 21
-7.68799
  0
LINE
  8
0
 10
1.48816
 20
-7.68799
 11
1.45287
 21
-7.87303
  0
LINE
  8
0
 10
1.45287
 20
-7.87303
 11
1.39465
 21
-8.05219
  0
LINE
  8
0
 10
1.39465
 20
-8.05219
 11
1.31445
 21
-8.22263
  0
LINE
  8
0
 10
1.31445
 20
-8.22263
 11
1.21352
 21
-8.38167
  0
LINE
  8
0
 10
1.21352
 20
-8.38167
 11
1.09344
 21
-8.52681
  0
LINE
  8
0
 10
1.09344
 20
-8.52681
 11
0.956131
 21
-8.65576
  0
LINE
  8
0
 10
0.956131
 20
-8.65576
 11
0.803726
 21
-8.76648
  0
LINE
  8
0
 10
0.803726
 20
-8.76648
 11
0.638657
 21
-8.85724
  0
LINE
  8
0
 10
0.638657
 20
-8.85724
 11
0.463516
 21
-8.92657
  0
LINE
  8
0
 10
0.463516
 20
-8.92657
 11
0.281067
 21
-8.97342
  0
LINE
  8
0
 10
0.281067
 20
-8.97342
 11
0.0941772
 21
-8.99704
  0
LINE
  8
0
 10
0.0941772
 20
-8.99704
 11
-0.0941772
 21
-8.99704
  0
ENDSEC
  0
SECTION
  2
OBJECTS
  0
DICTIONARY
  0
ENDSEC
  0
EOF
