  0
SECTION
  2
BLOCKS
  0
ENDSEC
  0
SECTION
  2
ENTITIES
  0
LINE
  8
0
 10
32.9369
 20
54.5886
 11
33.5451
 21
54.7447
  0
LINE
  8
0
 10
33.5451
 20
54.7447
 11
34.1289
 21
54.9759
  0
LINE
  8
0
 10
34.1289
 20
54.9759
 11
34.6791
 21
55.2784
  0
LINE
  8
0
 10
34.6791
 20
55.2784
 11
35.1871
 21
55.6474
  0
LINE
  8
0
 10
35.1871
 20
55.6474
 11
35.6448
 21
56.0773
  0
LINE
  8
0
 10
35.6448
 20
56.0773
 11
36.0451
 21
56.5611
  0
LINE
  8
0
 10
36.0451
 20
56.5611
 11
36.3815
 21
57.0912
  0
LINE
  8
0
 10
36.3815
 20
57.0912
 11
36.6489
 21
57.6594
  0
LINE
  8
0
 10
36.6489
 20
57.6594
 11
36.8429
 21
58.2566
  0
LINE
  8
0
 10
36.8429
 20
58.2566
 11
36.9606
 21
58.8733
  0
LINE
  8
0
 10
36.9606
 20
58.8733
 11
37
 21
59.5
  0
LINE
  8
0
 10
37
 20
59.5
 11
37
 21
138.5
  0
LINE
  8
0
 10
37
 20
138.5
 11
36.9606
 21
139.127
  0
LINE
  8
0
 10
36.9606
 20
139.127
 11
36.8429
 21
139.743
  0
LINE
  8
0
 10
36.8429
 20
139.743
 11
36.6489
 21
140.341
  0
LINE
  8
0
 10
36.6489
 20
140.341
 11
36.3815
 21
140.909
  0
LINE
  8
0
 10
36.3815
 20
140.909
 11
36.0451
 21
141.439
  0
LINE
  8
0
 10
36.0451
 20
141.439
 11
35.6448
 21
141.923
  0
LINE
  8
0
 10
35.6448
 20
141.923
 11
35.1871
 21
142.353
  0
LINE
  8
0
 10
35.1871
 20
142.353
 11
34.6791
 21
142.722
  0
LINE
  8
0
 10
34.6791
 20
142.722
 11
34.1289
 21
143.024
  0
LINE
  8
0
 10
34.1289
 20
143.024
 11
33.5451
 21
143.255
  0
LINE
  8
0
 10
33.5451
 20
143.255
 11
32.9369
 21
143.411
  0
LINE
  8
0
 10
32.9369
 20
143.411
 11
32.3139
 21
143.49
  0
LINE
  8
0
 10
32.3139
 20
143.49
 11
-32.3139
 21
143.49
  0
LINE
  8
0
 10
-32.3139
 20
143.49
 11
-32.9369
 21
143.411
  0
LINE
  8
0
 10
-32.9369
 20
143.411
 11
-33.5451
 21
143.255
  0
LINE
  8
0
 10
-33.5451
 20
143.255
 11
-34.1289
 21
143.024
  0
LINE
  8
0
 10
-34.1289
 20
143.024
 11
-34.6791
 21
142.722
  0
LINE
  8
0
 10
-34.6791
 20
142.722
 11
-35.1871
 21
142.353
  0
LINE
  8
0
 10
-35.1871
 20
142.353
 11
-35.6448
 21
141.923
  0
LINE
  8
0
 10
-35.6448
 20
141.923
 11
-36.0451
 21
141.439
  0
LINE
  8
0
 10
-36.0451
 20
141.439
 11
-36.3815
 21
140.909
  0
LINE
  8
0
 10
-36.3815
 20
140.909
 11
-36.6489
 21
140.341
  0
LINE
  8
0
 10
-36.6489
 20
140.341
 11
-36.8429
 21
139.743
  0
LINE
  8
0
 10
-36.8429
 20
139.743
 11
-36.9606
 21
139.127
  0
LINE
  8
0
 10
-36.9606
 20
139.127
 11
-37
 21
138.5
  0
LINE
  8
0
 10
-37
 20
138.5
 11
-37
 21
59.5
  0
LINE
  8
0
 10
-37
 20
59.5
 11
-36.9606
 21
58.8733
  0
LINE
  8
0
 10
-36.9606
 20
58.8733
 11
-36.8429
 21
58.2566
  0
LINE
  8
0
 10
-36.8429
 20
58.2566
 11
-36.6489
 21
57.6594
  0
LINE
  8
0
 10
-36.6489
 20
57.6594
 11
-36.3815
 21
57.0912
  0
LINE
  8
0
 10
-36.3815
 20
57.0912
 11
-36.0451
 21
56.5611
  0
LINE
  8
0
 10
-36.0451
 20
56.5611
 11
-35.6448
 21
56.0773
  0
LINE
  8
0
 10
-35.6448
 20
56.0773
 11
-35.1871
 21
55.6474
  0
LINE
  8
0
 10
-35.1871
 20
55.6474
 11
-34.6791
 21
55.2784
  0
LINE
  8
0
 10
-34.6791
 20
55.2784
 11
-34.1289
 21
54.9759
  0
LINE
  8
0
 10
-34.1289
 20
54.9759
 11
-33.5451
 21
54.7447
  0
LINE
  8
0
 10
-33.5451
 20
54.7447
 11
-32.9369
 21
54.5886
  0
LINE
  8
0
 10
-32.9369
 20
54.5886
 11
-32.3139
 21
54.5099
  0
LINE
  8
0
 10
-32.3139
 20
54.5099
 11
32.3139
 21
54.5099
  0
LINE
  8
0
 10
32.3139
 20
54.5099
 11
32.9369
 21
54.5886
  0
LINE
  8
0
 10
-30.1884
 20
133.506
 11
-30.5621
 21
133.553
  0
LINE
  8
0
 10
-30.5621
 20
133.553
 11
-30.927
 21
133.647
  0
LINE
  8
0
 10
-30.927
 20
133.647
 11
-31.2773
 21
133.786
  0
LINE
  8
0
 10
-31.2773
 20
133.786
 11
-31.6075
 21
133.967
  0
LINE
  8
0
 10
-31.6075
 20
133.967
 11
-31.9123
 21
134.188
  0
LINE
  8
0
 10
-31.9123
 20
134.188
 11
-32.1869
 21
134.446
  0
LINE
  8
0
 10
-32.1869
 20
134.446
 11
-32.427
 21
134.737
  0
LINE
  8
0
 10
-32.427
 20
134.737
 11
-32.6289
 21
135.055
  0
LINE
  8
0
 10
-32.6289
 20
135.055
 11
-32.7893
 21
135.396
  0
LINE
  8
0
 10
-32.7893
 20
135.396
 11
-32.9057
 21
135.754
  0
LINE
  8
0
 10
-32.9057
 20
135.754
 11
-32.9763
 21
136.124
  0
LINE
  8
0
 10
-32.9763
 20
136.124
 11
-33
 21
136.5
  0
LINE
  8
0
 10
-33
 20
136.5
 11
-32.9763
 21
136.876
  0
LINE
  8
0
 10
-32.9763
 20
136.876
 11
-32.9057
 21
137.246
  0
LINE
  8
0
 10
-32.9057
 20
137.246
 11
-32.7893
 21
137.604
  0
LINE
  8
0
 10
-32.7893
 20
137.604
 11
-32.6289
 21
137.945
  0
LINE
  8
0
 10
-32.6289
 20
137.945
 11
-32.427
 21
138.263
  0
LINE
  8
0
 10
-32.427
 20
138.263
 11
-32.1869
 21
138.554
  0
LINE
  8
0
 10
-32.1869
 20
138.554
 11
-31.9123
 21
138.812
  0
LINE
  8
0
 10
-31.9123
 20
138.812
 11
-31.6075
 21
139.033
  0
LINE
  8
0
 10
-31.6075
 20
139.033
 11
-31.2773
 21
139.214
  0
LINE
  8
0
 10
-31.2773
 20
139.214
 11
-30.927
 21
139.353
  0
LINE
  8
0
 10
-30.927
 20
139.353
 11
-30.5621
 21
139.447
  0
LINE
  8
0
 10
-30.5621
 20
139.447
 11
-30.1884
 21
139.494
  0
LINE
  8
0
 10
-30.1884
 20
139.494
 11
-29.8116
 21
139.494
  0
LINE
  8
0
 10
-29.8116
 20
139.494
 11
-29.4379
 21
139.447
  0
LINE
  8
0
 10
-29.4379
 20
139.447
 11
-29.0729
 21
139.353
  0
LINE
  8
0
 10
-29.0729
 20
139.353
 11
-28.7227
 21
139.214
  0
LINE
  8
0
 10
-28.7227
 20
139.214
 11
-28.3925
 21
139.033
  0
LINE
  8
0
 10
-28.3925
 20
139.033
 11
-28.0877
 21
138.812
  0
LINE
  8
0
 10
-28.0877
 20
138.812
 11
-27.8131
 21
138.554
  0
LINE
  8
0
 10
-27.8131
 20
138.554
 11
-27.5729
 21
138.263
  0
LINE
  8
0
 10
-27.5729
 20
138.263
 11
-27.3711
 21
137.945
  0
LINE
  8
0
 10
-27.3711
 20
137.945
 11
-27.2107
 21
137.604
  0
LINE
  8
0
 10
-27.2107
 20
137.604
 11
-27.0942
 21
137.246
  0
LINE
  8
0
 10
-27.0942
 20
137.246
 11
-27.0237
 21
136.876
  0
LINE
  8
0
 10
-27.0237
 20
136.876
 11
-27
 21
136.5
  0
LINE
  8
0
 10
-27
 20
136.5
 11
-27.0237
 21
136.124
  0
LINE
  8
0
 10
-27.0237
 20
136.124
 11
-27.0942
 21
135.754
  0
LINE
  8
0
 10
-27.0942
 20
135.754
 11
-27.2107
 21
135.396
  0
LINE
  8
0
 10
-27.2107
 20
135.396
 11
-27.3711
 21
135.055
  0
LINE
  8
0
 10
-27.3711
 20
135.055
 11
-27.5729
 21
134.737
  0
LINE
  8
0
 10
-27.5729
 20
134.737
 11
-27.8131
 21
134.446
  0
LINE
  8
0
 10
-27.8131
 20
134.446
 11
-28.0877
 21
134.188
  0
LINE
  8
0
 10
-28.0877
 20
134.188
 11
-28.3925
 21
133.967
  0
LINE
  8
0
 10
-28.3925
 20
133.967
 11
-28.7227
 21
133.786
  0
LINE
  8
0
 10
-28.7227
 20
133.786
 11
-29.0729
 21
133.647
  0
LINE
  8
0
 10
-29.0729
 20
133.647
 11
-29.4379
 21
133.553
  0
LINE
  8
0
 10
-29.4379
 20
133.553
 11
-29.8116
 21
133.506
  0
LINE
  8
0
 10
-29.8116
 20
133.506
 11
-30.1884
 21
133.506
  0
LINE
  8
0
 10
14.8116
 20
133.506
 11
14.4379
 21
133.553
  0
LINE
  8
0
 10
14.4379
 20
133.553
 11
14.0729
 21
133.647
  0
LINE
  8
0
 10
14.0729
 20
133.647
 11
13.7227
 21
133.786
  0
LINE
  8
0
 10
13.7227
 20
133.786
 11
13.3925
 21
133.967
  0
LINE
  8
0
 10
13.3925
 20
133.967
 11
13.0877
 21
134.188
  0
LINE
  8
0
 10
13.0877
 20
134.188
 11
12.8131
 21
134.446
  0
LINE
  8
0
 10
12.8131
 20
134.446
 11
12.5729
 21
134.737
  0
LINE
  8
0
 10
12.5729
 20
134.737
 11
12.3711
 21
135.055
  0
LINE
  8
0
 10
12.3711
 20
135.055
 11
12.2107
 21
135.396
  0
LINE
  8
0
 10
12.2107
 20
135.396
 11
12.0942
 21
135.754
  0
LINE
  8
0
 10
12.0942
 20
135.754
 11
12.0237
 21
136.124
  0
LINE
  8
0
 10
12.0237
 20
136.124
 11
12
 21
136.5
  0
LINE
  8
0
 10
12
 20
136.5
 11
12.0237
 21
136.876
  0
LINE
  8
0
 10
12.0237
 20
136.876
 11
12.0942
 21
137.246
  0
LINE
  8
0
 10
12.0942
 20
137.246
 11
12.2107
 21
137.604
  0
LINE
  8
0
 10
12.2107
 20
137.604
 11
12.3711
 21
137.945
  0
LINE
  8
0
 10
12.3711
 20
137.945
 11
12.5729
 21
138.263
  0
LINE
  8
0
 10
12.5729
 20
138.263
 11
12.8131
 21
138.554
  0
LINE
  8
0
 10
12.8131
 20
138.554
 11
13.0877
 21
138.812
  0
LINE
  8
0
 10
13.0877
 20
138.812
 11
13.3925
 21
139.033
  0
LINE
  8
0
 10
13.3925
 20
139.033
 11
13.7227
 21
139.214
  0
LINE
  8
0
 10
13.7227
 20
139.214
 11
14.0729
 21
139.353
  0
LINE
  8
0
 10
14.0729
 20
139.353
 11
14.4379
 21
139.447
  0
LINE
  8
0
 10
14.4379
 20
139.447
 11
14.8116
 21
139.494
  0
LINE
  8
0
 10
14.8116
 20
139.494
 11
15.1884
 21
139.494
  0
LINE
  8
0
 10
15.1884
 20
139.494
 11
15.5621
 21
139.447
  0
LINE
  8
0
 10
15.5621
 20
139.447
 11
15.927
 21
139.353
  0
LINE
  8
0
 10
15.927
 20
139.353
 11
16.2773
 21
139.214
  0
LINE
  8
0
 10
16.2773
 20
139.214
 11
16.6075
 21
139.033
  0
LINE
  8
0
 10
16.6075
 20
139.033
 11
16.9123
 21
138.812
  0
LINE
  8
0
 10
16.9123
 20
138.812
 11
17.1869
 21
138.554
  0
LINE
  8
0
 10
17.1869
 20
138.554
 11
17.427
 21
138.263
  0
LINE
  8
0
 10
17.427
 20
138.263
 11
17.6289
 21
137.945
  0
LINE
  8
0
 10
17.6289
 20
137.945
 11
17.7893
 21
137.604
  0
LINE
  8
0
 10
17.7893
 20
137.604
 11
17.9057
 21
137.246
  0
LINE
  8
0
 10
17.9057
 20
137.246
 11
17.9763
 21
136.876
  0
LINE
  8
0
 10
17.9763
 20
136.876
 11
18
 21
136.5
  0
LINE
  8
0
 10
18
 20
136.5
 11
17.9763
 21
136.124
  0
LINE
  8
0
 10
17.9763
 20
136.124
 11
17.9057
 21
135.754
  0
LINE
  8
0
 10
17.9057
 20
135.754
 11
17.7893
 21
135.396
  0
LINE
  8
0
 10
17.7893
 20
135.396
 11
17.6289
 21
135.055
  0
LINE
  8
0
 10
17.6289
 20
135.055
 11
17.427
 21
134.737
  0
LINE
  8
0
 10
17.427
 20
134.737
 11
17.1869
 21
134.446
  0
LINE
  8
0
 10
17.1869
 20
134.446
 11
16.9123
 21
134.188
  0
LINE
  8
0
 10
16.9123
 20
134.188
 11
16.6075
 21
133.967
  0
LINE
  8
0
 10
16.6075
 20
133.967
 11
16.2773
 21
133.786
  0
LINE
  8
0
 10
16.2773
 20
133.786
 11
15.927
 21
133.647
  0
LINE
  8
0
 10
15.927
 20
133.647
 11
15.5621
 21
133.553
  0
LINE
  8
0
 10
15.5621
 20
133.553
 11
15.1884
 21
133.506
  0
LINE
  8
0
 10
15.1884
 20
133.506
 11
14.8116
 21
133.506
  0
LINE
  8
0
 10
29.8116
 20
133.506
 11
29.4379
 21
133.553
  0
LINE
  8
0
 10
29.4379
 20
133.553
 11
29.0729
 21
133.647
  0
LINE
  8
0
 10
29.0729
 20
133.647
 11
28.7227
 21
133.786
  0
LINE
  8
0
 10
28.7227
 20
133.786
 11
28.3925
 21
133.967
  0
LINE
  8
0
 10
28.3925
 20
133.967
 11
28.0877
 21
134.188
  0
LINE
  8
0
 10
28.0877
 20
134.188
 11
27.8131
 21
134.446
  0
LINE
  8
0
 10
27.8131
 20
134.446
 11
27.5729
 21
134.737
  0
LINE
  8
0
 10
27.5729
 20
134.737
 11
27.3711
 21
135.055
  0
LINE
  8
0
 10
27.3711
 20
135.055
 11
27.2107
 21
135.396
  0
LINE
  8
0
 10
27.2107
 20
135.396
 11
27.0942
 21
135.754
  0
LINE
  8
0
 10
27.0942
 20
135.754
 11
27.0237
 21
136.124
  0
LINE
  8
0
 10
27.0237
 20
136.124
 11
27
 21
136.5
  0
LINE
  8
0
 10
27
 20
136.5
 11
27.0237
 21
136.876
  0
LINE
  8
0
 10
27.0237
 20
136.876
 11
27.0942
 21
137.246
  0
LINE
  8
0
 10
27.0942
 20
137.246
 11
27.2107
 21
137.604
  0
LINE
  8
0
 10
27.2107
 20
137.604
 11
27.3711
 21
137.945
  0
LINE
  8
0
 10
27.3711
 20
137.945
 11
27.5729
 21
138.263
  0
LINE
  8
0
 10
27.5729
 20
138.263
 11
27.8131
 21
138.554
  0
LINE
  8
0
 10
27.8131
 20
138.554
 11
28.0877
 21
138.812
  0
LINE
  8
0
 10
28.0877
 20
138.812
 11
28.3925
 21
139.033
  0
LINE
  8
0
 10
28.3925
 20
139.033
 11
28.7227
 21
139.214
  0
LINE
  8
0
 10
28.7227
 20
139.214
 11
29.0729
 21
139.353
  0
LINE
  8
0
 10
29.0729
 20
139.353
 11
29.4379
 21
139.447
  0
LINE
  8
0
 10
29.4379
 20
139.447
 11
29.8116
 21
139.494
  0
LINE
  8
0
 10
29.8116
 20
139.494
 11
30.1884
 21
139.494
  0
LINE
  8
0
 10
30.1884
 20
139.494
 11
30.5621
 21
139.447
  0
LINE
  8
0
 10
30.5621
 20
139.447
 11
30.927
 21
139.353
  0
LINE
  8
0
 10
30.927
 20
139.353
 11
31.2773
 21
139.214
  0
LINE
  8
0
 10
31.2773
 20
139.214
 11
31.6075
 21
139.033
  0
LINE
  8
0
 10
31.6075
 20
139.033
 11
31.9123
 21
138.812
  0
LINE
  8
0
 10
31.9123
 20
138.812
 11
32.1869
 21
138.554
  0
LINE
  8
0
 10
32.1869
 20
138.554
 11
32.427
 21
138.263
  0
LINE
  8
0
 10
32.427
 20
138.263
 11
32.6289
 21
137.945
  0
LINE
  8
0
 10
32.6289
 20
137.945
 11
32.7893
 21
137.604
  0
LINE
  8
0
 10
32.7893
 20
137.604
 11
32.9057
 21
137.246
  0
LINE
  8
0
 10
32.9057
 20
137.246
 11
32.9763
 21
136.876
  0
LINE
  8
0
 10
32.9763
 20
136.876
 11
33
 21
136.5
  0
LINE
  8
0
 10
33
 20
136.5
 11
32.9763
 21
136.124
  0
LINE
  8
0
 10
32.9763
 20
136.124
 11
32.9057
 21
135.754
  0
LINE
  8
0
 10
32.9057
 20
135.754
 11
32.7893
 21
135.396
  0
LINE
  8
0
 10
32.7893
 20
135.396
 11
32.6289
 21
135.055
  0
LINE
  8
0
 10
32.6289
 20
135.055
 11
32.427
 21
134.737
  0
LINE
  8
0
 10
32.427
 20
134.737
 11
32.1869
 21
134.446
  0
LINE
  8
0
 10
32.1869
 20
134.446
 11
31.9123
 21
134.188
  0
LINE
  8
0
 10
31.9123
 20
134.188
 11
31.6075
 21
133.967
  0
LINE
  8
0
 10
31.6075
 20
133.967
 11
31.2773
 21
133.786
  0
LINE
  8
0
 10
31.2773
 20
133.786
 11
30.927
 21
133.647
  0
LINE
  8
0
 10
30.927
 20
133.647
 11
30.5621
 21
133.553
  0
LINE
  8
0
 10
30.5621
 20
133.553
 11
30.1884
 21
133.506
  0
LINE
  8
0
 10
30.1884
 20
133.506
 11
29.8116
 21
133.506
  0
LINE
  8
0
 10
-15.1884
 20
133.506
 11
-15.5621
 21
133.553
  0
LINE
  8
0
 10
-15.5621
 20
133.553
 11
-15.927
 21
133.647
  0
LINE
  8
0
 10
-15.927
 20
133.647
 11
-16.2773
 21
133.786
  0
LINE
  8
0
 10
-16.2773
 20
133.786
 11
-16.6075
 21
133.967
  0
LINE
  8
0
 10
-16.6075
 20
133.967
 11
-16.9123
 21
134.188
  0
LINE
  8
0
 10
-16.9123
 20
134.188
 11
-17.1869
 21
134.446
  0
LINE
  8
0
 10
-17.1869
 20
134.446
 11
-17.427
 21
134.737
  0
LINE
  8
0
 10
-17.427
 20
134.737
 11
-17.6289
 21
135.055
  0
LINE
  8
0
 10
-17.6289
 20
135.055
 11
-17.7893
 21
135.396
  0
LINE
  8
0
 10
-17.7893
 20
135.396
 11
-17.9057
 21
135.754
  0
LINE
  8
0
 10
-17.9057
 20
135.754
 11
-17.9763
 21
136.124
  0
LINE
  8
0
 10
-17.9763
 20
136.124
 11
-18
 21
136.5
  0
LINE
  8
0
 10
-18
 20
136.5
 11
-17.9763
 21
136.876
  0
LINE
  8
0
 10
-17.9763
 20
136.876
 11
-17.9057
 21
137.246
  0
LINE
  8
0
 10
-17.9057
 20
137.246
 11
-17.7893
 21
137.604
  0
LINE
  8
0
 10
-17.7893
 20
137.604
 11
-17.6289
 21
137.945
  0
LINE
  8
0
 10
-17.6289
 20
137.945
 11
-17.427
 21
138.263
  0
LINE
  8
0
 10
-17.427
 20
138.263
 11
-17.1869
 21
138.554
  0
LINE
  8
0
 10
-17.1869
 20
138.554
 11
-16.9123
 21
138.812
  0
LINE
  8
0
 10
-16.9123
 20
138.812
 11
-16.6075
 21
139.033
  0
LINE
  8
0
 10
-16.6075
 20
139.033
 11
-16.2773
 21
139.214
  0
LINE
  8
0
 10
-16.2773
 20
139.214
 11
-15.927
 21
139.353
  0
LINE
  8
0
 10
-15.927
 20
139.353
 11
-15.5621
 21
139.447
  0
LINE
  8
0
 10
-15.5621
 20
139.447
 11
-15.1884
 21
139.494
  0
LINE
  8
0
 10
-15.1884
 20
139.494
 11
-14.8116
 21
139.494
  0
LINE
  8
0
 10
-14.8116
 20
139.494
 11
-14.4379
 21
139.447
  0
LINE
  8
0
 10
-14.4379
 20
139.447
 11
-14.0729
 21
139.353
  0
LINE
  8
0
 10
-14.0729
 20
139.353
 11
-13.7227
 21
139.214
  0
LINE
  8
0
 10
-13.7227
 20
139.214
 11
-13.3925
 21
139.033
  0
LINE
  8
0
 10
-13.3925
 20
139.033
 11
-13.0877
 21
138.812
  0
LINE
  8
0
 10
-13.0877
 20
138.812
 11
-12.8131
 21
138.554
  0
LINE
  8
0
 10
-12.8131
 20
138.554
 11
-12.5729
 21
138.263
  0
LINE
  8
0
 10
-12.5729
 20
138.263
 11
-12.3711
 21
137.945
  0
LINE
  8
0
 10
-12.3711
 20
137.945
 11
-12.2107
 21
137.604
  0
LINE
  8
0
 10
-12.2107
 20
137.604
 11
-12.0942
 21
137.246
  0
LINE
  8
0
 10
-12.0942
 20
137.246
 11
-12.0237
 21
136.876
  0
LINE
  8
0
 10
-12.0237
 20
136.876
 11
-12
 21
136.5
  0
LINE
  8
0
 10
-12
 20
136.5
 11
-12.0237
 21
136.124
  0
LINE
  8
0
 10
-12.0237
 20
136.124
 11
-12.0942
 21
135.754
  0
LINE
  8
0
 10
-12.0942
 20
135.754
 11
-12.2107
 21
135.396
  0
LINE
  8
0
 10
-12.2107
 20
135.396
 11
-12.3711
 21
135.055
  0
LINE
  8
0
 10
-12.3711
 20
135.055
 11
-12.5729
 21
134.737
  0
LINE
  8
0
 10
-12.5729
 20
134.737
 11
-12.8131
 21
134.446
  0
LINE
  8
0
 10
-12.8131
 20
134.446
 11
-13.0877
 21
134.188
  0
LINE
  8
0
 10
-13.0877
 20
134.188
 11
-13.3925
 21
133.967
  0
LINE
  8
0
 10
-13.3925
 20
133.967
 11
-13.7227
 21
133.786
  0
LINE
  8
0
 10
-13.7227
 20
133.786
 11
-14.0729
 21
133.647
  0
LINE
  8
0
 10
-14.0729
 20
133.647
 11
-14.4379
 21
133.553
  0
LINE
  8
0
 10
-14.4379
 20
133.553
 11
-14.8116
 21
133.506
  0
LINE
  8
0
 10
-14.8116
 20
133.506
 11
-15.1884
 21
133.506
  0
LINE
  8
0
 10
-0.18837
 20
133.506
 11
-0.562134
 21
133.553
  0
LINE
  8
0
 10
-0.562134
 20
133.553
 11
-0.927048
 21
133.647
  0
LINE
  8
0
 10
-0.927048
 20
133.647
 11
-1.27733
 21
133.786
  0
LINE
  8
0
 10
-1.27733
 20
133.786
 11
-1.60747
 21
133.967
  0
LINE
  8
0
 10
-1.60747
 20
133.967
 11
-1.91226
 21
134.188
  0
LINE
  8
0
 10
-1.91226
 20
134.188
 11
-2.1869
 21
134.446
  0
LINE
  8
0
 10
-2.1869
 20
134.446
 11
-2.42705
 21
134.737
  0
LINE
  8
0
 10
-2.42705
 20
134.737
 11
-2.62891
 21
135.055
  0
LINE
  8
0
 10
-2.62891
 20
135.055
 11
-2.78932
 21
135.396
  0
LINE
  8
0
 10
-2.78932
 20
135.396
 11
-2.90575
 21
135.754
  0
LINE
  8
0
 10
-2.90575
 20
135.754
 11
-2.97633
 21
136.124
  0
LINE
  8
0
 10
-2.97633
 20
136.124
 11
-3
 21
136.5
  0
LINE
  8
0
 10
-3
 20
136.5
 11
-2.97633
 21
136.876
  0
LINE
  8
0
 10
-2.97633
 20
136.876
 11
-2.90575
 21
137.246
  0
LINE
  8
0
 10
-2.90575
 20
137.246
 11
-2.78932
 21
137.604
  0
LINE
  8
0
 10
-2.78932
 20
137.604
 11
-2.62891
 21
137.945
  0
LINE
  8
0
 10
-2.62891
 20
137.945
 11
-2.42705
 21
138.263
  0
LINE
  8
0
 10
-2.42705
 20
138.263
 11
-2.1869
 21
138.554
  0
LINE
  8
0
 10
-2.1869
 20
138.554
 11
-1.91226
 21
138.812
  0
LINE
  8
0
 10
-1.91226
 20
138.812
 11
-1.60747
 21
139.033
  0
LINE
  8
0
 10
-1.60747
 20
139.033
 11
-1.27733
 21
139.214
  0
LINE
  8
0
 10
-1.27733
 20
139.214
 11
-0.927048
 21
139.353
  0
LINE
  8
0
 10
-0.927048
 20
139.353
 11
-0.562134
 21
139.447
  0
LINE
  8
0
 10
-0.562134
 20
139.447
 11
-0.18837
 21
139.494
  0
LINE
  8
0
 10
-0.18837
 20
139.494
 11
0.18837
 21
139.494
  0
LINE
  8
0
 10
0.18837
 20
139.494
 11
0.562134
 21
139.447
  0
LINE
  8
0
 10
0.562134
 20
139.447
 11
0.927048
 21
139.353
  0
LINE
  8
0
 10
0.927048
 20
139.353
 11
1.27733
 21
139.214
  0
LINE
  8
0
 10
1.27733
 20
139.214
 11
1.60747
 21
139.033
  0
LINE
  8
0
 10
1.60747
 20
139.033
 11
1.91226
 21
138.812
  0
LINE
  8
0
 10
1.91226
 20
138.812
 11
2.1869
 21
138.554
  0
LINE
  8
0
 10
2.1869
 20
138.554
 11
2.42705
 21
138.263
  0
LINE
  8
0
 10
2.42705
 20
138.263
 11
2.62891
 21
137.945
  0
LINE
  8
0
 10
2.62891
 20
137.945
 11
2.78932
 21
137.604
  0
LINE
  8
0
 10
2.78932
 20
137.604
 11
2.90575
 21
137.246
  0
LINE
  8
0
 10
2.90575
 20
137.246
 11
2.97633
 21
136.876
  0
LINE
  8
0
 10
2.97633
 20
136.876
 11
3
 21
136.5
  0
LINE
  8
0
 10
3
 20
136.5
 11
2.97633
 21
136.124
  0
LINE
  8
0
 10
2.97633
 20
136.124
 11
2.90575
 21
135.754
  0
LINE
  8
0
 10
2.90575
 20
135.754
 11
2.78932
 21
135.396
  0
LINE
  8
0
 10
2.78932
 20
135.396
 11
2.62891
 21
135.055
  0
LINE
  8
0
 10
2.62891
 20
135.055
 11
2.42705
 21
134.737
  0
LINE
  8
0
 10
2.42705
 20
134.737
 11
2.1869
 21
134.446
  0
LINE
  8
0
 10
2.1869
 20
134.446
 11
1.91226
 21
134.188
  0
LINE
  8
0
 10
1.91226
 20
134.188
 11
1.60747
 21
133.967
  0
LINE
  8
0
 10
1.60747
 20
133.967
 11
1.27733
 21
133.786
  0
LINE
  8
0
 10
1.27733
 20
133.786
 11
0.927048
 21
133.647
  0
LINE
  8
0
 10
0.927048
 20
133.647
 11
0.562134
 21
133.553
  0
LINE
  8
0
 10
0.562134
 20
133.553
 11
0.18837
 21
133.506
  0
LINE
  8
0
 10
0.18837
 20
133.506
 11
-0.18837
 21
133.506
  0
LINE
  8
0
 10
22.4058
 20
135.003
 11
22.2189
 21
135.027
  0
LINE
  8
0
 10
22.2189
 20
135.027
 11
22.0365
 21
135.073
  0
LINE
  8
0
 10
22.0365
 20
135.073
 11
21.8613
 21
135.143
  0
LINE
  8
0
 10
21.8613
 20
135.143
 11
21.6963
 21
135.234
  0
LINE
  8
0
 10
21.6963
 20
135.234
 11
21.5439
 21
135.344
  0
LINE
  8
0
 10
21.5439
 20
135.344
 11
21.4065
 21
135.473
  0
LINE
  8
0
 10
21.4065
 20
135.473
 11
21.2865
 21
135.618
  0
LINE
  8
0
 10
21.2865
 20
135.618
 11
21.1855
 21
135.777
  0
LINE
  8
0
 10
21.1855
 20
135.777
 11
21.1053
 21
135.948
  0
LINE
  8
0
 10
21.1053
 20
135.948
 11
21.0471
 21
136.127
  0
LINE
  8
0
 10
21.0471
 20
136.127
 11
21.0118
 21
136.312
  0
LINE
  8
0
 10
21.0118
 20
136.312
 11
21
 21
136.5
  0
LINE
  8
0
 10
21
 20
136.5
 11
21.0118
 21
136.688
  0
LINE
  8
0
 10
21.0118
 20
136.688
 11
21.0471
 21
136.873
  0
LINE
  8
0
 10
21.0471
 20
136.873
 11
21.1053
 21
137.052
  0
LINE
  8
0
 10
21.1053
 20
137.052
 11
21.1855
 21
137.223
  0
LINE
  8
0
 10
21.1855
 20
137.223
 11
21.2865
 21
137.382
  0
LINE
  8
0
 10
21.2865
 20
137.382
 11
21.4065
 21
137.527
  0
LINE
  8
0
 10
21.4065
 20
137.527
 11
21.5439
 21
137.656
  0
LINE
  8
0
 10
21.5439
 20
137.656
 11
21.6963
 21
137.766
  0
LINE
  8
0
 10
21.6963
 20
137.766
 11
21.8613
 21
137.857
  0
LINE
  8
0
 10
21.8613
 20
137.857
 11
22.0365
 21
137.927
  0
LINE
  8
0
 10
22.0365
 20
137.927
 11
22.2189
 21
137.973
  0
LINE
  8
0
 10
22.2189
 20
137.973
 11
22.4058
 21
137.997
  0
LINE
  8
0
 10
22.4058
 20
137.997
 11
22.5942
 21
137.997
  0
LINE
  8
0
 10
22.5942
 20
137.997
 11
22.7811
 21
137.973
  0
LINE
  8
0
 10
22.7811
 20
137.973
 11
22.9635
 21
137.927
  0
LINE
  8
0
 10
22.9635
 20
137.927
 11
23.1387
 21
137.857
  0
LINE
  8
0
 10
23.1387
 20
137.857
 11
23.3037
 21
137.766
  0
LINE
  8
0
 10
23.3037
 20
137.766
 11
23.4561
 21
137.656
  0
LINE
  8
0
 10
23.4561
 20
137.656
 11
23.5934
 21
137.527
  0
LINE
  8
0
 10
23.5934
 20
137.527
 11
23.7135
 21
137.382
  0
LINE
  8
0
 10
23.7135
 20
137.382
 11
23.8145
 21
137.223
  0
LINE
  8
0
 10
23.8145
 20
137.223
 11
23.8947
 21
137.052
  0
LINE
  8
0
 10
23.8947
 20
137.052
 11
23.9529
 21
136.873
  0
LINE
  8
0
 10
23.9529
 20
136.873
 11
23.9882
 21
136.688
  0
LINE
  8
0
 10
23.9882
 20
136.688
 11
24
 21
136.5
  0
LINE
  8
0
 10
24
 20
136.5
 11
23.9882
 21
136.312
  0
LINE
  8
0
 10
23.9882
 20
136.312
 11
23.9529
 21
136.127
  0
LINE
  8
0
 10
23.9529
 20
136.127
 11
23.8947
 21
135.948
  0
LINE
  8
0
 10
23.8947
 20
135.948
 11
23.8145
 21
135.777
  0
LINE
  8
0
 10
23.8145
 20
135.777
 11
23.7135
 21
135.618
  0
LINE
  8
0
 10
23.7135
 20
135.618
 11
23.5934
 21
135.473
  0
LINE
  8
0
 10
23.5934
 20
135.473
 11
23.4561
 21
135.344
  0
LINE
  8
0
 10
23.4561
 20
135.344
 11
23.3037
 21
135.234
  0
LINE
  8
0
 10
23.3037
 20
135.234
 11
23.1387
 21
135.143
  0
LINE
  8
0
 10
23.1387
 20
135.143
 11
22.9635
 21
135.073
  0
LINE
  8
0
 10
22.9635
 20
135.073
 11
22.7811
 21
135.027
  0
LINE
  8
0
 10
22.7811
 20
135.027
 11
22.5942
 21
135.003
  0
LINE
  8
0
 10
22.5942
 20
135.003
 11
22.4058
 21
135.003
  0
LINE
  8
0
 10
7.40581
 20
135.003
 11
7.21892
 21
135.027
  0
LINE
  8
0
 10
7.21892
 20
135.027
 11
7.03647
 21
135.073
  0
LINE
  8
0
 10
7.03647
 20
135.073
 11
6.86133
 21
135.143
  0
LINE
  8
0
 10
6.86133
 20
135.143
 11
6.69626
 21
135.234
  0
LINE
  8
0
 10
6.69626
 20
135.234
 11
6.54385
 21
135.344
  0
LINE
  8
0
 10
6.54385
 20
135.344
 11
6.40654
 21
135.473
  0
LINE
  8
0
 10
6.40654
 20
135.473
 11
6.28647
 21
135.618
  0
LINE
  8
0
 10
6.28647
 20
135.618
 11
6.18553
 21
135.777
  0
LINE
  8
0
 10
6.18553
 20
135.777
 11
6.10533
 21
135.948
  0
LINE
  8
0
 10
6.10533
 20
135.948
 11
6.04712
 21
136.127
  0
LINE
  8
0
 10
6.04712
 20
136.127
 11
6.01183
 21
136.312
  0
LINE
  8
0
 10
6.01183
 20
136.312
 11
6
 21
136.5
  0
LINE
  8
0
 10
6
 20
136.5
 11
6.01183
 21
136.688
  0
LINE
  8
0
 10
6.01183
 20
136.688
 11
6.04712
 21
136.873
  0
LINE
  8
0
 10
6.04712
 20
136.873
 11
6.10533
 21
137.052
  0
LINE
  8
0
 10
6.10533
 20
137.052
 11
6.18553
 21
137.223
  0
LINE
  8
0
 10
6.18553
 20
137.223
 11
6.28647
 21
137.382
  0
LINE
  8
0
 10
6.28647
 20
137.382
 11
6.40654
 21
137.527
  0
LINE
  8
0
 10
6.40654
 20
137.527
 11
6.54385
 21
137.656
  0
LINE
  8
0
 10
6.54385
 20
137.656
 11
6.69626
 21
137.766
  0
LINE
  8
0
 10
6.69626
 20
137.766
 11
6.86133
 21
137.857
  0
LINE
  8
0
 10
6.86133
 20
137.857
 11
7.03647
 21
137.927
  0
LINE
  8
0
 10
7.03647
 20
137.927
 11
7.21892
 21
137.973
  0
LINE
  8
0
 10
7.21892
 20
137.973
 11
7.40581
 21
137.997
  0
LINE
  8
0
 10
7.40581
 20
137.997
 11
7.59418
 21
137.997
  0
LINE
  8
0
 10
7.59418
 20
137.997
 11
7.78107
 21
137.973
  0
LINE
  8
0
 10
7.78107
 20
137.973
 11
7.96352
 21
137.927
  0
LINE
  8
0
 10
7.96352
 20
137.927
 11
8.13866
 21
137.857
  0
LINE
  8
0
 10
8.13866
 20
137.857
 11
8.30373
 21
137.766
  0
LINE
  8
0
 10
8.30373
 20
137.766
 11
8.45613
 21
137.656
  0
LINE
  8
0
 10
8.45613
 20
137.656
 11
8.59344
 21
137.527
  0
LINE
  8
0
 10
8.59344
 20
137.527
 11
8.71352
 21
137.382
  0
LINE
  8
0
 10
8.71352
 20
137.382
 11
8.81445
 21
137.223
  0
LINE
  8
0
 10
8.81445
 20
137.223
 11
8.89465
 21
137.052
  0
LINE
  8
0
 10
8.89465
 20
137.052
 11
8.95287
 21
136.873
  0
LINE
  8
0
 10
8.95287
 20
136.873
 11
8.98816
 21
136.688
  0
LINE
  8
0
 10
8.98816
 20
136.688
 11
9
 21
136.5
  0
LINE
  8
0
 10
9
 20
136.5
 11
8.98816
 21
136.312
  0
LINE
  8
0
 10
8.98816
 20
136.312
 11
8.95287
 21
136.127
  0
LINE
  8
0
 10
8.95287
 20
136.127
 11
8.89465
 21
135.948
  0
LINE
  8
0
 10
8.89465
 20
135.948
 11
8.81445
 21
135.777
  0
LINE
  8
0
 10
8.81445
 20
135.777
 11
8.71352
 21
135.618
  0
LINE
  8
0
 10
8.71352
 20
135.618
 11
8.59344
 21
135.473
  0
LINE
  8
0
 10
8.59344
 20
135.473
 11
8.45613
 21
135.344
  0
LINE
  8
0
 10
8.45613
 20
135.344
 11
8.30373
 21
135.234
  0
LINE
  8
0
 10
8.30373
 20
135.234
 11
8.13866
 21
135.143
  0
LINE
  8
0
 10
8.13866
 20
135.143
 11
7.96352
 21
135.073
  0
LINE
  8
0
 10
7.96352
 20
135.073
 11
7.78107
 21
135.027
  0
LINE
  8
0
 10
7.78107
 20
135.027
 11
7.59418
 21
135.003
  0
LINE
  8
0
 10
7.59418
 20
135.003
 11
7.40581
 21
135.003
  0
LINE
  8
0
 10
-7.59418
 20
135.003
 11
-7.78107
 21
135.027
  0
LINE
  8
0
 10
-7.78107
 20
135.027
 11
-7.96352
 21
135.073
  0
LINE
  8
0
 10
-7.96352
 20
135.073
 11
-8.13866
 21
135.143
  0
LINE
  8
0
 10
-8.13866
 20
135.143
 11
-8.30373
 21
135.234
  0
LINE
  8
0
 10
-8.30373
 20
135.234
 11
-8.45613
 21
135.344
  0
LINE
  8
0
 10
-8.45613
 20
135.344
 11
-8.59344
 21
135.473
  0
LINE
  8
0
 10
-8.59344
 20
135.473
 11
-8.71352
 21
135.618
  0
LINE
  8
0
 10
-8.71352
 20
135.618
 11
-8.81445
 21
135.777
  0
LINE
  8
0
 10
-8.81445
 20
135.777
 11
-8.89465
 21
135.948
  0
LINE
  8
0
 10
-8.89465
 20
135.948
 11
-8.95287
 21
136.127
  0
LINE
  8
0
 10
-8.95287
 20
136.127
 11
-8.98816
 21
136.312
  0
LINE
  8
0
 10
-8.98816
 20
136.312
 11
-9
 21
136.5
  0
LINE
  8
0
 10
-9
 20
136.5
 11
-8.98816
 21
136.688
  0
LINE
  8
0
 10
-8.98816
 20
136.688
 11
-8.95287
 21
136.873
  0
LINE
  8
0
 10
-8.95287
 20
136.873
 11
-8.89465
 21
137.052
  0
LINE
  8
0
 10
-8.89465
 20
137.052
 11
-8.81445
 21
137.223
  0
LINE
  8
0
 10
-8.81445
 20
137.223
 11
-8.71352
 21
137.382
  0
LINE
  8
0
 10
-8.71352
 20
137.382
 11
-8.59344
 21
137.527
  0
LINE
  8
0
 10
-8.59344
 20
137.527
 11
-8.45613
 21
137.656
  0
LINE
  8
0
 10
-8.45613
 20
137.656
 11
-8.30373
 21
137.766
  0
LINE
  8
0
 10
-8.30373
 20
137.766
 11
-8.13866
 21
137.857
  0
LINE
  8
0
 10
-8.13866
 20
137.857
 11
-7.96352
 21
137.927
  0
LINE
  8
0
 10
-7.96352
 20
137.927
 11
-7.78107
 21
137.973
  0
LINE
  8
0
 10
-7.78107
 20
137.973
 11
-7.59418
 21
137.997
  0
LINE
  8
0
 10
-7.59418
 20
137.997
 11
-7.40581
 21
137.997
  0
LINE
  8
0
 10
-7.40581
 20
137.997
 11
-7.21892
 21
137.973
  0
LINE
  8
0
 10
-7.21892
 20
137.973
 11
-7.03647
 21
137.927
  0
LINE
  8
0
 10
-7.03647
 20
137.927
 11
-6.86133
 21
137.857
  0
LINE
  8
0
 10
-6.86133
 20
137.857
 11
-6.69626
 21
137.766
  0
LINE
  8
0
 10
-6.69626
 20
137.766
 11
-6.54385
 21
137.656
  0
LINE
  8
0
 10
-6.54385
 20
137.656
 11
-6.40654
 21
137.527
  0
LINE
  8
0
 10
-6.40654
 20
137.527
 11
-6.28647
 21
137.382
  0
LINE
  8
0
 10
-6.28647
 20
137.382
 11
-6.18553
 21
137.223
  0
LINE
  8
0
 10
-6.18553
 20
137.223
 11
-6.10533
 21
137.052
  0
LINE
  8
0
 10
-6.10533
 20
137.052
 11
-6.04712
 21
136.873
  0
LINE
  8
0
 10
-6.04712
 20
136.873
 11
-6.01183
 21
136.688
  0
LINE
  8
0
 10
-6.01183
 20
136.688
 11
-6
 21
136.5
  0
LINE
  8
0
 10
-6
 20
136.5
 11
-6.01183
 21
136.312
  0
LINE
  8
0
 10
-6.01183
 20
136.312
 11
-6.04712
 21
136.127
  0
LINE
  8
0
 10
-6.04712
 20
136.127
 11
-6.10533
 21
135.948
  0
LINE
  8
0
 10
-6.10533
 20
135.948
 11
-6.18553
 21
135.777
  0
LINE
  8
0
 10
-6.18553
 20
135.777
 11
-6.28647
 21
135.618
  0
LINE
  8
0
 10
-6.28647
 20
135.618
 11
-6.40654
 21
135.473
  0
LINE
  8
0
 10
-6.40654
 20
135.473
 11
-6.54385
 21
135.344
  0
LINE
  8
0
 10
-6.54385
 20
135.344
 11
-6.69626
 21
135.234
  0
LINE
  8
0
 10
-6.69626
 20
135.234
 11
-6.86133
 21
135.143
  0
LINE
  8
0
 10
-6.86133
 20
135.143
 11
-7.03647
 21
135.073
  0
LINE
  8
0
 10
-7.03647
 20
135.073
 11
-7.21892
 21
135.027
  0
LINE
  8
0
 10
-7.21892
 20
135.027
 11
-7.40581
 21
135.003
  0
LINE
  8
0
 10
-7.40581
 20
135.003
 11
-7.59418
 21
135.003
  0
LINE
  8
0
 10
-22.5942
 20
135.003
 11
-22.7811
 21
135.027
  0
LINE
  8
0
 10
-22.7811
 20
135.027
 11
-22.9635
 21
135.073
  0
LINE
  8
0
 10
-22.9635
 20
135.073
 11
-23.1387
 21
135.143
  0
LINE
  8
0
 10
-23.1387
 20
135.143
 11
-23.3037
 21
135.234
  0
LINE
  8
0
 10
-23.3037
 20
135.234
 11
-23.4561
 21
135.344
  0
LINE
  8
0
 10
-23.4561
 20
135.344
 11
-23.5934
 21
135.473
  0
LINE
  8
0
 10
-23.5934
 20
135.473
 11
-23.7135
 21
135.618
  0
LINE
  8
0
 10
-23.7135
 20
135.618
 11
-23.8145
 21
135.777
  0
LINE
  8
0
 10
-23.8145
 20
135.777
 11
-23.8947
 21
135.948
  0
LINE
  8
0
 10
-23.8947
 20
135.948
 11
-23.9529
 21
136.127
  0
LINE
  8
0
 10
-23.9529
 20
136.127
 11
-23.9882
 21
136.312
  0
LINE
  8
0
 10
-23.9882
 20
136.312
 11
-24
 21
136.5
  0
LINE
  8
0
 10
-24
 20
136.5
 11
-23.9882
 21
136.688
  0
LINE
  8
0
 10
-23.9882
 20
136.688
 11
-23.9529
 21
136.873
  0
LINE
  8
0
 10
-23.9529
 20
136.873
 11
-23.8947
 21
137.052
  0
LINE
  8
0
 10
-23.8947
 20
137.052
 11
-23.8145
 21
137.223
  0
LINE
  8
0
 10
-23.8145
 20
137.223
 11
-23.7135
 21
137.382
  0
LINE
  8
0
 10
-23.7135
 20
137.382
 11
-23.5934
 21
137.527
  0
LINE
  8
0
 10
-23.5934
 20
137.527
 11
-23.4561
 21
137.656
  0
LINE
  8
0
 10
-23.4561
 20
137.656
 11
-23.3037
 21
137.766
  0
LINE
  8
0
 10
-23.3037
 20
137.766
 11
-23.1387
 21
137.857
  0
LINE
  8
0
 10
-23.1387
 20
137.857
 11
-22.9635
 21
137.927
  0
LINE
  8
0
 10
-22.9635
 20
137.927
 11
-22.7811
 21
137.973
  0
LINE
  8
0
 10
-22.7811
 20
137.973
 11
-22.5942
 21
137.997
  0
LINE
  8
0
 10
-22.5942
 20
137.997
 11
-22.4058
 21
137.997
  0
LINE
  8
0
 10
-22.4058
 20
137.997
 11
-22.2189
 21
137.973
  0
LINE
  8
0
 10
-22.2189
 20
137.973
 11
-22.0365
 21
137.927
  0
LINE
  8
0
 10
-22.0365
 20
137.927
 11
-21.8613
 21
137.857
  0
LINE
  8
0
 10
-21.8613
 20
137.857
 11
-21.6963
 21
137.766
  0
LINE
  8
0
 10
-21.6963
 20
137.766
 11
-21.5439
 21
137.656
  0
LINE
  8
0
 10
-21.5439
 20
137.656
 11
-21.4065
 21
137.527
  0
LINE
  8
0
 10
-21.4065
 20
137.527
 11
-21.2865
 21
137.382
  0
LINE
  8
0
 10
-21.2865
 20
137.382
 11
-21.1855
 21
137.223
  0
LINE
  8
0
 10
-21.1855
 20
137.223
 11
-21.1053
 21
137.052
  0
LINE
  8
0
 10
-21.1053
 20
137.052
 11
-21.0471
 21
136.873
  0
LINE
  8
0
 10
-21.0471
 20
136.873
 11
-21.0118
 21
136.688
  0
LINE
  8
0
 10
-21.0118
 20
136.688
 11
-21
 21
136.5
  0
LINE
  8
0
 10
-21
 20
136.5
 11
-21.0118
 21
136.312
  0
LINE
  8
0
 10
-21.0118
 20
136.312
 11
-21.0471
 21
136.127
  0
LINE
  8
0
 10
-21.0471
 20
136.127
 11
-21.1053
 21
135.948
  0
LINE
  8
0
 10
-21.1053
 20
135.948
 11
-21.1855
 21
135.777
  0
LINE
  8
0
 10
-21.1855
 20
135.777
 11
-21.2865
 21
135.618
  0
LINE
  8
0
 10
-21.2865
 20
135.618
 11
-21.4065
 21
135.473
  0
LINE
  8
0
 10
-21.4065
 20
135.473
 11
-21.5439
 21
135.344
  0
LINE
  8
0
 10
-21.5439
 20
135.344
 11
-21.6963
 21
135.234
  0
LINE
  8
0
 10
-21.6963
 20
135.234
 11
-21.8613
 21
135.143
  0
LINE
  8
0
 10
-21.8613
 20
135.143
 11
-22.0365
 21
135.073
  0
LINE
  8
0
 10
-22.0365
 20
135.073
 11
-22.2189
 21
135.027
  0
LINE
  8
0
 10
-22.2189
 20
135.027
 11
-22.4058
 21
135.003
  0
LINE
  8
0
 10
-22.4058
 20
135.003
 11
-22.5942
 21
135.003
  0
LINE
  8
0
 10
-30.0942
 20
127.503
 11
-30.2811
 21
127.527
  0
LINE
  8
0
 10
-30.2811
 20
127.527
 11
-30.4635
 21
127.573
  0
LINE
  8
0
 10
-30.4635
 20
127.573
 11
-30.6387
 21
127.643
  0
LINE
  8
0
 10
-30.6387
 20
127.643
 11
-30.8037
 21
127.734
  0
LINE
  8
0
 10
-30.8037
 20
127.734
 11
-30.9561
 21
127.844
  0
LINE
  8
0
 10
-30.9561
 20
127.844
 11
-31.0934
 21
127.973
  0
LINE
  8
0
 10
-31.0934
 20
127.973
 11
-31.2135
 21
128.118
  0
LINE
  8
0
 10
-31.2135
 20
128.118
 11
-31.3145
 21
128.277
  0
LINE
  8
0
 10
-31.3145
 20
128.277
 11
-31.3947
 21
128.448
  0
LINE
  8
0
 10
-31.3947
 20
128.448
 11
-31.4529
 21
128.627
  0
LINE
  8
0
 10
-31.4529
 20
128.627
 11
-31.4882
 21
128.812
  0
LINE
  8
0
 10
-31.4882
 20
128.812
 11
-31.5
 21
129
  0
LINE
  8
0
 10
-31.5
 20
129
 11
-31.4882
 21
129.188
  0
LINE
  8
0
 10
-31.4882
 20
129.188
 11
-31.4529
 21
129.373
  0
LINE
  8
0
 10
-31.4529
 20
129.373
 11
-31.3947
 21
129.552
  0
LINE
  8
0
 10
-31.3947
 20
129.552
 11
-31.3145
 21
129.723
  0
LINE
  8
0
 10
-31.3145
 20
129.723
 11
-31.2135
 21
129.882
  0
LINE
  8
0
 10
-31.2135
 20
129.882
 11
-31.0934
 21
130.027
  0
LINE
  8
0
 10
-31.0934
 20
130.027
 11
-30.9561
 21
130.156
  0
LINE
  8
0
 10
-30.9561
 20
130.156
 11
-30.8037
 21
130.266
  0
LINE
  8
0
 10
-30.8037
 20
130.266
 11
-30.6387
 21
130.357
  0
LINE
  8
0
 10
-30.6387
 20
130.357
 11
-30.4635
 21
130.427
  0
LINE
  8
0
 10
-30.4635
 20
130.427
 11
-30.2811
 21
130.473
  0
LINE
  8
0
 10
-30.2811
 20
130.473
 11
-30.0942
 21
130.497
  0
LINE
  8
0
 10
-30.0942
 20
130.497
 11
-29.9058
 21
130.497
  0
LINE
  8
0
 10
-29.9058
 20
130.497
 11
-29.7189
 21
130.473
  0
LINE
  8
0
 10
-29.7189
 20
130.473
 11
-29.5365
 21
130.427
  0
LINE
  8
0
 10
-29.5365
 20
130.427
 11
-29.3613
 21
130.357
  0
LINE
  8
0
 10
-29.3613
 20
130.357
 11
-29.1963
 21
130.266
  0
LINE
  8
0
 10
-29.1963
 20
130.266
 11
-29.0439
 21
130.156
  0
LINE
  8
0
 10
-29.0439
 20
130.156
 11
-28.9065
 21
130.027
  0
LINE
  8
0
 10
-28.9065
 20
130.027
 11
-28.7865
 21
129.882
  0
LINE
  8
0
 10
-28.7865
 20
129.882
 11
-28.6855
 21
129.723
  0
LINE
  8
0
 10
-28.6855
 20
129.723
 11
-28.6053
 21
129.552
  0
LINE
  8
0
 10
-28.6053
 20
129.552
 11
-28.5471
 21
129.373
  0
LINE
  8
0
 10
-28.5471
 20
129.373
 11
-28.5118
 21
129.188
  0
LINE
  8
0
 10
-28.5118
 20
129.188
 11
-28.5
 21
129
  0
LINE
  8
0
 10
-28.5
 20
129
 11
-28.5118
 21
128.812
  0
LINE
  8
0
 10
-28.5118
 20
128.812
 11
-28.5471
 21
128.627
  0
LINE
  8
0
 10
-28.5471
 20
128.627
 11
-28.6053
 21
128.448
  0
LINE
  8
0
 10
-28.6053
 20
128.448
 11
-28.6855
 21
128.277
  0
LINE
  8
0
 10
-28.6855
 20
128.277
 11
-28.7865
 21
128.118
  0
LINE
  8
0
 10
-28.7865
 20
128.118
 11
-28.9065
 21
127.973
  0
LINE
  8
0
 10
-28.9065
 20
127.973
 11
-29.0439
 21
127.844
  0
LINE
  8
0
 10
-29.0439
 20
127.844
 11
-29.1963
 21
127.734
  0
LINE
  8
0
 10
-29.1963
 20
127.734
 11
-29.3613
 21
127.643
  0
LINE
  8
0
 10
-29.3613
 20
127.643
 11
-29.5365
 21
127.573
  0
LINE
  8
0
 10
-29.5365
 20
127.573
 11
-29.7189
 21
127.527
  0
LINE
  8
0
 10
-29.7189
 20
127.527
 11
-29.9058
 21
127.503
  0
LINE
  8
0
 10
-29.9058
 20
127.503
 11
-30.0942
 21
127.503
  0
LINE
  8
0
 10
29.9058
 20
127.503
 11
29.7189
 21
127.527
  0
LINE
  8
0
 10
29.7189
 20
127.527
 11
29.5365
 21
127.573
  0
LINE
  8
0
 10
29.5365
 20
127.573
 11
29.3613
 21
127.643
  0
LINE
  8
0
 10
29.3613
 20
127.643
 11
29.1963
 21
127.734
  0
LINE
  8
0
 10
29.1963
 20
127.734
 11
29.0439
 21
127.844
  0
LINE
  8
0
 10
29.0439
 20
127.844
 11
28.9065
 21
127.973
  0
LINE
  8
0
 10
28.9065
 20
127.973
 11
28.7865
 21
128.118
  0
LINE
  8
0
 10
28.7865
 20
128.118
 11
28.6855
 21
128.277
  0
LINE
  8
0
 10
28.6855
 20
128.277
 11
28.6053
 21
128.448
  0
LINE
  8
0
 10
28.6053
 20
128.448
 11
28.5471
 21
128.627
  0
LINE
  8
0
 10
28.5471
 20
128.627
 11
28.5118
 21
128.812
  0
LINE
  8
0
 10
28.5118
 20
128.812
 11
28.5
 21
129
  0
LINE
  8
0
 10
28.5
 20
129
 11
28.5118
 21
129.188
  0
LINE
  8
0
 10
28.5118
 20
129.188
 11
28.5471
 21
129.373
  0
LINE
  8
0
 10
28.5471
 20
129.373
 11
28.6053
 21
129.552
  0
LINE
  8
0
 10
28.6053
 20
129.552
 11
28.6855
 21
129.723
  0
LINE
  8
0
 10
28.6855
 20
129.723
 11
28.7865
 21
129.882
  0
LINE
  8
0
 10
28.7865
 20
129.882
 11
28.9065
 21
130.027
  0
LINE
  8
0
 10
28.9065
 20
130.027
 11
29.0439
 21
130.156
  0
LINE
  8
0
 10
29.0439
 20
130.156
 11
29.1963
 21
130.266
  0
LINE
  8
0
 10
29.1963
 20
130.266
 11
29.3613
 21
130.357
  0
LINE
  8
0
 10
29.3613
 20
130.357
 11
29.5365
 21
130.427
  0
LINE
  8
0
 10
29.5365
 20
130.427
 11
29.7189
 21
130.473
  0
LINE
  8
0
 10
29.7189
 20
130.473
 11
29.9058
 21
130.497
  0
LINE
  8
0
 10
29.9058
 20
130.497
 11
30.0942
 21
130.497
  0
LINE
  8
0
 10
30.0942
 20
130.497
 11
30.2811
 21
130.473
  0
LINE
  8
0
 10
30.2811
 20
130.473
 11
30.4635
 21
130.427
  0
LINE
  8
0
 10
30.4635
 20
130.427
 11
30.6387
 21
130.357
  0
LINE
  8
0
 10
30.6387
 20
130.357
 11
30.8037
 21
130.266
  0
LINE
  8
0
 10
30.8037
 20
130.266
 11
30.9561
 21
130.156
  0
LINE
  8
0
 10
30.9561
 20
130.156
 11
31.0934
 21
130.027
  0
LINE
  8
0
 10
31.0934
 20
130.027
 11
31.2135
 21
129.882
  0
LINE
  8
0
 10
31.2135
 20
129.882
 11
31.3145
 21
129.723
  0
LINE
  8
0
 10
31.3145
 20
129.723
 11
31.3947
 21
129.552
  0
LINE
  8
0
 10
31.3947
 20
129.552
 11
31.4529
 21
129.373
  0
LINE
  8
0
 10
31.4529
 20
129.373
 11
31.4882
 21
129.188
  0
LINE
  8
0
 10
31.4882
 20
129.188
 11
31.5
 21
129
  0
LINE
  8
0
 10
31.5
 20
129
 11
31.4882
 21
128.812
  0
LINE
  8
0
 10
31.4882
 20
128.812
 11
31.4529
 21
128.627
  0
LINE
  8
0
 10
31.4529
 20
128.627
 11
31.3947
 21
128.448
  0
LINE
  8
0
 10
31.3947
 20
128.448
 11
31.3145
 21
128.277
  0
LINE
  8
0
 10
31.3145
 20
128.277
 11
31.2135
 21
128.118
  0
LINE
  8
0
 10
31.2135
 20
128.118
 11
31.0934
 21
127.973
  0
LINE
  8
0
 10
31.0934
 20
127.973
 11
30.9561
 21
127.844
  0
LINE
  8
0
 10
30.9561
 20
127.844
 11
30.8037
 21
127.734
  0
LINE
  8
0
 10
30.8037
 20
127.734
 11
30.6387
 21
127.643
  0
LINE
  8
0
 10
30.6387
 20
127.643
 11
30.4635
 21
127.573
  0
LINE
  8
0
 10
30.4635
 20
127.573
 11
30.2811
 21
127.527
  0
LINE
  8
0
 10
30.2811
 20
127.527
 11
30.0942
 21
127.503
  0
LINE
  8
0
 10
30.0942
 20
127.503
 11
29.9058
 21
127.503
  0
LINE
  8
0
 10
29.8116
 20
118.506
 11
29.4379
 21
118.553
  0
LINE
  8
0
 10
29.4379
 20
118.553
 11
29.0729
 21
118.647
  0
LINE
  8
0
 10
29.0729
 20
118.647
 11
28.7227
 21
118.786
  0
LINE
  8
0
 10
28.7227
 20
118.786
 11
28.3925
 21
118.967
  0
LINE
  8
0
 10
28.3925
 20
118.967
 11
28.0877
 21
119.188
  0
LINE
  8
0
 10
28.0877
 20
119.188
 11
27.8131
 21
119.446
  0
LINE
  8
0
 10
27.8131
 20
119.446
 11
27.5729
 21
119.737
  0
LINE
  8
0
 10
27.5729
 20
119.737
 11
27.3711
 21
120.055
  0
LINE
  8
0
 10
27.3711
 20
120.055
 11
27.2107
 21
120.396
  0
LINE
  8
0
 10
27.2107
 20
120.396
 11
27.0942
 21
120.754
  0
LINE
  8
0
 10
27.0942
 20
120.754
 11
27.0237
 21
121.124
  0
LINE
  8
0
 10
27.0237
 20
121.124
 11
27
 21
121.5
  0
LINE
  8
0
 10
27
 20
121.5
 11
27.0237
 21
121.876
  0
LINE
  8
0
 10
27.0237
 20
121.876
 11
27.0942
 21
122.246
  0
LINE
  8
0
 10
27.0942
 20
122.246
 11
27.2107
 21
122.604
  0
LINE
  8
0
 10
27.2107
 20
122.604
 11
27.3711
 21
122.945
  0
LINE
  8
0
 10
27.3711
 20
122.945
 11
27.5729
 21
123.263
  0
LINE
  8
0
 10
27.5729
 20
123.263
 11
27.8131
 21
123.554
  0
LINE
  8
0
 10
27.8131
 20
123.554
 11
28.0877
 21
123.812
  0
LINE
  8
0
 10
28.0877
 20
123.812
 11
28.3925
 21
124.033
  0
LINE
  8
0
 10
28.3925
 20
124.033
 11
28.7227
 21
124.214
  0
LINE
  8
0
 10
28.7227
 20
124.214
 11
29.0729
 21
124.353
  0
LINE
  8
0
 10
29.0729
 20
124.353
 11
29.4379
 21
124.447
  0
LINE
  8
0
 10
29.4379
 20
124.447
 11
29.8116
 21
124.494
  0
LINE
  8
0
 10
29.8116
 20
124.494
 11
30.1884
 21
124.494
  0
LINE
  8
0
 10
30.1884
 20
124.494
 11
30.5621
 21
124.447
  0
LINE
  8
0
 10
30.5621
 20
124.447
 11
30.927
 21
124.353
  0
LINE
  8
0
 10
30.927
 20
124.353
 11
31.2773
 21
124.214
  0
LINE
  8
0
 10
31.2773
 20
124.214
 11
31.6075
 21
124.033
  0
LINE
  8
0
 10
31.6075
 20
124.033
 11
31.9123
 21
123.812
  0
LINE
  8
0
 10
31.9123
 20
123.812
 11
32.1869
 21
123.554
  0
LINE
  8
0
 10
32.1869
 20
123.554
 11
32.427
 21
123.263
  0
LINE
  8
0
 10
32.427
 20
123.263
 11
32.6289
 21
122.945
  0
LINE
  8
0
 10
32.6289
 20
122.945
 11
32.7893
 21
122.604
  0
LINE
  8
0
 10
32.7893
 20
122.604
 11
32.9057
 21
122.246
  0
LINE
  8
0
 10
32.9057
 20
122.246
 11
32.9763
 21
121.876
  0
LINE
  8
0
 10
32.9763
 20
121.876
 11
33
 21
121.5
  0
LINE
  8
0
 10
33
 20
121.5
 11
32.9763
 21
121.124
  0
LINE
  8
0
 10
32.9763
 20
121.124
 11
32.9057
 21
120.754
  0
LINE
  8
0
 10
32.9057
 20
120.754
 11
32.7893
 21
120.396
  0
LINE
  8
0
 10
32.7893
 20
120.396
 11
32.6289
 21
120.055
  0
LINE
  8
0
 10
32.6289
 20
120.055
 11
32.427
 21
119.737
  0
LINE
  8
0
 10
32.427
 20
119.737
 11
32.1869
 21
119.446
  0
LINE
  8
0
 10
32.1869
 20
119.446
 11
31.9123
 21
119.188
  0
LINE
  8
0
 10
31.9123
 20
119.188
 11
31.6075
 21
118.967
  0
LINE
  8
0
 10
31.6075
 20
118.967
 11
31.2773
 21
118.786
  0
LINE
  8
0
 10
31.2773
 20
118.786
 11
30.927
 21
118.647
  0
LINE
  8
0
 10
30.927
 20
118.647
 11
30.5621
 21
118.553
  0
LINE
  8
0
 10
30.5621
 20
118.553
 11
30.1884
 21
118.506
  0
LINE
  8
0
 10
30.1884
 20
118.506
 11
29.8116
 21
118.506
  0
LINE
  8
0
 10
-30.1884
 20
118.506
 11
-30.5621
 21
118.553
  0
LINE
  8
0
 10
-30.5621
 20
118.553
 11
-30.927
 21
118.647
  0
LINE
  8
0
 10
-30.927
 20
118.647
 11
-31.2773
 21
118.786
  0
LINE
  8
0
 10
-31.2773
 20
118.786
 11
-31.6075
 21
118.967
  0
LINE
  8
0
 10
-31.6075
 20
118.967
 11
-31.9123
 21
119.188
  0
LINE
  8
0
 10
-31.9123
 20
119.188
 11
-32.1869
 21
119.446
  0
LINE
  8
0
 10
-32.1869
 20
119.446
 11
-32.427
 21
119.737
  0
LINE
  8
0
 10
-32.427
 20
119.737
 11
-32.6289
 21
120.055
  0
LINE
  8
0
 10
-32.6289
 20
120.055
 11
-32.7893
 21
120.396
  0
LINE
  8
0
 10
-32.7893
 20
120.396
 11
-32.9057
 21
120.754
  0
LINE
  8
0
 10
-32.9057
 20
120.754
 11
-32.9763
 21
121.124
  0
LINE
  8
0
 10
-32.9763
 20
121.124
 11
-33
 21
121.5
  0
LINE
  8
0
 10
-33
 20
121.5
 11
-32.9763
 21
121.876
  0
LINE
  8
0
 10
-32.9763
 20
121.876
 11
-32.9057
 21
122.246
  0
LINE
  8
0
 10
-32.9057
 20
122.246
 11
-32.7893
 21
122.604
  0
LINE
  8
0
 10
-32.7893
 20
122.604
 11
-32.6289
 21
122.945
  0
LINE
  8
0
 10
-32.6289
 20
122.945
 11
-32.427
 21
123.263
  0
LINE
  8
0
 10
-32.427
 20
123.263
 11
-32.1869
 21
123.554
  0
LINE
  8
0
 10
-32.1869
 20
123.554
 11
-31.9123
 21
123.812
  0
LINE
  8
0
 10
-31.9123
 20
123.812
 11
-31.6075
 21
124.033
  0
LINE
  8
0
 10
-31.6075
 20
124.033
 11
-31.2773
 21
124.214
  0
LINE
  8
0
 10
-31.2773
 20
124.214
 11
-30.927
 21
124.353
  0
LINE
  8
0
 10
-30.927
 20
124.353
 11
-30.5621
 21
124.447
  0
LINE
  8
0
 10
-30.5621
 20
124.447
 11
-30.1884
 21
124.494
  0
LINE
  8
0
 10
-30.1884
 20
124.494
 11
-29.8116
 21
124.494
  0
LINE
  8
0
 10
-29.8116
 20
124.494
 11
-29.4379
 21
124.447
  0
LINE
  8
0
 10
-29.4379
 20
124.447
 11
-29.0729
 21
124.353
  0
LINE
  8
0
 10
-29.0729
 20
124.353
 11
-28.7227
 21
124.214
  0
LINE
  8
0
 10
-28.7227
 20
124.214
 11
-28.3925
 21
124.033
  0
LINE
  8
0
 10
-28.3925
 20
124.033
 11
-28.0877
 21
123.812
  0
LINE
  8
0
 10
-28.0877
 20
123.812
 11
-27.8131
 21
123.554
  0
LINE
  8
0
 10
-27.8131
 20
123.554
 11
-27.5729
 21
123.263
  0
LINE
  8
0
 10
-27.5729
 20
123.263
 11
-27.3711
 21
122.945
  0
LINE
  8
0
 10
-27.3711
 20
122.945
 11
-27.2107
 21
122.604
  0
LINE
  8
0
 10
-27.2107
 20
122.604
 11
-27.0942
 21
122.246
  0
LINE
  8
0
 10
-27.0942
 20
122.246
 11
-27.0237
 21
121.876
  0
LINE
  8
0
 10
-27.0237
 20
121.876
 11
-27
 21
121.5
  0
LINE
  8
0
 10
-27
 20
121.5
 11
-27.0237
 21
121.124
  0
LINE
  8
0
 10
-27.0237
 20
121.124
 11
-27.0942
 21
120.754
  0
LINE
  8
0
 10
-27.0942
 20
120.754
 11
-27.2107
 21
120.396
  0
LINE
  8
0
 10
-27.2107
 20
120.396
 11
-27.3711
 21
120.055
  0
LINE
  8
0
 10
-27.3711
 20
120.055
 11
-27.5729
 21
119.737
  0
LINE
  8
0
 10
-27.5729
 20
119.737
 11
-27.8131
 21
119.446
  0
LINE
  8
0
 10
-27.8131
 20
119.446
 11
-28.0877
 21
119.188
  0
LINE
  8
0
 10
-28.0877
 20
119.188
 11
-28.3925
 21
118.967
  0
LINE
  8
0
 10
-28.3925
 20
118.967
 11
-28.7227
 21
118.786
  0
LINE
  8
0
 10
-28.7227
 20
118.786
 11
-29.0729
 21
118.647
  0
LINE
  8
0
 10
-29.0729
 20
118.647
 11
-29.4379
 21
118.553
  0
LINE
  8
0
 10
-29.4379
 20
118.553
 11
-29.8116
 21
118.506
  0
LINE
  8
0
 10
-29.8116
 20
118.506
 11
-30.1884
 21
118.506
  0
LINE
  8
0
 10
-30.0942
 20
112.503
 11
-30.2811
 21
112.527
  0
LINE
  8
0
 10
-30.2811
 20
112.527
 11
-30.4635
 21
112.573
  0
LINE
  8
0
 10
-30.4635
 20
112.573
 11
-30.6387
 21
112.643
  0
LINE
  8
0
 10
-30.6387
 20
112.643
 11
-30.8037
 21
112.734
  0
LINE
  8
0
 10
-30.8037
 20
112.734
 11
-30.9561
 21
112.844
  0
LINE
  8
0
 10
-30.9561
 20
112.844
 11
-31.0934
 21
112.973
  0
LINE
  8
0
 10
-31.0934
 20
112.973
 11
-31.2135
 21
113.118
  0
LINE
  8
0
 10
-31.2135
 20
113.118
 11
-31.3145
 21
113.277
  0
LINE
  8
0
 10
-31.3145
 20
113.277
 11
-31.3947
 21
113.448
  0
LINE
  8
0
 10
-31.3947
 20
113.448
 11
-31.4529
 21
113.627
  0
LINE
  8
0
 10
-31.4529
 20
113.627
 11
-31.4882
 21
113.812
  0
LINE
  8
0
 10
-31.4882
 20
113.812
 11
-31.5
 21
114
  0
LINE
  8
0
 10
-31.5
 20
114
 11
-31.4882
 21
114.188
  0
LINE
  8
0
 10
-31.4882
 20
114.188
 11
-31.4529
 21
114.373
  0
LINE
  8
0
 10
-31.4529
 20
114.373
 11
-31.3947
 21
114.552
  0
LINE
  8
0
 10
-31.3947
 20
114.552
 11
-31.3145
 21
114.723
  0
LINE
  8
0
 10
-31.3145
 20
114.723
 11
-31.2135
 21
114.882
  0
LINE
  8
0
 10
-31.2135
 20
114.882
 11
-31.0934
 21
115.027
  0
LINE
  8
0
 10
-31.0934
 20
115.027
 11
-30.9561
 21
115.156
  0
LINE
  8
0
 10
-30.9561
 20
115.156
 11
-30.8037
 21
115.266
  0
LINE
  8
0
 10
-30.8037
 20
115.266
 11
-30.6387
 21
115.357
  0
LINE
  8
0
 10
-30.6387
 20
115.357
 11
-30.4635
 21
115.427
  0
LINE
  8
0
 10
-30.4635
 20
115.427
 11
-30.2811
 21
115.473
  0
LINE
  8
0
 10
-30.2811
 20
115.473
 11
-30.0942
 21
115.497
  0
LINE
  8
0
 10
-30.0942
 20
115.497
 11
-29.9058
 21
115.497
  0
LINE
  8
0
 10
-29.9058
 20
115.497
 11
-29.7189
 21
115.473
  0
LINE
  8
0
 10
-29.7189
 20
115.473
 11
-29.5365
 21
115.427
  0
LINE
  8
0
 10
-29.5365
 20
115.427
 11
-29.3613
 21
115.357
  0
LINE
  8
0
 10
-29.3613
 20
115.357
 11
-29.1963
 21
115.266
  0
LINE
  8
0
 10
-29.1963
 20
115.266
 11
-29.0439
 21
115.156
  0
LINE
  8
0
 10
-29.0439
 20
115.156
 11
-28.9065
 21
115.027
  0
LINE
  8
0
 10
-28.9065
 20
115.027
 11
-28.7865
 21
114.882
  0
LINE
  8
0
 10
-28.7865
 20
114.882
 11
-28.6855
 21
114.723
  0
LINE
  8
0
 10
-28.6855
 20
114.723
 11
-28.6053
 21
114.552
  0
LINE
  8
0
 10
-28.6053
 20
114.552
 11
-28.5471
 21
114.373
  0
LINE
  8
0
 10
-28.5471
 20
114.373
 11
-28.5118
 21
114.188
  0
LINE
  8
0
 10
-28.5118
 20
114.188
 11
-28.5
 21
114
  0
LINE
  8
0
 10
-28.5
 20
114
 11
-28.5118
 21
113.812
  0
LINE
  8
0
 10
-28.5118
 20
113.812
 11
-28.5471
 21
113.627
  0
LINE
  8
0
 10
-28.5471
 20
113.627
 11
-28.6053
 21
113.448
  0
LINE
  8
0
 10
-28.6053
 20
113.448
 11
-28.6855
 21
113.277
  0
LINE
  8
0
 10
-28.6855
 20
113.277
 11
-28.7865
 21
113.118
  0
LINE
  8
0
 10
-28.7865
 20
113.118
 11
-28.9065
 21
112.973
  0
LINE
  8
0
 10
-28.9065
 20
112.973
 11
-29.0439
 21
112.844
  0
LINE
  8
0
 10
-29.0439
 20
112.844
 11
-29.1963
 21
112.734
  0
LINE
  8
0
 10
-29.1963
 20
112.734
 11
-29.3613
 21
112.643
  0
LINE
  8
0
 10
-29.3613
 20
112.643
 11
-29.5365
 21
112.573
  0
LINE
  8
0
 10
-29.5365
 20
112.573
 11
-29.7189
 21
112.527
  0
LINE
  8
0
 10
-29.7189
 20
112.527
 11
-29.9058
 21
112.503
  0
LINE
  8
0
 10
-29.9058
 20
112.503
 11
-30.0942
 21
112.503
  0
LINE
  8
0
 10
29.9058
 20
112.503
 11
29.7189
 21
112.527
  0
LINE
  8
0
 10
29.7189
 20
112.527
 11
29.5365
 21
112.573
  0
LINE
  8
0
 10
29.5365
 20
112.573
 11
29.3613
 21
112.643
  0
LINE
  8
0
 10
29.3613
 20
112.643
 11
29.1963
 21
112.734
  0
LINE
  8
0
 10
29.1963
 20
112.734
 11
29.0439
 21
112.844
  0
LINE
  8
0
 10
29.0439
 20
112.844
 11
28.9065
 21
112.973
  0
LINE
  8
0
 10
28.9065
 20
112.973
 11
28.7865
 21
113.118
  0
LINE
  8
0
 10
28.7865
 20
113.118
 11
28.6855
 21
113.277
  0
LINE
  8
0
 10
28.6855
 20
113.277
 11
28.6053
 21
113.448
  0
LINE
  8
0
 10
28.6053
 20
113.448
 11
28.5471
 21
113.627
  0
LINE
  8
0
 10
28.5471
 20
113.627
 11
28.5118
 21
113.812
  0
LINE
  8
0
 10
28.5118
 20
113.812
 11
28.5
 21
114
  0
LINE
  8
0
 10
28.5
 20
114
 11
28.5118
 21
114.188
  0
LINE
  8
0
 10
28.5118
 20
114.188
 11
28.5471
 21
114.373
  0
LINE
  8
0
 10
28.5471
 20
114.373
 11
28.6053
 21
114.552
  0
LINE
  8
0
 10
28.6053
 20
114.552
 11
28.6855
 21
114.723
  0
LINE
  8
0
 10
28.6855
 20
114.723
 11
28.7865
 21
114.882
  0
LINE
  8
0
 10
28.7865
 20
114.882
 11
28.9065
 21
115.027
  0
LINE
  8
0
 10
28.9065
 20
115.027
 11
29.0439
 21
115.156
  0
LINE
  8
0
 10
29.0439
 20
115.156
 11
29.1963
 21
115.266
  0
LINE
  8
0
 10
29.1963
 20
115.266
 11
29.3613
 21
115.357
  0
LINE
  8
0
 10
29.3613
 20
115.357
 11
29.5365
 21
115.427
  0
LINE
  8
0
 10
29.5365
 20
115.427
 11
29.7189
 21
115.473
  0
LINE
  8
0
 10
29.7189
 20
115.473
 11
29.9058
 21
115.497
  0
LINE
  8
0
 10
29.9058
 20
115.497
 11
30.0942
 21
115.497
  0
LINE
  8
0
 10
30.0942
 20
115.497
 11
30.2811
 21
115.473
  0
LINE
  8
0
 10
30.2811
 20
115.473
 11
30.4635
 21
115.427
  0
LINE
  8
0
 10
30.4635
 20
115.427
 11
30.6387
 21
115.357
  0
LINE
  8
0
 10
30.6387
 20
115.357
 11
30.8037
 21
115.266
  0
LINE
  8
0
 10
30.8037
 20
115.266
 11
30.9561
 21
115.156
  0
LINE
  8
0
 10
30.9561
 20
115.156
 11
31.0934
 21
115.027
  0
LINE
  8
0
 10
31.0934
 20
115.027
 11
31.2135
 21
114.882
  0
LINE
  8
0
 10
31.2135
 20
114.882
 11
31.3145
 21
114.723
  0
LINE
  8
0
 10
31.3145
 20
114.723
 11
31.3947
 21
114.552
  0
LINE
  8
0
 10
31.3947
 20
114.552
 11
31.4529
 21
114.373
  0
LINE
  8
0
 10
31.4529
 20
114.373
 11
31.4882
 21
114.188
  0
LINE
  8
0
 10
31.4882
 20
114.188
 11
31.5
 21
114
  0
LINE
  8
0
 10
31.5
 20
114
 11
31.4882
 21
113.812
  0
LINE
  8
0
 10
31.4882
 20
113.812
 11
31.4529
 21
113.627
  0
LINE
  8
0
 10
31.4529
 20
113.627
 11
31.3947
 21
113.448
  0
LINE
  8
0
 10
31.3947
 20
113.448
 11
31.3145
 21
113.277
  0
LINE
  8
0
 10
31.3145
 20
113.277
 11
31.2135
 21
113.118
  0
LINE
  8
0
 10
31.2135
 20
113.118
 11
31.0934
 21
112.973
  0
LINE
  8
0
 10
31.0934
 20
112.973
 11
30.9561
 21
112.844
  0
LINE
  8
0
 10
30.9561
 20
112.844
 11
30.8037
 21
112.734
  0
LINE
  8
0
 10
30.8037
 20
112.734
 11
30.6387
 21
112.643
  0
LINE
  8
0
 10
30.6387
 20
112.643
 11
30.4635
 21
112.573
  0
LINE
  8
0
 10
30.4635
 20
112.573
 11
30.2811
 21
112.527
  0
LINE
  8
0
 10
30.2811
 20
112.527
 11
30.0942
 21
112.503
  0
LINE
  8
0
 10
30.0942
 20
112.503
 11
29.9058
 21
112.503
  0
LINE
  8
0
 10
-14.613
 20
108.854
 11
-14.8373
 21
108.882
  0
LINE
  8
0
 10
-14.8373
 20
108.882
 11
-15.0562
 21
108.938
  0
LINE
  8
0
 10
-15.0562
 20
108.938
 11
-15.2664
 21
109.021
  0
LINE
  8
0
 10
-15.2664
 20
109.021
 11
-15.4645
 21
109.13
  0
LINE
  8
0
 10
-15.4645
 20
109.13
 11
-15.6474
 21
109.263
  0
LINE
  8
0
 10
-15.6474
 20
109.263
 11
-15.8121
 21
109.418
  0
LINE
  8
0
 10
-15.8121
 20
109.418
 11
-15.9562
 21
109.592
  0
LINE
  8
0
 10
-15.9562
 20
109.592
 11
-16.0773
 21
109.783
  0
LINE
  8
0
 10
-16.0773
 20
109.783
 11
-16.1736
 21
109.987
  0
LINE
  8
0
 10
-16.1736
 20
109.987
 11
-16.2434
 21
110.202
  0
LINE
  8
0
 10
-16.2434
 20
110.202
 11
-16.2858
 21
110.424
  0
LINE
  8
0
 10
-16.2858
 20
110.424
 11
-16.3
 21
110.65
  0
LINE
  8
0
 10
-16.3
 20
110.65
 11
-16.2858
 21
110.876
  0
LINE
  8
0
 10
-16.2858
 20
110.876
 11
-16.2434
 21
111.098
  0
LINE
  8
0
 10
-16.2434
 20
111.098
 11
-16.1736
 21
111.313
  0
LINE
  8
0
 10
-16.1736
 20
111.313
 11
-16.0773
 21
111.517
  0
LINE
  8
0
 10
-16.0773
 20
111.517
 11
-15.9562
 21
111.708
  0
LINE
  8
0
 10
-15.9562
 20
111.708
 11
-15.8121
 21
111.882
  0
LINE
  8
0
 10
-15.8121
 20
111.882
 11
-15.6474
 21
112.037
  0
LINE
  8
0
 10
-15.6474
 20
112.037
 11
-15.4645
 21
112.17
  0
LINE
  8
0
 10
-15.4645
 20
112.17
 11
-15.2664
 21
112.279
  0
LINE
  8
0
 10
-15.2664
 20
112.279
 11
-15.0562
 21
112.362
  0
LINE
  8
0
 10
-15.0562
 20
112.362
 11
-14.8373
 21
112.418
  0
LINE
  8
0
 10
-14.8373
 20
112.418
 11
-14.613
 21
112.446
  0
LINE
  8
0
 10
-14.613
 20
112.446
 11
-14.387
 21
112.446
  0
LINE
  8
0
 10
-14.387
 20
112.446
 11
-14.1627
 21
112.418
  0
LINE
  8
0
 10
-14.1627
 20
112.418
 11
-13.9438
 21
112.362
  0
LINE
  8
0
 10
-13.9438
 20
112.362
 11
-13.7336
 21
112.279
  0
LINE
  8
0
 10
-13.7336
 20
112.279
 11
-13.5355
 21
112.17
  0
LINE
  8
0
 10
-13.5355
 20
112.17
 11
-13.3526
 21
112.037
  0
LINE
  8
0
 10
-13.3526
 20
112.037
 11
-13.1879
 21
111.882
  0
LINE
  8
0
 10
-13.1879
 20
111.882
 11
-13.0438
 21
111.708
  0
LINE
  8
0
 10
-13.0438
 20
111.708
 11
-12.9226
 21
111.517
  0
LINE
  8
0
 10
-12.9226
 20
111.517
 11
-12.8264
 21
111.313
  0
LINE
  8
0
 10
-12.8264
 20
111.313
 11
-12.7565
 21
111.098
  0
LINE
  8
0
 10
-12.7565
 20
111.098
 11
-12.7142
 21
110.876
  0
LINE
  8
0
 10
-12.7142
 20
110.876
 11
-12.7
 21
110.65
  0
LINE
  8
0
 10
-12.7
 20
110.65
 11
-12.7142
 21
110.424
  0
LINE
  8
0
 10
-12.7142
 20
110.424
 11
-12.7565
 21
110.202
  0
LINE
  8
0
 10
-12.7565
 20
110.202
 11
-12.8264
 21
109.987
  0
LINE
  8
0
 10
-12.8264
 20
109.987
 11
-12.9226
 21
109.783
  0
LINE
  8
0
 10
-12.9226
 20
109.783
 11
-13.0438
 21
109.592
  0
LINE
  8
0
 10
-13.0438
 20
109.592
 11
-13.1879
 21
109.418
  0
LINE
  8
0
 10
-13.1879
 20
109.418
 11
-13.3526
 21
109.263
  0
LINE
  8
0
 10
-13.3526
 20
109.263
 11
-13.5355
 21
109.13
  0
LINE
  8
0
 10
-13.5355
 20
109.13
 11
-13.7336
 21
109.021
  0
LINE
  8
0
 10
-13.7336
 20
109.021
 11
-13.9438
 21
108.938
  0
LINE
  8
0
 10
-13.9438
 20
108.938
 11
-14.1627
 21
108.882
  0
LINE
  8
0
 10
-14.1627
 20
108.882
 11
-14.387
 21
108.854
  0
LINE
  8
0
 10
-14.387
 20
108.854
 11
-14.613
 21
108.854
  0
LINE
  8
0
 10
14.387
 20
108.854
 11
14.1627
 21
108.882
  0
LINE
  8
0
 10
14.1627
 20
108.882
 11
13.9438
 21
108.938
  0
LINE
  8
0
 10
13.9438
 20
108.938
 11
13.7336
 21
109.021
  0
LINE
  8
0
 10
13.7336
 20
109.021
 11
13.5355
 21
109.13
  0
LINE
  8
0
 10
13.5355
 20
109.13
 11
13.3526
 21
109.263
  0
LINE
  8
0
 10
13.3526
 20
109.263
 11
13.1879
 21
109.418
  0
LINE
  8
0
 10
13.1879
 20
109.418
 11
13.0438
 21
109.592
  0
LINE
  8
0
 10
13.0438
 20
109.592
 11
12.9226
 21
109.783
  0
LINE
  8
0
 10
12.9226
 20
109.783
 11
12.8264
 21
109.987
  0
LINE
  8
0
 10
12.8264
 20
109.987
 11
12.7565
 21
110.202
  0
LINE
  8
0
 10
12.7565
 20
110.202
 11
12.7142
 21
110.424
  0
LINE
  8
0
 10
12.7142
 20
110.424
 11
12.7
 21
110.65
  0
LINE
  8
0
 10
12.7
 20
110.65
 11
12.7142
 21
110.876
  0
LINE
  8
0
 10
12.7142
 20
110.876
 11
12.7565
 21
111.098
  0
LINE
  8
0
 10
12.7565
 20
111.098
 11
12.8264
 21
111.313
  0
LINE
  8
0
 10
12.8264
 20
111.313
 11
12.9226
 21
111.517
  0
LINE
  8
0
 10
12.9226
 20
111.517
 11
13.0438
 21
111.708
  0
LINE
  8
0
 10
13.0438
 20
111.708
 11
13.1879
 21
111.882
  0
LINE
  8
0
 10
13.1879
 20
111.882
 11
13.3526
 21
112.037
  0
LINE
  8
0
 10
13.3526
 20
112.037
 11
13.5355
 21
112.17
  0
LINE
  8
0
 10
13.5355
 20
112.17
 11
13.7336
 21
112.279
  0
LINE
  8
0
 10
13.7336
 20
112.279
 11
13.9438
 21
112.362
  0
LINE
  8
0
 10
13.9438
 20
112.362
 11
14.1627
 21
112.418
  0
LINE
  8
0
 10
14.1627
 20
112.418
 11
14.387
 21
112.446
  0
LINE
  8
0
 10
14.387
 20
112.446
 11
14.613
 21
112.446
  0
LINE
  8
0
 10
14.613
 20
112.446
 11
14.8373
 21
112.418
  0
LINE
  8
0
 10
14.8373
 20
112.418
 11
15.0562
 21
112.362
  0
LINE
  8
0
 10
15.0562
 20
112.362
 11
15.2664
 21
112.279
  0
LINE
  8
0
 10
15.2664
 20
112.279
 11
15.4645
 21
112.17
  0
LINE
  8
0
 10
15.4645
 20
112.17
 11
15.6474
 21
112.037
  0
LINE
  8
0
 10
15.6474
 20
112.037
 11
15.8121
 21
111.882
  0
LINE
  8
0
 10
15.8121
 20
111.882
 11
15.9562
 21
111.708
  0
LINE
  8
0
 10
15.9562
 20
111.708
 11
16.0773
 21
111.517
  0
LINE
  8
0
 10
16.0773
 20
111.517
 11
16.1736
 21
111.313
  0
LINE
  8
0
 10
16.1736
 20
111.313
 11
16.2434
 21
111.098
  0
LINE
  8
0
 10
16.2434
 20
111.098
 11
16.2858
 21
110.876
  0
LINE
  8
0
 10
16.2858
 20
110.876
 11
16.3
 21
110.65
  0
LINE
  8
0
 10
16.3
 20
110.65
 11
16.2858
 21
110.424
  0
LINE
  8
0
 10
16.2858
 20
110.424
 11
16.2434
 21
110.202
  0
LINE
  8
0
 10
16.2434
 20
110.202
 11
16.1736
 21
109.987
  0
LINE
  8
0
 10
16.1736
 20
109.987
 11
16.0773
 21
109.783
  0
LINE
  8
0
 10
16.0773
 20
109.783
 11
15.9562
 21
109.592
  0
LINE
  8
0
 10
15.9562
 20
109.592
 11
15.8121
 21
109.418
  0
LINE
  8
0
 10
15.8121
 20
109.418
 11
15.6474
 21
109.263
  0
LINE
  8
0
 10
15.6474
 20
109.263
 11
15.4645
 21
109.13
  0
LINE
  8
0
 10
15.4645
 20
109.13
 11
15.2664
 21
109.021
  0
LINE
  8
0
 10
15.2664
 20
109.021
 11
15.0562
 21
108.938
  0
LINE
  8
0
 10
15.0562
 20
108.938
 11
14.8373
 21
108.882
  0
LINE
  8
0
 10
14.8373
 20
108.882
 11
14.613
 21
108.854
  0
LINE
  8
0
 10
14.613
 20
108.854
 11
14.387
 21
108.854
  0
LINE
  8
0
 10
29.8116
 20
103.506
 11
29.4379
 21
103.553
  0
LINE
  8
0
 10
29.4379
 20
103.553
 11
29.0729
 21
103.647
  0
LINE
  8
0
 10
29.0729
 20
103.647
 11
28.7227
 21
103.786
  0
LINE
  8
0
 10
28.7227
 20
103.786
 11
28.3925
 21
103.967
  0
LINE
  8
0
 10
28.3925
 20
103.967
 11
28.0877
 21
104.188
  0
LINE
  8
0
 10
28.0877
 20
104.188
 11
27.8131
 21
104.446
  0
LINE
  8
0
 10
27.8131
 20
104.446
 11
27.5729
 21
104.737
  0
LINE
  8
0
 10
27.5729
 20
104.737
 11
27.3711
 21
105.055
  0
LINE
  8
0
 10
27.3711
 20
105.055
 11
27.2107
 21
105.396
  0
LINE
  8
0
 10
27.2107
 20
105.396
 11
27.0942
 21
105.754
  0
LINE
  8
0
 10
27.0942
 20
105.754
 11
27.0237
 21
106.124
  0
LINE
  8
0
 10
27.0237
 20
106.124
 11
27
 21
106.5
  0
LINE
  8
0
 10
27
 20
106.5
 11
27.0237
 21
106.876
  0
LINE
  8
0
 10
27.0237
 20
106.876
 11
27.0942
 21
107.246
  0
LINE
  8
0
 10
27.0942
 20
107.246
 11
27.2107
 21
107.604
  0
LINE
  8
0
 10
27.2107
 20
107.604
 11
27.3711
 21
107.945
  0
LINE
  8
0
 10
27.3711
 20
107.945
 11
27.5729
 21
108.263
  0
LINE
  8
0
 10
27.5729
 20
108.263
 11
27.8131
 21
108.554
  0
LINE
  8
0
 10
27.8131
 20
108.554
 11
28.0877
 21
108.812
  0
LINE
  8
0
 10
28.0877
 20
108.812
 11
28.3925
 21
109.033
  0
LINE
  8
0
 10
28.3925
 20
109.033
 11
28.7227
 21
109.214
  0
LINE
  8
0
 10
28.7227
 20
109.214
 11
29.0729
 21
109.353
  0
LINE
  8
0
 10
29.0729
 20
109.353
 11
29.4379
 21
109.447
  0
LINE
  8
0
 10
29.4379
 20
109.447
 11
29.8116
 21
109.494
  0
LINE
  8
0
 10
29.8116
 20
109.494
 11
30.1884
 21
109.494
  0
LINE
  8
0
 10
30.1884
 20
109.494
 11
30.5621
 21
109.447
  0
LINE
  8
0
 10
30.5621
 20
109.447
 11
30.927
 21
109.353
  0
LINE
  8
0
 10
30.927
 20
109.353
 11
31.2773
 21
109.214
  0
LINE
  8
0
 10
31.2773
 20
109.214
 11
31.6075
 21
109.033
  0
LINE
  8
0
 10
31.6075
 20
109.033
 11
31.9123
 21
108.812
  0
LINE
  8
0
 10
31.9123
 20
108.812
 11
32.1869
 21
108.554
  0
LINE
  8
0
 10
32.1869
 20
108.554
 11
32.427
 21
108.263
  0
LINE
  8
0
 10
32.427
 20
108.263
 11
32.6289
 21
107.945
  0
LINE
  8
0
 10
32.6289
 20
107.945
 11
32.7893
 21
107.604
  0
LINE
  8
0
 10
32.7893
 20
107.604
 11
32.9057
 21
107.246
  0
LINE
  8
0
 10
32.9057
 20
107.246
 11
32.9763
 21
106.876
  0
LINE
  8
0
 10
32.9763
 20
106.876
 11
33
 21
106.5
  0
LINE
  8
0
 10
33
 20
106.5
 11
32.9763
 21
106.124
  0
LINE
  8
0
 10
32.9763
 20
106.124
 11
32.9057
 21
105.754
  0
LINE
  8
0
 10
32.9057
 20
105.754
 11
32.7893
 21
105.396
  0
LINE
  8
0
 10
32.7893
 20
105.396
 11
32.6289
 21
105.055
  0
LINE
  8
0
 10
32.6289
 20
105.055
 11
32.427
 21
104.737
  0
LINE
  8
0
 10
32.427
 20
104.737
 11
32.1869
 21
104.446
  0
LINE
  8
0
 10
32.1869
 20
104.446
 11
31.9123
 21
104.188
  0
LINE
  8
0
 10
31.9123
 20
104.188
 11
31.6075
 21
103.967
  0
LINE
  8
0
 10
31.6075
 20
103.967
 11
31.2773
 21
103.786
  0
LINE
  8
0
 10
31.2773
 20
103.786
 11
30.927
 21
103.647
  0
LINE
  8
0
 10
30.927
 20
103.647
 11
30.5621
 21
103.553
  0
LINE
  8
0
 10
30.5621
 20
103.553
 11
30.1884
 21
103.506
  0
LINE
  8
0
 10
30.1884
 20
103.506
 11
29.8116
 21
103.506
  0
LINE
  8
0
 10
-30.1884
 20
103.506
 11
-30.5621
 21
103.553
  0
LINE
  8
0
 10
-30.5621
 20
103.553
 11
-30.927
 21
103.647
  0
LINE
  8
0
 10
-30.927
 20
103.647
 11
-31.2773
 21
103.786
  0
LINE
  8
0
 10
-31.2773
 20
103.786
 11
-31.6075
 21
103.967
  0
LINE
  8
0
 10
-31.6075
 20
103.967
 11
-31.9123
 21
104.188
  0
LINE
  8
0
 10
-31.9123
 20
104.188
 11
-32.1869
 21
104.446
  0
LINE
  8
0
 10
-32.1869
 20
104.446
 11
-32.427
 21
104.737
  0
LINE
  8
0
 10
-32.427
 20
104.737
 11
-32.6289
 21
105.055
  0
LINE
  8
0
 10
-32.6289
 20
105.055
 11
-32.7893
 21
105.396
  0
LINE
  8
0
 10
-32.7893
 20
105.396
 11
-32.9057
 21
105.754
  0
LINE
  8
0
 10
-32.9057
 20
105.754
 11
-32.9763
 21
106.124
  0
LINE
  8
0
 10
-32.9763
 20
106.124
 11
-33
 21
106.5
  0
LINE
  8
0
 10
-33
 20
106.5
 11
-32.9763
 21
106.876
  0
LINE
  8
0
 10
-32.9763
 20
106.876
 11
-32.9057
 21
107.246
  0
LINE
  8
0
 10
-32.9057
 20
107.246
 11
-32.7893
 21
107.604
  0
LINE
  8
0
 10
-32.7893
 20
107.604
 11
-32.6289
 21
107.945
  0
LINE
  8
0
 10
-32.6289
 20
107.945
 11
-32.427
 21
108.263
  0
LINE
  8
0
 10
-32.427
 20
108.263
 11
-32.1869
 21
108.554
  0
LINE
  8
0
 10
-32.1869
 20
108.554
 11
-31.9123
 21
108.812
  0
LINE
  8
0
 10
-31.9123
 20
108.812
 11
-31.6075
 21
109.033
  0
LINE
  8
0
 10
-31.6075
 20
109.033
 11
-31.2773
 21
109.214
  0
LINE
  8
0
 10
-31.2773
 20
109.214
 11
-30.927
 21
109.353
  0
LINE
  8
0
 10
-30.927
 20
109.353
 11
-30.5621
 21
109.447
  0
LINE
  8
0
 10
-30.5621
 20
109.447
 11
-30.1884
 21
109.494
  0
LINE
  8
0
 10
-30.1884
 20
109.494
 11
-29.8116
 21
109.494
  0
LINE
  8
0
 10
-29.8116
 20
109.494
 11
-29.4379
 21
109.447
  0
LINE
  8
0
 10
-29.4379
 20
109.447
 11
-29.0729
 21
109.353
  0
LINE
  8
0
 10
-29.0729
 20
109.353
 11
-28.7227
 21
109.214
  0
LINE
  8
0
 10
-28.7227
 20
109.214
 11
-28.3925
 21
109.033
  0
LINE
  8
0
 10
-28.3925
 20
109.033
 11
-28.0877
 21
108.812
  0
LINE
  8
0
 10
-28.0877
 20
108.812
 11
-27.8131
 21
108.554
  0
LINE
  8
0
 10
-27.8131
 20
108.554
 11
-27.5729
 21
108.263
  0
LINE
  8
0
 10
-27.5729
 20
108.263
 11
-27.3711
 21
107.945
  0
LINE
  8
0
 10
-27.3711
 20
107.945
 11
-27.2107
 21
107.604
  0
LINE
  8
0
 10
-27.2107
 20
107.604
 11
-27.0942
 21
107.246
  0
LINE
  8
0
 10
-27.0942
 20
107.246
 11
-27.0237
 21
106.876
  0
LINE
  8
0
 10
-27.0237
 20
106.876
 11
-27
 21
106.5
  0
LINE
  8
0
 10
-27
 20
106.5
 11
-27.0237
 21
106.124
  0
LINE
  8
0
 10
-27.0237
 20
106.124
 11
-27.0942
 21
105.754
  0
LINE
  8
0
 10
-27.0942
 20
105.754
 11
-27.2107
 21
105.396
  0
LINE
  8
0
 10
-27.2107
 20
105.396
 11
-27.3711
 21
105.055
  0
LINE
  8
0
 10
-27.3711
 20
105.055
 11
-27.5729
 21
104.737
  0
LINE
  8
0
 10
-27.5729
 20
104.737
 11
-27.8131
 21
104.446
  0
LINE
  8
0
 10
-27.8131
 20
104.446
 11
-28.0877
 21
104.188
  0
LINE
  8
0
 10
-28.0877
 20
104.188
 11
-28.3925
 21
103.967
  0
LINE
  8
0
 10
-28.3925
 20
103.967
 11
-28.7227
 21
103.786
  0
LINE
  8
0
 10
-28.7227
 20
103.786
 11
-29.0729
 21
103.647
  0
LINE
  8
0
 10
-29.0729
 20
103.647
 11
-29.4379
 21
103.553
  0
LINE
  8
0
 10
-29.4379
 20
103.553
 11
-29.8116
 21
103.506
  0
LINE
  8
0
 10
-29.8116
 20
103.506
 11
-30.1884
 21
103.506
  0
LINE
  8
0
 10
29.9058
 20
97.503
 11
29.7189
 21
97.5266
  0
LINE
  8
0
 10
29.7189
 20
97.5266
 11
29.5365
 21
97.5734
  0
LINE
  8
0
 10
29.5365
 20
97.5734
 11
29.3613
 21
97.6428
  0
LINE
  8
0
 10
29.3613
 20
97.6428
 11
29.1963
 21
97.7335
  0
LINE
  8
0
 10
29.1963
 20
97.7335
 11
29.0439
 21
97.8442
  0
LINE
  8
0
 10
29.0439
 20
97.8442
 11
28.9065
 21
97.9732
  0
LINE
  8
0
 10
28.9065
 20
97.9732
 11
28.7865
 21
98.1183
  0
LINE
  8
0
 10
28.7865
 20
98.1183
 11
28.6855
 21
98.2774
  0
LINE
  8
0
 10
28.6855
 20
98.2774
 11
28.6053
 21
98.4478
  0
LINE
  8
0
 10
28.6053
 20
98.4478
 11
28.5471
 21
98.627
  0
LINE
  8
0
 10
28.5471
 20
98.627
 11
28.5118
 21
98.812
  0
LINE
  8
0
 10
28.5118
 20
98.812
 11
28.5
 21
99
  0
LINE
  8
0
 10
28.5
 20
99
 11
28.5118
 21
99.188
  0
LINE
  8
0
 10
28.5118
 20
99.188
 11
28.5471
 21
99.373
  0
LINE
  8
0
 10
28.5471
 20
99.373
 11
28.6053
 21
99.5522
  0
LINE
  8
0
 10
28.6053
 20
99.5522
 11
28.6855
 21
99.7226
  0
LINE
  8
0
 10
28.6855
 20
99.7226
 11
28.7865
 21
99.8817
  0
LINE
  8
0
 10
28.7865
 20
99.8817
 11
28.9065
 21
100.027
  0
LINE
  8
0
 10
28.9065
 20
100.027
 11
29.0439
 21
100.156
  0
LINE
  8
0
 10
29.0439
 20
100.156
 11
29.1963
 21
100.266
  0
LINE
  8
0
 10
29.1963
 20
100.266
 11
29.3613
 21
100.357
  0
LINE
  8
0
 10
29.3613
 20
100.357
 11
29.5365
 21
100.427
  0
LINE
  8
0
 10
29.5365
 20
100.427
 11
29.7189
 21
100.473
  0
LINE
  8
0
 10
29.7189
 20
100.473
 11
29.9058
 21
100.497
  0
LINE
  8
0
 10
29.9058
 20
100.497
 11
30.0942
 21
100.497
  0
LINE
  8
0
 10
30.0942
 20
100.497
 11
30.2811
 21
100.473
  0
LINE
  8
0
 10
30.2811
 20
100.473
 11
30.4635
 21
100.427
  0
LINE
  8
0
 10
30.4635
 20
100.427
 11
30.6387
 21
100.357
  0
LINE
  8
0
 10
30.6387
 20
100.357
 11
30.8037
 21
100.266
  0
LINE
  8
0
 10
30.8037
 20
100.266
 11
30.9561
 21
100.156
  0
LINE
  8
0
 10
30.9561
 20
100.156
 11
31.0934
 21
100.027
  0
LINE
  8
0
 10
31.0934
 20
100.027
 11
31.2135
 21
99.8817
  0
LINE
  8
0
 10
31.2135
 20
99.8817
 11
31.3145
 21
99.7226
  0
LINE
  8
0
 10
31.3145
 20
99.7226
 11
31.3947
 21
99.5522
  0
LINE
  8
0
 10
31.3947
 20
99.5522
 11
31.4529
 21
99.373
  0
LINE
  8
0
 10
31.4529
 20
99.373
 11
31.4882
 21
99.188
  0
LINE
  8
0
 10
31.4882
 20
99.188
 11
31.5
 21
99
  0
LINE
  8
0
 10
31.5
 20
99
 11
31.4882
 21
98.812
  0
LINE
  8
0
 10
31.4882
 20
98.812
 11
31.4529
 21
98.627
  0
LINE
  8
0
 10
31.4529
 20
98.627
 11
31.3947
 21
98.4478
  0
LINE
  8
0
 10
31.3947
 20
98.4478
 11
31.3145
 21
98.2774
  0
LINE
  8
0
 10
31.3145
 20
98.2774
 11
31.2135
 21
98.1183
  0
LINE
  8
0
 10
31.2135
 20
98.1183
 11
31.0934
 21
97.9732
  0
LINE
  8
0
 10
31.0934
 20
97.9732
 11
30.9561
 21
97.8442
  0
LINE
  8
0
 10
30.9561
 20
97.8442
 11
30.8037
 21
97.7335
  0
LINE
  8
0
 10
30.8037
 20
97.7335
 11
30.6387
 21
97.6428
  0
LINE
  8
0
 10
30.6387
 20
97.6428
 11
30.4635
 21
97.5734
  0
LINE
  8
0
 10
30.4635
 20
97.5734
 11
30.2811
 21
97.5266
  0
LINE
  8
0
 10
30.2811
 20
97.5266
 11
30.0942
 21
97.503
  0
LINE
  8
0
 10
30.0942
 20
97.503
 11
29.9058
 21
97.503
  0
LINE
  8
0
 10
-30.0942
 20
97.503
 11
-30.2811
 21
97.5266
  0
LINE
  8
0
 10
-30.2811
 20
97.5266
 11
-30.4635
 21
97.5734
  0
LINE
  8
0
 10
-30.4635
 20
97.5734
 11
-30.6387
 21
97.6428
  0
LINE
  8
0
 10
-30.6387
 20
97.6428
 11
-30.8037
 21
97.7335
  0
LINE
  8
0
 10
-30.8037
 20
97.7335
 11
-30.9561
 21
97.8442
  0
LINE
  8
0
 10
-30.9561
 20
97.8442
 11
-31.0934
 21
97.9732
  0
LINE
  8
0
 10
-31.0934
 20
97.9732
 11
-31.2135
 21
98.1183
  0
LINE
  8
0
 10
-31.2135
 20
98.1183
 11
-31.3145
 21
98.2774
  0
LINE
  8
0
 10
-31.3145
 20
98.2774
 11
-31.3947
 21
98.4478
  0
LINE
  8
0
 10
-31.3947
 20
98.4478
 11
-31.4529
 21
98.627
  0
LINE
  8
0
 10
-31.4529
 20
98.627
 11
-31.4882
 21
98.812
  0
LINE
  8
0
 10
-31.4882
 20
98.812
 11
-31.5
 21
99
  0
LINE
  8
0
 10
-31.5
 20
99
 11
-31.4882
 21
99.188
  0
LINE
  8
0
 10
-31.4882
 20
99.188
 11
-31.4529
 21
99.373
  0
LINE
  8
0
 10
-31.4529
 20
99.373
 11
-31.3947
 21
99.5522
  0
LINE
  8
0
 10
-31.3947
 20
99.5522
 11
-31.3145
 21
99.7226
  0
LINE
  8
0
 10
-31.3145
 20
99.7226
 11
-31.2135
 21
99.8817
  0
LINE
  8
0
 10
-31.2135
 20
99.8817
 11
-31.0934
 21
100.027
  0
LINE
  8
0
 10
-31.0934
 20
100.027
 11
-30.9561
 21
100.156
  0
LINE
  8
0
 10
-30.9561
 20
100.156
 11
-30.8037
 21
100.266
  0
LINE
  8
0
 10
-30.8037
 20
100.266
 11
-30.6387
 21
100.357
  0
LINE
  8
0
 10
-30.6387
 20
100.357
 11
-30.4635
 21
100.427
  0
LINE
  8
0
 10
-30.4635
 20
100.427
 11
-30.2811
 21
100.473
  0
LINE
  8
0
 10
-30.2811
 20
100.473
 11
-30.0942
 21
100.497
  0
LINE
  8
0
 10
-30.0942
 20
100.497
 11
-29.9058
 21
100.497
  0
LINE
  8
0
 10
-29.9058
 20
100.497
 11
-29.7189
 21
100.473
  0
LINE
  8
0
 10
-29.7189
 20
100.473
 11
-29.5365
 21
100.427
  0
LINE
  8
0
 10
-29.5365
 20
100.427
 11
-29.3613
 21
100.357
  0
LINE
  8
0
 10
-29.3613
 20
100.357
 11
-29.1963
 21
100.266
  0
LINE
  8
0
 10
-29.1963
 20
100.266
 11
-29.0439
 21
100.156
  0
LINE
  8
0
 10
-29.0439
 20
100.156
 11
-28.9065
 21
100.027
  0
LINE
  8
0
 10
-28.9065
 20
100.027
 11
-28.7865
 21
99.8817
  0
LINE
  8
0
 10
-28.7865
 20
99.8817
 11
-28.6855
 21
99.7226
  0
LINE
  8
0
 10
-28.6855
 20
99.7226
 11
-28.6053
 21
99.5522
  0
LINE
  8
0
 10
-28.6053
 20
99.5522
 11
-28.5471
 21
99.373
  0
LINE
  8
0
 10
-28.5471
 20
99.373
 11
-28.5118
 21
99.188
  0
LINE
  8
0
 10
-28.5118
 20
99.188
 11
-28.5
 21
99
  0
LINE
  8
0
 10
-28.5
 20
99
 11
-28.5118
 21
98.812
  0
LINE
  8
0
 10
-28.5118
 20
98.812
 11
-28.5471
 21
98.627
  0
LINE
  8
0
 10
-28.5471
 20
98.627
 11
-28.6053
 21
98.4478
  0
LINE
  8
0
 10
-28.6053
 20
98.4478
 11
-28.6855
 21
98.2774
  0
LINE
  8
0
 10
-28.6855
 20
98.2774
 11
-28.7865
 21
98.1183
  0
LINE
  8
0
 10
-28.7865
 20
98.1183
 11
-28.9065
 21
97.9732
  0
LINE
  8
0
 10
-28.9065
 20
97.9732
 11
-29.0439
 21
97.8442
  0
LINE
  8
0
 10
-29.0439
 20
97.8442
 11
-29.1963
 21
97.7335
  0
LINE
  8
0
 10
-29.1963
 20
97.7335
 11
-29.3613
 21
97.6428
  0
LINE
  8
0
 10
-29.3613
 20
97.6428
 11
-29.5365
 21
97.5734
  0
LINE
  8
0
 10
-29.5365
 20
97.5734
 11
-29.7189
 21
97.5266
  0
LINE
  8
0
 10
-29.7189
 20
97.5266
 11
-29.9058
 21
97.503
  0
LINE
  8
0
 10
-29.9058
 20
97.503
 11
-30.0942
 21
97.503
  0
LINE
  8
0
 10
-30.1884
 20
88.5059
 11
-30.5621
 21
88.5531
  0
LINE
  8
0
 10
-30.5621
 20
88.5531
 11
-30.927
 21
88.6468
  0
LINE
  8
0
 10
-30.927
 20
88.6468
 11
-31.2773
 21
88.7855
  0
LINE
  8
0
 10
-31.2773
 20
88.7855
 11
-31.6075
 21
88.967
  0
LINE
  8
0
 10
-31.6075
 20
88.967
 11
-31.9123
 21
89.1885
  0
LINE
  8
0
 10
-31.9123
 20
89.1885
 11
-32.1869
 21
89.4464
  0
LINE
  8
0
 10
-32.1869
 20
89.4464
 11
-32.427
 21
89.7366
  0
LINE
  8
0
 10
-32.427
 20
89.7366
 11
-32.6289
 21
90.0547
  0
LINE
  8
0
 10
-32.6289
 20
90.0547
 11
-32.7893
 21
90.3956
  0
LINE
  8
0
 10
-32.7893
 20
90.3956
 11
-32.9057
 21
90.7539
  0
LINE
  8
0
 10
-32.9057
 20
90.7539
 11
-32.9763
 21
91.124
  0
LINE
  8
0
 10
-32.9763
 20
91.124
 11
-33
 21
91.5
  0
LINE
  8
0
 10
-33
 20
91.5
 11
-32.9763
 21
91.876
  0
LINE
  8
0
 10
-32.9763
 20
91.876
 11
-32.9057
 21
92.2461
  0
LINE
  8
0
 10
-32.9057
 20
92.2461
 11
-32.7893
 21
92.6044
  0
LINE
  8
0
 10
-32.7893
 20
92.6044
 11
-32.6289
 21
92.9453
  0
LINE
  8
0
 10
-32.6289
 20
92.9453
 11
-32.427
 21
93.2634
  0
LINE
  8
0
 10
-32.427
 20
93.2634
 11
-32.1869
 21
93.5536
  0
LINE
  8
0
 10
-32.1869
 20
93.5536
 11
-31.9123
 21
93.8116
  0
LINE
  8
0
 10
-31.9123
 20
93.8116
 11
-31.6075
 21
94.033
  0
LINE
  8
0
 10
-31.6075
 20
94.033
 11
-31.2773
 21
94.2145
  0
LINE
  8
0
 10
-31.2773
 20
94.2145
 11
-30.927
 21
94.3532
  0
LINE
  8
0
 10
-30.927
 20
94.3532
 11
-30.5621
 21
94.4469
  0
LINE
  8
0
 10
-30.5621
 20
94.4469
 11
-30.1884
 21
94.4941
  0
LINE
  8
0
 10
-30.1884
 20
94.4941
 11
-29.8116
 21
94.4941
  0
LINE
  8
0
 10
-29.8116
 20
94.4941
 11
-29.4379
 21
94.4469
  0
LINE
  8
0
 10
-29.4379
 20
94.4469
 11
-29.0729
 21
94.3532
  0
LINE
  8
0
 10
-29.0729
 20
94.3532
 11
-28.7227
 21
94.2145
  0
LINE
  8
0
 10
-28.7227
 20
94.2145
 11
-28.3925
 21
94.033
  0
LINE
  8
0
 10
-28.3925
 20
94.033
 11
-28.0877
 21
93.8116
  0
LINE
  8
0
 10
-28.0877
 20
93.8116
 11
-27.8131
 21
93.5536
  0
LINE
  8
0
 10
-27.8131
 20
93.5536
 11
-27.5729
 21
93.2634
  0
LINE
  8
0
 10
-27.5729
 20
93.2634
 11
-27.3711
 21
92.9453
  0
LINE
  8
0
 10
-27.3711
 20
92.9453
 11
-27.2107
 21
92.6044
  0
LINE
  8
0
 10
-27.2107
 20
92.6044
 11
-27.0942
 21
92.2461
  0
LINE
  8
0
 10
-27.0942
 20
92.2461
 11
-27.0237
 21
91.876
  0
LINE
  8
0
 10
-27.0237
 20
91.876
 11
-27
 21
91.5
  0
LINE
  8
0
 10
-27
 20
91.5
 11
-27.0237
 21
91.124
  0
LINE
  8
0
 10
-27.0237
 20
91.124
 11
-27.0942
 21
90.7539
  0
LINE
  8
0
 10
-27.0942
 20
90.7539
 11
-27.2107
 21
90.3956
  0
LINE
  8
0
 10
-27.2107
 20
90.3956
 11
-27.3711
 21
90.0547
  0
LINE
  8
0
 10
-27.3711
 20
90.0547
 11
-27.5729
 21
89.7366
  0
LINE
  8
0
 10
-27.5729
 20
89.7366
 11
-27.8131
 21
89.4464
  0
LINE
  8
0
 10
-27.8131
 20
89.4464
 11
-28.0877
 21
89.1885
  0
LINE
  8
0
 10
-28.0877
 20
89.1885
 11
-28.3925
 21
88.967
  0
LINE
  8
0
 10
-28.3925
 20
88.967
 11
-28.7227
 21
88.7855
  0
LINE
  8
0
 10
-28.7227
 20
88.7855
 11
-29.0729
 21
88.6468
  0
LINE
  8
0
 10
-29.0729
 20
88.6468
 11
-29.4379
 21
88.5531
  0
LINE
  8
0
 10
-29.4379
 20
88.5531
 11
-29.8116
 21
88.5059
  0
LINE
  8
0
 10
-29.8116
 20
88.5059
 11
-30.1884
 21
88.5059
  0
LINE
  8
0
 10
29.8116
 20
88.5059
 11
29.4379
 21
88.5531
  0
LINE
  8
0
 10
29.4379
 20
88.5531
 11
29.0729
 21
88.6468
  0
LINE
  8
0
 10
29.0729
 20
88.6468
 11
28.7227
 21
88.7855
  0
LINE
  8
0
 10
28.7227
 20
88.7855
 11
28.3925
 21
88.967
  0
LINE
  8
0
 10
28.3925
 20
88.967
 11
28.0877
 21
89.1885
  0
LINE
  8
0
 10
28.0877
 20
89.1885
 11
27.8131
 21
89.4464
  0
LINE
  8
0
 10
27.8131
 20
89.4464
 11
27.5729
 21
89.7366
  0
LINE
  8
0
 10
27.5729
 20
89.7366
 11
27.3711
 21
90.0547
  0
LINE
  8
0
 10
27.3711
 20
90.0547
 11
27.2107
 21
90.3956
  0
LINE
  8
0
 10
27.2107
 20
90.3956
 11
27.0942
 21
90.7539
  0
LINE
  8
0
 10
27.0942
 20
90.7539
 11
27.0237
 21
91.124
  0
LINE
  8
0
 10
27.0237
 20
91.124
 11
27
 21
91.5
  0
LINE
  8
0
 10
27
 20
91.5
 11
27.0237
 21
91.876
  0
LINE
  8
0
 10
27.0237
 20
91.876
 11
27.0942
 21
92.2461
  0
LINE
  8
0
 10
27.0942
 20
92.2461
 11
27.2107
 21
92.6044
  0
LINE
  8
0
 10
27.2107
 20
92.6044
 11
27.3711
 21
92.9453
  0
LINE
  8
0
 10
27.3711
 20
92.9453
 11
27.5729
 21
93.2634
  0
LINE
  8
0
 10
27.5729
 20
93.2634
 11
27.8131
 21
93.5536
  0
LINE
  8
0
 10
27.8131
 20
93.5536
 11
28.0877
 21
93.8116
  0
LINE
  8
0
 10
28.0877
 20
93.8116
 11
28.3925
 21
94.033
  0
LINE
  8
0
 10
28.3925
 20
94.033
 11
28.7227
 21
94.2145
  0
LINE
  8
0
 10
28.7227
 20
94.2145
 11
29.0729
 21
94.3532
  0
LINE
  8
0
 10
29.0729
 20
94.3532
 11
29.4379
 21
94.4469
  0
LINE
  8
0
 10
29.4379
 20
94.4469
 11
29.8116
 21
94.4941
  0
LINE
  8
0
 10
29.8116
 20
94.4941
 11
30.1884
 21
94.4941
  0
LINE
  8
0
 10
30.1884
 20
94.4941
 11
30.5621
 21
94.4469
  0
LINE
  8
0
 10
30.5621
 20
94.4469
 11
30.927
 21
94.3532
  0
LINE
  8
0
 10
30.927
 20
94.3532
 11
31.2773
 21
94.2145
  0
LINE
  8
0
 10
31.2773
 20
94.2145
 11
31.6075
 21
94.033
  0
LINE
  8
0
 10
31.6075
 20
94.033
 11
31.9123
 21
93.8116
  0
LINE
  8
0
 10
31.9123
 20
93.8116
 11
32.1869
 21
93.5536
  0
LINE
  8
0
 10
32.1869
 20
93.5536
 11
32.427
 21
93.2634
  0
LINE
  8
0
 10
32.427
 20
93.2634
 11
32.6289
 21
92.9453
  0
LINE
  8
0
 10
32.6289
 20
92.9453
 11
32.7893
 21
92.6044
  0
LINE
  8
0
 10
32.7893
 20
92.6044
 11
32.9057
 21
92.2461
  0
LINE
  8
0
 10
32.9057
 20
92.2461
 11
32.9763
 21
91.876
  0
LINE
  8
0
 10
32.9763
 20
91.876
 11
33
 21
91.5
  0
LINE
  8
0
 10
33
 20
91.5
 11
32.9763
 21
91.124
  0
LINE
  8
0
 10
32.9763
 20
91.124
 11
32.9057
 21
90.7539
  0
LINE
  8
0
 10
32.9057
 20
90.7539
 11
32.7893
 21
90.3956
  0
LINE
  8
0
 10
32.7893
 20
90.3956
 11
32.6289
 21
90.0547
  0
LINE
  8
0
 10
32.6289
 20
90.0547
 11
32.427
 21
89.7366
  0
LINE
  8
0
 10
32.427
 20
89.7366
 11
32.1869
 21
89.4464
  0
LINE
  8
0
 10
32.1869
 20
89.4464
 11
31.9123
 21
89.1885
  0
LINE
  8
0
 10
31.9123
 20
89.1885
 11
31.6075
 21
88.967
  0
LINE
  8
0
 10
31.6075
 20
88.967
 11
31.2773
 21
88.7855
  0
LINE
  8
0
 10
31.2773
 20
88.7855
 11
30.927
 21
88.6468
  0
LINE
  8
0
 10
30.927
 20
88.6468
 11
30.5621
 21
88.5531
  0
LINE
  8
0
 10
30.5621
 20
88.5531
 11
30.1884
 21
88.5059
  0
LINE
  8
0
 10
30.1884
 20
88.5059
 11
29.8116
 21
88.5059
  0
LINE
  8
0
 10
14.387
 20
85.5536
 11
14.1627
 21
85.5819
  0
LINE
  8
0
 10
14.1627
 20
85.5819
 11
13.9438
 21
85.6381
  0
LINE
  8
0
 10
13.9438
 20
85.6381
 11
13.7336
 21
85.7213
  0
LINE
  8
0
 10
13.7336
 20
85.7213
 11
13.5355
 21
85.8302
  0
LINE
  8
0
 10
13.5355
 20
85.8302
 11
13.3526
 21
85.9631
  0
LINE
  8
0
 10
13.3526
 20
85.9631
 11
13.1879
 21
86.1178
  0
LINE
  8
0
 10
13.1879
 20
86.1178
 11
13.0438
 21
86.292
  0
LINE
  8
0
 10
13.0438
 20
86.292
 11
12.9226
 21
86.4828
  0
LINE
  8
0
 10
12.9226
 20
86.4828
 11
12.8264
 21
86.6874
  0
LINE
  8
0
 10
12.8264
 20
86.6874
 11
12.7565
 21
86.9024
  0
LINE
  8
0
 10
12.7565
 20
86.9024
 11
12.7142
 21
87.1244
  0
LINE
  8
0
 10
12.7142
 20
87.1244
 11
12.7
 21
87.35
  0
LINE
  8
0
 10
12.7
 20
87.35
 11
12.7142
 21
87.5756
  0
LINE
  8
0
 10
12.7142
 20
87.5756
 11
12.7565
 21
87.7977
  0
LINE
  8
0
 10
12.7565
 20
87.7977
 11
12.8264
 21
88.0126
  0
LINE
  8
0
 10
12.8264
 20
88.0126
 11
12.9226
 21
88.2172
  0
LINE
  8
0
 10
12.9226
 20
88.2172
 11
13.0438
 21
88.408
  0
LINE
  8
0
 10
13.0438
 20
88.408
 11
13.1879
 21
88.5822
  0
LINE
  8
0
 10
13.1879
 20
88.5822
 11
13.3526
 21
88.7369
  0
LINE
  8
0
 10
13.3526
 20
88.7369
 11
13.5355
 21
88.8698
  0
LINE
  8
0
 10
13.5355
 20
88.8698
 11
13.7336
 21
88.9787
  0
LINE
  8
0
 10
13.7336
 20
88.9787
 11
13.9438
 21
89.0619
  0
LINE
  8
0
 10
13.9438
 20
89.0619
 11
14.1627
 21
89.1181
  0
LINE
  8
0
 10
14.1627
 20
89.1181
 11
14.387
 21
89.1465
  0
LINE
  8
0
 10
14.387
 20
89.1465
 11
14.613
 21
89.1465
  0
LINE
  8
0
 10
14.613
 20
89.1465
 11
14.8373
 21
89.1181
  0
LINE
  8
0
 10
14.8373
 20
89.1181
 11
15.0562
 21
89.0619
  0
LINE
  8
0
 10
15.0562
 20
89.0619
 11
15.2664
 21
88.9787
  0
LINE
  8
0
 10
15.2664
 20
88.9787
 11
15.4645
 21
88.8698
  0
LINE
  8
0
 10
15.4645
 20
88.8698
 11
15.6474
 21
88.7369
  0
LINE
  8
0
 10
15.6474
 20
88.7369
 11
15.8121
 21
88.5822
  0
LINE
  8
0
 10
15.8121
 20
88.5822
 11
15.9562
 21
88.408
  0
LINE
  8
0
 10
15.9562
 20
88.408
 11
16.0773
 21
88.2172
  0
LINE
  8
0
 10
16.0773
 20
88.2172
 11
16.1736
 21
88.0126
  0
LINE
  8
0
 10
16.1736
 20
88.0126
 11
16.2434
 21
87.7977
  0
LINE
  8
0
 10
16.2434
 20
87.7977
 11
16.2858
 21
87.5756
  0
LINE
  8
0
 10
16.2858
 20
87.5756
 11
16.3
 21
87.35
  0
LINE
  8
0
 10
16.3
 20
87.35
 11
16.2858
 21
87.1244
  0
LINE
  8
0
 10
16.2858
 20
87.1244
 11
16.2434
 21
86.9024
  0
LINE
  8
0
 10
16.2434
 20
86.9024
 11
16.1736
 21
86.6874
  0
LINE
  8
0
 10
16.1736
 20
86.6874
 11
16.0773
 21
86.4828
  0
LINE
  8
0
 10
16.0773
 20
86.4828
 11
15.9562
 21
86.292
  0
LINE
  8
0
 10
15.9562
 20
86.292
 11
15.8121
 21
86.1178
  0
LINE
  8
0
 10
15.8121
 20
86.1178
 11
15.6474
 21
85.9631
  0
LINE
  8
0
 10
15.6474
 20
85.9631
 11
15.4645
 21
85.8302
  0
LINE
  8
0
 10
15.4645
 20
85.8302
 11
15.2664
 21
85.7213
  0
LINE
  8
0
 10
15.2664
 20
85.7213
 11
15.0562
 21
85.6381
  0
LINE
  8
0
 10
15.0562
 20
85.6381
 11
14.8373
 21
85.5819
  0
LINE
  8
0
 10
14.8373
 20
85.5819
 11
14.613
 21
85.5536
  0
LINE
  8
0
 10
14.613
 20
85.5536
 11
14.387
 21
85.5536
  0
LINE
  8
0
 10
-14.613
 20
85.5536
 11
-14.8373
 21
85.5819
  0
LINE
  8
0
 10
-14.8373
 20
85.5819
 11
-15.0562
 21
85.6381
  0
LINE
  8
0
 10
-15.0562
 20
85.6381
 11
-15.2664
 21
85.7213
  0
LINE
  8
0
 10
-15.2664
 20
85.7213
 11
-15.4645
 21
85.8302
  0
LINE
  8
0
 10
-15.4645
 20
85.8302
 11
-15.6474
 21
85.9631
  0
LINE
  8
0
 10
-15.6474
 20
85.9631
 11
-15.8121
 21
86.1178
  0
LINE
  8
0
 10
-15.8121
 20
86.1178
 11
-15.9562
 21
86.292
  0
LINE
  8
0
 10
-15.9562
 20
86.292
 11
-16.0773
 21
86.4828
  0
LINE
  8
0
 10
-16.0773
 20
86.4828
 11
-16.1736
 21
86.6874
  0
LINE
  8
0
 10
-16.1736
 20
86.6874
 11
-16.2434
 21
86.9024
  0
LINE
  8
0
 10
-16.2434
 20
86.9024
 11
-16.2858
 21
87.1244
  0
LINE
  8
0
 10
-16.2858
 20
87.1244
 11
-16.3
 21
87.35
  0
LINE
  8
0
 10
-16.3
 20
87.35
 11
-16.2858
 21
87.5756
  0
LINE
  8
0
 10
-16.2858
 20
87.5756
 11
-16.2434
 21
87.7977
  0
LINE
  8
0
 10
-16.2434
 20
87.7977
 11
-16.1736
 21
88.0126
  0
LINE
  8
0
 10
-16.1736
 20
88.0126
 11
-16.0773
 21
88.2172
  0
LINE
  8
0
 10
-16.0773
 20
88.2172
 11
-15.9562
 21
88.408
  0
LINE
  8
0
 10
-15.9562
 20
88.408
 11
-15.8121
 21
88.5822
  0
LINE
  8
0
 10
-15.8121
 20
88.5822
 11
-15.6474
 21
88.7369
  0
LINE
  8
0
 10
-15.6474
 20
88.7369
 11
-15.4645
 21
88.8698
  0
LINE
  8
0
 10
-15.4645
 20
88.8698
 11
-15.2664
 21
88.9787
  0
LINE
  8
0
 10
-15.2664
 20
88.9787
 11
-15.0562
 21
89.0619
  0
LINE
  8
0
 10
-15.0562
 20
89.0619
 11
-14.8373
 21
89.1181
  0
LINE
  8
0
 10
-14.8373
 20
89.1181
 11
-14.613
 21
89.1465
  0
LINE
  8
0
 10
-14.613
 20
89.1465
 11
-14.387
 21
89.1465
  0
LINE
  8
0
 10
-14.387
 20
89.1465
 11
-14.1627
 21
89.1181
  0
LINE
  8
0
 10
-14.1627
 20
89.1181
 11
-13.9438
 21
89.0619
  0
LINE
  8
0
 10
-13.9438
 20
89.0619
 11
-13.7336
 21
88.9787
  0
LINE
  8
0
 10
-13.7336
 20
88.9787
 11
-13.5355
 21
88.8698
  0
LINE
  8
0
 10
-13.5355
 20
88.8698
 11
-13.3526
 21
88.7369
  0
LINE
  8
0
 10
-13.3526
 20
88.7369
 11
-13.1879
 21
88.5822
  0
LINE
  8
0
 10
-13.1879
 20
88.5822
 11
-13.0438
 21
88.408
  0
LINE
  8
0
 10
-13.0438
 20
88.408
 11
-12.9226
 21
88.2172
  0
LINE
  8
0
 10
-12.9226
 20
88.2172
 11
-12.8264
 21
88.0126
  0
LINE
  8
0
 10
-12.8264
 20
88.0126
 11
-12.7565
 21
87.7977
  0
LINE
  8
0
 10
-12.7565
 20
87.7977
 11
-12.7142
 21
87.5756
  0
LINE
  8
0
 10
-12.7142
 20
87.5756
 11
-12.7
 21
87.35
  0
LINE
  8
0
 10
-12.7
 20
87.35
 11
-12.7142
 21
87.1244
  0
LINE
  8
0
 10
-12.7142
 20
87.1244
 11
-12.7565
 21
86.9024
  0
LINE
  8
0
 10
-12.7565
 20
86.9024
 11
-12.8264
 21
86.6874
  0
LINE
  8
0
 10
-12.8264
 20
86.6874
 11
-12.9226
 21
86.4828
  0
LINE
  8
0
 10
-12.9226
 20
86.4828
 11
-13.0438
 21
86.292
  0
LINE
  8
0
 10
-13.0438
 20
86.292
 11
-13.1879
 21
86.1178
  0
LINE
  8
0
 10
-13.1879
 20
86.1178
 11
-13.3526
 21
85.9631
  0
LINE
  8
0
 10
-13.3526
 20
85.9631
 11
-13.5355
 21
85.8302
  0
LINE
  8
0
 10
-13.5355
 20
85.8302
 11
-13.7336
 21
85.7213
  0
LINE
  8
0
 10
-13.7336
 20
85.7213
 11
-13.9438
 21
85.6381
  0
LINE
  8
0
 10
-13.9438
 20
85.6381
 11
-14.1627
 21
85.5819
  0
LINE
  8
0
 10
-14.1627
 20
85.5819
 11
-14.387
 21
85.5536
  0
LINE
  8
0
 10
-14.387
 20
85.5536
 11
-14.613
 21
85.5536
  0
LINE
  8
0
 10
-30.0942
 20
82.503
 11
-30.2811
 21
82.5266
  0
LINE
  8
0
 10
-30.2811
 20
82.5266
 11
-30.4635
 21
82.5734
  0
LINE
  8
0
 10
-30.4635
 20
82.5734
 11
-30.6387
 21
82.6428
  0
LINE
  8
0
 10
-30.6387
 20
82.6428
 11
-30.8037
 21
82.7335
  0
LINE
  8
0
 10
-30.8037
 20
82.7335
 11
-30.9561
 21
82.8442
  0
LINE
  8
0
 10
-30.9561
 20
82.8442
 11
-31.0934
 21
82.9732
  0
LINE
  8
0
 10
-31.0934
 20
82.9732
 11
-31.2135
 21
83.1183
  0
LINE
  8
0
 10
-31.2135
 20
83.1183
 11
-31.3145
 21
83.2774
  0
LINE
  8
0
 10
-31.3145
 20
83.2774
 11
-31.3947
 21
83.4478
  0
LINE
  8
0
 10
-31.3947
 20
83.4478
 11
-31.4529
 21
83.627
  0
LINE
  8
0
 10
-31.4529
 20
83.627
 11
-31.4882
 21
83.812
  0
LINE
  8
0
 10
-31.4882
 20
83.812
 11
-31.5
 21
84
  0
LINE
  8
0
 10
-31.5
 20
84
 11
-31.4882
 21
84.188
  0
LINE
  8
0
 10
-31.4882
 20
84.188
 11
-31.4529
 21
84.373
  0
LINE
  8
0
 10
-31.4529
 20
84.373
 11
-31.3947
 21
84.5522
  0
LINE
  8
0
 10
-31.3947
 20
84.5522
 11
-31.3145
 21
84.7226
  0
LINE
  8
0
 10
-31.3145
 20
84.7226
 11
-31.2135
 21
84.8817
  0
LINE
  8
0
 10
-31.2135
 20
84.8817
 11
-31.0934
 21
85.0268
  0
LINE
  8
0
 10
-31.0934
 20
85.0268
 11
-30.9561
 21
85.1558
  0
LINE
  8
0
 10
-30.9561
 20
85.1558
 11
-30.8037
 21
85.2665
  0
LINE
  8
0
 10
-30.8037
 20
85.2665
 11
-30.6387
 21
85.3573
  0
LINE
  8
0
 10
-30.6387
 20
85.3573
 11
-30.4635
 21
85.4266
  0
LINE
  8
0
 10
-30.4635
 20
85.4266
 11
-30.2811
 21
85.4734
  0
LINE
  8
0
 10
-30.2811
 20
85.4734
 11
-30.0942
 21
85.4971
  0
LINE
  8
0
 10
-30.0942
 20
85.4971
 11
-29.9058
 21
85.4971
  0
LINE
  8
0
 10
-29.9058
 20
85.4971
 11
-29.7189
 21
85.4734
  0
LINE
  8
0
 10
-29.7189
 20
85.4734
 11
-29.5365
 21
85.4266
  0
LINE
  8
0
 10
-29.5365
 20
85.4266
 11
-29.3613
 21
85.3573
  0
LINE
  8
0
 10
-29.3613
 20
85.3573
 11
-29.1963
 21
85.2665
  0
LINE
  8
0
 10
-29.1963
 20
85.2665
 11
-29.0439
 21
85.1558
  0
LINE
  8
0
 10
-29.0439
 20
85.1558
 11
-28.9065
 21
85.0268
  0
LINE
  8
0
 10
-28.9065
 20
85.0268
 11
-28.7865
 21
84.8817
  0
LINE
  8
0
 10
-28.7865
 20
84.8817
 11
-28.6855
 21
84.7226
  0
LINE
  8
0
 10
-28.6855
 20
84.7226
 11
-28.6053
 21
84.5522
  0
LINE
  8
0
 10
-28.6053
 20
84.5522
 11
-28.5471
 21
84.373
  0
LINE
  8
0
 10
-28.5471
 20
84.373
 11
-28.5118
 21
84.188
  0
LINE
  8
0
 10
-28.5118
 20
84.188
 11
-28.5
 21
84
  0
LINE
  8
0
 10
-28.5
 20
84
 11
-28.5118
 21
83.812
  0
LINE
  8
0
 10
-28.5118
 20
83.812
 11
-28.5471
 21
83.627
  0
LINE
  8
0
 10
-28.5471
 20
83.627
 11
-28.6053
 21
83.4478
  0
LINE
  8
0
 10
-28.6053
 20
83.4478
 11
-28.6855
 21
83.2774
  0
LINE
  8
0
 10
-28.6855
 20
83.2774
 11
-28.7865
 21
83.1183
  0
LINE
  8
0
 10
-28.7865
 20
83.1183
 11
-28.9065
 21
82.9732
  0
LINE
  8
0
 10
-28.9065
 20
82.9732
 11
-29.0439
 21
82.8442
  0
LINE
  8
0
 10
-29.0439
 20
82.8442
 11
-29.1963
 21
82.7335
  0
LINE
  8
0
 10
-29.1963
 20
82.7335
 11
-29.3613
 21
82.6428
  0
LINE
  8
0
 10
-29.3613
 20
82.6428
 11
-29.5365
 21
82.5734
  0
LINE
  8
0
 10
-29.5365
 20
82.5734
 11
-29.7189
 21
82.5266
  0
LINE
  8
0
 10
-29.7189
 20
82.5266
 11
-29.9058
 21
82.503
  0
LINE
  8
0
 10
-29.9058
 20
82.503
 11
-30.0942
 21
82.503
  0
LINE
  8
0
 10
29.9058
 20
82.503
 11
29.7189
 21
82.5266
  0
LINE
  8
0
 10
29.7189
 20
82.5266
 11
29.5365
 21
82.5734
  0
LINE
  8
0
 10
29.5365
 20
82.5734
 11
29.3613
 21
82.6428
  0
LINE
  8
0
 10
29.3613
 20
82.6428
 11
29.1963
 21
82.7335
  0
LINE
  8
0
 10
29.1963
 20
82.7335
 11
29.0439
 21
82.8442
  0
LINE
  8
0
 10
29.0439
 20
82.8442
 11
28.9065
 21
82.9732
  0
LINE
  8
0
 10
28.9065
 20
82.9732
 11
28.7865
 21
83.1183
  0
LINE
  8
0
 10
28.7865
 20
83.1183
 11
28.6855
 21
83.2774
  0
LINE
  8
0
 10
28.6855
 20
83.2774
 11
28.6053
 21
83.4478
  0
LINE
  8
0
 10
28.6053
 20
83.4478
 11
28.5471
 21
83.627
  0
LINE
  8
0
 10
28.5471
 20
83.627
 11
28.5118
 21
83.812
  0
LINE
  8
0
 10
28.5118
 20
83.812
 11
28.5
 21
84
  0
LINE
  8
0
 10
28.5
 20
84
 11
28.5118
 21
84.188
  0
LINE
  8
0
 10
28.5118
 20
84.188
 11
28.5471
 21
84.373
  0
LINE
  8
0
 10
28.5471
 20
84.373
 11
28.6053
 21
84.5522
  0
LINE
  8
0
 10
28.6053
 20
84.5522
 11
28.6855
 21
84.7226
  0
LINE
  8
0
 10
28.6855
 20
84.7226
 11
28.7865
 21
84.8817
  0
LINE
  8
0
 10
28.7865
 20
84.8817
 11
28.9065
 21
85.0268
  0
LINE
  8
0
 10
28.9065
 20
85.0268
 11
29.0439
 21
85.1558
  0
LINE
  8
0
 10
29.0439
 20
85.1558
 11
29.1963
 21
85.2665
  0
LINE
  8
0
 10
29.1963
 20
85.2665
 11
29.3613
 21
85.3573
  0
LINE
  8
0
 10
29.3613
 20
85.3573
 11
29.5365
 21
85.4266
  0
LINE
  8
0
 10
29.5365
 20
85.4266
 11
29.7189
 21
85.4734
  0
LINE
  8
0
 10
29.7189
 20
85.4734
 11
29.9058
 21
85.4971
  0
LINE
  8
0
 10
29.9058
 20
85.4971
 11
30.0942
 21
85.4971
  0
LINE
  8
0
 10
30.0942
 20
85.4971
 11
30.2811
 21
85.4734
  0
LINE
  8
0
 10
30.2811
 20
85.4734
 11
30.4635
 21
85.4266
  0
LINE
  8
0
 10
30.4635
 20
85.4266
 11
30.6387
 21
85.3573
  0
LINE
  8
0
 10
30.6387
 20
85.3573
 11
30.8037
 21
85.2665
  0
LINE
  8
0
 10
30.8037
 20
85.2665
 11
30.9561
 21
85.1558
  0
LINE
  8
0
 10
30.9561
 20
85.1558
 11
31.0934
 21
85.0268
  0
LINE
  8
0
 10
31.0934
 20
85.0268
 11
31.2135
 21
84.8817
  0
LINE
  8
0
 10
31.2135
 20
84.8817
 11
31.3145
 21
84.7226
  0
LINE
  8
0
 10
31.3145
 20
84.7226
 11
31.3947
 21
84.5522
  0
LINE
  8
0
 10
31.3947
 20
84.5522
 11
31.4529
 21
84.373
  0
LINE
  8
0
 10
31.4529
 20
84.373
 11
31.4882
 21
84.188
  0
LINE
  8
0
 10
31.4882
 20
84.188
 11
31.5
 21
84
  0
LINE
  8
0
 10
31.5
 20
84
 11
31.4882
 21
83.812
  0
LINE
  8
0
 10
31.4882
 20
83.812
 11
31.4529
 21
83.627
  0
LINE
  8
0
 10
31.4529
 20
83.627
 11
31.3947
 21
83.4478
  0
LINE
  8
0
 10
31.3947
 20
83.4478
 11
31.3145
 21
83.2774
  0
LINE
  8
0
 10
31.3145
 20
83.2774
 11
31.2135
 21
83.1183
  0
LINE
  8
0
 10
31.2135
 20
83.1183
 11
31.0934
 21
82.9732
  0
LINE
  8
0
 10
31.0934
 20
82.9732
 11
30.9561
 21
82.8442
  0
LINE
  8
0
 10
30.9561
 20
82.8442
 11
30.8037
 21
82.7335
  0
LINE
  8
0
 10
30.8037
 20
82.7335
 11
30.6387
 21
82.6428
  0
LINE
  8
0
 10
30.6387
 20
82.6428
 11
30.4635
 21
82.5734
  0
LINE
  8
0
 10
30.4635
 20
82.5734
 11
30.2811
 21
82.5266
  0
LINE
  8
0
 10
30.2811
 20
82.5266
 11
30.0942
 21
82.503
  0
LINE
  8
0
 10
30.0942
 20
82.503
 11
29.9058
 21
82.503
  0
LINE
  8
0
 10
-30.1884
 20
73.5059
 11
-30.5621
 21
73.5531
  0
LINE
  8
0
 10
-30.5621
 20
73.5531
 11
-30.927
 21
73.6468
  0
LINE
  8
0
 10
-30.927
 20
73.6468
 11
-31.2773
 21
73.7855
  0
LINE
  8
0
 10
-31.2773
 20
73.7855
 11
-31.6075
 21
73.967
  0
LINE
  8
0
 10
-31.6075
 20
73.967
 11
-31.9123
 21
74.1885
  0
LINE
  8
0
 10
-31.9123
 20
74.1885
 11
-32.1869
 21
74.4464
  0
LINE
  8
0
 10
-32.1869
 20
74.4464
 11
-32.427
 21
74.7366
  0
LINE
  8
0
 10
-32.427
 20
74.7366
 11
-32.6289
 21
75.0547
  0
LINE
  8
0
 10
-32.6289
 20
75.0547
 11
-32.7893
 21
75.3956
  0
LINE
  8
0
 10
-32.7893
 20
75.3956
 11
-32.9057
 21
75.7539
  0
LINE
  8
0
 10
-32.9057
 20
75.7539
 11
-32.9763
 21
76.124
  0
LINE
  8
0
 10
-32.9763
 20
76.124
 11
-33
 21
76.5
  0
LINE
  8
0
 10
-33
 20
76.5
 11
-32.9763
 21
76.876
  0
LINE
  8
0
 10
-32.9763
 20
76.876
 11
-32.9057
 21
77.2461
  0
LINE
  8
0
 10
-32.9057
 20
77.2461
 11
-32.7893
 21
77.6044
  0
LINE
  8
0
 10
-32.7893
 20
77.6044
 11
-32.6289
 21
77.9453
  0
LINE
  8
0
 10
-32.6289
 20
77.9453
 11
-32.427
 21
78.2634
  0
LINE
  8
0
 10
-32.427
 20
78.2634
 11
-32.1869
 21
78.5536
  0
LINE
  8
0
 10
-32.1869
 20
78.5536
 11
-31.9123
 21
78.8116
  0
LINE
  8
0
 10
-31.9123
 20
78.8116
 11
-31.6075
 21
79.033
  0
LINE
  8
0
 10
-31.6075
 20
79.033
 11
-31.2773
 21
79.2145
  0
LINE
  8
0
 10
-31.2773
 20
79.2145
 11
-30.927
 21
79.3532
  0
LINE
  8
0
 10
-30.927
 20
79.3532
 11
-30.5621
 21
79.4469
  0
LINE
  8
0
 10
-30.5621
 20
79.4469
 11
-30.1884
 21
79.4941
  0
LINE
  8
0
 10
-30.1884
 20
79.4941
 11
-29.8116
 21
79.4941
  0
LINE
  8
0
 10
-29.8116
 20
79.4941
 11
-29.4379
 21
79.4469
  0
LINE
  8
0
 10
-29.4379
 20
79.4469
 11
-29.0729
 21
79.3532
  0
LINE
  8
0
 10
-29.0729
 20
79.3532
 11
-28.7227
 21
79.2145
  0
LINE
  8
0
 10
-28.7227
 20
79.2145
 11
-28.3925
 21
79.033
  0
LINE
  8
0
 10
-28.3925
 20
79.033
 11
-28.0877
 21
78.8116
  0
LINE
  8
0
 10
-28.0877
 20
78.8116
 11
-27.8131
 21
78.5536
  0
LINE
  8
0
 10
-27.8131
 20
78.5536
 11
-27.5729
 21
78.2634
  0
LINE
  8
0
 10
-27.5729
 20
78.2634
 11
-27.3711
 21
77.9453
  0
LINE
  8
0
 10
-27.3711
 20
77.9453
 11
-27.2107
 21
77.6044
  0
LINE
  8
0
 10
-27.2107
 20
77.6044
 11
-27.0942
 21
77.2461
  0
LINE
  8
0
 10
-27.0942
 20
77.2461
 11
-27.0237
 21
76.876
  0
LINE
  8
0
 10
-27.0237
 20
76.876
 11
-27
 21
76.5
  0
LINE
  8
0
 10
-27
 20
76.5
 11
-27.0237
 21
76.124
  0
LINE
  8
0
 10
-27.0237
 20
76.124
 11
-27.0942
 21
75.7539
  0
LINE
  8
0
 10
-27.0942
 20
75.7539
 11
-27.2107
 21
75.3956
  0
LINE
  8
0
 10
-27.2107
 20
75.3956
 11
-27.3711
 21
75.0547
  0
LINE
  8
0
 10
-27.3711
 20
75.0547
 11
-27.5729
 21
74.7366
  0
LINE
  8
0
 10
-27.5729
 20
74.7366
 11
-27.8131
 21
74.4464
  0
LINE
  8
0
 10
-27.8131
 20
74.4464
 11
-28.0877
 21
74.1885
  0
LINE
  8
0
 10
-28.0877
 20
74.1885
 11
-28.3925
 21
73.967
  0
LINE
  8
0
 10
-28.3925
 20
73.967
 11
-28.7227
 21
73.7855
  0
LINE
  8
0
 10
-28.7227
 20
73.7855
 11
-29.0729
 21
73.6468
  0
LINE
  8
0
 10
-29.0729
 20
73.6468
 11
-29.4379
 21
73.5531
  0
LINE
  8
0
 10
-29.4379
 20
73.5531
 11
-29.8116
 21
73.5059
  0
LINE
  8
0
 10
-29.8116
 20
73.5059
 11
-30.1884
 21
73.5059
  0
LINE
  8
0
 10
29.8116
 20
73.5059
 11
29.4379
 21
73.5531
  0
LINE
  8
0
 10
29.4379
 20
73.5531
 11
29.0729
 21
73.6468
  0
LINE
  8
0
 10
29.0729
 20
73.6468
 11
28.7227
 21
73.7855
  0
LINE
  8
0
 10
28.7227
 20
73.7855
 11
28.3925
 21
73.967
  0
LINE
  8
0
 10
28.3925
 20
73.967
 11
28.0877
 21
74.1885
  0
LINE
  8
0
 10
28.0877
 20
74.1885
 11
27.8131
 21
74.4464
  0
LINE
  8
0
 10
27.8131
 20
74.4464
 11
27.5729
 21
74.7366
  0
LINE
  8
0
 10
27.5729
 20
74.7366
 11
27.3711
 21
75.0547
  0
LINE
  8
0
 10
27.3711
 20
75.0547
 11
27.2107
 21
75.3956
  0
LINE
  8
0
 10
27.2107
 20
75.3956
 11
27.0942
 21
75.7539
  0
LINE
  8
0
 10
27.0942
 20
75.7539
 11
27.0237
 21
76.124
  0
LINE
  8
0
 10
27.0237
 20
76.124
 11
27
 21
76.5
  0
LINE
  8
0
 10
27
 20
76.5
 11
27.0237
 21
76.876
  0
LINE
  8
0
 10
27.0237
 20
76.876
 11
27.0942
 21
77.2461
  0
LINE
  8
0
 10
27.0942
 20
77.2461
 11
27.2107
 21
77.6044
  0
LINE
  8
0
 10
27.2107
 20
77.6044
 11
27.3711
 21
77.9453
  0
LINE
  8
0
 10
27.3711
 20
77.9453
 11
27.5729
 21
78.2634
  0
LINE
  8
0
 10
27.5729
 20
78.2634
 11
27.8131
 21
78.5536
  0
LINE
  8
0
 10
27.8131
 20
78.5536
 11
28.0877
 21
78.8116
  0
LINE
  8
0
 10
28.0877
 20
78.8116
 11
28.3925
 21
79.033
  0
LINE
  8
0
 10
28.3925
 20
79.033
 11
28.7227
 21
79.2145
  0
LINE
  8
0
 10
28.7227
 20
79.2145
 11
29.0729
 21
79.3532
  0
LINE
  8
0
 10
29.0729
 20
79.3532
 11
29.4379
 21
79.4469
  0
LINE
  8
0
 10
29.4379
 20
79.4469
 11
29.8116
 21
79.4941
  0
LINE
  8
0
 10
29.8116
 20
79.4941
 11
30.1884
 21
79.4941
  0
LINE
  8
0
 10
30.1884
 20
79.4941
 11
30.5621
 21
79.4469
  0
LINE
  8
0
 10
30.5621
 20
79.4469
 11
30.927
 21
79.3532
  0
LINE
  8
0
 10
30.927
 20
79.3532
 11
31.2773
 21
79.2145
  0
LINE
  8
0
 10
31.2773
 20
79.2145
 11
31.6075
 21
79.033
  0
LINE
  8
0
 10
31.6075
 20
79.033
 11
31.9123
 21
78.8116
  0
LINE
  8
0
 10
31.9123
 20
78.8116
 11
32.1869
 21
78.5536
  0
LINE
  8
0
 10
32.1869
 20
78.5536
 11
32.427
 21
78.2634
  0
LINE
  8
0
 10
32.427
 20
78.2634
 11
32.6289
 21
77.9453
  0
LINE
  8
0
 10
32.6289
 20
77.9453
 11
32.7893
 21
77.6044
  0
LINE
  8
0
 10
32.7893
 20
77.6044
 11
32.9057
 21
77.2461
  0
LINE
  8
0
 10
32.9057
 20
77.2461
 11
32.9763
 21
76.876
  0
LINE
  8
0
 10
32.9763
 20
76.876
 11
33
 21
76.5
  0
LINE
  8
0
 10
33
 20
76.5
 11
32.9763
 21
76.124
  0
LINE
  8
0
 10
32.9763
 20
76.124
 11
32.9057
 21
75.7539
  0
LINE
  8
0
 10
32.9057
 20
75.7539
 11
32.7893
 21
75.3956
  0
LINE
  8
0
 10
32.7893
 20
75.3956
 11
32.6289
 21
75.0547
  0
LINE
  8
0
 10
32.6289
 20
75.0547
 11
32.427
 21
74.7366
  0
LINE
  8
0
 10
32.427
 20
74.7366
 11
32.1869
 21
74.4464
  0
LINE
  8
0
 10
32.1869
 20
74.4464
 11
31.9123
 21
74.1885
  0
LINE
  8
0
 10
31.9123
 20
74.1885
 11
31.6075
 21
73.967
  0
LINE
  8
0
 10
31.6075
 20
73.967
 11
31.2773
 21
73.7855
  0
LINE
  8
0
 10
31.2773
 20
73.7855
 11
30.927
 21
73.6468
  0
LINE
  8
0
 10
30.927
 20
73.6468
 11
30.5621
 21
73.5531
  0
LINE
  8
0
 10
30.5621
 20
73.5531
 11
30.1884
 21
73.5059
  0
LINE
  8
0
 10
30.1884
 20
73.5059
 11
29.8116
 21
73.5059
  0
LINE
  8
0
 10
-30.0942
 20
67.503
 11
-30.2811
 21
67.5266
  0
LINE
  8
0
 10
-30.2811
 20
67.5266
 11
-30.4635
 21
67.5734
  0
LINE
  8
0
 10
-30.4635
 20
67.5734
 11
-30.6387
 21
67.6428
  0
LINE
  8
0
 10
-30.6387
 20
67.6428
 11
-30.8037
 21
67.7335
  0
LINE
  8
0
 10
-30.8037
 20
67.7335
 11
-30.9561
 21
67.8442
  0
LINE
  8
0
 10
-30.9561
 20
67.8442
 11
-31.0934
 21
67.9732
  0
LINE
  8
0
 10
-31.0934
 20
67.9732
 11
-31.2135
 21
68.1183
  0
LINE
  8
0
 10
-31.2135
 20
68.1183
 11
-31.3145
 21
68.2774
  0
LINE
  8
0
 10
-31.3145
 20
68.2774
 11
-31.3947
 21
68.4478
  0
LINE
  8
0
 10
-31.3947
 20
68.4478
 11
-31.4529
 21
68.627
  0
LINE
  8
0
 10
-31.4529
 20
68.627
 11
-31.4882
 21
68.812
  0
LINE
  8
0
 10
-31.4882
 20
68.812
 11
-31.5
 21
69
  0
LINE
  8
0
 10
-31.5
 20
69
 11
-31.4882
 21
69.188
  0
LINE
  8
0
 10
-31.4882
 20
69.188
 11
-31.4529
 21
69.373
  0
LINE
  8
0
 10
-31.4529
 20
69.373
 11
-31.3947
 21
69.5522
  0
LINE
  8
0
 10
-31.3947
 20
69.5522
 11
-31.3145
 21
69.7226
  0
LINE
  8
0
 10
-31.3145
 20
69.7226
 11
-31.2135
 21
69.8817
  0
LINE
  8
0
 10
-31.2135
 20
69.8817
 11
-31.0934
 21
70.0268
  0
LINE
  8
0
 10
-31.0934
 20
70.0268
 11
-30.9561
 21
70.1558
  0
LINE
  8
0
 10
-30.9561
 20
70.1558
 11
-30.8037
 21
70.2665
  0
LINE
  8
0
 10
-30.8037
 20
70.2665
 11
-30.6387
 21
70.3573
  0
LINE
  8
0
 10
-30.6387
 20
70.3573
 11
-30.4635
 21
70.4266
  0
LINE
  8
0
 10
-30.4635
 20
70.4266
 11
-30.2811
 21
70.4734
  0
LINE
  8
0
 10
-30.2811
 20
70.4734
 11
-30.0942
 21
70.497
  0
LINE
  8
0
 10
-30.0942
 20
70.497
 11
-29.9058
 21
70.497
  0
LINE
  8
0
 10
-29.9058
 20
70.497
 11
-29.7189
 21
70.4734
  0
LINE
  8
0
 10
-29.7189
 20
70.4734
 11
-29.5365
 21
70.4266
  0
LINE
  8
0
 10
-29.5365
 20
70.4266
 11
-29.3613
 21
70.3573
  0
LINE
  8
0
 10
-29.3613
 20
70.3573
 11
-29.1963
 21
70.2665
  0
LINE
  8
0
 10
-29.1963
 20
70.2665
 11
-29.0439
 21
70.1558
  0
LINE
  8
0
 10
-29.0439
 20
70.1558
 11
-28.9065
 21
70.0268
  0
LINE
  8
0
 10
-28.9065
 20
70.0268
 11
-28.7865
 21
69.8817
  0
LINE
  8
0
 10
-28.7865
 20
69.8817
 11
-28.6855
 21
69.7226
  0
LINE
  8
0
 10
-28.6855
 20
69.7226
 11
-28.6053
 21
69.5522
  0
LINE
  8
0
 10
-28.6053
 20
69.5522
 11
-28.5471
 21
69.373
  0
LINE
  8
0
 10
-28.5471
 20
69.373
 11
-28.5118
 21
69.188
  0
LINE
  8
0
 10
-28.5118
 20
69.188
 11
-28.5
 21
69
  0
LINE
  8
0
 10
-28.5
 20
69
 11
-28.5118
 21
68.812
  0
LINE
  8
0
 10
-28.5118
 20
68.812
 11
-28.5471
 21
68.627
  0
LINE
  8
0
 10
-28.5471
 20
68.627
 11
-28.6053
 21
68.4478
  0
LINE
  8
0
 10
-28.6053
 20
68.4478
 11
-28.6855
 21
68.2774
  0
LINE
  8
0
 10
-28.6855
 20
68.2774
 11
-28.7865
 21
68.1183
  0
LINE
  8
0
 10
-28.7865
 20
68.1183
 11
-28.9065
 21
67.9732
  0
LINE
  8
0
 10
-28.9065
 20
67.9732
 11
-29.0439
 21
67.8442
  0
LINE
  8
0
 10
-29.0439
 20
67.8442
 11
-29.1963
 21
67.7335
  0
LINE
  8
0
 10
-29.1963
 20
67.7335
 11
-29.3613
 21
67.6428
  0
LINE
  8
0
 10
-29.3613
 20
67.6428
 11
-29.5365
 21
67.5734
  0
LINE
  8
0
 10
-29.5365
 20
67.5734
 11
-29.7189
 21
67.5266
  0
LINE
  8
0
 10
-29.7189
 20
67.5266
 11
-29.9058
 21
67.503
  0
LINE
  8
0
 10
-29.9058
 20
67.503
 11
-30.0942
 21
67.503
  0
LINE
  8
0
 10
29.9058
 20
67.503
 11
29.7189
 21
67.5266
  0
LINE
  8
0
 10
29.7189
 20
67.5266
 11
29.5365
 21
67.5734
  0
LINE
  8
0
 10
29.5365
 20
67.5734
 11
29.3613
 21
67.6428
  0
LINE
  8
0
 10
29.3613
 20
67.6428
 11
29.1963
 21
67.7335
  0
LINE
  8
0
 10
29.1963
 20
67.7335
 11
29.0439
 21
67.8442
  0
LINE
  8
0
 10
29.0439
 20
67.8442
 11
28.9065
 21
67.9732
  0
LINE
  8
0
 10
28.9065
 20
67.9732
 11
28.7865
 21
68.1183
  0
LINE
  8
0
 10
28.7865
 20
68.1183
 11
28.6855
 21
68.2774
  0
LINE
  8
0
 10
28.6855
 20
68.2774
 11
28.6053
 21
68.4478
  0
LINE
  8
0
 10
28.6053
 20
68.4478
 11
28.5471
 21
68.627
  0
LINE
  8
0
 10
28.5471
 20
68.627
 11
28.5118
 21
68.812
  0
LINE
  8
0
 10
28.5118
 20
68.812
 11
28.5
 21
69
  0
LINE
  8
0
 10
28.5
 20
69
 11
28.5118
 21
69.188
  0
LINE
  8
0
 10
28.5118
 20
69.188
 11
28.5471
 21
69.373
  0
LINE
  8
0
 10
28.5471
 20
69.373
 11
28.6053
 21
69.5522
  0
LINE
  8
0
 10
28.6053
 20
69.5522
 11
28.6855
 21
69.7226
  0
LINE
  8
0
 10
28.6855
 20
69.7226
 11
28.7865
 21
69.8817
  0
LINE
  8
0
 10
28.7865
 20
69.8817
 11
28.9065
 21
70.0268
  0
LINE
  8
0
 10
28.9065
 20
70.0268
 11
29.0439
 21
70.1558
  0
LINE
  8
0
 10
29.0439
 20
70.1558
 11
29.1963
 21
70.2665
  0
LINE
  8
0
 10
29.1963
 20
70.2665
 11
29.3613
 21
70.3573
  0
LINE
  8
0
 10
29.3613
 20
70.3573
 11
29.5365
 21
70.4266
  0
LINE
  8
0
 10
29.5365
 20
70.4266
 11
29.7189
 21
70.4734
  0
LINE
  8
0
 10
29.7189
 20
70.4734
 11
29.9058
 21
70.497
  0
LINE
  8
0
 10
29.9058
 20
70.497
 11
30.0942
 21
70.497
  0
LINE
  8
0
 10
30.0942
 20
70.497
 11
30.2811
 21
70.4734
  0
LINE
  8
0
 10
30.2811
 20
70.4734
 11
30.4635
 21
70.4266
  0
LINE
  8
0
 10
30.4635
 20
70.4266
 11
30.6387
 21
70.3573
  0
LINE
  8
0
 10
30.6387
 20
70.3573
 11
30.8037
 21
70.2665
  0
LINE
  8
0
 10
30.8037
 20
70.2665
 11
30.9561
 21
70.1558
  0
LINE
  8
0
 10
30.9561
 20
70.1558
 11
31.0934
 21
70.0268
  0
LINE
  8
0
 10
31.0934
 20
70.0268
 11
31.2135
 21
69.8817
  0
LINE
  8
0
 10
31.2135
 20
69.8817
 11
31.3145
 21
69.7226
  0
LINE
  8
0
 10
31.3145
 20
69.7226
 11
31.3947
 21
69.5522
  0
LINE
  8
0
 10
31.3947
 20
69.5522
 11
31.4529
 21
69.373
  0
LINE
  8
0
 10
31.4529
 20
69.373
 11
31.4882
 21
69.188
  0
LINE
  8
0
 10
31.4882
 20
69.188
 11
31.5
 21
69
  0
LINE
  8
0
 10
31.5
 20
69
 11
31.4882
 21
68.812
  0
LINE
  8
0
 10
31.4882
 20
68.812
 11
31.4529
 21
68.627
  0
LINE
  8
0
 10
31.4529
 20
68.627
 11
31.3947
 21
68.4478
  0
LINE
  8
0
 10
31.3947
 20
68.4478
 11
31.3145
 21
68.2774
  0
LINE
  8
0
 10
31.3145
 20
68.2774
 11
31.2135
 21
68.1183
  0
LINE
  8
0
 10
31.2135
 20
68.1183
 11
31.0934
 21
67.9732
  0
LINE
  8
0
 10
31.0934
 20
67.9732
 11
30.9561
 21
67.8442
  0
LINE
  8
0
 10
30.9561
 20
67.8442
 11
30.8037
 21
67.7335
  0
LINE
  8
0
 10
30.8037
 20
67.7335
 11
30.6387
 21
67.6428
  0
LINE
  8
0
 10
30.6387
 20
67.6428
 11
30.4635
 21
67.5734
  0
LINE
  8
0
 10
30.4635
 20
67.5734
 11
30.2811
 21
67.5266
  0
LINE
  8
0
 10
30.2811
 20
67.5266
 11
30.0942
 21
67.503
  0
LINE
  8
0
 10
30.0942
 20
67.503
 11
29.9058
 21
67.503
  0
LINE
  8
0
 10
29.8116
 20
58.5059
 11
29.4379
 21
58.5531
  0
LINE
  8
0
 10
29.4379
 20
58.5531
 11
29.0729
 21
58.6468
  0
LINE
  8
0
 10
29.0729
 20
58.6468
 11
28.7227
 21
58.7855
  0
LINE
  8
0
 10
28.7227
 20
58.7855
 11
28.3925
 21
58.967
  0
LINE
  8
0
 10
28.3925
 20
58.967
 11
28.0877
 21
59.1885
  0
LINE
  8
0
 10
28.0877
 20
59.1885
 11
27.8131
 21
59.4464
  0
LINE
  8
0
 10
27.8131
 20
59.4464
 11
27.5729
 21
59.7366
  0
LINE
  8
0
 10
27.5729
 20
59.7366
 11
27.3711
 21
60.0547
  0
LINE
  8
0
 10
27.3711
 20
60.0547
 11
27.2107
 21
60.3956
  0
LINE
  8
0
 10
27.2107
 20
60.3956
 11
27.0942
 21
60.7539
  0
LINE
  8
0
 10
27.0942
 20
60.7539
 11
27.0237
 21
61.124
  0
LINE
  8
0
 10
27.0237
 20
61.124
 11
27
 21
61.5
  0
LINE
  8
0
 10
27
 20
61.5
 11
27.0237
 21
61.876
  0
LINE
  8
0
 10
27.0237
 20
61.876
 11
27.0942
 21
62.2461
  0
LINE
  8
0
 10
27.0942
 20
62.2461
 11
27.2107
 21
62.6044
  0
LINE
  8
0
 10
27.2107
 20
62.6044
 11
27.3711
 21
62.9453
  0
LINE
  8
0
 10
27.3711
 20
62.9453
 11
27.5729
 21
63.2634
  0
LINE
  8
0
 10
27.5729
 20
63.2634
 11
27.8131
 21
63.5536
  0
LINE
  8
0
 10
27.8131
 20
63.5536
 11
28.0877
 21
63.8115
  0
LINE
  8
0
 10
28.0877
 20
63.8115
 11
28.3925
 21
64.033
  0
LINE
  8
0
 10
28.3925
 20
64.033
 11
28.7227
 21
64.2145
  0
LINE
  8
0
 10
28.7227
 20
64.2145
 11
29.0729
 21
64.3532
  0
LINE
  8
0
 10
29.0729
 20
64.3532
 11
29.4379
 21
64.4469
  0
LINE
  8
0
 10
29.4379
 20
64.4469
 11
29.8116
 21
64.4941
  0
LINE
  8
0
 10
29.8116
 20
64.4941
 11
30.1884
 21
64.4941
  0
LINE
  8
0
 10
30.1884
 20
64.4941
 11
30.5621
 21
64.4469
  0
LINE
  8
0
 10
30.5621
 20
64.4469
 11
30.927
 21
64.3532
  0
LINE
  8
0
 10
30.927
 20
64.3532
 11
31.2773
 21
64.2145
  0
LINE
  8
0
 10
31.2773
 20
64.2145
 11
31.6075
 21
64.033
  0
LINE
  8
0
 10
31.6075
 20
64.033
 11
31.9123
 21
63.8115
  0
LINE
  8
0
 10
31.9123
 20
63.8115
 11
32.1869
 21
63.5536
  0
LINE
  8
0
 10
32.1869
 20
63.5536
 11
32.427
 21
63.2634
  0
LINE
  8
0
 10
32.427
 20
63.2634
 11
32.6289
 21
62.9453
  0
LINE
  8
0
 10
32.6289
 20
62.9453
 11
32.7893
 21
62.6044
  0
LINE
  8
0
 10
32.7893
 20
62.6044
 11
32.9057
 21
62.2461
  0
LINE
  8
0
 10
32.9057
 20
62.2461
 11
32.9763
 21
61.876
  0
LINE
  8
0
 10
32.9763
 20
61.876
 11
33
 21
61.5
  0
LINE
  8
0
 10
33
 20
61.5
 11
32.9763
 21
61.124
  0
LINE
  8
0
 10
32.9763
 20
61.124
 11
32.9057
 21
60.7539
  0
LINE
  8
0
 10
32.9057
 20
60.7539
 11
32.7893
 21
60.3956
  0
LINE
  8
0
 10
32.7893
 20
60.3956
 11
32.6289
 21
60.0547
  0
LINE
  8
0
 10
32.6289
 20
60.0547
 11
32.427
 21
59.7366
  0
LINE
  8
0
 10
32.427
 20
59.7366
 11
32.1869
 21
59.4464
  0
LINE
  8
0
 10
32.1869
 20
59.4464
 11
31.9123
 21
59.1885
  0
LINE
  8
0
 10
31.9123
 20
59.1885
 11
31.6075
 21
58.967
  0
LINE
  8
0
 10
31.6075
 20
58.967
 11
31.2773
 21
58.7855
  0
LINE
  8
0
 10
31.2773
 20
58.7855
 11
30.927
 21
58.6468
  0
LINE
  8
0
 10
30.927
 20
58.6468
 11
30.5621
 21
58.5531
  0
LINE
  8
0
 10
30.5621
 20
58.5531
 11
30.1884
 21
58.5059
  0
LINE
  8
0
 10
30.1884
 20
58.5059
 11
29.8116
 21
58.5059
  0
LINE
  8
0
 10
-30.1884
 20
58.5059
 11
-30.5621
 21
58.5531
  0
LINE
  8
0
 10
-30.5621
 20
58.5531
 11
-30.927
 21
58.6468
  0
LINE
  8
0
 10
-30.927
 20
58.6468
 11
-31.2773
 21
58.7855
  0
LINE
  8
0
 10
-31.2773
 20
58.7855
 11
-31.6075
 21
58.967
  0
LINE
  8
0
 10
-31.6075
 20
58.967
 11
-31.9123
 21
59.1885
  0
LINE
  8
0
 10
-31.9123
 20
59.1885
 11
-32.1869
 21
59.4464
  0
LINE
  8
0
 10
-32.1869
 20
59.4464
 11
-32.427
 21
59.7366
  0
LINE
  8
0
 10
-32.427
 20
59.7366
 11
-32.6289
 21
60.0547
  0
LINE
  8
0
 10
-32.6289
 20
60.0547
 11
-32.7893
 21
60.3956
  0
LINE
  8
0
 10
-32.7893
 20
60.3956
 11
-32.9057
 21
60.7539
  0
LINE
  8
0
 10
-32.9057
 20
60.7539
 11
-32.9763
 21
61.124
  0
LINE
  8
0
 10
-32.9763
 20
61.124
 11
-33
 21
61.5
  0
LINE
  8
0
 10
-33
 20
61.5
 11
-32.9763
 21
61.876
  0
LINE
  8
0
 10
-32.9763
 20
61.876
 11
-32.9057
 21
62.2461
  0
LINE
  8
0
 10
-32.9057
 20
62.2461
 11
-32.7893
 21
62.6044
  0
LINE
  8
0
 10
-32.7893
 20
62.6044
 11
-32.6289
 21
62.9453
  0
LINE
  8
0
 10
-32.6289
 20
62.9453
 11
-32.427
 21
63.2634
  0
LINE
  8
0
 10
-32.427
 20
63.2634
 11
-32.1869
 21
63.5536
  0
LINE
  8
0
 10
-32.1869
 20
63.5536
 11
-31.9123
 21
63.8115
  0
LINE
  8
0
 10
-31.9123
 20
63.8115
 11
-31.6075
 21
64.033
  0
LINE
  8
0
 10
-31.6075
 20
64.033
 11
-31.2773
 21
64.2145
  0
LINE
  8
0
 10
-31.2773
 20
64.2145
 11
-30.927
 21
64.3532
  0
LINE
  8
0
 10
-30.927
 20
64.3532
 11
-30.5621
 21
64.4469
  0
LINE
  8
0
 10
-30.5621
 20
64.4469
 11
-30.1884
 21
64.4941
  0
LINE
  8
0
 10
-30.1884
 20
64.4941
 11
-29.8116
 21
64.4941
  0
LINE
  8
0
 10
-29.8116
 20
64.4941
 11
-29.4379
 21
64.4469
  0
LINE
  8
0
 10
-29.4379
 20
64.4469
 11
-29.0729
 21
64.3532
  0
LINE
  8
0
 10
-29.0729
 20
64.3532
 11
-28.7227
 21
64.2145
  0
LINE
  8
0
 10
-28.7227
 20
64.2145
 11
-28.3925
 21
64.033
  0
LINE
  8
0
 10
-28.3925
 20
64.033
 11
-28.0877
 21
63.8115
  0
LINE
  8
0
 10
-28.0877
 20
63.8115
 11
-27.8131
 21
63.5536
  0
LINE
  8
0
 10
-27.8131
 20
63.5536
 11
-27.5729
 21
63.2634
  0
LINE
  8
0
 10
-27.5729
 20
63.2634
 11
-27.3711
 21
62.9453
  0
LINE
  8
0
 10
-27.3711
 20
62.9453
 11
-27.2107
 21
62.6044
  0
LINE
  8
0
 10
-27.2107
 20
62.6044
 11
-27.0942
 21
62.2461
  0
LINE
  8
0
 10
-27.0942
 20
62.2461
 11
-27.0237
 21
61.876
  0
LINE
  8
0
 10
-27.0237
 20
61.876
 11
-27
 21
61.5
  0
LINE
  8
0
 10
-27
 20
61.5
 11
-27.0237
 21
61.124
  0
LINE
  8
0
 10
-27.0237
 20
61.124
 11
-27.0942
 21
60.7539
  0
LINE
  8
0
 10
-27.0942
 20
60.7539
 11
-27.2107
 21
60.3956
  0
LINE
  8
0
 10
-27.2107
 20
60.3956
 11
-27.3711
 21
60.0547
  0
LINE
  8
0
 10
-27.3711
 20
60.0547
 11
-27.5729
 21
59.7366
  0
LINE
  8
0
 10
-27.5729
 20
59.7366
 11
-27.8131
 21
59.4464
  0
LINE
  8
0
 10
-27.8131
 20
59.4464
 11
-28.0877
 21
59.1885
  0
LINE
  8
0
 10
-28.0877
 20
59.1885
 11
-28.3925
 21
58.967
  0
LINE
  8
0
 10
-28.3925
 20
58.967
 11
-28.7227
 21
58.7855
  0
LINE
  8
0
 10
-28.7227
 20
58.7855
 11
-29.0729
 21
58.6468
  0
LINE
  8
0
 10
-29.0729
 20
58.6468
 11
-29.4379
 21
58.5531
  0
LINE
  8
0
 10
-29.4379
 20
58.5531
 11
-29.8116
 21
58.5059
  0
LINE
  8
0
 10
-29.8116
 20
58.5059
 11
-30.1884
 21
58.5059
  0
LINE
  8
0
 10
14.8116
 20
58.5059
 11
14.4379
 21
58.5531
  0
LINE
  8
0
 10
14.4379
 20
58.5531
 11
14.0729
 21
58.6468
  0
LINE
  8
0
 10
14.0729
 20
58.6468
 11
13.7227
 21
58.7855
  0
LINE
  8
0
 10
13.7227
 20
58.7855
 11
13.3925
 21
58.967
  0
LINE
  8
0
 10
13.3925
 20
58.967
 11
13.0877
 21
59.1885
  0
LINE
  8
0
 10
13.0877
 20
59.1885
 11
12.8131
 21
59.4464
  0
LINE
  8
0
 10
12.8131
 20
59.4464
 11
12.5729
 21
59.7366
  0
LINE
  8
0
 10
12.5729
 20
59.7366
 11
12.3711
 21
60.0547
  0
LINE
  8
0
 10
12.3711
 20
60.0547
 11
12.2107
 21
60.3956
  0
LINE
  8
0
 10
12.2107
 20
60.3956
 11
12.0942
 21
60.7539
  0
LINE
  8
0
 10
12.0942
 20
60.7539
 11
12.0237
 21
61.124
  0
LINE
  8
0
 10
12.0237
 20
61.124
 11
12
 21
61.5
  0
LINE
  8
0
 10
12
 20
61.5
 11
12.0237
 21
61.876
  0
LINE
  8
0
 10
12.0237
 20
61.876
 11
12.0942
 21
62.2461
  0
LINE
  8
0
 10
12.0942
 20
62.2461
 11
12.2107
 21
62.6044
  0
LINE
  8
0
 10
12.2107
 20
62.6044
 11
12.3711
 21
62.9453
  0
LINE
  8
0
 10
12.3711
 20
62.9453
 11
12.5729
 21
63.2634
  0
LINE
  8
0
 10
12.5729
 20
63.2634
 11
12.8131
 21
63.5536
  0
LINE
  8
0
 10
12.8131
 20
63.5536
 11
13.0877
 21
63.8115
  0
LINE
  8
0
 10
13.0877
 20
63.8115
 11
13.3925
 21
64.033
  0
LINE
  8
0
 10
13.3925
 20
64.033
 11
13.7227
 21
64.2145
  0
LINE
  8
0
 10
13.7227
 20
64.2145
 11
14.0729
 21
64.3532
  0
LINE
  8
0
 10
14.0729
 20
64.3532
 11
14.4379
 21
64.4469
  0
LINE
  8
0
 10
14.4379
 20
64.4469
 11
14.8116
 21
64.4941
  0
LINE
  8
0
 10
14.8116
 20
64.4941
 11
15.1884
 21
64.4941
  0
LINE
  8
0
 10
15.1884
 20
64.4941
 11
15.5621
 21
64.4469
  0
LINE
  8
0
 10
15.5621
 20
64.4469
 11
15.927
 21
64.3532
  0
LINE
  8
0
 10
15.927
 20
64.3532
 11
16.2773
 21
64.2145
  0
LINE
  8
0
 10
16.2773
 20
64.2145
 11
16.6075
 21
64.033
  0
LINE
  8
0
 10
16.6075
 20
64.033
 11
16.9123
 21
63.8115
  0
LINE
  8
0
 10
16.9123
 20
63.8115
 11
17.1869
 21
63.5536
  0
LINE
  8
0
 10
17.1869
 20
63.5536
 11
17.427
 21
63.2634
  0
LINE
  8
0
 10
17.427
 20
63.2634
 11
17.6289
 21
62.9453
  0
LINE
  8
0
 10
17.6289
 20
62.9453
 11
17.7893
 21
62.6044
  0
LINE
  8
0
 10
17.7893
 20
62.6044
 11
17.9057
 21
62.2461
  0
LINE
  8
0
 10
17.9057
 20
62.2461
 11
17.9763
 21
61.876
  0
LINE
  8
0
 10
17.9763
 20
61.876
 11
18
 21
61.5
  0
LINE
  8
0
 10
18
 20
61.5
 11
17.9763
 21
61.124
  0
LINE
  8
0
 10
17.9763
 20
61.124
 11
17.9057
 21
60.7539
  0
LINE
  8
0
 10
17.9057
 20
60.7539
 11
17.7893
 21
60.3956
  0
LINE
  8
0
 10
17.7893
 20
60.3956
 11
17.6289
 21
60.0547
  0
LINE
  8
0
 10
17.6289
 20
60.0547
 11
17.427
 21
59.7366
  0
LINE
  8
0
 10
17.427
 20
59.7366
 11
17.1869
 21
59.4464
  0
LINE
  8
0
 10
17.1869
 20
59.4464
 11
16.9123
 21
59.1885
  0
LINE
  8
0
 10
16.9123
 20
59.1885
 11
16.6075
 21
58.967
  0
LINE
  8
0
 10
16.6075
 20
58.967
 11
16.2773
 21
58.7855
  0
LINE
  8
0
 10
16.2773
 20
58.7855
 11
15.927
 21
58.6468
  0
LINE
  8
0
 10
15.927
 20
58.6468
 11
15.5621
 21
58.5531
  0
LINE
  8
0
 10
15.5621
 20
58.5531
 11
15.1884
 21
58.5059
  0
LINE
  8
0
 10
15.1884
 20
58.5059
 11
14.8116
 21
58.5059
  0
LINE
  8
0
 10
-0.18837
 20
58.5059
 11
-0.562134
 21
58.5531
  0
LINE
  8
0
 10
-0.562134
 20
58.5531
 11
-0.927048
 21
58.6468
  0
LINE
  8
0
 10
-0.927048
 20
58.6468
 11
-1.27733
 21
58.7855
  0
LINE
  8
0
 10
-1.27733
 20
58.7855
 11
-1.60747
 21
58.967
  0
LINE
  8
0
 10
-1.60747
 20
58.967
 11
-1.91226
 21
59.1885
  0
LINE
  8
0
 10
-1.91226
 20
59.1885
 11
-2.1869
 21
59.4464
  0
LINE
  8
0
 10
-2.1869
 20
59.4464
 11
-2.42705
 21
59.7366
  0
LINE
  8
0
 10
-2.42705
 20
59.7366
 11
-2.62891
 21
60.0547
  0
LINE
  8
0
 10
-2.62891
 20
60.0547
 11
-2.78932
 21
60.3956
  0
LINE
  8
0
 10
-2.78932
 20
60.3956
 11
-2.90575
 21
60.7539
  0
LINE
  8
0
 10
-2.90575
 20
60.7539
 11
-2.97633
 21
61.124
  0
LINE
  8
0
 10
-2.97633
 20
61.124
 11
-3
 21
61.5
  0
LINE
  8
0
 10
-3
 20
61.5
 11
-2.97633
 21
61.876
  0
LINE
  8
0
 10
-2.97633
 20
61.876
 11
-2.90575
 21
62.2461
  0
LINE
  8
0
 10
-2.90575
 20
62.2461
 11
-2.78932
 21
62.6044
  0
LINE
  8
0
 10
-2.78932
 20
62.6044
 11
-2.62891
 21
62.9453
  0
LINE
  8
0
 10
-2.62891
 20
62.9453
 11
-2.42705
 21
63.2634
  0
LINE
  8
0
 10
-2.42705
 20
63.2634
 11
-2.1869
 21
63.5536
  0
LINE
  8
0
 10
-2.1869
 20
63.5536
 11
-1.91226
 21
63.8115
  0
LINE
  8
0
 10
-1.91226
 20
63.8115
 11
-1.60747
 21
64.033
  0
LINE
  8
0
 10
-1.60747
 20
64.033
 11
-1.27733
 21
64.2145
  0
LINE
  8
0
 10
-1.27733
 20
64.2145
 11
-0.927048
 21
64.3532
  0
LINE
  8
0
 10
-0.927048
 20
64.3532
 11
-0.562134
 21
64.4469
  0
LINE
  8
0
 10
-0.562134
 20
64.4469
 11
-0.18837
 21
64.4941
  0
LINE
  8
0
 10
-0.18837
 20
64.4941
 11
0.18837
 21
64.4941
  0
LINE
  8
0
 10
0.18837
 20
64.4941
 11
0.562134
 21
64.4469
  0
LINE
  8
0
 10
0.562134
 20
64.4469
 11
0.927048
 21
64.3532
  0
LINE
  8
0
 10
0.927048
 20
64.3532
 11
1.27733
 21
64.2145
  0
LINE
  8
0
 10
1.27733
 20
64.2145
 11
1.60747
 21
64.033
  0
LINE
  8
0
 10
1.60747
 20
64.033
 11
1.91226
 21
63.8115
  0
LINE
  8
0
 10
1.91226
 20
63.8115
 11
2.1869
 21
63.5536
  0
LINE
  8
0
 10
2.1869
 20
63.5536
 11
2.42705
 21
63.2634
  0
LINE
  8
0
 10
2.42705
 20
63.2634
 11
2.62891
 21
62.9453
  0
LINE
  8
0
 10
2.62891
 20
62.9453
 11
2.78932
 21
62.6044
  0
LINE
  8
0
 10
2.78932
 20
62.6044
 11
2.90575
 21
62.2461
  0
LINE
  8
0
 10
2.90575
 20
62.2461
 11
2.97633
 21
61.876
  0
LINE
  8
0
 10
2.97633
 20
61.876
 11
3
 21
61.5
  0
LINE
  8
0
 10
3
 20
61.5
 11
2.97633
 21
61.124
  0
LINE
  8
0
 10
2.97633
 20
61.124
 11
2.90575
 21
60.7539
  0
LINE
  8
0
 10
2.90575
 20
60.7539
 11
2.78932
 21
60.3956
  0
LINE
  8
0
 10
2.78932
 20
60.3956
 11
2.62891
 21
60.0547
  0
LINE
  8
0
 10
2.62891
 20
60.0547
 11
2.42705
 21
59.7366
  0
LINE
  8
0
 10
2.42705
 20
59.7366
 11
2.1869
 21
59.4464
  0
LINE
  8
0
 10
2.1869
 20
59.4464
 11
1.91226
 21
59.1885
  0
LINE
  8
0
 10
1.91226
 20
59.1885
 11
1.60747
 21
58.967
  0
LINE
  8
0
 10
1.60747
 20
58.967
 11
1.27733
 21
58.7855
  0
LINE
  8
0
 10
1.27733
 20
58.7855
 11
0.927048
 21
58.6468
  0
LINE
  8
0
 10
0.927048
 20
58.6468
 11
0.562134
 21
58.5531
  0
LINE
  8
0
 10
0.562134
 20
58.5531
 11
0.18837
 21
58.5059
  0
LINE
  8
0
 10
0.18837
 20
58.5059
 11
-0.18837
 21
58.5059
  0
LINE
  8
0
 10
-15.1884
 20
58.5059
 11
-15.5621
 21
58.5531
  0
LINE
  8
0
 10
-15.5621
 20
58.5531
 11
-15.927
 21
58.6468
  0
LINE
  8
0
 10
-15.927
 20
58.6468
 11
-16.2773
 21
58.7855
  0
LINE
  8
0
 10
-16.2773
 20
58.7855
 11
-16.6075
 21
58.967
  0
LINE
  8
0
 10
-16.6075
 20
58.967
 11
-16.9123
 21
59.1885
  0
LINE
  8
0
 10
-16.9123
 20
59.1885
 11
-17.1869
 21
59.4464
  0
LINE
  8
0
 10
-17.1869
 20
59.4464
 11
-17.427
 21
59.7366
  0
LINE
  8
0
 10
-17.427
 20
59.7366
 11
-17.6289
 21
60.0547
  0
LINE
  8
0
 10
-17.6289
 20
60.0547
 11
-17.7893
 21
60.3956
  0
LINE
  8
0
 10
-17.7893
 20
60.3956
 11
-17.9057
 21
60.7539
  0
LINE
  8
0
 10
-17.9057
 20
60.7539
 11
-17.9763
 21
61.124
  0
LINE
  8
0
 10
-17.9763
 20
61.124
 11
-18
 21
61.5
  0
LINE
  8
0
 10
-18
 20
61.5
 11
-17.9763
 21
61.876
  0
LINE
  8
0
 10
-17.9763
 20
61.876
 11
-17.9057
 21
62.2461
  0
LINE
  8
0
 10
-17.9057
 20
62.2461
 11
-17.7893
 21
62.6044
  0
LINE
  8
0
 10
-17.7893
 20
62.6044
 11
-17.6289
 21
62.9453
  0
LINE
  8
0
 10
-17.6289
 20
62.9453
 11
-17.427
 21
63.2634
  0
LINE
  8
0
 10
-17.427
 20
63.2634
 11
-17.1869
 21
63.5536
  0
LINE
  8
0
 10
-17.1869
 20
63.5536
 11
-16.9123
 21
63.8115
  0
LINE
  8
0
 10
-16.9123
 20
63.8115
 11
-16.6075
 21
64.033
  0
LINE
  8
0
 10
-16.6075
 20
64.033
 11
-16.2773
 21
64.2145
  0
LINE
  8
0
 10
-16.2773
 20
64.2145
 11
-15.927
 21
64.3532
  0
LINE
  8
0
 10
-15.927
 20
64.3532
 11
-15.5621
 21
64.4469
  0
LINE
  8
0
 10
-15.5621
 20
64.4469
 11
-15.1884
 21
64.4941
  0
LINE
  8
0
 10
-15.1884
 20
64.4941
 11
-14.8116
 21
64.4941
  0
LINE
  8
0
 10
-14.8116
 20
64.4941
 11
-14.4379
 21
64.4469
  0
LINE
  8
0
 10
-14.4379
 20
64.4469
 11
-14.0729
 21
64.3532
  0
LINE
  8
0
 10
-14.0729
 20
64.3532
 11
-13.7227
 21
64.2145
  0
LINE
  8
0
 10
-13.7227
 20
64.2145
 11
-13.3925
 21
64.033
  0
LINE
  8
0
 10
-13.3925
 20
64.033
 11
-13.0877
 21
63.8115
  0
LINE
  8
0
 10
-13.0877
 20
63.8115
 11
-12.8131
 21
63.5536
  0
LINE
  8
0
 10
-12.8131
 20
63.5536
 11
-12.5729
 21
63.2634
  0
LINE
  8
0
 10
-12.5729
 20
63.2634
 11
-12.3711
 21
62.9453
  0
LINE
  8
0
 10
-12.3711
 20
62.9453
 11
-12.2107
 21
62.6044
  0
LINE
  8
0
 10
-12.2107
 20
62.6044
 11
-12.0942
 21
62.2461
  0
LINE
  8
0
 10
-12.0942
 20
62.2461
 11
-12.0237
 21
61.876
  0
LINE
  8
0
 10
-12.0237
 20
61.876
 11
-12
 21
61.5
  0
LINE
  8
0
 10
-12
 20
61.5
 11
-12.0237
 21
61.124
  0
LINE
  8
0
 10
-12.0237
 20
61.124
 11
-12.0942
 21
60.7539
  0
LINE
  8
0
 10
-12.0942
 20
60.7539
 11
-12.2107
 21
60.3956
  0
LINE
  8
0
 10
-12.2107
 20
60.3956
 11
-12.3711
 21
60.0547
  0
LINE
  8
0
 10
-12.3711
 20
60.0547
 11
-12.5729
 21
59.7366
  0
LINE
  8
0
 10
-12.5729
 20
59.7366
 11
-12.8131
 21
59.4464
  0
LINE
  8
0
 10
-12.8131
 20
59.4464
 11
-13.0877
 21
59.1885
  0
LINE
  8
0
 10
-13.0877
 20
59.1885
 11
-13.3925
 21
58.967
  0
LINE
  8
0
 10
-13.3925
 20
58.967
 11
-13.7227
 21
58.7855
  0
LINE
  8
0
 10
-13.7227
 20
58.7855
 11
-14.0729
 21
58.6468
  0
LINE
  8
0
 10
-14.0729
 20
58.6468
 11
-14.4379
 21
58.5531
  0
LINE
  8
0
 10
-14.4379
 20
58.5531
 11
-14.8116
 21
58.5059
  0
LINE
  8
0
 10
-14.8116
 20
58.5059
 11
-15.1884
 21
58.5059
  0
LINE
  8
0
 10
-22.5942
 20
60.003
 11
-22.7811
 21
60.0266
  0
LINE
  8
0
 10
-22.7811
 20
60.0266
 11
-22.9635
 21
60.0734
  0
LINE
  8
0
 10
-22.9635
 20
60.0734
 11
-23.1387
 21
60.1428
  0
LINE
  8
0
 10
-23.1387
 20
60.1428
 11
-23.3037
 21
60.2335
  0
LINE
  8
0
 10
-23.3037
 20
60.2335
 11
-23.4561
 21
60.3442
  0
LINE
  8
0
 10
-23.4561
 20
60.3442
 11
-23.5934
 21
60.4732
  0
LINE
  8
0
 10
-23.5934
 20
60.4732
 11
-23.7135
 21
60.6183
  0
LINE
  8
0
 10
-23.7135
 20
60.6183
 11
-23.8145
 21
60.7774
  0
LINE
  8
0
 10
-23.8145
 20
60.7774
 11
-23.8947
 21
60.9478
  0
LINE
  8
0
 10
-23.8947
 20
60.9478
 11
-23.9529
 21
61.127
  0
LINE
  8
0
 10
-23.9529
 20
61.127
 11
-23.9882
 21
61.312
  0
LINE
  8
0
 10
-23.9882
 20
61.312
 11
-24
 21
61.5
  0
LINE
  8
0
 10
-24
 20
61.5
 11
-23.9882
 21
61.688
  0
LINE
  8
0
 10
-23.9882
 20
61.688
 11
-23.9529
 21
61.873
  0
LINE
  8
0
 10
-23.9529
 20
61.873
 11
-23.8947
 21
62.0522
  0
LINE
  8
0
 10
-23.8947
 20
62.0522
 11
-23.8145
 21
62.2226
  0
LINE
  8
0
 10
-23.8145
 20
62.2226
 11
-23.7135
 21
62.3817
  0
LINE
  8
0
 10
-23.7135
 20
62.3817
 11
-23.5934
 21
62.5268
  0
LINE
  8
0
 10
-23.5934
 20
62.5268
 11
-23.4561
 21
62.6558
  0
LINE
  8
0
 10
-23.4561
 20
62.6558
 11
-23.3037
 21
62.7665
  0
LINE
  8
0
 10
-23.3037
 20
62.7665
 11
-23.1387
 21
62.8572
  0
LINE
  8
0
 10
-23.1387
 20
62.8572
 11
-22.9635
 21
62.9266
  0
LINE
  8
0
 10
-22.9635
 20
62.9266
 11
-22.7811
 21
62.9734
  0
LINE
  8
0
 10
-22.7811
 20
62.9734
 11
-22.5942
 21
62.997
  0
LINE
  8
0
 10
-22.5942
 20
62.997
 11
-22.4058
 21
62.997
  0
LINE
  8
0
 10
-22.4058
 20
62.997
 11
-22.2189
 21
62.9734
  0
LINE
  8
0
 10
-22.2189
 20
62.9734
 11
-22.0365
 21
62.9266
  0
LINE
  8
0
 10
-22.0365
 20
62.9266
 11
-21.8613
 21
62.8572
  0
LINE
  8
0
 10
-21.8613
 20
62.8572
 11
-21.6963
 21
62.7665
  0
LINE
  8
0
 10
-21.6963
 20
62.7665
 11
-21.5439
 21
62.6558
  0
LINE
  8
0
 10
-21.5439
 20
62.6558
 11
-21.4065
 21
62.5268
  0
LINE
  8
0
 10
-21.4065
 20
62.5268
 11
-21.2865
 21
62.3817
  0
LINE
  8
0
 10
-21.2865
 20
62.3817
 11
-21.1855
 21
62.2226
  0
LINE
  8
0
 10
-21.1855
 20
62.2226
 11
-21.1053
 21
62.0522
  0
LINE
  8
0
 10
-21.1053
 20
62.0522
 11
-21.0471
 21
61.873
  0
LINE
  8
0
 10
-21.0471
 20
61.873
 11
-21.0118
 21
61.688
  0
LINE
  8
0
 10
-21.0118
 20
61.688
 11
-21
 21
61.5
  0
LINE
  8
0
 10
-21
 20
61.5
 11
-21.0118
 21
61.312
  0
LINE
  8
0
 10
-21.0118
 20
61.312
 11
-21.0471
 21
61.127
  0
LINE
  8
0
 10
-21.0471
 20
61.127
 11
-21.1053
 21
60.9478
  0
LINE
  8
0
 10
-21.1053
 20
60.9478
 11
-21.1855
 21
60.7774
  0
LINE
  8
0
 10
-21.1855
 20
60.7774
 11
-21.2865
 21
60.6183
  0
LINE
  8
0
 10
-21.2865
 20
60.6183
 11
-21.4065
 21
60.4732
  0
LINE
  8
0
 10
-21.4065
 20
60.4732
 11
-21.5439
 21
60.3442
  0
LINE
  8
0
 10
-21.5439
 20
60.3442
 11
-21.6963
 21
60.2335
  0
LINE
  8
0
 10
-21.6963
 20
60.2335
 11
-21.8613
 21
60.1428
  0
LINE
  8
0
 10
-21.8613
 20
60.1428
 11
-22.0365
 21
60.0734
  0
LINE
  8
0
 10
-22.0365
 20
60.0734
 11
-22.2189
 21
60.0266
  0
LINE
  8
0
 10
-22.2189
 20
60.0266
 11
-22.4058
 21
60.003
  0
LINE
  8
0
 10
-22.4058
 20
60.003
 11
-22.5942
 21
60.003
  0
LINE
  8
0
 10
7.40581
 20
60.003
 11
7.21892
 21
60.0266
  0
LINE
  8
0
 10
7.21892
 20
60.0266
 11
7.03647
 21
60.0734
  0
LINE
  8
0
 10
7.03647
 20
60.0734
 11
6.86133
 21
60.1428
  0
LINE
  8
0
 10
6.86133
 20
60.1428
 11
6.69626
 21
60.2335
  0
LINE
  8
0
 10
6.69626
 20
60.2335
 11
6.54385
 21
60.3442
  0
LINE
  8
0
 10
6.54385
 20
60.3442
 11
6.40654
 21
60.4732
  0
LINE
  8
0
 10
6.40654
 20
60.4732
 11
6.28647
 21
60.6183
  0
LINE
  8
0
 10
6.28647
 20
60.6183
 11
6.18553
 21
60.7774
  0
LINE
  8
0
 10
6.18553
 20
60.7774
 11
6.10533
 21
60.9478
  0
LINE
  8
0
 10
6.10533
 20
60.9478
 11
6.04712
 21
61.127
  0
LINE
  8
0
 10
6.04712
 20
61.127
 11
6.01183
 21
61.312
  0
LINE
  8
0
 10
6.01183
 20
61.312
 11
6
 21
61.5
  0
LINE
  8
0
 10
6
 20
61.5
 11
6.01183
 21
61.688
  0
LINE
  8
0
 10
6.01183
 20
61.688
 11
6.04712
 21
61.873
  0
LINE
  8
0
 10
6.04712
 20
61.873
 11
6.10533
 21
62.0522
  0
LINE
  8
0
 10
6.10533
 20
62.0522
 11
6.18553
 21
62.2226
  0
LINE
  8
0
 10
6.18553
 20
62.2226
 11
6.28647
 21
62.3817
  0
LINE
  8
0
 10
6.28647
 20
62.3817
 11
6.40654
 21
62.5268
  0
LINE
  8
0
 10
6.40654
 20
62.5268
 11
6.54385
 21
62.6558
  0
LINE
  8
0
 10
6.54385
 20
62.6558
 11
6.69626
 21
62.7665
  0
LINE
  8
0
 10
6.69626
 20
62.7665
 11
6.86133
 21
62.8572
  0
LINE
  8
0
 10
6.86133
 20
62.8572
 11
7.03647
 21
62.9266
  0
LINE
  8
0
 10
7.03647
 20
62.9266
 11
7.21892
 21
62.9734
  0
LINE
  8
0
 10
7.21892
 20
62.9734
 11
7.40581
 21
62.997
  0
LINE
  8
0
 10
7.40581
 20
62.997
 11
7.59418
 21
62.997
  0
LINE
  8
0
 10
7.59418
 20
62.997
 11
7.78107
 21
62.9734
  0
LINE
  8
0
 10
7.78107
 20
62.9734
 11
7.96352
 21
62.9266
  0
LINE
  8
0
 10
7.96352
 20
62.9266
 11
8.13866
 21
62.8572
  0
LINE
  8
0
 10
8.13866
 20
62.8572
 11
8.30373
 21
62.7665
  0
LINE
  8
0
 10
8.30373
 20
62.7665
 11
8.45613
 21
62.6558
  0
LINE
  8
0
 10
8.45613
 20
62.6558
 11
8.59344
 21
62.5268
  0
LINE
  8
0
 10
8.59344
 20
62.5268
 11
8.71352
 21
62.3817
  0
LINE
  8
0
 10
8.71352
 20
62.3817
 11
8.81445
 21
62.2226
  0
LINE
  8
0
 10
8.81445
 20
62.2226
 11
8.89465
 21
62.0522
  0
LINE
  8
0
 10
8.89465
 20
62.0522
 11
8.95287
 21
61.873
  0
LINE
  8
0
 10
8.95287
 20
61.873
 11
8.98816
 21
61.688
  0
LINE
  8
0
 10
8.98816
 20
61.688
 11
9
 21
61.5
  0
LINE
  8
0
 10
9
 20
61.5
 11
8.98816
 21
61.312
  0
LINE
  8
0
 10
8.98816
 20
61.312
 11
8.95287
 21
61.127
  0
LINE
  8
0
 10
8.95287
 20
61.127
 11
8.89465
 21
60.9478
  0
LINE
  8
0
 10
8.89465
 20
60.9478
 11
8.81445
 21
60.7774
  0
LINE
  8
0
 10
8.81445
 20
60.7774
 11
8.71352
 21
60.6183
  0
LINE
  8
0
 10
8.71352
 20
60.6183
 11
8.59344
 21
60.4732
  0
LINE
  8
0
 10
8.59344
 20
60.4732
 11
8.45613
 21
60.3442
  0
LINE
  8
0
 10
8.45613
 20
60.3442
 11
8.30373
 21
60.2335
  0
LINE
  8
0
 10
8.30373
 20
60.2335
 11
8.13866
 21
60.1428
  0
LINE
  8
0
 10
8.13866
 20
60.1428
 11
7.96352
 21
60.0734
  0
LINE
  8
0
 10
7.96352
 20
60.0734
 11
7.78107
 21
60.0266
  0
LINE
  8
0
 10
7.78107
 20
60.0266
 11
7.59418
 21
60.003
  0
LINE
  8
0
 10
7.59418
 20
60.003
 11
7.40581
 21
60.003
  0
LINE
  8
0
 10
22.4058
 20
60.003
 11
22.2189
 21
60.0266
  0
LINE
  8
0
 10
22.2189
 20
60.0266
 11
22.0365
 21
60.0734
  0
LINE
  8
0
 10
22.0365
 20
60.0734
 11
21.8613
 21
60.1428
  0
LINE
  8
0
 10
21.8613
 20
60.1428
 11
21.6963
 21
60.2335
  0
LINE
  8
0
 10
21.6963
 20
60.2335
 11
21.5439
 21
60.3442
  0
LINE
  8
0
 10
21.5439
 20
60.3442
 11
21.4065
 21
60.4732
  0
LINE
  8
0
 10
21.4065
 20
60.4732
 11
21.2865
 21
60.6183
  0
LINE
  8
0
 10
21.2865
 20
60.6183
 11
21.1855
 21
60.7774
  0
LINE
  8
0
 10
21.1855
 20
60.7774
 11
21.1053
 21
60.9478
  0
LINE
  8
0
 10
21.1053
 20
60.9478
 11
21.0471
 21
61.127
  0
LINE
  8
0
 10
21.0471
 20
61.127
 11
21.0118
 21
61.312
  0
LINE
  8
0
 10
21.0118
 20
61.312
 11
21
 21
61.5
  0
LINE
  8
0
 10
21
 20
61.5
 11
21.0118
 21
61.688
  0
LINE
  8
0
 10
21.0118
 20
61.688
 11
21.0471
 21
61.873
  0
LINE
  8
0
 10
21.0471
 20
61.873
 11
21.1053
 21
62.0522
  0
LINE
  8
0
 10
21.1053
 20
62.0522
 11
21.1855
 21
62.2226
  0
LINE
  8
0
 10
21.1855
 20
62.2226
 11
21.2865
 21
62.3817
  0
LINE
  8
0
 10
21.2865
 20
62.3817
 11
21.4065
 21
62.5268
  0
LINE
  8
0
 10
21.4065
 20
62.5268
 11
21.5439
 21
62.6558
  0
LINE
  8
0
 10
21.5439
 20
62.6558
 11
21.6963
 21
62.7665
  0
LINE
  8
0
 10
21.6963
 20
62.7665
 11
21.8613
 21
62.8572
  0
LINE
  8
0
 10
21.8613
 20
62.8572
 11
22.0365
 21
62.9266
  0
LINE
  8
0
 10
22.0365
 20
62.9266
 11
22.2189
 21
62.9734
  0
LINE
  8
0
 10
22.2189
 20
62.9734
 11
22.4058
 21
62.997
  0
LINE
  8
0
 10
22.4058
 20
62.997
 11
22.5942
 21
62.997
  0
LINE
  8
0
 10
22.5942
 20
62.997
 11
22.7811
 21
62.9734
  0
LINE
  8
0
 10
22.7811
 20
62.9734
 11
22.9635
 21
62.9266
  0
LINE
  8
0
 10
22.9635
 20
62.9266
 11
23.1387
 21
62.8572
  0
LINE
  8
0
 10
23.1387
 20
62.8572
 11
23.3037
 21
62.7665
  0
LINE
  8
0
 10
23.3037
 20
62.7665
 11
23.4561
 21
62.6558
  0
LINE
  8
0
 10
23.4561
 20
62.6558
 11
23.5934
 21
62.5268
  0
LINE
  8
0
 10
23.5934
 20
62.5268
 11
23.7135
 21
62.3817
  0
LINE
  8
0
 10
23.7135
 20
62.3817
 11
23.8145
 21
62.2226
  0
LINE
  8
0
 10
23.8145
 20
62.2226
 11
23.8947
 21
62.0522
  0
LINE
  8
0
 10
23.8947
 20
62.0522
 11
23.9529
 21
61.873
  0
LINE
  8
0
 10
23.9529
 20
61.873
 11
23.9882
 21
61.688
  0
LINE
  8
0
 10
23.9882
 20
61.688
 11
24
 21
61.5
  0
LINE
  8
0
 10
24
 20
61.5
 11
23.9882
 21
61.312
  0
LINE
  8
0
 10
23.9882
 20
61.312
 11
23.9529
 21
61.127
  0
LINE
  8
0
 10
23.9529
 20
61.127
 11
23.8947
 21
60.9478
  0
LINE
  8
0
 10
23.8947
 20
60.9478
 11
23.8145
 21
60.7774
  0
LINE
  8
0
 10
23.8145
 20
60.7774
 11
23.7135
 21
60.6183
  0
LINE
  8
0
 10
23.7135
 20
60.6183
 11
23.5934
 21
60.4732
  0
LINE
  8
0
 10
23.5934
 20
60.4732
 11
23.4561
 21
60.3442
  0
LINE
  8
0
 10
23.4561
 20
60.3442
 11
23.3037
 21
60.2335
  0
LINE
  8
0
 10
23.3037
 20
60.2335
 11
23.1387
 21
60.1428
  0
LINE
  8
0
 10
23.1387
 20
60.1428
 11
22.9635
 21
60.0734
  0
LINE
  8
0
 10
22.9635
 20
60.0734
 11
22.7811
 21
60.0266
  0
LINE
  8
0
 10
22.7811
 20
60.0266
 11
22.5942
 21
60.003
  0
LINE
  8
0
 10
22.5942
 20
60.003
 11
22.4058
 21
60.003
  0
LINE
  8
0
 10
-7.59418
 20
60.003
 11
-7.78107
 21
60.0266
  0
LINE
  8
0
 10
-7.78107
 20
60.0266
 11
-7.96352
 21
60.0734
  0
LINE
  8
0
 10
-7.96352
 20
60.0734
 11
-8.13866
 21
60.1428
  0
LINE
  8
0
 10
-8.13866
 20
60.1428
 11
-8.30373
 21
60.2335
  0
LINE
  8
0
 10
-8.30373
 20
60.2335
 11
-8.45613
 21
60.3442
  0
LINE
  8
0
 10
-8.45613
 20
60.3442
 11
-8.59344
 21
60.4732
  0
LINE
  8
0
 10
-8.59344
 20
60.4732
 11
-8.71352
 21
60.6183
  0
LINE
  8
0
 10
-8.71352
 20
60.6183
 11
-8.81445
 21
60.7774
  0
LINE
  8
0
 10
-8.81445
 20
60.7774
 11
-8.89465
 21
60.9478
  0
LINE
  8
0
 10
-8.89465
 20
60.9478
 11
-8.95287
 21
61.127
  0
LINE
  8
0
 10
-8.95287
 20
61.127
 11
-8.98816
 21
61.312
  0
LINE
  8
0
 10
-8.98816
 20
61.312
 11
-9
 21
61.5
  0
LINE
  8
0
 10
-9
 20
61.5
 11
-8.98816
 21
61.688
  0
LINE
  8
0
 10
-8.98816
 20
61.688
 11
-8.95287
 21
61.873
  0
LINE
  8
0
 10
-8.95287
 20
61.873
 11
-8.89465
 21
62.0522
  0
LINE
  8
0
 10
-8.89465
 20
62.0522
 11
-8.81445
 21
62.2226
  0
LINE
  8
0
 10
-8.81445
 20
62.2226
 11
-8.71352
 21
62.3817
  0
LINE
  8
0
 10
-8.71352
 20
62.3817
 11
-8.59344
 21
62.5268
  0
LINE
  8
0
 10
-8.59344
 20
62.5268
 11
-8.45613
 21
62.6558
  0
LINE
  8
0
 10
-8.45613
 20
62.6558
 11
-8.30373
 21
62.7665
  0
LINE
  8
0
 10
-8.30373
 20
62.7665
 11
-8.13866
 21
62.8572
  0
LINE
  8
0
 10
-8.13866
 20
62.8572
 11
-7.96352
 21
62.9266
  0
LINE
  8
0
 10
-7.96352
 20
62.9266
 11
-7.78107
 21
62.9734
  0
LINE
  8
0
 10
-7.78107
 20
62.9734
 11
-7.59418
 21
62.997
  0
LINE
  8
0
 10
-7.59418
 20
62.997
 11
-7.40581
 21
62.997
  0
LINE
  8
0
 10
-7.40581
 20
62.997
 11
-7.21892
 21
62.9734
  0
LINE
  8
0
 10
-7.21892
 20
62.9734
 11
-7.03647
 21
62.9266
  0
LINE
  8
0
 10
-7.03647
 20
62.9266
 11
-6.86133
 21
62.8572
  0
LINE
  8
0
 10
-6.86133
 20
62.8572
 11
-6.69626
 21
62.7665
  0
LINE
  8
0
 10
-6.69626
 20
62.7665
 11
-6.54385
 21
62.6558
  0
LINE
  8
0
 10
-6.54385
 20
62.6558
 11
-6.40654
 21
62.5268
  0
LINE
  8
0
 10
-6.40654
 20
62.5268
 11
-6.28647
 21
62.3817
  0
LINE
  8
0
 10
-6.28647
 20
62.3817
 11
-6.18553
 21
62.2226
  0
LINE
  8
0
 10
-6.18553
 20
62.2226
 11
-6.10533
 21
62.0522
  0
LINE
  8
0
 10
-6.10533
 20
62.0522
 11
-6.04712
 21
61.873
  0
LINE
  8
0
 10
-6.04712
 20
61.873
 11
-6.01183
 21
61.688
  0
LINE
  8
0
 10
-6.01183
 20
61.688
 11
-6
 21
61.5
  0
LINE
  8
0
 10
-6
 20
61.5
 11
-6.01183
 21
61.312
  0
LINE
  8
0
 10
-6.01183
 20
61.312
 11
-6.04712
 21
61.127
  0
LINE
  8
0
 10
-6.04712
 20
61.127
 11
-6.10533
 21
60.9478
  0
LINE
  8
0
 10
-6.10533
 20
60.9478
 11
-6.18553
 21
60.7774
  0
LINE
  8
0
 10
-6.18553
 20
60.7774
 11
-6.28647
 21
60.6183
  0
LINE
  8
0
 10
-6.28647
 20
60.6183
 11
-6.40654
 21
60.4732
  0
LINE
  8
0
 10
-6.40654
 20
60.4732
 11
-6.54385
 21
60.3442
  0
LINE
  8
0
 10
-6.54385
 20
60.3442
 11
-6.69626
 21
60.2335
  0
LINE
  8
0
 10
-6.69626
 20
60.2335
 11
-6.86133
 21
60.1428
  0
LINE
  8
0
 10
-6.86133
 20
60.1428
 11
-7.03647
 21
60.0734
  0
LINE
  8
0
 10
-7.03647
 20
60.0734
 11
-7.21892
 21
60.0266
  0
LINE
  8
0
 10
-7.21892
 20
60.0266
 11
-7.40581
 21
60.003
  0
LINE
  8
0
 10
-7.40581
 20
60.003
 11
-7.59418
 21
60.003
  0
LINE
  8
0
 10
19.5
 20
16.5
 11
-19.5
 21
16.5
  0
LINE
  8
0
 10
-19.5
 20
16.5
 11
-19.5
 21
-16.5
  0
LINE
  8
0
 10
-19.5
 20
-16.5
 11
19.5
 21
-16.5
  0
LINE
  8
0
 10
19.5
 20
-16.5
 11
19.5
 21
16.5
  0
LINE
  8
0
 10
14.387
 20
9.85355
 11
14.1627
 21
9.88188
  0
LINE
  8
0
 10
14.1627
 20
9.88188
 11
13.9438
 21
9.9381
  0
LINE
  8
0
 10
13.9438
 20
9.9381
 11
13.7336
 21
10.0213
  0
LINE
  8
0
 10
13.7336
 20
10.0213
 11
13.5355
 21
10.1302
  0
LINE
  8
0
 10
13.5355
 20
10.1302
 11
13.3526
 21
10.2631
  0
LINE
  8
0
 10
13.3526
 20
10.2631
 11
13.1879
 21
10.4178
  0
LINE
  8
0
 10
13.1879
 20
10.4178
 11
13.0438
 21
10.592
  0
LINE
  8
0
 10
13.0438
 20
10.592
 11
12.9226
 21
10.7828
  0
LINE
  8
0
 10
12.9226
 20
10.7828
 11
12.8264
 21
10.9874
  0
LINE
  8
0
 10
12.8264
 20
10.9874
 11
12.7565
 21
11.2023
  0
LINE
  8
0
 10
12.7565
 20
11.2023
 11
12.7142
 21
11.4244
  0
LINE
  8
0
 10
12.7142
 20
11.4244
 11
12.7
 21
11.65
  0
LINE
  8
0
 10
12.7
 20
11.65
 11
12.7142
 21
11.8756
  0
LINE
  8
0
 10
12.7142
 20
11.8756
 11
12.7565
 21
12.0976
  0
LINE
  8
0
 10
12.7565
 20
12.0976
 11
12.8264
 21
12.3126
  0
LINE
  8
0
 10
12.8264
 20
12.3126
 11
12.9226
 21
12.5172
  0
LINE
  8
0
 10
12.9226
 20
12.5172
 11
13.0438
 21
12.708
  0
LINE
  8
0
 10
13.0438
 20
12.708
 11
13.1879
 21
12.8822
  0
LINE
  8
0
 10
13.1879
 20
12.8822
 11
13.3526
 21
13.0369
  0
LINE
  8
0
 10
13.3526
 20
13.0369
 11
13.5355
 21
13.1698
  0
LINE
  8
0
 10
13.5355
 20
13.1698
 11
13.7336
 21
13.2787
  0
LINE
  8
0
 10
13.7336
 20
13.2787
 11
13.9438
 21
13.3619
  0
LINE
  8
0
 10
13.9438
 20
13.3619
 11
14.1627
 21
13.4181
  0
LINE
  8
0
 10
14.1627
 20
13.4181
 11
14.387
 21
13.4464
  0
LINE
  8
0
 10
14.387
 20
13.4464
 11
14.613
 21
13.4464
  0
LINE
  8
0
 10
14.613
 20
13.4464
 11
14.8373
 21
13.4181
  0
LINE
  8
0
 10
14.8373
 20
13.4181
 11
15.0562
 21
13.3619
  0
LINE
  8
0
 10
15.0562
 20
13.3619
 11
15.2664
 21
13.2787
  0
LINE
  8
0
 10
15.2664
 20
13.2787
 11
15.4645
 21
13.1698
  0
LINE
  8
0
 10
15.4645
 20
13.1698
 11
15.6474
 21
13.0369
  0
LINE
  8
0
 10
15.6474
 20
13.0369
 11
15.8121
 21
12.8822
  0
LINE
  8
0
 10
15.8121
 20
12.8822
 11
15.9562
 21
12.708
  0
LINE
  8
0
 10
15.9562
 20
12.708
 11
16.0773
 21
12.5172
  0
LINE
  8
0
 10
16.0773
 20
12.5172
 11
16.1736
 21
12.3126
  0
LINE
  8
0
 10
16.1736
 20
12.3126
 11
16.2434
 21
12.0976
  0
LINE
  8
0
 10
16.2434
 20
12.0976
 11
16.2858
 21
11.8756
  0
LINE
  8
0
 10
16.2858
 20
11.8756
 11
16.3
 21
11.65
  0
LINE
  8
0
 10
16.3
 20
11.65
 11
16.2858
 21
11.4244
  0
LINE
  8
0
 10
16.2858
 20
11.4244
 11
16.2434
 21
11.2023
  0
LINE
  8
0
 10
16.2434
 20
11.2023
 11
16.1736
 21
10.9874
  0
LINE
  8
0
 10
16.1736
 20
10.9874
 11
16.0773
 21
10.7828
  0
LINE
  8
0
 10
16.0773
 20
10.7828
 11
15.9562
 21
10.592
  0
LINE
  8
0
 10
15.9562
 20
10.592
 11
15.8121
 21
10.4178
  0
LINE
  8
0
 10
15.8121
 20
10.4178
 11
15.6474
 21
10.2631
  0
LINE
  8
0
 10
15.6474
 20
10.2631
 11
15.4645
 21
10.1302
  0
LINE
  8
0
 10
15.4645
 20
10.1302
 11
15.2664
 21
10.0213
  0
LINE
  8
0
 10
15.2664
 20
10.0213
 11
15.0562
 21
9.9381
  0
LINE
  8
0
 10
15.0562
 20
9.9381
 11
14.8373
 21
9.88188
  0
LINE
  8
0
 10
14.8373
 20
9.88188
 11
14.613
 21
9.85355
  0
LINE
  8
0
 10
14.613
 20
9.85355
 11
14.387
 21
9.85355
  0
LINE
  8
0
 10
-14.613
 20
9.85355
 11
-14.8373
 21
9.88188
  0
LINE
  8
0
 10
-14.8373
 20
9.88188
 11
-15.0562
 21
9.9381
  0
LINE
  8
0
 10
-15.0562
 20
9.9381
 11
-15.2664
 21
10.0213
  0
LINE
  8
0
 10
-15.2664
 20
10.0213
 11
-15.4645
 21
10.1302
  0
LINE
  8
0
 10
-15.4645
 20
10.1302
 11
-15.6474
 21
10.2631
  0
LINE
  8
0
 10
-15.6474
 20
10.2631
 11
-15.8121
 21
10.4178
  0
LINE
  8
0
 10
-15.8121
 20
10.4178
 11
-15.9562
 21
10.592
  0
LINE
  8
0
 10
-15.9562
 20
10.592
 11
-16.0773
 21
10.7828
  0
LINE
  8
0
 10
-16.0773
 20
10.7828
 11
-16.1736
 21
10.9874
  0
LINE
  8
0
 10
-16.1736
 20
10.9874
 11
-16.2434
 21
11.2023
  0
LINE
  8
0
 10
-16.2434
 20
11.2023
 11
-16.2858
 21
11.4244
  0
LINE
  8
0
 10
-16.2858
 20
11.4244
 11
-16.3
 21
11.65
  0
LINE
  8
0
 10
-16.3
 20
11.65
 11
-16.2858
 21
11.8756
  0
LINE
  8
0
 10
-16.2858
 20
11.8756
 11
-16.2434
 21
12.0976
  0
LINE
  8
0
 10
-16.2434
 20
12.0976
 11
-16.1736
 21
12.3126
  0
LINE
  8
0
 10
-16.1736
 20
12.3126
 11
-16.0773
 21
12.5172
  0
LINE
  8
0
 10
-16.0773
 20
12.5172
 11
-15.9562
 21
12.708
  0
LINE
  8
0
 10
-15.9562
 20
12.708
 11
-15.8121
 21
12.8822
  0
LINE
  8
0
 10
-15.8121
 20
12.8822
 11
-15.6474
 21
13.0369
  0
LINE
  8
0
 10
-15.6474
 20
13.0369
 11
-15.4645
 21
13.1698
  0
LINE
  8
0
 10
-15.4645
 20
13.1698
 11
-15.2664
 21
13.2787
  0
LINE
  8
0
 10
-15.2664
 20
13.2787
 11
-15.0562
 21
13.3619
  0
LINE
  8
0
 10
-15.0562
 20
13.3619
 11
-14.8373
 21
13.4181
  0
LINE
  8
0
 10
-14.8373
 20
13.4181
 11
-14.613
 21
13.4464
  0
LINE
  8
0
 10
-14.613
 20
13.4464
 11
-14.387
 21
13.4464
  0
LINE
  8
0
 10
-14.387
 20
13.4464
 11
-14.1627
 21
13.4181
  0
LINE
  8
0
 10
-14.1627
 20
13.4181
 11
-13.9438
 21
13.3619
  0
LINE
  8
0
 10
-13.9438
 20
13.3619
 11
-13.7336
 21
13.2787
  0
LINE
  8
0
 10
-13.7336
 20
13.2787
 11
-13.5355
 21
13.1698
  0
LINE
  8
0
 10
-13.5355
 20
13.1698
 11
-13.3526
 21
13.0369
  0
LINE
  8
0
 10
-13.3526
 20
13.0369
 11
-13.1879
 21
12.8822
  0
LINE
  8
0
 10
-13.1879
 20
12.8822
 11
-13.0438
 21
12.708
  0
LINE
  8
0
 10
-13.0438
 20
12.708
 11
-12.9226
 21
12.5172
  0
LINE
  8
0
 10
-12.9226
 20
12.5172
 11
-12.8264
 21
12.3126
  0
LINE
  8
0
 10
-12.8264
 20
12.3126
 11
-12.7565
 21
12.0976
  0
LINE
  8
0
 10
-12.7565
 20
12.0976
 11
-12.7142
 21
11.8756
  0
LINE
  8
0
 10
-12.7142
 20
11.8756
 11
-12.7
 21
11.65
  0
LINE
  8
0
 10
-12.7
 20
11.65
 11
-12.7142
 21
11.4244
  0
LINE
  8
0
 10
-12.7142
 20
11.4244
 11
-12.7565
 21
11.2023
  0
LINE
  8
0
 10
-12.7565
 20
11.2023
 11
-12.8264
 21
10.9874
  0
LINE
  8
0
 10
-12.8264
 20
10.9874
 11
-12.9226
 21
10.7828
  0
LINE
  8
0
 10
-12.9226
 20
10.7828
 11
-13.0438
 21
10.592
  0
LINE
  8
0
 10
-13.0438
 20
10.592
 11
-13.1879
 21
10.4178
  0
LINE
  8
0
 10
-13.1879
 20
10.4178
 11
-13.3526
 21
10.2631
  0
LINE
  8
0
 10
-13.3526
 20
10.2631
 11
-13.5355
 21
10.1302
  0
LINE
  8
0
 10
-13.5355
 20
10.1302
 11
-13.7336
 21
10.0213
  0
LINE
  8
0
 10
-13.7336
 20
10.0213
 11
-13.9438
 21
9.9381
  0
LINE
  8
0
 10
-13.9438
 20
9.9381
 11
-14.1627
 21
9.88188
  0
LINE
  8
0
 10
-14.1627
 20
9.88188
 11
-14.387
 21
9.85355
  0
LINE
  8
0
 10
-14.387
 20
9.85355
 11
-14.613
 21
9.85355
  0
LINE
  8
0
 10
-14.613
 20
-13.4464
 11
-14.8373
 21
-13.4181
  0
LINE
  8
0
 10
-14.8373
 20
-13.4181
 11
-15.0562
 21
-13.3619
  0
LINE
  8
0
 10
-15.0562
 20
-13.3619
 11
-15.2664
 21
-13.2787
  0
LINE
  8
0
 10
-15.2664
 20
-13.2787
 11
-15.4645
 21
-13.1698
  0
LINE
  8
0
 10
-15.4645
 20
-13.1698
 11
-15.6474
 21
-13.0369
  0
LINE
  8
0
 10
-15.6474
 20
-13.0369
 11
-15.8121
 21
-12.8822
  0
LINE
  8
0
 10
-15.8121
 20
-12.8822
 11
-15.9562
 21
-12.708
  0
LINE
  8
0
 10
-15.9562
 20
-12.708
 11
-16.0773
 21
-12.5172
  0
LINE
  8
0
 10
-16.0773
 20
-12.5172
 11
-16.1736
 21
-12.3126
  0
LINE
  8
0
 10
-16.1736
 20
-12.3126
 11
-16.2434
 21
-12.0976
  0
LINE
  8
0
 10
-16.2434
 20
-12.0976
 11
-16.2858
 21
-11.8756
  0
LINE
  8
0
 10
-16.2858
 20
-11.8756
 11
-16.3
 21
-11.65
  0
LINE
  8
0
 10
-16.3
 20
-11.65
 11
-16.2858
 21
-11.4244
  0
LINE
  8
0
 10
-16.2858
 20
-11.4244
 11
-16.2434
 21
-11.2023
  0
LINE
  8
0
 10
-16.2434
 20
-11.2023
 11
-16.1736
 21
-10.9874
  0
LINE
  8
0
 10
-16.1736
 20
-10.9874
 11
-16.0773
 21
-10.7828
  0
LINE
  8
0
 10
-16.0773
 20
-10.7828
 11
-15.9562
 21
-10.592
  0
LINE
  8
0
 10
-15.9562
 20
-10.592
 11
-15.8121
 21
-10.4178
  0
LINE
  8
0
 10
-15.8121
 20
-10.4178
 11
-15.6474
 21
-10.2631
  0
LINE
  8
0
 10
-15.6474
 20
-10.2631
 11
-15.4645
 21
-10.1302
  0
LINE
  8
0
 10
-15.4645
 20
-10.1302
 11
-15.2664
 21
-10.0213
  0
LINE
  8
0
 10
-15.2664
 20
-10.0213
 11
-15.0562
 21
-9.9381
  0
LINE
  8
0
 10
-15.0562
 20
-9.9381
 11
-14.8373
 21
-9.88188
  0
LINE
  8
0
 10
-14.8373
 20
-9.88188
 11
-14.613
 21
-9.85355
  0
LINE
  8
0
 10
-14.613
 20
-9.85355
 11
-14.387
 21
-9.85355
  0
LINE
  8
0
 10
-14.387
 20
-9.85355
 11
-14.1627
 21
-9.88188
  0
LINE
  8
0
 10
-14.1627
 20
-9.88188
 11
-13.9438
 21
-9.9381
  0
LINE
  8
0
 10
-13.9438
 20
-9.9381
 11
-13.7336
 21
-10.0213
  0
LINE
  8
0
 10
-13.7336
 20
-10.0213
 11
-13.5355
 21
-10.1302
  0
LINE
  8
0
 10
-13.5355
 20
-10.1302
 11
-13.3526
 21
-10.2631
  0
LINE
  8
0
 10
-13.3526
 20
-10.2631
 11
-13.1879
 21
-10.4178
  0
LINE
  8
0
 10
-13.1879
 20
-10.4178
 11
-13.0438
 21
-10.592
  0
LINE
  8
0
 10
-13.0438
 20
-10.592
 11
-12.9226
 21
-10.7828
  0
LINE
  8
0
 10
-12.9226
 20
-10.7828
 11
-12.8264
 21
-10.9874
  0
LINE
  8
0
 10
-12.8264
 20
-10.9874
 11
-12.7565
 21
-11.2023
  0
LINE
  8
0
 10
-12.7565
 20
-11.2023
 11
-12.7142
 21
-11.4244
  0
LINE
  8
0
 10
-12.7142
 20
-11.4244
 11
-12.7
 21
-11.65
  0
LINE
  8
0
 10
-12.7
 20
-11.65
 11
-12.7142
 21
-11.8756
  0
LINE
  8
0
 10
-12.7142
 20
-11.8756
 11
-12.7565
 21
-12.0976
  0
LINE
  8
0
 10
-12.7565
 20
-12.0976
 11
-12.8264
 21
-12.3126
  0
LINE
  8
0
 10
-12.8264
 20
-12.3126
 11
-12.9226
 21
-12.5172
  0
LINE
  8
0
 10
-12.9226
 20
-12.5172
 11
-13.0438
 21
-12.708
  0
LINE
  8
0
 10
-13.0438
 20
-12.708
 11
-13.1879
 21
-12.8822
  0
LINE
  8
0
 10
-13.1879
 20
-12.8822
 11
-13.3526
 21
-13.0369
  0
LINE
  8
0
 10
-13.3526
 20
-13.0369
 11
-13.5355
 21
-13.1698
  0
LINE
  8
0
 10
-13.5355
 20
-13.1698
 11
-13.7336
 21
-13.2787
  0
LINE
  8
0
 10
-13.7336
 20
-13.2787
 11
-13.9438
 21
-13.3619
  0
LINE
  8
0
 10
-13.9438
 20
-13.3619
 11
-14.1627
 21
-13.4181
  0
LINE
  8
0
 10
-14.1627
 20
-13.4181
 11
-14.387
 21
-13.4464
  0
LINE
  8
0
 10
-14.387
 20
-13.4464
 11
-14.613
 21
-13.4464
  0
LINE
  8
0
 10
14.387
 20
-13.4464
 11
14.1627
 21
-13.4181
  0
LINE
  8
0
 10
14.1627
 20
-13.4181
 11
13.9438
 21
-13.3619
  0
LINE
  8
0
 10
13.9438
 20
-13.3619
 11
13.7336
 21
-13.2787
  0
LINE
  8
0
 10
13.7336
 20
-13.2787
 11
13.5355
 21
-13.1698
  0
LINE
  8
0
 10
13.5355
 20
-13.1698
 11
13.3526
 21
-13.0369
  0
LINE
  8
0
 10
13.3526
 20
-13.0369
 11
13.1879
 21
-12.8822
  0
LINE
  8
0
 10
13.1879
 20
-12.8822
 11
13.0438
 21
-12.708
  0
LINE
  8
0
 10
13.0438
 20
-12.708
 11
12.9226
 21
-12.5172
  0
LINE
  8
0
 10
12.9226
 20
-12.5172
 11
12.8264
 21
-12.3126
  0
LINE
  8
0
 10
12.8264
 20
-12.3126
 11
12.7565
 21
-12.0976
  0
LINE
  8
0
 10
12.7565
 20
-12.0976
 11
12.7142
 21
-11.8756
  0
LINE
  8
0
 10
12.7142
 20
-11.8756
 11
12.7
 21
-11.65
  0
LINE
  8
0
 10
12.7
 20
-11.65
 11
12.7142
 21
-11.4244
  0
LINE
  8
0
 10
12.7142
 20
-11.4244
 11
12.7565
 21
-11.2023
  0
LINE
  8
0
 10
12.7565
 20
-11.2023
 11
12.8264
 21
-10.9874
  0
LINE
  8
0
 10
12.8264
 20
-10.9874
 11
12.9226
 21
-10.7828
  0
LINE
  8
0
 10
12.9226
 20
-10.7828
 11
13.0438
 21
-10.592
  0
LINE
  8
0
 10
13.0438
 20
-10.592
 11
13.1879
 21
-10.4178
  0
LINE
  8
0
 10
13.1879
 20
-10.4178
 11
13.3526
 21
-10.2631
  0
LINE
  8
0
 10
13.3526
 20
-10.2631
 11
13.5355
 21
-10.1302
  0
LINE
  8
0
 10
13.5355
 20
-10.1302
 11
13.7336
 21
-10.0213
  0
LINE
  8
0
 10
13.7336
 20
-10.0213
 11
13.9438
 21
-9.9381
  0
LINE
  8
0
 10
13.9438
 20
-9.9381
 11
14.1627
 21
-9.88188
  0
LINE
  8
0
 10
14.1627
 20
-9.88188
 11
14.387
 21
-9.85355
  0
LINE
  8
0
 10
14.387
 20
-9.85355
 11
14.613
 21
-9.85355
  0
LINE
  8
0
 10
14.613
 20
-9.85355
 11
14.8373
 21
-9.88188
  0
LINE
  8
0
 10
14.8373
 20
-9.88188
 11
15.0562
 21
-9.9381
  0
LINE
  8
0
 10
15.0562
 20
-9.9381
 11
15.2664
 21
-10.0213
  0
LINE
  8
0
 10
15.2664
 20
-10.0213
 11
15.4645
 21
-10.1302
  0
LINE
  8
0
 10
15.4645
 20
-10.1302
 11
15.6474
 21
-10.2631
  0
LINE
  8
0
 10
15.6474
 20
-10.2631
 11
15.8121
 21
-10.4178
  0
LINE
  8
0
 10
15.8121
 20
-10.4178
 11
15.9562
 21
-10.592
  0
LINE
  8
0
 10
15.9562
 20
-10.592
 11
16.0773
 21
-10.7828
  0
LINE
  8
0
 10
16.0773
 20
-10.7828
 11
16.1736
 21
-10.9874
  0
LINE
  8
0
 10
16.1736
 20
-10.9874
 11
16.2434
 21
-11.2023
  0
LINE
  8
0
 10
16.2434
 20
-11.2023
 11
16.2858
 21
-11.4244
  0
LINE
  8
0
 10
16.2858
 20
-11.4244
 11
16.3
 21
-11.65
  0
LINE
  8
0
 10
16.3
 20
-11.65
 11
16.2858
 21
-11.8756
  0
LINE
  8
0
 10
16.2858
 20
-11.8756
 11
16.2434
 21
-12.0976
  0
LINE
  8
0
 10
16.2434
 20
-12.0976
 11
16.1736
 21
-12.3126
  0
LINE
  8
0
 10
16.1736
 20
-12.3126
 11
16.0773
 21
-12.5172
  0
LINE
  8
0
 10
16.0773
 20
-12.5172
 11
15.9562
 21
-12.708
  0
LINE
  8
0
 10
15.9562
 20
-12.708
 11
15.8121
 21
-12.8822
  0
LINE
  8
0
 10
15.8121
 20
-12.8822
 11
15.6474
 21
-13.0369
  0
LINE
  8
0
 10
15.6474
 20
-13.0369
 11
15.4645
 21
-13.1698
  0
LINE
  8
0
 10
15.4645
 20
-13.1698
 11
15.2664
 21
-13.2787
  0
LINE
  8
0
 10
15.2664
 20
-13.2787
 11
15.0562
 21
-13.3619
  0
LINE
  8
0
 10
15.0562
 20
-13.3619
 11
14.8373
 21
-13.4181
  0
LINE
  8
0
 10
14.8373
 20
-13.4181
 11
14.613
 21
-13.4464
  0
LINE
  8
0
 10
14.613
 20
-13.4464
 11
14.387
 21
-13.4464
  0
ENDSEC
  0
SECTION
  2
OBJECTS
  0
DICTIONARY
  0
ENDSEC
  0
EOF
