  0
SECTION
  2
BLOCKS
  0
ENDSEC
  0
SECTION
  2
ENTITIES
  0
LINE
  8
0
 10
17.9369
 20
83.8386
 11
18.5451
 21
83.9947
  0
LINE
  8
0
 10
18.5451
 20
83.9947
 11
19.1289
 21
84.2259
  0
LINE
  8
0
 10
19.1289
 20
84.2259
 11
19.6791
 21
84.5284
  0
LINE
  8
0
 10
19.6791
 20
84.5284
 11
20.1871
 21
84.8974
  0
LINE
  8
0
 10
20.1871
 20
84.8974
 11
20.6448
 21
85.3273
  0
LINE
  8
0
 10
20.6448
 20
85.3273
 11
21.0451
 21
85.8111
  0
LINE
  8
0
 10
21.0451
 20
85.8111
 11
21.3815
 21
86.3412
  0
LINE
  8
0
 10
21.3815
 20
86.3412
 11
21.6489
 21
86.9094
  0
LINE
  8
0
 10
21.6489
 20
86.9094
 11
21.8429
 21
87.5066
  0
LINE
  8
0
 10
21.8429
 20
87.5066
 11
21.9606
 21
88.1233
  0
LINE
  8
0
 10
21.9606
 20
88.1233
 11
22
 21
88.75
  0
LINE
  8
0
 10
22
 20
88.75
 11
22
 21
100.25
  0
LINE
  8
0
 10
22
 20
100.25
 11
21.9606
 21
100.877
  0
LINE
  8
0
 10
21.9606
 20
100.877
 11
21.8429
 21
101.493
  0
LINE
  8
0
 10
21.8429
 20
101.493
 11
21.6489
 21
102.091
  0
LINE
  8
0
 10
21.6489
 20
102.091
 11
21.3815
 21
102.659
  0
LINE
  8
0
 10
21.3815
 20
102.659
 11
21.0451
 21
103.189
  0
LINE
  8
0
 10
21.0451
 20
103.189
 11
20.6448
 21
103.673
  0
LINE
  8
0
 10
20.6448
 20
103.673
 11
20.1871
 21
104.103
  0
LINE
  8
0
 10
20.1871
 20
104.103
 11
19.6791
 21
104.472
  0
LINE
  8
0
 10
19.6791
 20
104.472
 11
19.1289
 21
104.774
  0
LINE
  8
0
 10
19.1289
 20
104.774
 11
18.5451
 21
105.005
  0
LINE
  8
0
 10
18.5451
 20
105.005
 11
17.9369
 21
105.161
  0
LINE
  8
0
 10
17.9369
 20
105.161
 11
17.3139
 21
105.24
  0
LINE
  8
0
 10
17.3139
 20
105.24
 11
-17.3139
 21
105.24
  0
LINE
  8
0
 10
-17.3139
 20
105.24
 11
-17.9369
 21
105.161
  0
LINE
  8
0
 10
-17.9369
 20
105.161
 11
-18.5451
 21
105.005
  0
LINE
  8
0
 10
-18.5451
 20
105.005
 11
-19.1289
 21
104.774
  0
LINE
  8
0
 10
-19.1289
 20
104.774
 11
-19.6791
 21
104.472
  0
LINE
  8
0
 10
-19.6791
 20
104.472
 11
-20.1871
 21
104.103
  0
LINE
  8
0
 10
-20.1871
 20
104.103
 11
-20.6448
 21
103.673
  0
LINE
  8
0
 10
-20.6448
 20
103.673
 11
-21.0451
 21
103.189
  0
LINE
  8
0
 10
-21.0451
 20
103.189
 11
-21.3815
 21
102.659
  0
LINE
  8
0
 10
-21.3815
 20
102.659
 11
-21.6489
 21
102.091
  0
LINE
  8
0
 10
-21.6489
 20
102.091
 11
-21.8429
 21
101.493
  0
LINE
  8
0
 10
-21.8429
 20
101.493
 11
-21.9606
 21
100.877
  0
LINE
  8
0
 10
-21.9606
 20
100.877
 11
-22
 21
100.25
  0
LINE
  8
0
 10
-22
 20
100.25
 11
-22
 21
88.75
  0
LINE
  8
0
 10
-22
 20
88.75
 11
-21.9606
 21
88.1233
  0
LINE
  8
0
 10
-21.9606
 20
88.1233
 11
-21.8429
 21
87.5066
  0
LINE
  8
0
 10
-21.8429
 20
87.5066
 11
-21.6489
 21
86.9094
  0
LINE
  8
0
 10
-21.6489
 20
86.9094
 11
-21.3815
 21
86.3412
  0
LINE
  8
0
 10
-21.3815
 20
86.3412
 11
-21.0451
 21
85.8111
  0
LINE
  8
0
 10
-21.0451
 20
85.8111
 11
-20.6448
 21
85.3273
  0
LINE
  8
0
 10
-20.6448
 20
85.3273
 11
-20.1871
 21
84.8974
  0
LINE
  8
0
 10
-20.1871
 20
84.8974
 11
-19.6791
 21
84.5284
  0
LINE
  8
0
 10
-19.6791
 20
84.5284
 11
-19.1289
 21
84.2259
  0
LINE
  8
0
 10
-19.1289
 20
84.2259
 11
-18.5451
 21
83.9947
  0
LINE
  8
0
 10
-18.5451
 20
83.9947
 11
-17.9369
 21
83.8386
  0
LINE
  8
0
 10
-17.9369
 20
83.8386
 11
-17.3139
 21
83.7599
  0
LINE
  8
0
 10
-17.3139
 20
83.7599
 11
17.3139
 21
83.7599
  0
LINE
  8
0
 10
17.3139
 20
83.7599
 11
17.9369
 21
83.8386
  0
LINE
  8
0
 10
-0.37674
 20
88.5118
 11
-1.12428
 21
88.6063
  0
LINE
  8
0
 10
-1.12428
 20
88.6063
 11
-1.8541
 21
88.7937
  0
LINE
  8
0
 10
-1.8541
 20
88.7937
 11
-2.55467
 21
89.071
  0
LINE
  8
0
 10
-2.55467
 20
89.071
 11
-3.21495
 21
89.434
  0
LINE
  8
0
 10
-3.21495
 20
89.434
 11
-3.82454
 21
89.8769
  0
LINE
  8
0
 10
-3.82454
 20
89.8769
 11
-4.37381
 21
90.3927
  0
LINE
  8
0
 10
-4.37381
 20
90.3927
 11
-4.8541
 21
90.9733
  0
LINE
  8
0
 10
-4.8541
 20
90.9733
 11
-5.25783
 21
91.6095
  0
LINE
  8
0
 10
-5.25783
 20
91.6095
 11
-5.57864
 21
92.2913
  0
LINE
  8
0
 10
-5.57864
 20
92.2913
 11
-5.81149
 21
93.0079
  0
LINE
  8
0
 10
-5.81149
 20
93.0079
 11
-5.95268
 21
93.748
  0
LINE
  8
0
 10
-5.95268
 20
93.748
 11
-6
 21
94.5
  0
LINE
  8
0
 10
-6
 20
94.5
 11
-5.95268
 21
95.252
  0
LINE
  8
0
 10
-5.95268
 20
95.252
 11
-5.81149
 21
95.9921
  0
LINE
  8
0
 10
-5.81149
 20
95.9921
 11
-5.57864
 21
96.7087
  0
LINE
  8
0
 10
-5.57864
 20
96.7087
 11
-5.25783
 21
97.3905
  0
LINE
  8
0
 10
-5.25783
 20
97.3905
 11
-4.8541
 21
98.0267
  0
LINE
  8
0
 10
-4.8541
 20
98.0267
 11
-4.37381
 21
98.6073
  0
LINE
  8
0
 10
-4.37381
 20
98.6073
 11
-3.82454
 21
99.1231
  0
LINE
  8
0
 10
-3.82454
 20
99.1231
 11
-3.21495
 21
99.566
  0
LINE
  8
0
 10
-3.21495
 20
99.566
 11
-2.55467
 21
99.929
  0
LINE
  8
0
 10
-2.55467
 20
99.929
 11
-1.8541
 21
100.206
  0
LINE
  8
0
 10
-1.8541
 20
100.206
 11
-1.12428
 21
100.394
  0
LINE
  8
0
 10
-1.12428
 20
100.394
 11
-0.37674
 21
100.488
  0
LINE
  8
0
 10
-0.37674
 20
100.488
 11
0.37674
 21
100.488
  0
LINE
  8
0
 10
0.37674
 20
100.488
 11
1.12428
 21
100.394
  0
LINE
  8
0
 10
1.12428
 20
100.394
 11
1.8541
 21
100.206
  0
LINE
  8
0
 10
1.8541
 20
100.206
 11
2.55467
 21
99.929
  0
LINE
  8
0
 10
2.55467
 20
99.929
 11
3.21495
 21
99.566
  0
LINE
  8
0
 10
3.21495
 20
99.566
 11
3.82454
 21
99.1231
  0
LINE
  8
0
 10
3.82454
 20
99.1231
 11
4.37381
 21
98.6073
  0
LINE
  8
0
 10
4.37381
 20
98.6073
 11
4.8541
 21
98.0267
  0
LINE
  8
0
 10
4.8541
 20
98.0267
 11
5.25783
 21
97.3905
  0
LINE
  8
0
 10
5.25783
 20
97.3905
 11
5.57864
 21
96.7087
  0
LINE
  8
0
 10
5.57864
 20
96.7087
 11
5.81149
 21
95.9921
  0
LINE
  8
0
 10
5.81149
 20
95.9921
 11
5.95268
 21
95.252
  0
LINE
  8
0
 10
5.95268
 20
95.252
 11
6
 21
94.5
  0
LINE
  8
0
 10
6
 20
94.5
 11
5.95268
 21
93.748
  0
LINE
  8
0
 10
5.95268
 20
93.748
 11
5.81149
 21
93.0079
  0
LINE
  8
0
 10
5.81149
 20
93.0079
 11
5.57864
 21
92.2913
  0
LINE
  8
0
 10
5.57864
 20
92.2913
 11
5.25783
 21
91.6095
  0
LINE
  8
0
 10
5.25783
 20
91.6095
 11
4.8541
 21
90.9733
  0
LINE
  8
0
 10
4.8541
 20
90.9733
 11
4.37381
 21
90.3927
  0
LINE
  8
0
 10
4.37381
 20
90.3927
 11
3.82454
 21
89.8769
  0
LINE
  8
0
 10
3.82454
 20
89.8769
 11
3.21495
 21
89.434
  0
LINE
  8
0
 10
3.21495
 20
89.434
 11
2.55467
 21
89.071
  0
LINE
  8
0
 10
2.55467
 20
89.071
 11
1.8541
 21
88.7937
  0
LINE
  8
0
 10
1.8541
 20
88.7937
 11
1.12428
 21
88.6063
  0
LINE
  8
0
 10
1.12428
 20
88.6063
 11
0.37674
 21
88.5118
  0
LINE
  8
0
 10
0.37674
 20
88.5118
 11
-0.37674
 21
88.5118
  0
LINE
  8
0
 10
-15.1884
 20
91.5059
 11
-15.5621
 21
91.5531
  0
LINE
  8
0
 10
-15.5621
 20
91.5531
 11
-15.927
 21
91.6468
  0
LINE
  8
0
 10
-15.927
 20
91.6468
 11
-16.2773
 21
91.7855
  0
LINE
  8
0
 10
-16.2773
 20
91.7855
 11
-16.6075
 21
91.967
  0
LINE
  8
0
 10
-16.6075
 20
91.967
 11
-16.9123
 21
92.1885
  0
LINE
  8
0
 10
-16.9123
 20
92.1885
 11
-17.1869
 21
92.4464
  0
LINE
  8
0
 10
-17.1869
 20
92.4464
 11
-17.427
 21
92.7366
  0
LINE
  8
0
 10
-17.427
 20
92.7366
 11
-17.6289
 21
93.0547
  0
LINE
  8
0
 10
-17.6289
 20
93.0547
 11
-17.7893
 21
93.3956
  0
LINE
  8
0
 10
-17.7893
 20
93.3956
 11
-17.9057
 21
93.7539
  0
LINE
  8
0
 10
-17.9057
 20
93.7539
 11
-17.9763
 21
94.124
  0
LINE
  8
0
 10
-17.9763
 20
94.124
 11
-18
 21
94.5
  0
LINE
  8
0
 10
-18
 20
94.5
 11
-17.9763
 21
94.876
  0
LINE
  8
0
 10
-17.9763
 20
94.876
 11
-17.9057
 21
95.2461
  0
LINE
  8
0
 10
-17.9057
 20
95.2461
 11
-17.7893
 21
95.6044
  0
LINE
  8
0
 10
-17.7893
 20
95.6044
 11
-17.6289
 21
95.9453
  0
LINE
  8
0
 10
-17.6289
 20
95.9453
 11
-17.427
 21
96.2634
  0
LINE
  8
0
 10
-17.427
 20
96.2634
 11
-17.1869
 21
96.5536
  0
LINE
  8
0
 10
-17.1869
 20
96.5536
 11
-16.9123
 21
96.8115
  0
LINE
  8
0
 10
-16.9123
 20
96.8115
 11
-16.6075
 21
97.033
  0
LINE
  8
0
 10
-16.6075
 20
97.033
 11
-16.2773
 21
97.2145
  0
LINE
  8
0
 10
-16.2773
 20
97.2145
 11
-15.927
 21
97.3532
  0
LINE
  8
0
 10
-15.927
 20
97.3532
 11
-15.5621
 21
97.4469
  0
LINE
  8
0
 10
-15.5621
 20
97.4469
 11
-15.1884
 21
97.4941
  0
LINE
  8
0
 10
-15.1884
 20
97.4941
 11
-14.8116
 21
97.4941
  0
LINE
  8
0
 10
-14.8116
 20
97.4941
 11
-14.4379
 21
97.4469
  0
LINE
  8
0
 10
-14.4379
 20
97.4469
 11
-14.0729
 21
97.3532
  0
LINE
  8
0
 10
-14.0729
 20
97.3532
 11
-13.7227
 21
97.2145
  0
LINE
  8
0
 10
-13.7227
 20
97.2145
 11
-13.3925
 21
97.033
  0
LINE
  8
0
 10
-13.3925
 20
97.033
 11
-13.0877
 21
96.8115
  0
LINE
  8
0
 10
-13.0877
 20
96.8115
 11
-12.8131
 21
96.5536
  0
LINE
  8
0
 10
-12.8131
 20
96.5536
 11
-12.5729
 21
96.2634
  0
LINE
  8
0
 10
-12.5729
 20
96.2634
 11
-12.3711
 21
95.9453
  0
LINE
  8
0
 10
-12.3711
 20
95.9453
 11
-12.2107
 21
95.6044
  0
LINE
  8
0
 10
-12.2107
 20
95.6044
 11
-12.0942
 21
95.2461
  0
LINE
  8
0
 10
-12.0942
 20
95.2461
 11
-12.0237
 21
94.876
  0
LINE
  8
0
 10
-12.0237
 20
94.876
 11
-12
 21
94.5
  0
LINE
  8
0
 10
-12
 20
94.5
 11
-12.0237
 21
94.124
  0
LINE
  8
0
 10
-12.0237
 20
94.124
 11
-12.0942
 21
93.7539
  0
LINE
  8
0
 10
-12.0942
 20
93.7539
 11
-12.2107
 21
93.3956
  0
LINE
  8
0
 10
-12.2107
 20
93.3956
 11
-12.3711
 21
93.0547
  0
LINE
  8
0
 10
-12.3711
 20
93.0547
 11
-12.5729
 21
92.7366
  0
LINE
  8
0
 10
-12.5729
 20
92.7366
 11
-12.8131
 21
92.4464
  0
LINE
  8
0
 10
-12.8131
 20
92.4464
 11
-13.0877
 21
92.1885
  0
LINE
  8
0
 10
-13.0877
 20
92.1885
 11
-13.3925
 21
91.967
  0
LINE
  8
0
 10
-13.3925
 20
91.967
 11
-13.7227
 21
91.7855
  0
LINE
  8
0
 10
-13.7227
 20
91.7855
 11
-14.0729
 21
91.6468
  0
LINE
  8
0
 10
-14.0729
 20
91.6468
 11
-14.4379
 21
91.5531
  0
LINE
  8
0
 10
-14.4379
 20
91.5531
 11
-14.8116
 21
91.5059
  0
LINE
  8
0
 10
-14.8116
 20
91.5059
 11
-15.1884
 21
91.5059
  0
LINE
  8
0
 10
14.8116
 20
91.5059
 11
14.4379
 21
91.5531
  0
LINE
  8
0
 10
14.4379
 20
91.5531
 11
14.0729
 21
91.6468
  0
LINE
  8
0
 10
14.0729
 20
91.6468
 11
13.7227
 21
91.7855
  0
LINE
  8
0
 10
13.7227
 20
91.7855
 11
13.3925
 21
91.967
  0
LINE
  8
0
 10
13.3925
 20
91.967
 11
13.0877
 21
92.1885
  0
LINE
  8
0
 10
13.0877
 20
92.1885
 11
12.8131
 21
92.4464
  0
LINE
  8
0
 10
12.8131
 20
92.4464
 11
12.5729
 21
92.7366
  0
LINE
  8
0
 10
12.5729
 20
92.7366
 11
12.3711
 21
93.0547
  0
LINE
  8
0
 10
12.3711
 20
93.0547
 11
12.2107
 21
93.3956
  0
LINE
  8
0
 10
12.2107
 20
93.3956
 11
12.0942
 21
93.7539
  0
LINE
  8
0
 10
12.0942
 20
93.7539
 11
12.0237
 21
94.124
  0
LINE
  8
0
 10
12.0237
 20
94.124
 11
12
 21
94.5
  0
LINE
  8
0
 10
12
 20
94.5
 11
12.0237
 21
94.876
  0
LINE
  8
0
 10
12.0237
 20
94.876
 11
12.0942
 21
95.2461
  0
LINE
  8
0
 10
12.0942
 20
95.2461
 11
12.2107
 21
95.6044
  0
LINE
  8
0
 10
12.2107
 20
95.6044
 11
12.3711
 21
95.9453
  0
LINE
  8
0
 10
12.3711
 20
95.9453
 11
12.5729
 21
96.2634
  0
LINE
  8
0
 10
12.5729
 20
96.2634
 11
12.8131
 21
96.5536
  0
LINE
  8
0
 10
12.8131
 20
96.5536
 11
13.0877
 21
96.8115
  0
LINE
  8
0
 10
13.0877
 20
96.8115
 11
13.3925
 21
97.033
  0
LINE
  8
0
 10
13.3925
 20
97.033
 11
13.7227
 21
97.2145
  0
LINE
  8
0
 10
13.7227
 20
97.2145
 11
14.0729
 21
97.3532
  0
LINE
  8
0
 10
14.0729
 20
97.3532
 11
14.4379
 21
97.4469
  0
LINE
  8
0
 10
14.4379
 20
97.4469
 11
14.8116
 21
97.4941
  0
LINE
  8
0
 10
14.8116
 20
97.4941
 11
15.1884
 21
97.4941
  0
LINE
  8
0
 10
15.1884
 20
97.4941
 11
15.5621
 21
97.4469
  0
LINE
  8
0
 10
15.5621
 20
97.4469
 11
15.927
 21
97.3532
  0
LINE
  8
0
 10
15.927
 20
97.3532
 11
16.2773
 21
97.2145
  0
LINE
  8
0
 10
16.2773
 20
97.2145
 11
16.6075
 21
97.033
  0
LINE
  8
0
 10
16.6075
 20
97.033
 11
16.9123
 21
96.8115
  0
LINE
  8
0
 10
16.9123
 20
96.8115
 11
17.1869
 21
96.5536
  0
LINE
  8
0
 10
17.1869
 20
96.5536
 11
17.427
 21
96.2634
  0
LINE
  8
0
 10
17.427
 20
96.2634
 11
17.6289
 21
95.9453
  0
LINE
  8
0
 10
17.6289
 20
95.9453
 11
17.7893
 21
95.6044
  0
LINE
  8
0
 10
17.7893
 20
95.6044
 11
17.9057
 21
95.2461
  0
LINE
  8
0
 10
17.9057
 20
95.2461
 11
17.9763
 21
94.876
  0
LINE
  8
0
 10
17.9763
 20
94.876
 11
18
 21
94.5
  0
LINE
  8
0
 10
18
 20
94.5
 11
17.9763
 21
94.124
  0
LINE
  8
0
 10
17.9763
 20
94.124
 11
17.9057
 21
93.7539
  0
LINE
  8
0
 10
17.9057
 20
93.7539
 11
17.7893
 21
93.3956
  0
LINE
  8
0
 10
17.7893
 20
93.3956
 11
17.6289
 21
93.0547
  0
LINE
  8
0
 10
17.6289
 20
93.0547
 11
17.427
 21
92.7366
  0
LINE
  8
0
 10
17.427
 20
92.7366
 11
17.1869
 21
92.4464
  0
LINE
  8
0
 10
17.1869
 20
92.4464
 11
16.9123
 21
92.1885
  0
LINE
  8
0
 10
16.9123
 20
92.1885
 11
16.6075
 21
91.967
  0
LINE
  8
0
 10
16.6075
 20
91.967
 11
16.2773
 21
91.7855
  0
LINE
  8
0
 10
16.2773
 20
91.7855
 11
15.927
 21
91.6468
  0
LINE
  8
0
 10
15.927
 20
91.6468
 11
15.5621
 21
91.5531
  0
LINE
  8
0
 10
15.5621
 20
91.5531
 11
15.1884
 21
91.5059
  0
LINE
  8
0
 10
15.1884
 20
91.5059
 11
14.8116
 21
91.5059
  0
LINE
  8
0
 10
17.9369
 20
52.3386
 11
18.5451
 21
52.4947
  0
LINE
  8
0
 10
18.5451
 20
52.4947
 11
19.1289
 21
52.7259
  0
LINE
  8
0
 10
19.1289
 20
52.7259
 11
19.6791
 21
53.0284
  0
LINE
  8
0
 10
19.6791
 20
53.0284
 11
20.1871
 21
53.3974
  0
LINE
  8
0
 10
20.1871
 20
53.3974
 11
20.6448
 21
53.8273
  0
LINE
  8
0
 10
20.6448
 20
53.8273
 11
21.0451
 21
54.3111
  0
LINE
  8
0
 10
21.0451
 20
54.3111
 11
21.3815
 21
54.8412
  0
LINE
  8
0
 10
21.3815
 20
54.8412
 11
21.6489
 21
55.4094
  0
LINE
  8
0
 10
21.6489
 20
55.4094
 11
21.8429
 21
56.0066
  0
LINE
  8
0
 10
21.8429
 20
56.0066
 11
21.9606
 21
56.6233
  0
LINE
  8
0
 10
21.9606
 20
56.6233
 11
22
 21
57.25
  0
LINE
  8
0
 10
22
 20
57.25
 11
22
 21
68.75
  0
LINE
  8
0
 10
22
 20
68.75
 11
21.9606
 21
69.3767
  0
LINE
  8
0
 10
21.9606
 20
69.3767
 11
21.8429
 21
69.9934
  0
LINE
  8
0
 10
21.8429
 20
69.9934
 11
21.6489
 21
70.5906
  0
LINE
  8
0
 10
21.6489
 20
70.5906
 11
21.3815
 21
71.1588
  0
LINE
  8
0
 10
21.3815
 20
71.1588
 11
21.0451
 21
71.6889
  0
LINE
  8
0
 10
21.0451
 20
71.6889
 11
20.6448
 21
72.1727
  0
LINE
  8
0
 10
20.6448
 20
72.1727
 11
20.1871
 21
72.6026
  0
LINE
  8
0
 10
20.1871
 20
72.6026
 11
19.6791
 21
72.9716
  0
LINE
  8
0
 10
19.6791
 20
72.9716
 11
19.1289
 21
73.2741
  0
LINE
  8
0
 10
19.1289
 20
73.2741
 11
18.5451
 21
73.5053
  0
LINE
  8
0
 10
18.5451
 20
73.5053
 11
17.9369
 21
73.6614
  0
LINE
  8
0
 10
17.9369
 20
73.6614
 11
17.3139
 21
73.7401
  0
LINE
  8
0
 10
17.3139
 20
73.7401
 11
-17.3139
 21
73.7401
  0
LINE
  8
0
 10
-17.3139
 20
73.7401
 11
-17.9369
 21
73.6614
  0
LINE
  8
0
 10
-17.9369
 20
73.6614
 11
-18.5451
 21
73.5053
  0
LINE
  8
0
 10
-18.5451
 20
73.5053
 11
-19.1289
 21
73.2741
  0
LINE
  8
0
 10
-19.1289
 20
73.2741
 11
-19.6791
 21
72.9716
  0
LINE
  8
0
 10
-19.6791
 20
72.9716
 11
-20.1871
 21
72.6026
  0
LINE
  8
0
 10
-20.1871
 20
72.6026
 11
-20.6448
 21
72.1727
  0
LINE
  8
0
 10
-20.6448
 20
72.1727
 11
-21.0451
 21
71.6889
  0
LINE
  8
0
 10
-21.0451
 20
71.6889
 11
-21.3815
 21
71.1588
  0
LINE
  8
0
 10
-21.3815
 20
71.1588
 11
-21.6489
 21
70.5906
  0
LINE
  8
0
 10
-21.6489
 20
70.5906
 11
-21.8429
 21
69.9934
  0
LINE
  8
0
 10
-21.8429
 20
69.9934
 11
-21.9606
 21
69.3767
  0
LINE
  8
0
 10
-21.9606
 20
69.3767
 11
-22
 21
68.75
  0
LINE
  8
0
 10
-22
 20
68.75
 11
-22
 21
57.25
  0
LINE
  8
0
 10
-22
 20
57.25
 11
-21.9606
 21
56.6233
  0
LINE
  8
0
 10
-21.9606
 20
56.6233
 11
-21.8429
 21
56.0066
  0
LINE
  8
0
 10
-21.8429
 20
56.0066
 11
-21.6489
 21
55.4094
  0
LINE
  8
0
 10
-21.6489
 20
55.4094
 11
-21.3815
 21
54.8412
  0
LINE
  8
0
 10
-21.3815
 20
54.8412
 11
-21.0451
 21
54.3111
  0
LINE
  8
0
 10
-21.0451
 20
54.3111
 11
-20.6448
 21
53.8273
  0
LINE
  8
0
 10
-20.6448
 20
53.8273
 11
-20.1871
 21
53.3974
  0
LINE
  8
0
 10
-20.1871
 20
53.3974
 11
-19.6791
 21
53.0284
  0
LINE
  8
0
 10
-19.6791
 20
53.0284
 11
-19.1289
 21
52.7259
  0
LINE
  8
0
 10
-19.1289
 20
52.7259
 11
-18.5451
 21
52.4947
  0
LINE
  8
0
 10
-18.5451
 20
52.4947
 11
-17.9369
 21
52.3386
  0
LINE
  8
0
 10
-17.9369
 20
52.3386
 11
-17.3139
 21
52.2599
  0
LINE
  8
0
 10
-17.3139
 20
52.2599
 11
17.3139
 21
52.2599
  0
LINE
  8
0
 10
17.3139
 20
52.2599
 11
17.9369
 21
52.3386
  0
LINE
  8
0
 10
-0.31395
 20
58.0099
 11
-0.936905
 21
58.0886
  0
LINE
  8
0
 10
-0.936905
 20
58.0886
 11
-1.54507
 21
58.2447
  0
LINE
  8
0
 10
-1.54507
 20
58.2447
 11
-2.12889
 21
58.4759
  0
LINE
  8
0
 10
-2.12889
 20
58.4759
 11
-2.67912
 21
58.7784
  0
LINE
  8
0
 10
-2.67912
 20
58.7784
 11
-3.18712
 21
59.1474
  0
LINE
  8
0
 10
-3.18712
 20
59.1474
 11
-3.64484
 21
59.5773
  0
LINE
  8
0
 10
-3.64484
 20
59.5773
 11
-4.04507
 21
60.0611
  0
LINE
  8
0
 10
-4.04507
 20
60.0611
 11
-4.38153
 21
60.5912
  0
LINE
  8
0
 10
-4.38153
 20
60.5912
 11
-4.64888
 21
61.1594
  0
LINE
  8
0
 10
-4.64888
 20
61.1594
 11
-4.84291
 21
61.7566
  0
LINE
  8
0
 10
-4.84291
 20
61.7566
 11
-4.96057
 21
62.3733
  0
LINE
  8
0
 10
-4.96057
 20
62.3733
 11
-5
 21
63
  0
LINE
  8
0
 10
-5
 20
63
 11
-4.96057
 21
63.6267
  0
LINE
  8
0
 10
-4.96057
 20
63.6267
 11
-4.84291
 21
64.2434
  0
LINE
  8
0
 10
-4.84291
 20
64.2434
 11
-4.64888
 21
64.8406
  0
LINE
  8
0
 10
-4.64888
 20
64.8406
 11
-4.38153
 21
65.4088
  0
LINE
  8
0
 10
-4.38153
 20
65.4088
 11
-4.04507
 21
65.9389
  0
LINE
  8
0
 10
-4.04507
 20
65.9389
 11
-3.64484
 21
66.4227
  0
LINE
  8
0
 10
-3.64484
 20
66.4227
 11
-3.18712
 21
66.8526
  0
LINE
  8
0
 10
-3.18712
 20
66.8526
 11
-2.67912
 21
67.2216
  0
LINE
  8
0
 10
-2.67912
 20
67.2216
 11
-2.12889
 21
67.5241
  0
LINE
  8
0
 10
-2.12889
 20
67.5241
 11
-1.54507
 21
67.7553
  0
LINE
  8
0
 10
-1.54507
 20
67.7553
 11
-0.936905
 21
67.9114
  0
LINE
  8
0
 10
-0.936905
 20
67.9114
 11
-0.31395
 21
67.9901
  0
LINE
  8
0
 10
-0.31395
 20
67.9901
 11
0.31395
 21
67.9901
  0
LINE
  8
0
 10
0.31395
 20
67.9901
 11
0.936905
 21
67.9114
  0
LINE
  8
0
 10
0.936905
 20
67.9114
 11
1.54507
 21
67.7553
  0
LINE
  8
0
 10
1.54507
 20
67.7553
 11
2.12889
 21
67.5241
  0
LINE
  8
0
 10
2.12889
 20
67.5241
 11
2.67912
 21
67.2216
  0
LINE
  8
0
 10
2.67912
 20
67.2216
 11
3.18712
 21
66.8526
  0
LINE
  8
0
 10
3.18712
 20
66.8526
 11
3.64484
 21
66.4227
  0
LINE
  8
0
 10
3.64484
 20
66.4227
 11
4.04507
 21
65.9389
  0
LINE
  8
0
 10
4.04507
 20
65.9389
 11
4.38153
 21
65.4088
  0
LINE
  8
0
 10
4.38153
 20
65.4088
 11
4.64888
 21
64.8406
  0
LINE
  8
0
 10
4.64888
 20
64.8406
 11
4.84291
 21
64.2434
  0
LINE
  8
0
 10
4.84291
 20
64.2434
 11
4.96057
 21
63.6267
  0
LINE
  8
0
 10
4.96057
 20
63.6267
 11
5
 21
63
  0
LINE
  8
0
 10
5
 20
63
 11
4.96057
 21
62.3733
  0
LINE
  8
0
 10
4.96057
 20
62.3733
 11
4.84291
 21
61.7566
  0
LINE
  8
0
 10
4.84291
 20
61.7566
 11
4.64888
 21
61.1594
  0
LINE
  8
0
 10
4.64888
 20
61.1594
 11
4.38153
 21
60.5912
  0
LINE
  8
0
 10
4.38153
 20
60.5912
 11
4.04507
 21
60.0611
  0
LINE
  8
0
 10
4.04507
 20
60.0611
 11
3.64484
 21
59.5773
  0
LINE
  8
0
 10
3.64484
 20
59.5773
 11
3.18712
 21
59.1474
  0
LINE
  8
0
 10
3.18712
 20
59.1474
 11
2.67912
 21
58.7784
  0
LINE
  8
0
 10
2.67912
 20
58.7784
 11
2.12889
 21
58.4759
  0
LINE
  8
0
 10
2.12889
 20
58.4759
 11
1.54507
 21
58.2447
  0
LINE
  8
0
 10
1.54507
 20
58.2447
 11
0.936905
 21
58.0886
  0
LINE
  8
0
 10
0.936905
 20
58.0886
 11
0.31395
 21
58.0099
  0
LINE
  8
0
 10
0.31395
 20
58.0099
 11
-0.31395
 21
58.0099
  0
LINE
  8
0
 10
-15.1884
 20
60.0059
 11
-15.5621
 21
60.0531
  0
LINE
  8
0
 10
-15.5621
 20
60.0531
 11
-15.927
 21
60.1468
  0
LINE
  8
0
 10
-15.927
 20
60.1468
 11
-16.2773
 21
60.2855
  0
LINE
  8
0
 10
-16.2773
 20
60.2855
 11
-16.6075
 21
60.467
  0
LINE
  8
0
 10
-16.6075
 20
60.467
 11
-16.9123
 21
60.6885
  0
LINE
  8
0
 10
-16.9123
 20
60.6885
 11
-17.1869
 21
60.9464
  0
LINE
  8
0
 10
-17.1869
 20
60.9464
 11
-17.427
 21
61.2366
  0
LINE
  8
0
 10
-17.427
 20
61.2366
 11
-17.6289
 21
61.5547
  0
LINE
  8
0
 10
-17.6289
 20
61.5547
 11
-17.7893
 21
61.8956
  0
LINE
  8
0
 10
-17.7893
 20
61.8956
 11
-17.9057
 21
62.2539
  0
LINE
  8
0
 10
-17.9057
 20
62.2539
 11
-17.9763
 21
62.624
  0
LINE
  8
0
 10
-17.9763
 20
62.624
 11
-18
 21
63
  0
LINE
  8
0
 10
-18
 20
63
 11
-17.9763
 21
63.376
  0
LINE
  8
0
 10
-17.9763
 20
63.376
 11
-17.9057
 21
63.7461
  0
LINE
  8
0
 10
-17.9057
 20
63.7461
 11
-17.7893
 21
64.1044
  0
LINE
  8
0
 10
-17.7893
 20
64.1044
 11
-17.6289
 21
64.4453
  0
LINE
  8
0
 10
-17.6289
 20
64.4453
 11
-17.427
 21
64.7634
  0
LINE
  8
0
 10
-17.427
 20
64.7634
 11
-17.1869
 21
65.0536
  0
LINE
  8
0
 10
-17.1869
 20
65.0536
 11
-16.9123
 21
65.3115
  0
LINE
  8
0
 10
-16.9123
 20
65.3115
 11
-16.6075
 21
65.533
  0
LINE
  8
0
 10
-16.6075
 20
65.533
 11
-16.2773
 21
65.7145
  0
LINE
  8
0
 10
-16.2773
 20
65.7145
 11
-15.927
 21
65.8532
  0
LINE
  8
0
 10
-15.927
 20
65.8532
 11
-15.5621
 21
65.9469
  0
LINE
  8
0
 10
-15.5621
 20
65.9469
 11
-15.1884
 21
65.9941
  0
LINE
  8
0
 10
-15.1884
 20
65.9941
 11
-14.8116
 21
65.9941
  0
LINE
  8
0
 10
-14.8116
 20
65.9941
 11
-14.4379
 21
65.9469
  0
LINE
  8
0
 10
-14.4379
 20
65.9469
 11
-14.0729
 21
65.8532
  0
LINE
  8
0
 10
-14.0729
 20
65.8532
 11
-13.7227
 21
65.7145
  0
LINE
  8
0
 10
-13.7227
 20
65.7145
 11
-13.3925
 21
65.533
  0
LINE
  8
0
 10
-13.3925
 20
65.533
 11
-13.0877
 21
65.3115
  0
LINE
  8
0
 10
-13.0877
 20
65.3115
 11
-12.8131
 21
65.0536
  0
LINE
  8
0
 10
-12.8131
 20
65.0536
 11
-12.5729
 21
64.7634
  0
LINE
  8
0
 10
-12.5729
 20
64.7634
 11
-12.3711
 21
64.4453
  0
LINE
  8
0
 10
-12.3711
 20
64.4453
 11
-12.2107
 21
64.1044
  0
LINE
  8
0
 10
-12.2107
 20
64.1044
 11
-12.0942
 21
63.7461
  0
LINE
  8
0
 10
-12.0942
 20
63.7461
 11
-12.0237
 21
63.376
  0
LINE
  8
0
 10
-12.0237
 20
63.376
 11
-12
 21
63
  0
LINE
  8
0
 10
-12
 20
63
 11
-12.0237
 21
62.624
  0
LINE
  8
0
 10
-12.0237
 20
62.624
 11
-12.0942
 21
62.2539
  0
LINE
  8
0
 10
-12.0942
 20
62.2539
 11
-12.2107
 21
61.8956
  0
LINE
  8
0
 10
-12.2107
 20
61.8956
 11
-12.3711
 21
61.5547
  0
LINE
  8
0
 10
-12.3711
 20
61.5547
 11
-12.5729
 21
61.2366
  0
LINE
  8
0
 10
-12.5729
 20
61.2366
 11
-12.8131
 21
60.9464
  0
LINE
  8
0
 10
-12.8131
 20
60.9464
 11
-13.0877
 21
60.6885
  0
LINE
  8
0
 10
-13.0877
 20
60.6885
 11
-13.3925
 21
60.467
  0
LINE
  8
0
 10
-13.3925
 20
60.467
 11
-13.7227
 21
60.2855
  0
LINE
  8
0
 10
-13.7227
 20
60.2855
 11
-14.0729
 21
60.1468
  0
LINE
  8
0
 10
-14.0729
 20
60.1468
 11
-14.4379
 21
60.0531
  0
LINE
  8
0
 10
-14.4379
 20
60.0531
 11
-14.8116
 21
60.0059
  0
LINE
  8
0
 10
-14.8116
 20
60.0059
 11
-15.1884
 21
60.0059
  0
LINE
  8
0
 10
14.8116
 20
60.0059
 11
14.4379
 21
60.0531
  0
LINE
  8
0
 10
14.4379
 20
60.0531
 11
14.0729
 21
60.1468
  0
LINE
  8
0
 10
14.0729
 20
60.1468
 11
13.7227
 21
60.2855
  0
LINE
  8
0
 10
13.7227
 20
60.2855
 11
13.3925
 21
60.467
  0
LINE
  8
0
 10
13.3925
 20
60.467
 11
13.0877
 21
60.6885
  0
LINE
  8
0
 10
13.0877
 20
60.6885
 11
12.8131
 21
60.9464
  0
LINE
  8
0
 10
12.8131
 20
60.9464
 11
12.5729
 21
61.2366
  0
LINE
  8
0
 10
12.5729
 20
61.2366
 11
12.3711
 21
61.5547
  0
LINE
  8
0
 10
12.3711
 20
61.5547
 11
12.2107
 21
61.8956
  0
LINE
  8
0
 10
12.2107
 20
61.8956
 11
12.0942
 21
62.2539
  0
LINE
  8
0
 10
12.0942
 20
62.2539
 11
12.0237
 21
62.624
  0
LINE
  8
0
 10
12.0237
 20
62.624
 11
12
 21
63
  0
LINE
  8
0
 10
12
 20
63
 11
12.0237
 21
63.376
  0
LINE
  8
0
 10
12.0237
 20
63.376
 11
12.0942
 21
63.7461
  0
LINE
  8
0
 10
12.0942
 20
63.7461
 11
12.2107
 21
64.1044
  0
LINE
  8
0
 10
12.2107
 20
64.1044
 11
12.3711
 21
64.4453
  0
LINE
  8
0
 10
12.3711
 20
64.4453
 11
12.5729
 21
64.7634
  0
LINE
  8
0
 10
12.5729
 20
64.7634
 11
12.8131
 21
65.0536
  0
LINE
  8
0
 10
12.8131
 20
65.0536
 11
13.0877
 21
65.3115
  0
LINE
  8
0
 10
13.0877
 20
65.3115
 11
13.3925
 21
65.533
  0
LINE
  8
0
 10
13.3925
 20
65.533
 11
13.7227
 21
65.7145
  0
LINE
  8
0
 10
13.7227
 20
65.7145
 11
14.0729
 21
65.8532
  0
LINE
  8
0
 10
14.0729
 20
65.8532
 11
14.4379
 21
65.9469
  0
LINE
  8
0
 10
14.4379
 20
65.9469
 11
14.8116
 21
65.9941
  0
LINE
  8
0
 10
14.8116
 20
65.9941
 11
15.1884
 21
65.9941
  0
LINE
  8
0
 10
15.1884
 20
65.9941
 11
15.5621
 21
65.9469
  0
LINE
  8
0
 10
15.5621
 20
65.9469
 11
15.927
 21
65.8532
  0
LINE
  8
0
 10
15.927
 20
65.8532
 11
16.2773
 21
65.7145
  0
LINE
  8
0
 10
16.2773
 20
65.7145
 11
16.6075
 21
65.533
  0
LINE
  8
0
 10
16.6075
 20
65.533
 11
16.9123
 21
65.3115
  0
LINE
  8
0
 10
16.9123
 20
65.3115
 11
17.1869
 21
65.0536
  0
LINE
  8
0
 10
17.1869
 20
65.0536
 11
17.427
 21
64.7634
  0
LINE
  8
0
 10
17.427
 20
64.7634
 11
17.6289
 21
64.4453
  0
LINE
  8
0
 10
17.6289
 20
64.4453
 11
17.7893
 21
64.1044
  0
LINE
  8
0
 10
17.7893
 20
64.1044
 11
17.9057
 21
63.7461
  0
LINE
  8
0
 10
17.9057
 20
63.7461
 11
17.9763
 21
63.376
  0
LINE
  8
0
 10
17.9763
 20
63.376
 11
18
 21
63
  0
LINE
  8
0
 10
18
 20
63
 11
17.9763
 21
62.624
  0
LINE
  8
0
 10
17.9763
 20
62.624
 11
17.9057
 21
62.2539
  0
LINE
  8
0
 10
17.9057
 20
62.2539
 11
17.7893
 21
61.8956
  0
LINE
  8
0
 10
17.7893
 20
61.8956
 11
17.6289
 21
61.5547
  0
LINE
  8
0
 10
17.6289
 20
61.5547
 11
17.427
 21
61.2366
  0
LINE
  8
0
 10
17.427
 20
61.2366
 11
17.1869
 21
60.9464
  0
LINE
  8
0
 10
17.1869
 20
60.9464
 11
16.9123
 21
60.6885
  0
LINE
  8
0
 10
16.9123
 20
60.6885
 11
16.6075
 21
60.467
  0
LINE
  8
0
 10
16.6075
 20
60.467
 11
16.2773
 21
60.2855
  0
LINE
  8
0
 10
16.2773
 20
60.2855
 11
15.927
 21
60.1468
  0
LINE
  8
0
 10
15.927
 20
60.1468
 11
15.5621
 21
60.0531
  0
LINE
  8
0
 10
15.5621
 20
60.0531
 11
15.1884
 21
60.0059
  0
LINE
  8
0
 10
15.1884
 20
60.0059
 11
14.8116
 21
60.0059
  0
ENDSEC
  0
SECTION
  2
OBJECTS
  0
DICTIONARY
  0
ENDSEC
  0
EOF
