  0
SECTION
  2
BLOCKS
  0
ENDSEC
  0
SECTION
  2
ENTITIES
  0
LINE
  8
0
 10
17.9369
 20
102.589
 11
18.5451
 21
102.745
  0
LINE
  8
0
 10
18.5451
 20
102.745
 11
19.1289
 21
102.976
  0
LINE
  8
0
 10
19.1289
 20
102.976
 11
19.6791
 21
103.278
  0
LINE
  8
0
 10
19.6791
 20
103.278
 11
20.1871
 21
103.647
  0
LINE
  8
0
 10
20.1871
 20
103.647
 11
20.6448
 21
104.077
  0
LINE
  8
0
 10
20.6448
 20
104.077
 11
21.0451
 21
104.561
  0
LINE
  8
0
 10
21.0451
 20
104.561
 11
21.3815
 21
105.091
  0
LINE
  8
0
 10
21.3815
 20
105.091
 11
21.6489
 21
105.659
  0
LINE
  8
0
 10
21.6489
 20
105.659
 11
21.8429
 21
106.257
  0
LINE
  8
0
 10
21.8429
 20
106.257
 11
21.9606
 21
106.873
  0
LINE
  8
0
 10
21.9606
 20
106.873
 11
22
 21
107.5
  0
LINE
  8
0
 10
22
 20
107.5
 11
22
 21
126.5
  0
LINE
  8
0
 10
22
 20
126.5
 11
21.9606
 21
127.127
  0
LINE
  8
0
 10
21.9606
 20
127.127
 11
21.8429
 21
127.743
  0
LINE
  8
0
 10
21.8429
 20
127.743
 11
21.6489
 21
128.341
  0
LINE
  8
0
 10
21.6489
 20
128.341
 11
21.3815
 21
128.909
  0
LINE
  8
0
 10
21.3815
 20
128.909
 11
21.0451
 21
129.439
  0
LINE
  8
0
 10
21.0451
 20
129.439
 11
20.6448
 21
129.923
  0
LINE
  8
0
 10
20.6448
 20
129.923
 11
20.1871
 21
130.353
  0
LINE
  8
0
 10
20.1871
 20
130.353
 11
19.6791
 21
130.722
  0
LINE
  8
0
 10
19.6791
 20
130.722
 11
19.1289
 21
131.024
  0
LINE
  8
0
 10
19.1289
 20
131.024
 11
18.5451
 21
131.255
  0
LINE
  8
0
 10
18.5451
 20
131.255
 11
17.9369
 21
131.411
  0
LINE
  8
0
 10
17.9369
 20
131.411
 11
17.3139
 21
131.49
  0
LINE
  8
0
 10
17.3139
 20
131.49
 11
-17.3139
 21
131.49
  0
LINE
  8
0
 10
-17.3139
 20
131.49
 11
-17.9369
 21
131.411
  0
LINE
  8
0
 10
-17.9369
 20
131.411
 11
-18.5451
 21
131.255
  0
LINE
  8
0
 10
-18.5451
 20
131.255
 11
-19.1289
 21
131.024
  0
LINE
  8
0
 10
-19.1289
 20
131.024
 11
-19.6791
 21
130.722
  0
LINE
  8
0
 10
-19.6791
 20
130.722
 11
-20.1871
 21
130.353
  0
LINE
  8
0
 10
-20.1871
 20
130.353
 11
-20.6448
 21
129.923
  0
LINE
  8
0
 10
-20.6448
 20
129.923
 11
-21.0451
 21
129.439
  0
LINE
  8
0
 10
-21.0451
 20
129.439
 11
-21.3815
 21
128.909
  0
LINE
  8
0
 10
-21.3815
 20
128.909
 11
-21.6489
 21
128.341
  0
LINE
  8
0
 10
-21.6489
 20
128.341
 11
-21.8429
 21
127.743
  0
LINE
  8
0
 10
-21.8429
 20
127.743
 11
-21.9606
 21
127.127
  0
LINE
  8
0
 10
-21.9606
 20
127.127
 11
-22
 21
126.5
  0
LINE
  8
0
 10
-22
 20
126.5
 11
-22
 21
107.5
  0
LINE
  8
0
 10
-22
 20
107.5
 11
-21.9606
 21
106.873
  0
LINE
  8
0
 10
-21.9606
 20
106.873
 11
-21.8429
 21
106.257
  0
LINE
  8
0
 10
-21.8429
 20
106.257
 11
-21.6489
 21
105.659
  0
LINE
  8
0
 10
-21.6489
 20
105.659
 11
-21.3815
 21
105.091
  0
LINE
  8
0
 10
-21.3815
 20
105.091
 11
-21.0451
 21
104.561
  0
LINE
  8
0
 10
-21.0451
 20
104.561
 11
-20.6448
 21
104.077
  0
LINE
  8
0
 10
-20.6448
 20
104.077
 11
-20.1871
 21
103.647
  0
LINE
  8
0
 10
-20.1871
 20
103.647
 11
-19.6791
 21
103.278
  0
LINE
  8
0
 10
-19.6791
 20
103.278
 11
-19.1289
 21
102.976
  0
LINE
  8
0
 10
-19.1289
 20
102.976
 11
-18.5451
 21
102.745
  0
LINE
  8
0
 10
-18.5451
 20
102.745
 11
-17.9369
 21
102.589
  0
LINE
  8
0
 10
-17.9369
 20
102.589
 11
-17.3139
 21
102.51
  0
LINE
  8
0
 10
-17.3139
 20
102.51
 11
17.3139
 21
102.51
  0
LINE
  8
0
 10
17.3139
 20
102.51
 11
17.9369
 21
102.589
  0
LINE
  8
0
 10
-0.37674
 20
118.512
 11
-1.12428
 21
118.606
  0
LINE
  8
0
 10
-1.12428
 20
118.606
 11
-1.8541
 21
118.794
  0
LINE
  8
0
 10
-1.8541
 20
118.794
 11
-2.55467
 21
119.071
  0
LINE
  8
0
 10
-2.55467
 20
119.071
 11
-3.21495
 21
119.434
  0
LINE
  8
0
 10
-3.21495
 20
119.434
 11
-3.82454
 21
119.877
  0
LINE
  8
0
 10
-3.82454
 20
119.877
 11
-4.37381
 21
120.393
  0
LINE
  8
0
 10
-4.37381
 20
120.393
 11
-4.8541
 21
120.973
  0
LINE
  8
0
 10
-4.8541
 20
120.973
 11
-5.25783
 21
121.609
  0
LINE
  8
0
 10
-5.25783
 20
121.609
 11
-5.57864
 21
122.291
  0
LINE
  8
0
 10
-5.57864
 20
122.291
 11
-5.81149
 21
123.008
  0
LINE
  8
0
 10
-5.81149
 20
123.008
 11
-5.95268
 21
123.748
  0
LINE
  8
0
 10
-5.95268
 20
123.748
 11
-6
 21
124.5
  0
LINE
  8
0
 10
-6
 20
124.5
 11
-5.95268
 21
125.252
  0
LINE
  8
0
 10
-5.95268
 20
125.252
 11
-5.81149
 21
125.992
  0
LINE
  8
0
 10
-5.81149
 20
125.992
 11
-5.57864
 21
126.709
  0
LINE
  8
0
 10
-5.57864
 20
126.709
 11
-5.25783
 21
127.391
  0
LINE
  8
0
 10
-5.25783
 20
127.391
 11
-4.8541
 21
128.027
  0
LINE
  8
0
 10
-4.8541
 20
128.027
 11
-4.37381
 21
128.607
  0
LINE
  8
0
 10
-4.37381
 20
128.607
 11
-3.82454
 21
129.123
  0
LINE
  8
0
 10
-3.82454
 20
129.123
 11
-3.21495
 21
129.566
  0
LINE
  8
0
 10
-3.21495
 20
129.566
 11
-2.55467
 21
129.929
  0
LINE
  8
0
 10
-2.55467
 20
129.929
 11
-1.8541
 21
130.206
  0
LINE
  8
0
 10
-1.8541
 20
130.206
 11
-1.12428
 21
130.394
  0
LINE
  8
0
 10
-1.12428
 20
130.394
 11
-0.37674
 21
130.488
  0
LINE
  8
0
 10
-0.37674
 20
130.488
 11
0.37674
 21
130.488
  0
LINE
  8
0
 10
0.37674
 20
130.488
 11
1.12428
 21
130.394
  0
LINE
  8
0
 10
1.12428
 20
130.394
 11
1.8541
 21
130.206
  0
LINE
  8
0
 10
1.8541
 20
130.206
 11
2.55467
 21
129.929
  0
LINE
  8
0
 10
2.55467
 20
129.929
 11
3.21495
 21
129.566
  0
LINE
  8
0
 10
3.21495
 20
129.566
 11
3.82454
 21
129.123
  0
LINE
  8
0
 10
3.82454
 20
129.123
 11
4.37381
 21
128.607
  0
LINE
  8
0
 10
4.37381
 20
128.607
 11
4.8541
 21
128.027
  0
LINE
  8
0
 10
4.8541
 20
128.027
 11
5.25783
 21
127.391
  0
LINE
  8
0
 10
5.25783
 20
127.391
 11
5.57864
 21
126.709
  0
LINE
  8
0
 10
5.57864
 20
126.709
 11
5.81149
 21
125.992
  0
LINE
  8
0
 10
5.81149
 20
125.992
 11
5.95268
 21
125.252
  0
LINE
  8
0
 10
5.95268
 20
125.252
 11
6
 21
124.5
  0
LINE
  8
0
 10
6
 20
124.5
 11
5.95268
 21
123.748
  0
LINE
  8
0
 10
5.95268
 20
123.748
 11
5.81149
 21
123.008
  0
LINE
  8
0
 10
5.81149
 20
123.008
 11
5.57864
 21
122.291
  0
LINE
  8
0
 10
5.57864
 20
122.291
 11
5.25783
 21
121.609
  0
LINE
  8
0
 10
5.25783
 20
121.609
 11
4.8541
 21
120.973
  0
LINE
  8
0
 10
4.8541
 20
120.973
 11
4.37381
 21
120.393
  0
LINE
  8
0
 10
4.37381
 20
120.393
 11
3.82454
 21
119.877
  0
LINE
  8
0
 10
3.82454
 20
119.877
 11
3.21495
 21
119.434
  0
LINE
  8
0
 10
3.21495
 20
119.434
 11
2.55467
 21
119.071
  0
LINE
  8
0
 10
2.55467
 20
119.071
 11
1.8541
 21
118.794
  0
LINE
  8
0
 10
1.8541
 20
118.794
 11
1.12428
 21
118.606
  0
LINE
  8
0
 10
1.12428
 20
118.606
 11
0.37674
 21
118.512
  0
LINE
  8
0
 10
0.37674
 20
118.512
 11
-0.37674
 21
118.512
  0
LINE
  8
0
 10
-15.1884
 20
121.506
 11
-15.5621
 21
121.553
  0
LINE
  8
0
 10
-15.5621
 20
121.553
 11
-15.927
 21
121.647
  0
LINE
  8
0
 10
-15.927
 20
121.647
 11
-16.2773
 21
121.786
  0
LINE
  8
0
 10
-16.2773
 20
121.786
 11
-16.6075
 21
121.967
  0
LINE
  8
0
 10
-16.6075
 20
121.967
 11
-16.9123
 21
122.188
  0
LINE
  8
0
 10
-16.9123
 20
122.188
 11
-17.1869
 21
122.446
  0
LINE
  8
0
 10
-17.1869
 20
122.446
 11
-17.427
 21
122.737
  0
LINE
  8
0
 10
-17.427
 20
122.737
 11
-17.6289
 21
123.055
  0
LINE
  8
0
 10
-17.6289
 20
123.055
 11
-17.7893
 21
123.396
  0
LINE
  8
0
 10
-17.7893
 20
123.396
 11
-17.9057
 21
123.754
  0
LINE
  8
0
 10
-17.9057
 20
123.754
 11
-17.9763
 21
124.124
  0
LINE
  8
0
 10
-17.9763
 20
124.124
 11
-18
 21
124.5
  0
LINE
  8
0
 10
-18
 20
124.5
 11
-17.9763
 21
124.876
  0
LINE
  8
0
 10
-17.9763
 20
124.876
 11
-17.9057
 21
125.246
  0
LINE
  8
0
 10
-17.9057
 20
125.246
 11
-17.7893
 21
125.604
  0
LINE
  8
0
 10
-17.7893
 20
125.604
 11
-17.6289
 21
125.945
  0
LINE
  8
0
 10
-17.6289
 20
125.945
 11
-17.427
 21
126.263
  0
LINE
  8
0
 10
-17.427
 20
126.263
 11
-17.1869
 21
126.554
  0
LINE
  8
0
 10
-17.1869
 20
126.554
 11
-16.9123
 21
126.812
  0
LINE
  8
0
 10
-16.9123
 20
126.812
 11
-16.6075
 21
127.033
  0
LINE
  8
0
 10
-16.6075
 20
127.033
 11
-16.2773
 21
127.214
  0
LINE
  8
0
 10
-16.2773
 20
127.214
 11
-15.927
 21
127.353
  0
LINE
  8
0
 10
-15.927
 20
127.353
 11
-15.5621
 21
127.447
  0
LINE
  8
0
 10
-15.5621
 20
127.447
 11
-15.1884
 21
127.494
  0
LINE
  8
0
 10
-15.1884
 20
127.494
 11
-14.8116
 21
127.494
  0
LINE
  8
0
 10
-14.8116
 20
127.494
 11
-14.4379
 21
127.447
  0
LINE
  8
0
 10
-14.4379
 20
127.447
 11
-14.0729
 21
127.353
  0
LINE
  8
0
 10
-14.0729
 20
127.353
 11
-13.7227
 21
127.214
  0
LINE
  8
0
 10
-13.7227
 20
127.214
 11
-13.3925
 21
127.033
  0
LINE
  8
0
 10
-13.3925
 20
127.033
 11
-13.0877
 21
126.812
  0
LINE
  8
0
 10
-13.0877
 20
126.812
 11
-12.8131
 21
126.554
  0
LINE
  8
0
 10
-12.8131
 20
126.554
 11
-12.5729
 21
126.263
  0
LINE
  8
0
 10
-12.5729
 20
126.263
 11
-12.3711
 21
125.945
  0
LINE
  8
0
 10
-12.3711
 20
125.945
 11
-12.2107
 21
125.604
  0
LINE
  8
0
 10
-12.2107
 20
125.604
 11
-12.0942
 21
125.246
  0
LINE
  8
0
 10
-12.0942
 20
125.246
 11
-12.0237
 21
124.876
  0
LINE
  8
0
 10
-12.0237
 20
124.876
 11
-12
 21
124.5
  0
LINE
  8
0
 10
-12
 20
124.5
 11
-12.0237
 21
124.124
  0
LINE
  8
0
 10
-12.0237
 20
124.124
 11
-12.0942
 21
123.754
  0
LINE
  8
0
 10
-12.0942
 20
123.754
 11
-12.2107
 21
123.396
  0
LINE
  8
0
 10
-12.2107
 20
123.396
 11
-12.3711
 21
123.055
  0
LINE
  8
0
 10
-12.3711
 20
123.055
 11
-12.5729
 21
122.737
  0
LINE
  8
0
 10
-12.5729
 20
122.737
 11
-12.8131
 21
122.446
  0
LINE
  8
0
 10
-12.8131
 20
122.446
 11
-13.0877
 21
122.188
  0
LINE
  8
0
 10
-13.0877
 20
122.188
 11
-13.3925
 21
121.967
  0
LINE
  8
0
 10
-13.3925
 20
121.967
 11
-13.7227
 21
121.786
  0
LINE
  8
0
 10
-13.7227
 20
121.786
 11
-14.0729
 21
121.647
  0
LINE
  8
0
 10
-14.0729
 20
121.647
 11
-14.4379
 21
121.553
  0
LINE
  8
0
 10
-14.4379
 20
121.553
 11
-14.8116
 21
121.506
  0
LINE
  8
0
 10
-14.8116
 20
121.506
 11
-15.1884
 21
121.506
  0
LINE
  8
0
 10
14.8116
 20
121.506
 11
14.4379
 21
121.553
  0
LINE
  8
0
 10
14.4379
 20
121.553
 11
14.0729
 21
121.647
  0
LINE
  8
0
 10
14.0729
 20
121.647
 11
13.7227
 21
121.786
  0
LINE
  8
0
 10
13.7227
 20
121.786
 11
13.3925
 21
121.967
  0
LINE
  8
0
 10
13.3925
 20
121.967
 11
13.0877
 21
122.188
  0
LINE
  8
0
 10
13.0877
 20
122.188
 11
12.8131
 21
122.446
  0
LINE
  8
0
 10
12.8131
 20
122.446
 11
12.5729
 21
122.737
  0
LINE
  8
0
 10
12.5729
 20
122.737
 11
12.3711
 21
123.055
  0
LINE
  8
0
 10
12.3711
 20
123.055
 11
12.2107
 21
123.396
  0
LINE
  8
0
 10
12.2107
 20
123.396
 11
12.0942
 21
123.754
  0
LINE
  8
0
 10
12.0942
 20
123.754
 11
12.0237
 21
124.124
  0
LINE
  8
0
 10
12.0237
 20
124.124
 11
12
 21
124.5
  0
LINE
  8
0
 10
12
 20
124.5
 11
12.0237
 21
124.876
  0
LINE
  8
0
 10
12.0237
 20
124.876
 11
12.0942
 21
125.246
  0
LINE
  8
0
 10
12.0942
 20
125.246
 11
12.2107
 21
125.604
  0
LINE
  8
0
 10
12.2107
 20
125.604
 11
12.3711
 21
125.945
  0
LINE
  8
0
 10
12.3711
 20
125.945
 11
12.5729
 21
126.263
  0
LINE
  8
0
 10
12.5729
 20
126.263
 11
12.8131
 21
126.554
  0
LINE
  8
0
 10
12.8131
 20
126.554
 11
13.0877
 21
126.812
  0
LINE
  8
0
 10
13.0877
 20
126.812
 11
13.3925
 21
127.033
  0
LINE
  8
0
 10
13.3925
 20
127.033
 11
13.7227
 21
127.214
  0
LINE
  8
0
 10
13.7227
 20
127.214
 11
14.0729
 21
127.353
  0
LINE
  8
0
 10
14.0729
 20
127.353
 11
14.4379
 21
127.447
  0
LINE
  8
0
 10
14.4379
 20
127.447
 11
14.8116
 21
127.494
  0
LINE
  8
0
 10
14.8116
 20
127.494
 11
15.1884
 21
127.494
  0
LINE
  8
0
 10
15.1884
 20
127.494
 11
15.5621
 21
127.447
  0
LINE
  8
0
 10
15.5621
 20
127.447
 11
15.927
 21
127.353
  0
LINE
  8
0
 10
15.927
 20
127.353
 11
16.2773
 21
127.214
  0
LINE
  8
0
 10
16.2773
 20
127.214
 11
16.6075
 21
127.033
  0
LINE
  8
0
 10
16.6075
 20
127.033
 11
16.9123
 21
126.812
  0
LINE
  8
0
 10
16.9123
 20
126.812
 11
17.1869
 21
126.554
  0
LINE
  8
0
 10
17.1869
 20
126.554
 11
17.427
 21
126.263
  0
LINE
  8
0
 10
17.427
 20
126.263
 11
17.6289
 21
125.945
  0
LINE
  8
0
 10
17.6289
 20
125.945
 11
17.7893
 21
125.604
  0
LINE
  8
0
 10
17.7893
 20
125.604
 11
17.9057
 21
125.246
  0
LINE
  8
0
 10
17.9057
 20
125.246
 11
17.9763
 21
124.876
  0
LINE
  8
0
 10
17.9763
 20
124.876
 11
18
 21
124.5
  0
LINE
  8
0
 10
18
 20
124.5
 11
17.9763
 21
124.124
  0
LINE
  8
0
 10
17.9763
 20
124.124
 11
17.9057
 21
123.754
  0
LINE
  8
0
 10
17.9057
 20
123.754
 11
17.7893
 21
123.396
  0
LINE
  8
0
 10
17.7893
 20
123.396
 11
17.6289
 21
123.055
  0
LINE
  8
0
 10
17.6289
 20
123.055
 11
17.427
 21
122.737
  0
LINE
  8
0
 10
17.427
 20
122.737
 11
17.1869
 21
122.446
  0
LINE
  8
0
 10
17.1869
 20
122.446
 11
16.9123
 21
122.188
  0
LINE
  8
0
 10
16.9123
 20
122.188
 11
16.6075
 21
121.967
  0
LINE
  8
0
 10
16.6075
 20
121.967
 11
16.2773
 21
121.786
  0
LINE
  8
0
 10
16.2773
 20
121.786
 11
15.927
 21
121.647
  0
LINE
  8
0
 10
15.927
 20
121.647
 11
15.5621
 21
121.553
  0
LINE
  8
0
 10
15.5621
 20
121.553
 11
15.1884
 21
121.506
  0
LINE
  8
0
 10
15.1884
 20
121.506
 11
14.8116
 21
121.506
  0
LINE
  8
0
 10
14.9058
 20
115.503
 11
14.7189
 21
115.527
  0
LINE
  8
0
 10
14.7189
 20
115.527
 11
14.5365
 21
115.573
  0
LINE
  8
0
 10
14.5365
 20
115.573
 11
14.3613
 21
115.643
  0
LINE
  8
0
 10
14.3613
 20
115.643
 11
14.1963
 21
115.734
  0
LINE
  8
0
 10
14.1963
 20
115.734
 11
14.0439
 21
115.844
  0
LINE
  8
0
 10
14.0439
 20
115.844
 11
13.9065
 21
115.973
  0
LINE
  8
0
 10
13.9065
 20
115.973
 11
13.7865
 21
116.118
  0
LINE
  8
0
 10
13.7865
 20
116.118
 11
13.6855
 21
116.277
  0
LINE
  8
0
 10
13.6855
 20
116.277
 11
13.6053
 21
116.448
  0
LINE
  8
0
 10
13.6053
 20
116.448
 11
13.5471
 21
116.627
  0
LINE
  8
0
 10
13.5471
 20
116.627
 11
13.5118
 21
116.812
  0
LINE
  8
0
 10
13.5118
 20
116.812
 11
13.5
 21
117
  0
LINE
  8
0
 10
13.5
 20
117
 11
13.5118
 21
117.188
  0
LINE
  8
0
 10
13.5118
 20
117.188
 11
13.5471
 21
117.373
  0
LINE
  8
0
 10
13.5471
 20
117.373
 11
13.6053
 21
117.552
  0
LINE
  8
0
 10
13.6053
 20
117.552
 11
13.6855
 21
117.723
  0
LINE
  8
0
 10
13.6855
 20
117.723
 11
13.7865
 21
117.882
  0
LINE
  8
0
 10
13.7865
 20
117.882
 11
13.9065
 21
118.027
  0
LINE
  8
0
 10
13.9065
 20
118.027
 11
14.0439
 21
118.156
  0
LINE
  8
0
 10
14.0439
 20
118.156
 11
14.1963
 21
118.266
  0
LINE
  8
0
 10
14.1963
 20
118.266
 11
14.3613
 21
118.357
  0
LINE
  8
0
 10
14.3613
 20
118.357
 11
14.5365
 21
118.427
  0
LINE
  8
0
 10
14.5365
 20
118.427
 11
14.7189
 21
118.473
  0
LINE
  8
0
 10
14.7189
 20
118.473
 11
14.9058
 21
118.497
  0
LINE
  8
0
 10
14.9058
 20
118.497
 11
15.0942
 21
118.497
  0
LINE
  8
0
 10
15.0942
 20
118.497
 11
15.2811
 21
118.473
  0
LINE
  8
0
 10
15.2811
 20
118.473
 11
15.4635
 21
118.427
  0
LINE
  8
0
 10
15.4635
 20
118.427
 11
15.6387
 21
118.357
  0
LINE
  8
0
 10
15.6387
 20
118.357
 11
15.8037
 21
118.266
  0
LINE
  8
0
 10
15.8037
 20
118.266
 11
15.9561
 21
118.156
  0
LINE
  8
0
 10
15.9561
 20
118.156
 11
16.0934
 21
118.027
  0
LINE
  8
0
 10
16.0934
 20
118.027
 11
16.2135
 21
117.882
  0
LINE
  8
0
 10
16.2135
 20
117.882
 11
16.3145
 21
117.723
  0
LINE
  8
0
 10
16.3145
 20
117.723
 11
16.3947
 21
117.552
  0
LINE
  8
0
 10
16.3947
 20
117.552
 11
16.4529
 21
117.373
  0
LINE
  8
0
 10
16.4529
 20
117.373
 11
16.4882
 21
117.188
  0
LINE
  8
0
 10
16.4882
 20
117.188
 11
16.5
 21
117
  0
LINE
  8
0
 10
16.5
 20
117
 11
16.4882
 21
116.812
  0
LINE
  8
0
 10
16.4882
 20
116.812
 11
16.4529
 21
116.627
  0
LINE
  8
0
 10
16.4529
 20
116.627
 11
16.3947
 21
116.448
  0
LINE
  8
0
 10
16.3947
 20
116.448
 11
16.3145
 21
116.277
  0
LINE
  8
0
 10
16.3145
 20
116.277
 11
16.2135
 21
116.118
  0
LINE
  8
0
 10
16.2135
 20
116.118
 11
16.0934
 21
115.973
  0
LINE
  8
0
 10
16.0934
 20
115.973
 11
15.9561
 21
115.844
  0
LINE
  8
0
 10
15.9561
 20
115.844
 11
15.8037
 21
115.734
  0
LINE
  8
0
 10
15.8037
 20
115.734
 11
15.6387
 21
115.643
  0
LINE
  8
0
 10
15.6387
 20
115.643
 11
15.4635
 21
115.573
  0
LINE
  8
0
 10
15.4635
 20
115.573
 11
15.2811
 21
115.527
  0
LINE
  8
0
 10
15.2811
 20
115.527
 11
15.0942
 21
115.503
  0
LINE
  8
0
 10
15.0942
 20
115.503
 11
14.9058
 21
115.503
  0
LINE
  8
0
 10
-15.0942
 20
115.503
 11
-15.2811
 21
115.527
  0
LINE
  8
0
 10
-15.2811
 20
115.527
 11
-15.4635
 21
115.573
  0
LINE
  8
0
 10
-15.4635
 20
115.573
 11
-15.6387
 21
115.643
  0
LINE
  8
0
 10
-15.6387
 20
115.643
 11
-15.8037
 21
115.734
  0
LINE
  8
0
 10
-15.8037
 20
115.734
 11
-15.9561
 21
115.844
  0
LINE
  8
0
 10
-15.9561
 20
115.844
 11
-16.0934
 21
115.973
  0
LINE
  8
0
 10
-16.0934
 20
115.973
 11
-16.2135
 21
116.118
  0
LINE
  8
0
 10
-16.2135
 20
116.118
 11
-16.3145
 21
116.277
  0
LINE
  8
0
 10
-16.3145
 20
116.277
 11
-16.3947
 21
116.448
  0
LINE
  8
0
 10
-16.3947
 20
116.448
 11
-16.4529
 21
116.627
  0
LINE
  8
0
 10
-16.4529
 20
116.627
 11
-16.4882
 21
116.812
  0
LINE
  8
0
 10
-16.4882
 20
116.812
 11
-16.5
 21
117
  0
LINE
  8
0
 10
-16.5
 20
117
 11
-16.4882
 21
117.188
  0
LINE
  8
0
 10
-16.4882
 20
117.188
 11
-16.4529
 21
117.373
  0
LINE
  8
0
 10
-16.4529
 20
117.373
 11
-16.3947
 21
117.552
  0
LINE
  8
0
 10
-16.3947
 20
117.552
 11
-16.3145
 21
117.723
  0
LINE
  8
0
 10
-16.3145
 20
117.723
 11
-16.2135
 21
117.882
  0
LINE
  8
0
 10
-16.2135
 20
117.882
 11
-16.0934
 21
118.027
  0
LINE
  8
0
 10
-16.0934
 20
118.027
 11
-15.9561
 21
118.156
  0
LINE
  8
0
 10
-15.9561
 20
118.156
 11
-15.8037
 21
118.266
  0
LINE
  8
0
 10
-15.8037
 20
118.266
 11
-15.6387
 21
118.357
  0
LINE
  8
0
 10
-15.6387
 20
118.357
 11
-15.4635
 21
118.427
  0
LINE
  8
0
 10
-15.4635
 20
118.427
 11
-15.2811
 21
118.473
  0
LINE
  8
0
 10
-15.2811
 20
118.473
 11
-15.0942
 21
118.497
  0
LINE
  8
0
 10
-15.0942
 20
118.497
 11
-14.9058
 21
118.497
  0
LINE
  8
0
 10
-14.9058
 20
118.497
 11
-14.7189
 21
118.473
  0
LINE
  8
0
 10
-14.7189
 20
118.473
 11
-14.5365
 21
118.427
  0
LINE
  8
0
 10
-14.5365
 20
118.427
 11
-14.3613
 21
118.357
  0
LINE
  8
0
 10
-14.3613
 20
118.357
 11
-14.1963
 21
118.266
  0
LINE
  8
0
 10
-14.1963
 20
118.266
 11
-14.0439
 21
118.156
  0
LINE
  8
0
 10
-14.0439
 20
118.156
 11
-13.9065
 21
118.027
  0
LINE
  8
0
 10
-13.9065
 20
118.027
 11
-13.7865
 21
117.882
  0
LINE
  8
0
 10
-13.7865
 20
117.882
 11
-13.6855
 21
117.723
  0
LINE
  8
0
 10
-13.6855
 20
117.723
 11
-13.6053
 21
117.552
  0
LINE
  8
0
 10
-13.6053
 20
117.552
 11
-13.5471
 21
117.373
  0
LINE
  8
0
 10
-13.5471
 20
117.373
 11
-13.5118
 21
117.188
  0
LINE
  8
0
 10
-13.5118
 20
117.188
 11
-13.5
 21
117
  0
LINE
  8
0
 10
-13.5
 20
117
 11
-13.5118
 21
116.812
  0
LINE
  8
0
 10
-13.5118
 20
116.812
 11
-13.5471
 21
116.627
  0
LINE
  8
0
 10
-13.5471
 20
116.627
 11
-13.6053
 21
116.448
  0
LINE
  8
0
 10
-13.6053
 20
116.448
 11
-13.6855
 21
116.277
  0
LINE
  8
0
 10
-13.6855
 20
116.277
 11
-13.7865
 21
116.118
  0
LINE
  8
0
 10
-13.7865
 20
116.118
 11
-13.9065
 21
115.973
  0
LINE
  8
0
 10
-13.9065
 20
115.973
 11
-14.0439
 21
115.844
  0
LINE
  8
0
 10
-14.0439
 20
115.844
 11
-14.1963
 21
115.734
  0
LINE
  8
0
 10
-14.1963
 20
115.734
 11
-14.3613
 21
115.643
  0
LINE
  8
0
 10
-14.3613
 20
115.643
 11
-14.5365
 21
115.573
  0
LINE
  8
0
 10
-14.5365
 20
115.573
 11
-14.7189
 21
115.527
  0
LINE
  8
0
 10
-14.7189
 20
115.527
 11
-14.9058
 21
115.503
  0
LINE
  8
0
 10
-14.9058
 20
115.503
 11
-15.0942
 21
115.503
  0
LINE
  8
0
 10
12.115
 20
104.503
 11
9.23001
 21
109.5
  0
LINE
  8
0
 10
9.23001
 20
109.5
 11
12.115
 21
114.497
  0
LINE
  8
0
 10
12.115
 20
114.497
 11
17.885
 21
114.497
  0
LINE
  8
0
 10
17.885
 20
114.497
 11
20.77
 21
109.5
  0
LINE
  8
0
 10
20.77
 20
109.5
 11
17.885
 21
104.503
  0
LINE
  8
0
 10
17.885
 20
104.503
 11
12.115
 21
104.503
  0
LINE
  8
0
 10
-2.88499
 20
104.503
 11
-5.76999
 21
109.5
  0
LINE
  8
0
 10
-5.76999
 20
109.5
 11
-2.88499
 21
114.497
  0
LINE
  8
0
 10
-2.88499
 20
114.497
 11
2.88499
 21
114.497
  0
LINE
  8
0
 10
2.88499
 20
114.497
 11
5.76999
 21
109.5
  0
LINE
  8
0
 10
5.76999
 20
109.5
 11
2.88499
 21
104.503
  0
LINE
  8
0
 10
2.88499
 20
104.503
 11
-2.88499
 21
104.503
  0
LINE
  8
0
 10
-17.885
 20
104.503
 11
-20.77
 21
109.5
  0
LINE
  8
0
 10
-20.77
 20
109.5
 11
-17.885
 21
114.497
  0
LINE
  8
0
 10
-17.885
 20
114.497
 11
-12.115
 21
114.497
  0
LINE
  8
0
 10
-12.115
 20
114.497
 11
-9.23001
 21
109.5
  0
LINE
  8
0
 10
-9.23001
 20
109.5
 11
-12.115
 21
104.503
  0
LINE
  8
0
 10
-12.115
 20
104.503
 11
-17.885
 21
104.503
  0
LINE
  8
0
 10
7.40581
 20
108.003
 11
7.21892
 21
108.027
  0
LINE
  8
0
 10
7.21892
 20
108.027
 11
7.03647
 21
108.073
  0
LINE
  8
0
 10
7.03647
 20
108.073
 11
6.86133
 21
108.143
  0
LINE
  8
0
 10
6.86133
 20
108.143
 11
6.69626
 21
108.234
  0
LINE
  8
0
 10
6.69626
 20
108.234
 11
6.54385
 21
108.344
  0
LINE
  8
0
 10
6.54385
 20
108.344
 11
6.40654
 21
108.473
  0
LINE
  8
0
 10
6.40654
 20
108.473
 11
6.28647
 21
108.618
  0
LINE
  8
0
 10
6.28647
 20
108.618
 11
6.18553
 21
108.777
  0
LINE
  8
0
 10
6.18553
 20
108.777
 11
6.10533
 21
108.948
  0
LINE
  8
0
 10
6.10533
 20
108.948
 11
6.04712
 21
109.127
  0
LINE
  8
0
 10
6.04712
 20
109.127
 11
6.01183
 21
109.312
  0
LINE
  8
0
 10
6.01183
 20
109.312
 11
6
 21
109.5
  0
LINE
  8
0
 10
6
 20
109.5
 11
6.01183
 21
109.688
  0
LINE
  8
0
 10
6.01183
 20
109.688
 11
6.04712
 21
109.873
  0
LINE
  8
0
 10
6.04712
 20
109.873
 11
6.10533
 21
110.052
  0
LINE
  8
0
 10
6.10533
 20
110.052
 11
6.18553
 21
110.223
  0
LINE
  8
0
 10
6.18553
 20
110.223
 11
6.28647
 21
110.382
  0
LINE
  8
0
 10
6.28647
 20
110.382
 11
6.40654
 21
110.527
  0
LINE
  8
0
 10
6.40654
 20
110.527
 11
6.54385
 21
110.656
  0
LINE
  8
0
 10
6.54385
 20
110.656
 11
6.69626
 21
110.766
  0
LINE
  8
0
 10
6.69626
 20
110.766
 11
6.86133
 21
110.857
  0
LINE
  8
0
 10
6.86133
 20
110.857
 11
7.03647
 21
110.927
  0
LINE
  8
0
 10
7.03647
 20
110.927
 11
7.21892
 21
110.973
  0
LINE
  8
0
 10
7.21892
 20
110.973
 11
7.40581
 21
110.997
  0
LINE
  8
0
 10
7.40581
 20
110.997
 11
7.59418
 21
110.997
  0
LINE
  8
0
 10
7.59418
 20
110.997
 11
7.78107
 21
110.973
  0
LINE
  8
0
 10
7.78107
 20
110.973
 11
7.96352
 21
110.927
  0
LINE
  8
0
 10
7.96352
 20
110.927
 11
8.13866
 21
110.857
  0
LINE
  8
0
 10
8.13866
 20
110.857
 11
8.30373
 21
110.766
  0
LINE
  8
0
 10
8.30373
 20
110.766
 11
8.45613
 21
110.656
  0
LINE
  8
0
 10
8.45613
 20
110.656
 11
8.59344
 21
110.527
  0
LINE
  8
0
 10
8.59344
 20
110.527
 11
8.71352
 21
110.382
  0
LINE
  8
0
 10
8.71352
 20
110.382
 11
8.81445
 21
110.223
  0
LINE
  8
0
 10
8.81445
 20
110.223
 11
8.89465
 21
110.052
  0
LINE
  8
0
 10
8.89465
 20
110.052
 11
8.95287
 21
109.873
  0
LINE
  8
0
 10
8.95287
 20
109.873
 11
8.98816
 21
109.688
  0
LINE
  8
0
 10
8.98816
 20
109.688
 11
9
 21
109.5
  0
LINE
  8
0
 10
9
 20
109.5
 11
8.98816
 21
109.312
  0
LINE
  8
0
 10
8.98816
 20
109.312
 11
8.95287
 21
109.127
  0
LINE
  8
0
 10
8.95287
 20
109.127
 11
8.89465
 21
108.948
  0
LINE
  8
0
 10
8.89465
 20
108.948
 11
8.81445
 21
108.777
  0
LINE
  8
0
 10
8.81445
 20
108.777
 11
8.71352
 21
108.618
  0
LINE
  8
0
 10
8.71352
 20
108.618
 11
8.59344
 21
108.473
  0
LINE
  8
0
 10
8.59344
 20
108.473
 11
8.45613
 21
108.344
  0
LINE
  8
0
 10
8.45613
 20
108.344
 11
8.30373
 21
108.234
  0
LINE
  8
0
 10
8.30373
 20
108.234
 11
8.13866
 21
108.143
  0
LINE
  8
0
 10
8.13866
 20
108.143
 11
7.96352
 21
108.073
  0
LINE
  8
0
 10
7.96352
 20
108.073
 11
7.78107
 21
108.027
  0
LINE
  8
0
 10
7.78107
 20
108.027
 11
7.59418
 21
108.003
  0
LINE
  8
0
 10
7.59418
 20
108.003
 11
7.40581
 21
108.003
  0
LINE
  8
0
 10
-7.59418
 20
108.003
 11
-7.78107
 21
108.027
  0
LINE
  8
0
 10
-7.78107
 20
108.027
 11
-7.96352
 21
108.073
  0
LINE
  8
0
 10
-7.96352
 20
108.073
 11
-8.13866
 21
108.143
  0
LINE
  8
0
 10
-8.13866
 20
108.143
 11
-8.30373
 21
108.234
  0
LINE
  8
0
 10
-8.30373
 20
108.234
 11
-8.45613
 21
108.344
  0
LINE
  8
0
 10
-8.45613
 20
108.344
 11
-8.59344
 21
108.473
  0
LINE
  8
0
 10
-8.59344
 20
108.473
 11
-8.71352
 21
108.618
  0
LINE
  8
0
 10
-8.71352
 20
108.618
 11
-8.81445
 21
108.777
  0
LINE
  8
0
 10
-8.81445
 20
108.777
 11
-8.89465
 21
108.948
  0
LINE
  8
0
 10
-8.89465
 20
108.948
 11
-8.95287
 21
109.127
  0
LINE
  8
0
 10
-8.95287
 20
109.127
 11
-8.98816
 21
109.312
  0
LINE
  8
0
 10
-8.98816
 20
109.312
 11
-9
 21
109.5
  0
LINE
  8
0
 10
-9
 20
109.5
 11
-8.98816
 21
109.688
  0
LINE
  8
0
 10
-8.98816
 20
109.688
 11
-8.95287
 21
109.873
  0
LINE
  8
0
 10
-8.95287
 20
109.873
 11
-8.89465
 21
110.052
  0
LINE
  8
0
 10
-8.89465
 20
110.052
 11
-8.81445
 21
110.223
  0
LINE
  8
0
 10
-8.81445
 20
110.223
 11
-8.71352
 21
110.382
  0
LINE
  8
0
 10
-8.71352
 20
110.382
 11
-8.59344
 21
110.527
  0
LINE
  8
0
 10
-8.59344
 20
110.527
 11
-8.45613
 21
110.656
  0
LINE
  8
0
 10
-8.45613
 20
110.656
 11
-8.30373
 21
110.766
  0
LINE
  8
0
 10
-8.30373
 20
110.766
 11
-8.13866
 21
110.857
  0
LINE
  8
0
 10
-8.13866
 20
110.857
 11
-7.96352
 21
110.927
  0
LINE
  8
0
 10
-7.96352
 20
110.927
 11
-7.78107
 21
110.973
  0
LINE
  8
0
 10
-7.78107
 20
110.973
 11
-7.59418
 21
110.997
  0
LINE
  8
0
 10
-7.59418
 20
110.997
 11
-7.40581
 21
110.997
  0
LINE
  8
0
 10
-7.40581
 20
110.997
 11
-7.21892
 21
110.973
  0
LINE
  8
0
 10
-7.21892
 20
110.973
 11
-7.03647
 21
110.927
  0
LINE
  8
0
 10
-7.03647
 20
110.927
 11
-6.86133
 21
110.857
  0
LINE
  8
0
 10
-6.86133
 20
110.857
 11
-6.69626
 21
110.766
  0
LINE
  8
0
 10
-6.69626
 20
110.766
 11
-6.54385
 21
110.656
  0
LINE
  8
0
 10
-6.54385
 20
110.656
 11
-6.40654
 21
110.527
  0
LINE
  8
0
 10
-6.40654
 20
110.527
 11
-6.28647
 21
110.382
  0
LINE
  8
0
 10
-6.28647
 20
110.382
 11
-6.18553
 21
110.223
  0
LINE
  8
0
 10
-6.18553
 20
110.223
 11
-6.10533
 21
110.052
  0
LINE
  8
0
 10
-6.10533
 20
110.052
 11
-6.04712
 21
109.873
  0
LINE
  8
0
 10
-6.04712
 20
109.873
 11
-6.01183
 21
109.688
  0
LINE
  8
0
 10
-6.01183
 20
109.688
 11
-6
 21
109.5
  0
LINE
  8
0
 10
-6
 20
109.5
 11
-6.01183
 21
109.312
  0
LINE
  8
0
 10
-6.01183
 20
109.312
 11
-6.04712
 21
109.127
  0
LINE
  8
0
 10
-6.04712
 20
109.127
 11
-6.10533
 21
108.948
  0
LINE
  8
0
 10
-6.10533
 20
108.948
 11
-6.18553
 21
108.777
  0
LINE
  8
0
 10
-6.18553
 20
108.777
 11
-6.28647
 21
108.618
  0
LINE
  8
0
 10
-6.28647
 20
108.618
 11
-6.40654
 21
108.473
  0
LINE
  8
0
 10
-6.40654
 20
108.473
 11
-6.54385
 21
108.344
  0
LINE
  8
0
 10
-6.54385
 20
108.344
 11
-6.69626
 21
108.234
  0
LINE
  8
0
 10
-6.69626
 20
108.234
 11
-6.86133
 21
108.143
  0
LINE
  8
0
 10
-6.86133
 20
108.143
 11
-7.03647
 21
108.073
  0
LINE
  8
0
 10
-7.03647
 20
108.073
 11
-7.21892
 21
108.027
  0
LINE
  8
0
 10
-7.21892
 20
108.027
 11
-7.40581
 21
108.003
  0
LINE
  8
0
 10
-7.40581
 20
108.003
 11
-7.59418
 21
108.003
  0
LINE
  8
0
 10
17.9369
 20
63.5886
 11
18.5451
 21
63.7447
  0
LINE
  8
0
 10
18.5451
 20
63.7447
 11
19.1289
 21
63.9759
  0
LINE
  8
0
 10
19.1289
 20
63.9759
 11
19.6791
 21
64.2784
  0
LINE
  8
0
 10
19.6791
 20
64.2784
 11
20.1871
 21
64.6474
  0
LINE
  8
0
 10
20.1871
 20
64.6474
 11
20.6448
 21
65.0773
  0
LINE
  8
0
 10
20.6448
 20
65.0773
 11
21.0451
 21
65.5611
  0
LINE
  8
0
 10
21.0451
 20
65.5611
 11
21.3815
 21
66.0912
  0
LINE
  8
0
 10
21.3815
 20
66.0912
 11
21.6489
 21
66.6594
  0
LINE
  8
0
 10
21.6489
 20
66.6594
 11
21.8429
 21
67.2566
  0
LINE
  8
0
 10
21.8429
 20
67.2566
 11
21.9606
 21
67.8733
  0
LINE
  8
0
 10
21.9606
 20
67.8733
 11
22
 21
68.5
  0
LINE
  8
0
 10
22
 20
68.5
 11
22
 21
87.5
  0
LINE
  8
0
 10
22
 20
87.5
 11
21.9606
 21
88.1267
  0
LINE
  8
0
 10
21.9606
 20
88.1267
 11
21.8429
 21
88.7434
  0
LINE
  8
0
 10
21.8429
 20
88.7434
 11
21.6489
 21
89.3406
  0
LINE
  8
0
 10
21.6489
 20
89.3406
 11
21.3815
 21
89.9088
  0
LINE
  8
0
 10
21.3815
 20
89.9088
 11
21.0451
 21
90.4389
  0
LINE
  8
0
 10
21.0451
 20
90.4389
 11
20.6448
 21
90.9227
  0
LINE
  8
0
 10
20.6448
 20
90.9227
 11
20.1871
 21
91.3526
  0
LINE
  8
0
 10
20.1871
 20
91.3526
 11
19.6791
 21
91.7216
  0
LINE
  8
0
 10
19.6791
 20
91.7216
 11
19.1289
 21
92.0241
  0
LINE
  8
0
 10
19.1289
 20
92.0241
 11
18.5451
 21
92.2553
  0
LINE
  8
0
 10
18.5451
 20
92.2553
 11
17.9369
 21
92.4114
  0
LINE
  8
0
 10
17.9369
 20
92.4114
 11
17.3139
 21
92.4901
  0
LINE
  8
0
 10
17.3139
 20
92.4901
 11
-17.3139
 21
92.4901
  0
LINE
  8
0
 10
-17.3139
 20
92.4901
 11
-17.9369
 21
92.4114
  0
LINE
  8
0
 10
-17.9369
 20
92.4114
 11
-18.5451
 21
92.2553
  0
LINE
  8
0
 10
-18.5451
 20
92.2553
 11
-19.1289
 21
92.0241
  0
LINE
  8
0
 10
-19.1289
 20
92.0241
 11
-19.6791
 21
91.7216
  0
LINE
  8
0
 10
-19.6791
 20
91.7216
 11
-20.1871
 21
91.3526
  0
LINE
  8
0
 10
-20.1871
 20
91.3526
 11
-20.6448
 21
90.9227
  0
LINE
  8
0
 10
-20.6448
 20
90.9227
 11
-21.0451
 21
90.4389
  0
LINE
  8
0
 10
-21.0451
 20
90.4389
 11
-21.3815
 21
89.9088
  0
LINE
  8
0
 10
-21.3815
 20
89.9088
 11
-21.6489
 21
89.3406
  0
LINE
  8
0
 10
-21.6489
 20
89.3406
 11
-21.8429
 21
88.7434
  0
LINE
  8
0
 10
-21.8429
 20
88.7434
 11
-21.9606
 21
88.1267
  0
LINE
  8
0
 10
-21.9606
 20
88.1267
 11
-22
 21
87.5
  0
LINE
  8
0
 10
-22
 20
87.5
 11
-22
 21
68.5
  0
LINE
  8
0
 10
-22
 20
68.5
 11
-21.9606
 21
67.8733
  0
LINE
  8
0
 10
-21.9606
 20
67.8733
 11
-21.8429
 21
67.2566
  0
LINE
  8
0
 10
-21.8429
 20
67.2566
 11
-21.6489
 21
66.6594
  0
LINE
  8
0
 10
-21.6489
 20
66.6594
 11
-21.3815
 21
66.0912
  0
LINE
  8
0
 10
-21.3815
 20
66.0912
 11
-21.0451
 21
65.5611
  0
LINE
  8
0
 10
-21.0451
 20
65.5611
 11
-20.6448
 21
65.0773
  0
LINE
  8
0
 10
-20.6448
 20
65.0773
 11
-20.1871
 21
64.6474
  0
LINE
  8
0
 10
-20.1871
 20
64.6474
 11
-19.6791
 21
64.2784
  0
LINE
  8
0
 10
-19.6791
 20
64.2784
 11
-19.1289
 21
63.9759
  0
LINE
  8
0
 10
-19.1289
 20
63.9759
 11
-18.5451
 21
63.7447
  0
LINE
  8
0
 10
-18.5451
 20
63.7447
 11
-17.9369
 21
63.5886
  0
LINE
  8
0
 10
-17.9369
 20
63.5886
 11
-17.3139
 21
63.5099
  0
LINE
  8
0
 10
-17.3139
 20
63.5099
 11
17.3139
 21
63.5099
  0
LINE
  8
0
 10
17.3139
 20
63.5099
 11
17.9369
 21
63.5886
  0
LINE
  8
0
 10
-0.307663
 20
80.6097
 11
-0.918167
 21
80.6868
  0
LINE
  8
0
 10
-0.918167
 20
80.6868
 11
-1.51418
 21
80.8398
  0
LINE
  8
0
 10
-1.51418
 20
80.8398
 11
-2.0863
 21
81.0663
  0
LINE
  8
0
 10
-2.0863
 20
81.0663
 11
-2.62555
 21
81.3628
  0
LINE
  8
0
 10
-2.62555
 20
81.3628
 11
-3.12337
 21
81.7245
  0
LINE
  8
0
 10
-3.12337
 20
81.7245
 11
-3.57195
 21
82.1457
  0
LINE
  8
0
 10
-3.57195
 20
82.1457
 11
-3.96417
 21
82.6198
  0
LINE
  8
0
 10
-3.96417
 20
82.6198
 11
-4.2939
 21
83.1394
  0
LINE
  8
0
 10
-4.2939
 20
83.1394
 11
-4.55589
 21
83.6962
  0
LINE
  8
0
 10
-4.55589
 20
83.6962
 11
-4.74605
 21
84.2814
  0
LINE
  8
0
 10
-4.74605
 20
84.2814
 11
-4.86136
 21
84.8859
  0
LINE
  8
0
 10
-4.86136
 20
84.8859
 11
-4.89999
 21
85.5
  0
LINE
  8
0
 10
-4.89999
 20
85.5
 11
-4.86136
 21
86.1141
  0
LINE
  8
0
 10
-4.86136
 20
86.1141
 11
-4.74605
 21
86.7186
  0
LINE
  8
0
 10
-4.74605
 20
86.7186
 11
-4.55589
 21
87.3038
  0
LINE
  8
0
 10
-4.55589
 20
87.3038
 11
-4.2939
 21
87.8606
  0
LINE
  8
0
 10
-4.2939
 20
87.8606
 11
-3.96417
 21
88.3801
  0
LINE
  8
0
 10
-3.96417
 20
88.3801
 11
-3.57195
 21
88.8543
  0
LINE
  8
0
 10
-3.57195
 20
88.8543
 11
-3.12337
 21
89.2755
  0
LINE
  8
0
 10
-3.12337
 20
89.2755
 11
-2.62555
 21
89.6372
  0
LINE
  8
0
 10
-2.62555
 20
89.6372
 11
-2.0863
 21
89.9336
  0
LINE
  8
0
 10
-2.0863
 20
89.9336
 11
-1.51418
 21
90.1602
  0
LINE
  8
0
 10
-1.51418
 20
90.1602
 11
-0.918167
 21
90.3132
  0
LINE
  8
0
 10
-0.918167
 20
90.3132
 11
-0.307663
 21
90.3903
  0
LINE
  8
0
 10
-0.307663
 20
90.3903
 11
0.307663
 21
90.3903
  0
LINE
  8
0
 10
0.307663
 20
90.3903
 11
0.918167
 21
90.3132
  0
LINE
  8
0
 10
0.918167
 20
90.3132
 11
1.51418
 21
90.1602
  0
LINE
  8
0
 10
1.51418
 20
90.1602
 11
2.0863
 21
89.9336
  0
LINE
  8
0
 10
2.0863
 20
89.9336
 11
2.62555
 21
89.6372
  0
LINE
  8
0
 10
2.62555
 20
89.6372
 11
3.12337
 21
89.2755
  0
LINE
  8
0
 10
3.12337
 20
89.2755
 11
3.57195
 21
88.8543
  0
LINE
  8
0
 10
3.57195
 20
88.8543
 11
3.96417
 21
88.3801
  0
LINE
  8
0
 10
3.96417
 20
88.3801
 11
4.2939
 21
87.8606
  0
LINE
  8
0
 10
4.2939
 20
87.8606
 11
4.55589
 21
87.3038
  0
LINE
  8
0
 10
4.55589
 20
87.3038
 11
4.74605
 21
86.7186
  0
LINE
  8
0
 10
4.74605
 20
86.7186
 11
4.86136
 21
86.1141
  0
LINE
  8
0
 10
4.86136
 20
86.1141
 11
4.89999
 21
85.5
  0
LINE
  8
0
 10
4.89999
 20
85.5
 11
4.86136
 21
84.8859
  0
LINE
  8
0
 10
4.86136
 20
84.8859
 11
4.74605
 21
84.2814
  0
LINE
  8
0
 10
4.74605
 20
84.2814
 11
4.55589
 21
83.6962
  0
LINE
  8
0
 10
4.55589
 20
83.6962
 11
4.2939
 21
83.1394
  0
LINE
  8
0
 10
4.2939
 20
83.1394
 11
3.96417
 21
82.6198
  0
LINE
  8
0
 10
3.96417
 20
82.6198
 11
3.57195
 21
82.1457
  0
LINE
  8
0
 10
3.57195
 20
82.1457
 11
3.12337
 21
81.7245
  0
LINE
  8
0
 10
3.12337
 20
81.7245
 11
2.62555
 21
81.3628
  0
LINE
  8
0
 10
2.62555
 20
81.3628
 11
2.0863
 21
81.0663
  0
LINE
  8
0
 10
2.0863
 20
81.0663
 11
1.51418
 21
80.8398
  0
LINE
  8
0
 10
1.51418
 20
80.8398
 11
0.918167
 21
80.6868
  0
LINE
  8
0
 10
0.918167
 20
80.6868
 11
0.307663
 21
80.6097
  0
LINE
  8
0
 10
0.307663
 20
80.6097
 11
-0.307663
 21
80.6097
  0
LINE
  8
0
 10
-15.1884
 20
82.5059
 11
-15.5621
 21
82.5531
  0
LINE
  8
0
 10
-15.5621
 20
82.5531
 11
-15.927
 21
82.6468
  0
LINE
  8
0
 10
-15.927
 20
82.6468
 11
-16.2773
 21
82.7855
  0
LINE
  8
0
 10
-16.2773
 20
82.7855
 11
-16.6075
 21
82.967
  0
LINE
  8
0
 10
-16.6075
 20
82.967
 11
-16.9123
 21
83.1884
  0
LINE
  8
0
 10
-16.9123
 20
83.1884
 11
-17.1869
 21
83.4464
  0
LINE
  8
0
 10
-17.1869
 20
83.4464
 11
-17.427
 21
83.7366
  0
LINE
  8
0
 10
-17.427
 20
83.7366
 11
-17.6289
 21
84.0547
  0
LINE
  8
0
 10
-17.6289
 20
84.0547
 11
-17.7893
 21
84.3956
  0
LINE
  8
0
 10
-17.7893
 20
84.3956
 11
-17.9057
 21
84.7539
  0
LINE
  8
0
 10
-17.9057
 20
84.7539
 11
-17.9763
 21
85.124
  0
LINE
  8
0
 10
-17.9763
 20
85.124
 11
-18
 21
85.5
  0
LINE
  8
0
 10
-18
 20
85.5
 11
-17.9763
 21
85.876
  0
LINE
  8
0
 10
-17.9763
 20
85.876
 11
-17.9057
 21
86.2461
  0
LINE
  8
0
 10
-17.9057
 20
86.2461
 11
-17.7893
 21
86.6044
  0
LINE
  8
0
 10
-17.7893
 20
86.6044
 11
-17.6289
 21
86.9453
  0
LINE
  8
0
 10
-17.6289
 20
86.9453
 11
-17.427
 21
87.2634
  0
LINE
  8
0
 10
-17.427
 20
87.2634
 11
-17.1869
 21
87.5536
  0
LINE
  8
0
 10
-17.1869
 20
87.5536
 11
-16.9123
 21
87.8115
  0
LINE
  8
0
 10
-16.9123
 20
87.8115
 11
-16.6075
 21
88.033
  0
LINE
  8
0
 10
-16.6075
 20
88.033
 11
-16.2773
 21
88.2145
  0
LINE
  8
0
 10
-16.2773
 20
88.2145
 11
-15.927
 21
88.3532
  0
LINE
  8
0
 10
-15.927
 20
88.3532
 11
-15.5621
 21
88.4469
  0
LINE
  8
0
 10
-15.5621
 20
88.4469
 11
-15.1884
 21
88.4941
  0
LINE
  8
0
 10
-15.1884
 20
88.4941
 11
-14.8116
 21
88.4941
  0
LINE
  8
0
 10
-14.8116
 20
88.4941
 11
-14.4379
 21
88.4469
  0
LINE
  8
0
 10
-14.4379
 20
88.4469
 11
-14.0729
 21
88.3532
  0
LINE
  8
0
 10
-14.0729
 20
88.3532
 11
-13.7227
 21
88.2145
  0
LINE
  8
0
 10
-13.7227
 20
88.2145
 11
-13.3925
 21
88.033
  0
LINE
  8
0
 10
-13.3925
 20
88.033
 11
-13.0877
 21
87.8115
  0
LINE
  8
0
 10
-13.0877
 20
87.8115
 11
-12.8131
 21
87.5536
  0
LINE
  8
0
 10
-12.8131
 20
87.5536
 11
-12.5729
 21
87.2634
  0
LINE
  8
0
 10
-12.5729
 20
87.2634
 11
-12.3711
 21
86.9453
  0
LINE
  8
0
 10
-12.3711
 20
86.9453
 11
-12.2107
 21
86.6044
  0
LINE
  8
0
 10
-12.2107
 20
86.6044
 11
-12.0942
 21
86.2461
  0
LINE
  8
0
 10
-12.0942
 20
86.2461
 11
-12.0237
 21
85.876
  0
LINE
  8
0
 10
-12.0237
 20
85.876
 11
-12
 21
85.5
  0
LINE
  8
0
 10
-12
 20
85.5
 11
-12.0237
 21
85.124
  0
LINE
  8
0
 10
-12.0237
 20
85.124
 11
-12.0942
 21
84.7539
  0
LINE
  8
0
 10
-12.0942
 20
84.7539
 11
-12.2107
 21
84.3956
  0
LINE
  8
0
 10
-12.2107
 20
84.3956
 11
-12.3711
 21
84.0547
  0
LINE
  8
0
 10
-12.3711
 20
84.0547
 11
-12.5729
 21
83.7366
  0
LINE
  8
0
 10
-12.5729
 20
83.7366
 11
-12.8131
 21
83.4464
  0
LINE
  8
0
 10
-12.8131
 20
83.4464
 11
-13.0877
 21
83.1884
  0
LINE
  8
0
 10
-13.0877
 20
83.1884
 11
-13.3925
 21
82.967
  0
LINE
  8
0
 10
-13.3925
 20
82.967
 11
-13.7227
 21
82.7855
  0
LINE
  8
0
 10
-13.7227
 20
82.7855
 11
-14.0729
 21
82.6468
  0
LINE
  8
0
 10
-14.0729
 20
82.6468
 11
-14.4379
 21
82.5531
  0
LINE
  8
0
 10
-14.4379
 20
82.5531
 11
-14.8116
 21
82.5059
  0
LINE
  8
0
 10
-14.8116
 20
82.5059
 11
-15.1884
 21
82.5059
  0
LINE
  8
0
 10
14.8116
 20
82.5059
 11
14.4379
 21
82.5531
  0
LINE
  8
0
 10
14.4379
 20
82.5531
 11
14.0729
 21
82.6468
  0
LINE
  8
0
 10
14.0729
 20
82.6468
 11
13.7227
 21
82.7855
  0
LINE
  8
0
 10
13.7227
 20
82.7855
 11
13.3925
 21
82.967
  0
LINE
  8
0
 10
13.3925
 20
82.967
 11
13.0877
 21
83.1884
  0
LINE
  8
0
 10
13.0877
 20
83.1884
 11
12.8131
 21
83.4464
  0
LINE
  8
0
 10
12.8131
 20
83.4464
 11
12.5729
 21
83.7366
  0
LINE
  8
0
 10
12.5729
 20
83.7366
 11
12.3711
 21
84.0547
  0
LINE
  8
0
 10
12.3711
 20
84.0547
 11
12.2107
 21
84.3956
  0
LINE
  8
0
 10
12.2107
 20
84.3956
 11
12.0942
 21
84.7539
  0
LINE
  8
0
 10
12.0942
 20
84.7539
 11
12.0237
 21
85.124
  0
LINE
  8
0
 10
12.0237
 20
85.124
 11
12
 21
85.5
  0
LINE
  8
0
 10
12
 20
85.5
 11
12.0237
 21
85.876
  0
LINE
  8
0
 10
12.0237
 20
85.876
 11
12.0942
 21
86.2461
  0
LINE
  8
0
 10
12.0942
 20
86.2461
 11
12.2107
 21
86.6044
  0
LINE
  8
0
 10
12.2107
 20
86.6044
 11
12.3711
 21
86.9453
  0
LINE
  8
0
 10
12.3711
 20
86.9453
 11
12.5729
 21
87.2634
  0
LINE
  8
0
 10
12.5729
 20
87.2634
 11
12.8131
 21
87.5536
  0
LINE
  8
0
 10
12.8131
 20
87.5536
 11
13.0877
 21
87.8115
  0
LINE
  8
0
 10
13.0877
 20
87.8115
 11
13.3925
 21
88.033
  0
LINE
  8
0
 10
13.3925
 20
88.033
 11
13.7227
 21
88.2145
  0
LINE
  8
0
 10
13.7227
 20
88.2145
 11
14.0729
 21
88.3532
  0
LINE
  8
0
 10
14.0729
 20
88.3532
 11
14.4379
 21
88.4469
  0
LINE
  8
0
 10
14.4379
 20
88.4469
 11
14.8116
 21
88.4941
  0
LINE
  8
0
 10
14.8116
 20
88.4941
 11
15.1884
 21
88.4941
  0
LINE
  8
0
 10
15.1884
 20
88.4941
 11
15.5621
 21
88.4469
  0
LINE
  8
0
 10
15.5621
 20
88.4469
 11
15.927
 21
88.3532
  0
LINE
  8
0
 10
15.927
 20
88.3532
 11
16.2773
 21
88.2145
  0
LINE
  8
0
 10
16.2773
 20
88.2145
 11
16.6075
 21
88.033
  0
LINE
  8
0
 10
16.6075
 20
88.033
 11
16.9123
 21
87.8115
  0
LINE
  8
0
 10
16.9123
 20
87.8115
 11
17.1869
 21
87.5536
  0
LINE
  8
0
 10
17.1869
 20
87.5536
 11
17.427
 21
87.2634
  0
LINE
  8
0
 10
17.427
 20
87.2634
 11
17.6289
 21
86.9453
  0
LINE
  8
0
 10
17.6289
 20
86.9453
 11
17.7893
 21
86.6044
  0
LINE
  8
0
 10
17.7893
 20
86.6044
 11
17.9057
 21
86.2461
  0
LINE
  8
0
 10
17.9057
 20
86.2461
 11
17.9763
 21
85.876
  0
LINE
  8
0
 10
17.9763
 20
85.876
 11
18
 21
85.5
  0
LINE
  8
0
 10
18
 20
85.5
 11
17.9763
 21
85.124
  0
LINE
  8
0
 10
17.9763
 20
85.124
 11
17.9057
 21
84.7539
  0
LINE
  8
0
 10
17.9057
 20
84.7539
 11
17.7893
 21
84.3956
  0
LINE
  8
0
 10
17.7893
 20
84.3956
 11
17.6289
 21
84.0547
  0
LINE
  8
0
 10
17.6289
 20
84.0547
 11
17.427
 21
83.7366
  0
LINE
  8
0
 10
17.427
 20
83.7366
 11
17.1869
 21
83.4464
  0
LINE
  8
0
 10
17.1869
 20
83.4464
 11
16.9123
 21
83.1884
  0
LINE
  8
0
 10
16.9123
 20
83.1884
 11
16.6075
 21
82.967
  0
LINE
  8
0
 10
16.6075
 20
82.967
 11
16.2773
 21
82.7855
  0
LINE
  8
0
 10
16.2773
 20
82.7855
 11
15.927
 21
82.6468
  0
LINE
  8
0
 10
15.927
 20
82.6468
 11
15.5621
 21
82.5531
  0
LINE
  8
0
 10
15.5621
 20
82.5531
 11
15.1884
 21
82.5059
  0
LINE
  8
0
 10
15.1884
 20
82.5059
 11
14.8116
 21
82.5059
  0
LINE
  8
0
 10
14.9058
 20
76.503
 11
14.7189
 21
76.5266
  0
LINE
  8
0
 10
14.7189
 20
76.5266
 11
14.5365
 21
76.5734
  0
LINE
  8
0
 10
14.5365
 20
76.5734
 11
14.3613
 21
76.6428
  0
LINE
  8
0
 10
14.3613
 20
76.6428
 11
14.1963
 21
76.7335
  0
LINE
  8
0
 10
14.1963
 20
76.7335
 11
14.0439
 21
76.8442
  0
LINE
  8
0
 10
14.0439
 20
76.8442
 11
13.9065
 21
76.9732
  0
LINE
  8
0
 10
13.9065
 20
76.9732
 11
13.7865
 21
77.1183
  0
LINE
  8
0
 10
13.7865
 20
77.1183
 11
13.6855
 21
77.2774
  0
LINE
  8
0
 10
13.6855
 20
77.2774
 11
13.6053
 21
77.4478
  0
LINE
  8
0
 10
13.6053
 20
77.4478
 11
13.5471
 21
77.627
  0
LINE
  8
0
 10
13.5471
 20
77.627
 11
13.5118
 21
77.812
  0
LINE
  8
0
 10
13.5118
 20
77.812
 11
13.5
 21
78
  0
LINE
  8
0
 10
13.5
 20
78
 11
13.5118
 21
78.188
  0
LINE
  8
0
 10
13.5118
 20
78.188
 11
13.5471
 21
78.373
  0
LINE
  8
0
 10
13.5471
 20
78.373
 11
13.6053
 21
78.5522
  0
LINE
  8
0
 10
13.6053
 20
78.5522
 11
13.6855
 21
78.7226
  0
LINE
  8
0
 10
13.6855
 20
78.7226
 11
13.7865
 21
78.8817
  0
LINE
  8
0
 10
13.7865
 20
78.8817
 11
13.9065
 21
79.0268
  0
LINE
  8
0
 10
13.9065
 20
79.0268
 11
14.0439
 21
79.1558
  0
LINE
  8
0
 10
14.0439
 20
79.1558
 11
14.1963
 21
79.2665
  0
LINE
  8
0
 10
14.1963
 20
79.2665
 11
14.3613
 21
79.3572
  0
LINE
  8
0
 10
14.3613
 20
79.3572
 11
14.5365
 21
79.4266
  0
LINE
  8
0
 10
14.5365
 20
79.4266
 11
14.7189
 21
79.4734
  0
LINE
  8
0
 10
14.7189
 20
79.4734
 11
14.9058
 21
79.497
  0
LINE
  8
0
 10
14.9058
 20
79.497
 11
15.0942
 21
79.497
  0
LINE
  8
0
 10
15.0942
 20
79.497
 11
15.2811
 21
79.4734
  0
LINE
  8
0
 10
15.2811
 20
79.4734
 11
15.4635
 21
79.4266
  0
LINE
  8
0
 10
15.4635
 20
79.4266
 11
15.6387
 21
79.3572
  0
LINE
  8
0
 10
15.6387
 20
79.3572
 11
15.8037
 21
79.2665
  0
LINE
  8
0
 10
15.8037
 20
79.2665
 11
15.9561
 21
79.1558
  0
LINE
  8
0
 10
15.9561
 20
79.1558
 11
16.0934
 21
79.0268
  0
LINE
  8
0
 10
16.0934
 20
79.0268
 11
16.2135
 21
78.8817
  0
LINE
  8
0
 10
16.2135
 20
78.8817
 11
16.3145
 21
78.7226
  0
LINE
  8
0
 10
16.3145
 20
78.7226
 11
16.3947
 21
78.5522
  0
LINE
  8
0
 10
16.3947
 20
78.5522
 11
16.4529
 21
78.373
  0
LINE
  8
0
 10
16.4529
 20
78.373
 11
16.4882
 21
78.188
  0
LINE
  8
0
 10
16.4882
 20
78.188
 11
16.5
 21
78
  0
LINE
  8
0
 10
16.5
 20
78
 11
16.4882
 21
77.812
  0
LINE
  8
0
 10
16.4882
 20
77.812
 11
16.4529
 21
77.627
  0
LINE
  8
0
 10
16.4529
 20
77.627
 11
16.3947
 21
77.4478
  0
LINE
  8
0
 10
16.3947
 20
77.4478
 11
16.3145
 21
77.2774
  0
LINE
  8
0
 10
16.3145
 20
77.2774
 11
16.2135
 21
77.1183
  0
LINE
  8
0
 10
16.2135
 20
77.1183
 11
16.0934
 21
76.9732
  0
LINE
  8
0
 10
16.0934
 20
76.9732
 11
15.9561
 21
76.8442
  0
LINE
  8
0
 10
15.9561
 20
76.8442
 11
15.8037
 21
76.7335
  0
LINE
  8
0
 10
15.8037
 20
76.7335
 11
15.6387
 21
76.6428
  0
LINE
  8
0
 10
15.6387
 20
76.6428
 11
15.4635
 21
76.5734
  0
LINE
  8
0
 10
15.4635
 20
76.5734
 11
15.2811
 21
76.5266
  0
LINE
  8
0
 10
15.2811
 20
76.5266
 11
15.0942
 21
76.503
  0
LINE
  8
0
 10
15.0942
 20
76.503
 11
14.9058
 21
76.503
  0
LINE
  8
0
 10
-15.0942
 20
76.503
 11
-15.2811
 21
76.5266
  0
LINE
  8
0
 10
-15.2811
 20
76.5266
 11
-15.4635
 21
76.5734
  0
LINE
  8
0
 10
-15.4635
 20
76.5734
 11
-15.6387
 21
76.6428
  0
LINE
  8
0
 10
-15.6387
 20
76.6428
 11
-15.8037
 21
76.7335
  0
LINE
  8
0
 10
-15.8037
 20
76.7335
 11
-15.9561
 21
76.8442
  0
LINE
  8
0
 10
-15.9561
 20
76.8442
 11
-16.0934
 21
76.9732
  0
LINE
  8
0
 10
-16.0934
 20
76.9732
 11
-16.2135
 21
77.1183
  0
LINE
  8
0
 10
-16.2135
 20
77.1183
 11
-16.3145
 21
77.2774
  0
LINE
  8
0
 10
-16.3145
 20
77.2774
 11
-16.3947
 21
77.4478
  0
LINE
  8
0
 10
-16.3947
 20
77.4478
 11
-16.4529
 21
77.627
  0
LINE
  8
0
 10
-16.4529
 20
77.627
 11
-16.4882
 21
77.812
  0
LINE
  8
0
 10
-16.4882
 20
77.812
 11
-16.5
 21
78
  0
LINE
  8
0
 10
-16.5
 20
78
 11
-16.4882
 21
78.188
  0
LINE
  8
0
 10
-16.4882
 20
78.188
 11
-16.4529
 21
78.373
  0
LINE
  8
0
 10
-16.4529
 20
78.373
 11
-16.3947
 21
78.5522
  0
LINE
  8
0
 10
-16.3947
 20
78.5522
 11
-16.3145
 21
78.7226
  0
LINE
  8
0
 10
-16.3145
 20
78.7226
 11
-16.2135
 21
78.8817
  0
LINE
  8
0
 10
-16.2135
 20
78.8817
 11
-16.0934
 21
79.0268
  0
LINE
  8
0
 10
-16.0934
 20
79.0268
 11
-15.9561
 21
79.1558
  0
LINE
  8
0
 10
-15.9561
 20
79.1558
 11
-15.8037
 21
79.2665
  0
LINE
  8
0
 10
-15.8037
 20
79.2665
 11
-15.6387
 21
79.3572
  0
LINE
  8
0
 10
-15.6387
 20
79.3572
 11
-15.4635
 21
79.4266
  0
LINE
  8
0
 10
-15.4635
 20
79.4266
 11
-15.2811
 21
79.4734
  0
LINE
  8
0
 10
-15.2811
 20
79.4734
 11
-15.0942
 21
79.497
  0
LINE
  8
0
 10
-15.0942
 20
79.497
 11
-14.9058
 21
79.497
  0
LINE
  8
0
 10
-14.9058
 20
79.497
 11
-14.7189
 21
79.4734
  0
LINE
  8
0
 10
-14.7189
 20
79.4734
 11
-14.5365
 21
79.4266
  0
LINE
  8
0
 10
-14.5365
 20
79.4266
 11
-14.3613
 21
79.3572
  0
LINE
  8
0
 10
-14.3613
 20
79.3572
 11
-14.1963
 21
79.2665
  0
LINE
  8
0
 10
-14.1963
 20
79.2665
 11
-14.0439
 21
79.1558
  0
LINE
  8
0
 10
-14.0439
 20
79.1558
 11
-13.9065
 21
79.0268
  0
LINE
  8
0
 10
-13.9065
 20
79.0268
 11
-13.7865
 21
78.8817
  0
LINE
  8
0
 10
-13.7865
 20
78.8817
 11
-13.6855
 21
78.7226
  0
LINE
  8
0
 10
-13.6855
 20
78.7226
 11
-13.6053
 21
78.5522
  0
LINE
  8
0
 10
-13.6053
 20
78.5522
 11
-13.5471
 21
78.373
  0
LINE
  8
0
 10
-13.5471
 20
78.373
 11
-13.5118
 21
78.188
  0
LINE
  8
0
 10
-13.5118
 20
78.188
 11
-13.5
 21
78
  0
LINE
  8
0
 10
-13.5
 20
78
 11
-13.5118
 21
77.812
  0
LINE
  8
0
 10
-13.5118
 20
77.812
 11
-13.5471
 21
77.627
  0
LINE
  8
0
 10
-13.5471
 20
77.627
 11
-13.6053
 21
77.4478
  0
LINE
  8
0
 10
-13.6053
 20
77.4478
 11
-13.6855
 21
77.2774
  0
LINE
  8
0
 10
-13.6855
 20
77.2774
 11
-13.7865
 21
77.1183
  0
LINE
  8
0
 10
-13.7865
 20
77.1183
 11
-13.9065
 21
76.9732
  0
LINE
  8
0
 10
-13.9065
 20
76.9732
 11
-14.0439
 21
76.8442
  0
LINE
  8
0
 10
-14.0439
 20
76.8442
 11
-14.1963
 21
76.7335
  0
LINE
  8
0
 10
-14.1963
 20
76.7335
 11
-14.3613
 21
76.6428
  0
LINE
  8
0
 10
-14.3613
 20
76.6428
 11
-14.5365
 21
76.5734
  0
LINE
  8
0
 10
-14.5365
 20
76.5734
 11
-14.7189
 21
76.5266
  0
LINE
  8
0
 10
-14.7189
 20
76.5266
 11
-14.9058
 21
76.503
  0
LINE
  8
0
 10
-14.9058
 20
76.503
 11
-15.0942
 21
76.503
  0
LINE
  8
0
 10
-17.885
 20
65.503
 11
-20.77
 21
70.5
  0
LINE
  8
0
 10
-20.77
 20
70.5
 11
-17.885
 21
75.497
  0
LINE
  8
0
 10
-17.885
 20
75.497
 11
-12.115
 21
75.497
  0
LINE
  8
0
 10
-12.115
 20
75.497
 11
-9.23001
 21
70.5
  0
LINE
  8
0
 10
-9.23001
 20
70.5
 11
-12.115
 21
65.503
  0
LINE
  8
0
 10
-12.115
 20
65.503
 11
-17.885
 21
65.503
  0
LINE
  8
0
 10
-2.88499
 20
65.503
 11
-5.76999
 21
70.5
  0
LINE
  8
0
 10
-5.76999
 20
70.5
 11
-2.88499
 21
75.497
  0
LINE
  8
0
 10
-2.88499
 20
75.497
 11
2.88499
 21
75.497
  0
LINE
  8
0
 10
2.88499
 20
75.497
 11
5.76999
 21
70.5
  0
LINE
  8
0
 10
5.76999
 20
70.5
 11
2.88499
 21
65.503
  0
LINE
  8
0
 10
2.88499
 20
65.503
 11
-2.88499
 21
65.503
  0
LINE
  8
0
 10
12.115
 20
65.503
 11
9.23001
 21
70.5
  0
LINE
  8
0
 10
9.23001
 20
70.5
 11
12.115
 21
75.497
  0
LINE
  8
0
 10
12.115
 20
75.497
 11
17.885
 21
75.497
  0
LINE
  8
0
 10
17.885
 20
75.497
 11
20.77
 21
70.5
  0
LINE
  8
0
 10
20.77
 20
70.5
 11
17.885
 21
65.503
  0
LINE
  8
0
 10
17.885
 20
65.503
 11
12.115
 21
65.503
  0
LINE
  8
0
 10
-7.59418
 20
69.003
 11
-7.78107
 21
69.0266
  0
LINE
  8
0
 10
-7.78107
 20
69.0266
 11
-7.96352
 21
69.0734
  0
LINE
  8
0
 10
-7.96352
 20
69.0734
 11
-8.13866
 21
69.1428
  0
LINE
  8
0
 10
-8.13866
 20
69.1428
 11
-8.30373
 21
69.2335
  0
LINE
  8
0
 10
-8.30373
 20
69.2335
 11
-8.45613
 21
69.3442
  0
LINE
  8
0
 10
-8.45613
 20
69.3442
 11
-8.59344
 21
69.4732
  0
LINE
  8
0
 10
-8.59344
 20
69.4732
 11
-8.71352
 21
69.6183
  0
LINE
  8
0
 10
-8.71352
 20
69.6183
 11
-8.81445
 21
69.7774
  0
LINE
  8
0
 10
-8.81445
 20
69.7774
 11
-8.89465
 21
69.9478
  0
LINE
  8
0
 10
-8.89465
 20
69.9478
 11
-8.95287
 21
70.127
  0
LINE
  8
0
 10
-8.95287
 20
70.127
 11
-8.98816
 21
70.312
  0
LINE
  8
0
 10
-8.98816
 20
70.312
 11
-9
 21
70.5
  0
LINE
  8
0
 10
-9
 20
70.5
 11
-8.98816
 21
70.688
  0
LINE
  8
0
 10
-8.98816
 20
70.688
 11
-8.95287
 21
70.873
  0
LINE
  8
0
 10
-8.95287
 20
70.873
 11
-8.89465
 21
71.0522
  0
LINE
  8
0
 10
-8.89465
 20
71.0522
 11
-8.81445
 21
71.2226
  0
LINE
  8
0
 10
-8.81445
 20
71.2226
 11
-8.71352
 21
71.3817
  0
LINE
  8
0
 10
-8.71352
 20
71.3817
 11
-8.59344
 21
71.5268
  0
LINE
  8
0
 10
-8.59344
 20
71.5268
 11
-8.45613
 21
71.6558
  0
LINE
  8
0
 10
-8.45613
 20
71.6558
 11
-8.30373
 21
71.7665
  0
LINE
  8
0
 10
-8.30373
 20
71.7665
 11
-8.13866
 21
71.8573
  0
LINE
  8
0
 10
-8.13866
 20
71.8573
 11
-7.96352
 21
71.9266
  0
LINE
  8
0
 10
-7.96352
 20
71.9266
 11
-7.78107
 21
71.9734
  0
LINE
  8
0
 10
-7.78107
 20
71.9734
 11
-7.59418
 21
71.9971
  0
LINE
  8
0
 10
-7.59418
 20
71.9971
 11
-7.40581
 21
71.9971
  0
LINE
  8
0
 10
-7.40581
 20
71.9971
 11
-7.21892
 21
71.9734
  0
LINE
  8
0
 10
-7.21892
 20
71.9734
 11
-7.03647
 21
71.9266
  0
LINE
  8
0
 10
-7.03647
 20
71.9266
 11
-6.86133
 21
71.8573
  0
LINE
  8
0
 10
-6.86133
 20
71.8573
 11
-6.69626
 21
71.7665
  0
LINE
  8
0
 10
-6.69626
 20
71.7665
 11
-6.54385
 21
71.6558
  0
LINE
  8
0
 10
-6.54385
 20
71.6558
 11
-6.40654
 21
71.5268
  0
LINE
  8
0
 10
-6.40654
 20
71.5268
 11
-6.28647
 21
71.3817
  0
LINE
  8
0
 10
-6.28647
 20
71.3817
 11
-6.18553
 21
71.2226
  0
LINE
  8
0
 10
-6.18553
 20
71.2226
 11
-6.10533
 21
71.0522
  0
LINE
  8
0
 10
-6.10533
 20
71.0522
 11
-6.04712
 21
70.873
  0
LINE
  8
0
 10
-6.04712
 20
70.873
 11
-6.01183
 21
70.688
  0
LINE
  8
0
 10
-6.01183
 20
70.688
 11
-6
 21
70.5
  0
LINE
  8
0
 10
-6
 20
70.5
 11
-6.01183
 21
70.312
  0
LINE
  8
0
 10
-6.01183
 20
70.312
 11
-6.04712
 21
70.127
  0
LINE
  8
0
 10
-6.04712
 20
70.127
 11
-6.10533
 21
69.9478
  0
LINE
  8
0
 10
-6.10533
 20
69.9478
 11
-6.18553
 21
69.7774
  0
LINE
  8
0
 10
-6.18553
 20
69.7774
 11
-6.28647
 21
69.6183
  0
LINE
  8
0
 10
-6.28647
 20
69.6183
 11
-6.40654
 21
69.4732
  0
LINE
  8
0
 10
-6.40654
 20
69.4732
 11
-6.54385
 21
69.3442
  0
LINE
  8
0
 10
-6.54385
 20
69.3442
 11
-6.69626
 21
69.2335
  0
LINE
  8
0
 10
-6.69626
 20
69.2335
 11
-6.86133
 21
69.1428
  0
LINE
  8
0
 10
-6.86133
 20
69.1428
 11
-7.03647
 21
69.0734
  0
LINE
  8
0
 10
-7.03647
 20
69.0734
 11
-7.21892
 21
69.0266
  0
LINE
  8
0
 10
-7.21892
 20
69.0266
 11
-7.40581
 21
69.003
  0
LINE
  8
0
 10
-7.40581
 20
69.003
 11
-7.59418
 21
69.003
  0
LINE
  8
0
 10
7.40581
 20
69.003
 11
7.21892
 21
69.0266
  0
LINE
  8
0
 10
7.21892
 20
69.0266
 11
7.03647
 21
69.0734
  0
LINE
  8
0
 10
7.03647
 20
69.0734
 11
6.86133
 21
69.1428
  0
LINE
  8
0
 10
6.86133
 20
69.1428
 11
6.69626
 21
69.2335
  0
LINE
  8
0
 10
6.69626
 20
69.2335
 11
6.54385
 21
69.3442
  0
LINE
  8
0
 10
6.54385
 20
69.3442
 11
6.40654
 21
69.4732
  0
LINE
  8
0
 10
6.40654
 20
69.4732
 11
6.28647
 21
69.6183
  0
LINE
  8
0
 10
6.28647
 20
69.6183
 11
6.18553
 21
69.7774
  0
LINE
  8
0
 10
6.18553
 20
69.7774
 11
6.10533
 21
69.9478
  0
LINE
  8
0
 10
6.10533
 20
69.9478
 11
6.04712
 21
70.127
  0
LINE
  8
0
 10
6.04712
 20
70.127
 11
6.01183
 21
70.312
  0
LINE
  8
0
 10
6.01183
 20
70.312
 11
6
 21
70.5
  0
LINE
  8
0
 10
6
 20
70.5
 11
6.01183
 21
70.688
  0
LINE
  8
0
 10
6.01183
 20
70.688
 11
6.04712
 21
70.873
  0
LINE
  8
0
 10
6.04712
 20
70.873
 11
6.10533
 21
71.0522
  0
LINE
  8
0
 10
6.10533
 20
71.0522
 11
6.18553
 21
71.2226
  0
LINE
  8
0
 10
6.18553
 20
71.2226
 11
6.28647
 21
71.3817
  0
LINE
  8
0
 10
6.28647
 20
71.3817
 11
6.40654
 21
71.5268
  0
LINE
  8
0
 10
6.40654
 20
71.5268
 11
6.54385
 21
71.6558
  0
LINE
  8
0
 10
6.54385
 20
71.6558
 11
6.69626
 21
71.7665
  0
LINE
  8
0
 10
6.69626
 20
71.7665
 11
6.86133
 21
71.8573
  0
LINE
  8
0
 10
6.86133
 20
71.8573
 11
7.03647
 21
71.9266
  0
LINE
  8
0
 10
7.03647
 20
71.9266
 11
7.21892
 21
71.9734
  0
LINE
  8
0
 10
7.21892
 20
71.9734
 11
7.40581
 21
71.9971
  0
LINE
  8
0
 10
7.40581
 20
71.9971
 11
7.59418
 21
71.9971
  0
LINE
  8
0
 10
7.59418
 20
71.9971
 11
7.78107
 21
71.9734
  0
LINE
  8
0
 10
7.78107
 20
71.9734
 11
7.96352
 21
71.9266
  0
LINE
  8
0
 10
7.96352
 20
71.9266
 11
8.13866
 21
71.8573
  0
LINE
  8
0
 10
8.13866
 20
71.8573
 11
8.30373
 21
71.7665
  0
LINE
  8
0
 10
8.30373
 20
71.7665
 11
8.45613
 21
71.6558
  0
LINE
  8
0
 10
8.45613
 20
71.6558
 11
8.59344
 21
71.5268
  0
LINE
  8
0
 10
8.59344
 20
71.5268
 11
8.71352
 21
71.3817
  0
LINE
  8
0
 10
8.71352
 20
71.3817
 11
8.81445
 21
71.2226
  0
LINE
  8
0
 10
8.81445
 20
71.2226
 11
8.89465
 21
71.0522
  0
LINE
  8
0
 10
8.89465
 20
71.0522
 11
8.95287
 21
70.873
  0
LINE
  8
0
 10
8.95287
 20
70.873
 11
8.98816
 21
70.688
  0
LINE
  8
0
 10
8.98816
 20
70.688
 11
9
 21
70.5
  0
LINE
  8
0
 10
9
 20
70.5
 11
8.98816
 21
70.312
  0
LINE
  8
0
 10
8.98816
 20
70.312
 11
8.95287
 21
70.127
  0
LINE
  8
0
 10
8.95287
 20
70.127
 11
8.89465
 21
69.9478
  0
LINE
  8
0
 10
8.89465
 20
69.9478
 11
8.81445
 21
69.7774
  0
LINE
  8
0
 10
8.81445
 20
69.7774
 11
8.71352
 21
69.6183
  0
LINE
  8
0
 10
8.71352
 20
69.6183
 11
8.59344
 21
69.4732
  0
LINE
  8
0
 10
8.59344
 20
69.4732
 11
8.45613
 21
69.3442
  0
LINE
  8
0
 10
8.45613
 20
69.3442
 11
8.30373
 21
69.2335
  0
LINE
  8
0
 10
8.30373
 20
69.2335
 11
8.13866
 21
69.1428
  0
LINE
  8
0
 10
8.13866
 20
69.1428
 11
7.96352
 21
69.0734
  0
LINE
  8
0
 10
7.96352
 20
69.0734
 11
7.78107
 21
69.0266
  0
LINE
  8
0
 10
7.78107
 20
69.0266
 11
7.59418
 21
69.003
  0
LINE
  8
0
 10
7.59418
 20
69.003
 11
7.40581
 21
69.003
  0
ENDSEC
  0
SECTION
  2
OBJECTS
  0
DICTIONARY
  0
ENDSEC
  0
EOF
